G04 ================== begin FILE IDENTIFICATION RECORD ==================*
G04 Layout Name:  LAY-27452_B.brd*
G04 Film Name:    L3_pwr_1.art*
G04 File Format:  Gerber RS274X*
G04 File Origin:  Cadence Allegro 16.3-S047*
G04 Origin Date:  Thu Oct 18 15:46:23 2012*
G04 *
G04 Layer:  VIA CLASS/L3_PWR_1*
G04 Layer:  PIN/L3_PWR_1*
G04 Layer:  ETCH/L3_PWR_1*
G04 Layer:  DRAWING FORMAT/FILM_TITLE_BLOCK*
G04 Layer:  BOARD GEOMETRY/OUTLINE*
G04 *
G04 Offset:    (0.00 0.00)*
G04 Mirror:    No*
G04 Mode:      Positive*
G04 Rotation:  0*
G04 FullContactRelief:  No*
G04 UndefLineWidth:     7.99*
G04 ================== end FILE IDENTIFICATION RECORD ====================*
%FSLAX55Y55*MOIN*%
%IR0*IPPOS*OFA0.00000B0.00000*MIA0B0*SFA1.00000B1.00000*%
%ADD13C,.01*%
%ADD15C,.02*%
%ADD26O,.226X.081*%
%ADD23C,.032*%
%ADD16C,.05*%
%ADD19C,.06*%
%ADD11C,.018*%
%ADD20C,.082*%
%ADD31C,.056*%
%ADD29O,.081X.199*%
%ADD27O,.199X.081*%
%ADD14C,.066*%
%ADD25C,.094*%
%ADD21C,.058*%
%ADD12C,.067*%
%ADD24C,.1*%
%ADD30O,.055X.042*%
%ADD10C,.22*%
%ADD17O,.042X.055*%
%ADD32O,.075X.043*%
%ADD18O,.043X.075*%
%ADD22C,.228*%
%ADD28C,.158*%
%ADD33C,.015*%
%ADD34C,.025*%
%ADD35C,.00799*%
%ADD36C,.008*%
%ADD37C,.00598*%
%ADD46C,.03004*%
%ADD64C,.08004*%
%ADD52C,.02604*%
%ADD51C,.09004*%
%ADD59C,.08204*%
%ADD53C,.09104*%
%ADD45C,.02804*%
%ADD47C,.08404*%
%ADD42C,.07063*%
%ADD48C,.07604*%
%ADD41C,.07064*%
%ADD60C,.06804*%
%ADD40C,.07407*%
%ADD39C,.09308*%
%ADD44C,.07329*%
%ADD43C,.09297*%
%ADD56O,.25002X.10502*%
%ADD55O,.22302X.10502*%
%ADD54O,.10504X.22304*%
%ADD63C,.11004*%
%ADD61C,.12404*%
%ADD58C,.10604*%
%ADD49C,.25204*%
%ADD62C,.11804*%
%ADD50C,.18204*%
%ADD57C,.16236*%
%ADD38O,.07902X.06602*%
G75*
%LPD*%
G75*
G36*
G01X9160Y-9300D02*
G02X8799Y-8454I0J500D01*
G03X-8454Y8799I-8799J8454D01*
G02X-9300Y9160I-346J361D01*
G01Y12265D01*
G02X-8669Y12747I500J0D01*
G03Y15453I369J1353D01*
G02X-9300Y15935I-131J482D01*
G01Y22265D01*
G02X-8669Y22747I500J0D01*
G03Y25453I369J1353D01*
G02X-9300Y25935I-131J482D01*
G01Y32265D01*
G02X-8669Y32747I500J0D01*
G03Y35453I369J1353D01*
G02X-9300Y35935I-131J482D01*
G01Y53795D01*
G02X-8642Y54270I500J0D01*
G03Y56930I442J1330D01*
G02X-9300Y57405I-158J475D01*
G01Y63795D01*
G02X-8642Y64270I500J0D01*
G03Y66930I442J1330D01*
G02X-9300Y67405I-158J475D01*
G01Y83795D01*
G02X-8642Y84270I500J0D01*
G03X-7003Y84870I442J1330D01*
G02X-6181Y84914I426J-261D01*
G03X-6267Y86500I1111J856D01*
G02X-7089Y86456I-426J261D01*
G03X-8642Y86930I-1110J-856D01*
G02X-9300Y87405I-158J475D01*
G01Y93795D01*
G02X-8642Y94270I500J0D01*
G03Y96930I442J1330D01*
G02X-9300Y97405I-158J475D01*
G01Y116432D01*
G02X-8616Y116896I500J-1D01*
G03Y119504I516J1304D01*
G02X-9300Y119968I-184J465D01*
G01Y128274D01*
G02X-8590Y128728I500J0D01*
G03Y131272I590J1272D01*
G02X-9300Y131726I-210J454D01*
G01Y145050D01*
X15350D01*
X15600Y144800D01*
Y135450D01*
X17600Y133450D01*
X33000D01*
X39250Y139700D01*
Y162400D01*
X46900Y170050D01*
X55800D01*
X55848Y170098D01*
X55901D01*
X56602Y170799D01*
Y177102D01*
X56800Y177300D01*
X72350D01*
X73000Y177950D01*
Y185222D01*
G02X73579Y185716I500J0D01*
G03Y188484I221J1384D01*
G02X73000Y188978I-79J494D01*
G01Y196000D01*
X72213Y196787D01*
X72252Y196927D01*
G03X71785Y198387I-1352J372D01*
G02X71890Y199228I316J388D01*
G03X71217Y201900I-589J1272D01*
G02X70698Y202502I-30J499D01*
G03X69409Y201392I-1372J290D01*
G02X69928Y200790I30J-499D01*
G03X70415Y199413I1372J-289D01*
G02X70310Y198572I-316J-388D01*
G03X69551Y197682I590J-1272D01*
G01X69499Y197500D01*
X64602D01*
Y202299D01*
X64702Y202399D01*
Y205799D01*
X65902Y206999D01*
Y209401D01*
X65775Y209529D01*
Y209650D01*
X64002Y211423D01*
Y232901D01*
X59701Y237202D01*
X36599D01*
X24699Y225302D01*
X-9300D01*
Y228795D01*
G02X-8642Y229270I500J0D01*
G03Y231930I442J1330D01*
G02X-9300Y232405I-158J475D01*
G01Y238795D01*
G02X-8642Y239270I500J0D01*
G03Y241930I442J1330D01*
G02X-9300Y242405I-158J475D01*
G01Y248795D01*
G02X-8642Y249270I500J0D01*
G03Y251930I442J1330D01*
G02X-9300Y252405I-158J475D01*
G01Y258795D01*
G02X-8642Y259270I500J0D01*
G03Y261930I442J1330D01*
G02X-9300Y262405I-158J475D01*
G01Y268795D01*
G02X-8642Y269270I500J0D01*
G03Y271930I442J1330D01*
G02X-9300Y272405I-158J475D01*
G01Y278795D01*
G02X-8642Y279270I500J0D01*
G03Y281930I442J1330D01*
G02X-9300Y282405I-158J475D01*
G01Y288795D01*
G02X-8642Y289270I500J0D01*
G03Y291930I442J1330D01*
G02X-9300Y292405I-158J475D01*
G01Y298795D01*
G02X-8642Y299270I500J0D01*
G03Y301930I442J1330D01*
G02X-9300Y302405I-158J475D01*
G01Y308795D01*
G02X-8642Y309270I500J0D01*
G03Y311930I442J1330D01*
G02X-9300Y312405I-158J475D01*
G01Y318795D01*
G02X-8642Y319270I500J0D01*
G03Y321930I442J1330D01*
G02X-9300Y322405I-158J475D01*
G01Y328795D01*
G02X-8642Y329270I500J0D01*
G03Y331930I442J1330D01*
G02X-9300Y332405I-158J475D01*
G01Y338795D01*
G02X-8642Y339270I500J0D01*
G03Y341930I442J1330D01*
G02X-9300Y342405I-158J475D01*
G01Y348795D01*
G02X-8642Y349270I500J0D01*
G03Y351930I442J1330D01*
G02X-9300Y352405I-158J475D01*
G01Y358795D01*
G02X-8642Y359270I500J0D01*
G03Y361930I442J1330D01*
G02X-9300Y362405I-158J475D01*
G01Y368795D01*
G02X-8642Y369270I500J0D01*
G03Y371930I442J1330D01*
G02X-9300Y372405I-158J475D01*
G01Y378795D01*
G02X-8642Y379270I500J0D01*
G03Y381930I442J1330D01*
G02X-9300Y382405I-158J475D01*
G01Y388795D01*
G02X-8642Y389270I500J0D01*
G03Y391930I442J1330D01*
G02X-9300Y392405I-158J475D01*
G01Y398795D01*
G02X-8642Y399270I500J0D01*
G03X-6798Y400589I442J1330D01*
G02X-6050Y401019I500J-4D01*
G03X8799Y420069I6050J10596D01*
G02X9160Y420915I361J346D01*
G01X12444D01*
G02X12932Y420306I0J-500D01*
G03X15668I1368J-306D01*
G02X16156Y420915I488J109D01*
G01X22444D01*
G02X22932Y420306I0J-500D01*
G03X24889Y418728I1368J-306D01*
G02X25598Y418274I209J-454D01*
G01Y368686D01*
G02X24752Y368325I-500J0D01*
G03Y366305I-972J-1010D01*
G02X25598Y365944I346J-361D01*
G01Y363190D01*
G02X25015Y362697I-500J0D01*
G03Y359933I-235J-1382D01*
G02X25598Y359440I83J-493D01*
G01Y252685D01*
X27485Y250798D01*
X38753D01*
G02X39164Y250014I0J-500D01*
G03X41636I1236J-853D01*
G02X42047Y250798I411J284D01*
G01X45115D01*
X47002Y252685D01*
Y260011D01*
X47008Y260037D01*
G03Y260639I-1370J301D01*
G01X47002Y260665D01*
Y283215D01*
X45115Y285102D01*
X38815D01*
X37302Y286615D01*
Y292591D01*
G02X37921Y293076I500J0D01*
G03Y295798I337J1361D01*
G02X37302Y296283I-119J485D01*
G01Y298522D01*
G02X37946Y299000I500J0D01*
G03X39453Y301212I407J1342D01*
G02X39491Y301875I392J310D01*
G01X47002Y309385D01*
Y338461D01*
G02X47690Y338924I500J0D01*
G03Y341706I566J1391D01*
G02X47002Y342169I-188J463D01*
G01Y406485D01*
X48615Y408098D01*
X67197D01*
G02X67685Y407486I1J-500D01*
G03X67600Y406746I3217J-744D01*
G01Y405446D01*
G03X69023Y402731I3302J0D01*
G02X68883Y401842I-285J-411D01*
G03X68911Y399150I407J-1342D01*
G02X69249Y398506I-135J-481D01*
G03X69533Y397112I1326J-456D01*
G02X69364Y396320I-371J-335D01*
G03X68752Y394276I566J-1283D01*
G02X68581Y393572I-420J-271D01*
G03X70458Y393117I699J-1216D01*
G02X70629Y393821I420J271D01*
G03X70972Y395975I-699J1216D01*
G02X71141Y396767I371J335D01*
G03X70954Y399400I-566J1283D01*
G02X70616Y400044I135J481D01*
G03X70409Y401345I-1326J456D01*
G02X70821Y402146I399J301D01*
G03X71549Y402209I81J3300D01*
G02X72142Y401644I98J-490D01*
G03X74674Y400627I1386J-210D01*
G02X75494Y400623I409J-288D01*
G03X77930Y400577I1235J855D01*
G02X78742Y400561I400J-300D01*
G03X81142Y400467I1235J854D01*
G02X81842Y400541I387J-316D01*
G03X81615Y402662I938J1173D01*
G02X80915Y402588I-387J316D01*
G03X78776Y402316I-938J-1173D01*
G02X77964Y402332I-400J300D01*
G03X75471Y402299I-1235J-854D01*
G02X74652Y402273I-419J273D01*
G03X73891Y402788I-1123J-840D01*
G02X73610Y403557I129J483D01*
G03X74204Y405446I-2707J1889D01*
G01Y406746D01*
G03X74119Y407486I-3302J-4D01*
G02X74607Y408098I487J112D01*
G01X84717D01*
G02X85205Y407486I1J-500D01*
G03X85120Y406746I3217J-744D01*
G01Y405446D01*
G03X91724I3302J0D01*
G01Y406746D01*
G03X91639Y407486I-3302J-4D01*
G02X92127Y408098I487J112D01*
G01X230685D01*
X233198Y405585D01*
Y402140D01*
G02X232260Y401899I-500J0D01*
G03Y398245I-3334J-1827D01*
G02X233198Y398004I438J-241D01*
G01Y392879D01*
G02X232297Y392580I-500J-1D01*
G03Y387564I-3371J-2508D01*
G02X233198Y387265I401J-298D01*
G01Y378015D01*
X219685Y364502D01*
X212299D01*
G02X211847Y365215I0J500D01*
G03X209623Y364790I-1267J600D01*
G02X209635Y364072I-342J-365D01*
G01X196110Y350546D01*
X196042Y350529D01*
G03X192971Y347458I1008J-4079D01*
G01X192954Y347390D01*
X187498Y341935D01*
Y340419D01*
G02X186736Y339993I-500J0D01*
G03Y337607I-736J-1193D01*
G02X187498Y337181I262J-426D01*
G01Y290285D01*
X192435Y285348D01*
X206735D01*
X209550Y282534D01*
G02X209469Y281761I-353J-354D01*
G03X209176Y278976I981J-1511D01*
G01X213798Y274354D01*
Y272754D01*
X220578Y265974D01*
Y262250D01*
X218254D01*
G03X215776I-1239J-850D01*
G01X210068D01*
X206715Y265602D01*
X184985D01*
X178671Y259287D01*
G02X177851Y259461I-353J354D01*
G03X176399Y257563I-1309J-503D01*
G02X176848Y257066I-51J-497D01*
G01Y255981D01*
G02X176392Y255483I-500J0D01*
G03Y252689I122J-1397D01*
G02X176848Y252191I-44J-498D01*
G01Y250567D01*
X176604Y250320D01*
X176511Y250313D01*
G03Y247517I104J-1398D01*
G01X176604Y247510D01*
X176848Y247263D01*
Y246148D01*
X176617Y245902D01*
X176527Y245891D01*
G03Y243109I173J-1391D01*
G01X176617Y243098D01*
X176848Y242852D01*
Y240770D01*
G02X176381Y240271I-500J0D01*
G03Y237473I91J-1399D01*
G02X176848Y236974I-33J-499D01*
G01Y235842D01*
G02X176402Y235345I-500J0D01*
G03X175551Y232968I149J-1394D01*
G02X175548Y232264I-357J-350D01*
G01X174798Y231515D01*
Y225874D01*
G02X174024Y225456I-500J0D01*
G03Y222944I-824J-1256D01*
G02X174798Y222526I274J-418D01*
G01Y178680D01*
X175782Y177696D01*
G02X175553Y176858I-353J-354D01*
G03X176160Y174122I347J-1358D01*
G02X176751Y173597I92J-491D01*
G03X179464Y173012I1399J-97D01*
G02X180287Y173192I469J-173D01*
G01X181564Y171914D01*
X181554Y171797D01*
G03X183075Y170276I1396J-125D01*
G01X183192Y170286D01*
X187167Y166311D01*
X187155Y166193D01*
G03X188693Y164655I1395J-143D01*
G01X188811Y164667D01*
X194779Y158700D01*
G02X194734Y157953I-353J-354D01*
G03X196703Y155984I866J-1103D01*
G02X197450Y156029I393J-308D01*
G01X204124Y149354D01*
G02X203752Y148501I-353J-354D01*
G03X204900Y147824I-52J-1401D01*
G01X204794Y148000D01*
X205153Y148325D01*
X205480Y147998D01*
X251502D01*
Y148016D01*
X270205D01*
G02X270659Y147306I0J-500D01*
G03X273201I1271J-591D01*
G02X273655Y148016I454J210D01*
G01X335533D01*
X342102Y154585D01*
Y224215D01*
X335325Y230992D01*
X294372D01*
G02X293905Y231669I0J500D01*
G03X291283I-1311J498D01*
G02X290816Y230992I-467J-177D01*
G01X288687D01*
G02X288247Y231728I0J500D01*
G03X285777I-1235J664D01*
G02X285337Y230992I-440J-236D01*
G01X285227D01*
G02X284810Y231766I1J500D01*
G03X282466I-1172J770D01*
G02X282049Y230992I-418J-274D01*
G01X259164D01*
Y233667D01*
X259166Y233668D01*
Y234467D01*
X260597Y235898D01*
X260599D01*
X265778Y241077D01*
Y248432D01*
X265780Y248434D01*
Y249915D01*
G02X266307Y250414I500J0D01*
G03X266385Y253216I76J1400D01*
G02X265886Y253716I1J500D01*
G01Y254934D01*
X270702Y259750D01*
Y285250D01*
G03X267098I-1802J0D01*
G01Y271686D01*
G02X266533Y271190I-500J0D01*
G03Y268410I-183J-1390D01*
G02X267098Y267914I65J-496D01*
G01Y261242D01*
X262282Y256426D01*
Y254068D01*
G02X261783Y253568I-500J0D01*
G03X261705Y250766I0J-1402D01*
G02X262176Y250267I-29J-499D01*
G01Y249926D01*
X262174Y249924D01*
Y242569D01*
X259107Y239502D01*
X259105D01*
X255562Y235959D01*
Y232446D01*
X255560Y232445D01*
Y228046D01*
X251254Y223739D01*
G02X250400Y224093I-354J353D01*
G01Y225645D01*
G03X248013Y226899I-1014J968D01*
G01X247972Y226700D01*
X245348D01*
X244602Y227446D01*
Y243315D01*
X245540Y244254D01*
Y244754D01*
G02X246161Y245240I500J1D01*
G03Y247960I339J1360D01*
G02X245540Y248446I-121J485D01*
G01Y251893D01*
X253902Y260254D01*
Y276604D01*
X256082Y278784D01*
Y309689D01*
G02X256923Y310054I500J0D01*
G03X259054Y310131I1027J1096D01*
G02X259757Y310162I367J-339D01*
G03X259720Y312203I943J1038D01*
G02X259016Y312208I-349J357D01*
G03X256563Y311727I-1066J-1058D01*
G01X256499Y311573D01*
X256082D01*
Y312166D01*
X251102Y317146D01*
Y317845D01*
G03X251257Y317995I-895J1080D01*
G01X251339Y318088D01*
X251748Y318057D01*
X251815Y317951D01*
G03X253051Y320101I1185J749D01*
G02X252604Y320785I18J500D01*
G03X251007Y322671I-1304J515D01*
G01X250874Y322643D01*
X250202Y323315D01*
Y332085D01*
X250302Y332185D01*
Y333785D01*
X251815Y335298D01*
X326885D01*
X337217Y324967D01*
G02X336894Y324114I-354J-354D01*
G03X338379Y322629I86J-1399D01*
G02X339232Y322952I499J-31D01*
G01X365485Y296698D01*
X443144D01*
G02X443527Y295878I-1J-500D01*
G03X445833I1153J-963D01*
G02X446216Y296698I384J320D01*
G01X446944D01*
G02X447327Y295878I-1J-500D01*
G03X449691Y295803I1153J-963D01*
G02X450095Y296598I404J295D01*
G01X485300D01*
Y289335D01*
G02X484682Y288849I-500J0D01*
G03X483892Y288944I-792J-3257D01*
G01X480692D01*
G03Y282240I0J-3352D01*
G01X483892D01*
G03X484682Y282335I-2J3352D01*
G02X485300Y281849I118J-486D01*
G01Y256461D01*
G02X484682Y255975I-500J0D01*
G03X483892Y256070I-792J-3257D01*
G01X480692D01*
G03Y249366I0J-3352D01*
G01X483892D01*
G03X484682Y249461I-2J3352D01*
G02X485300Y248975I118J-486D01*
G01Y241205D01*
G02X484642Y240730I-500J0D01*
G03Y238070I-442J-1330D01*
G02X485300Y237595I158J-475D01*
G01Y231205D01*
G02X484642Y230730I-500J0D01*
G03Y228070I-442J-1330D01*
G02X485300Y227595I158J-475D01*
G01Y221205D01*
G02X484642Y220730I-500J0D01*
G03Y218070I-442J-1330D01*
G02X485300Y217595I158J-475D01*
G01Y211205D01*
G02X484642Y210730I-500J0D01*
G03Y208070I-442J-1330D01*
G02X485300Y207595I158J-475D01*
G01Y201205D01*
G02X484642Y200730I-500J0D01*
G03Y198070I-442J-1330D01*
G02X485300Y197595I158J-475D01*
G01Y191205D01*
G02X484642Y190730I-500J0D01*
G03Y188070I-442J-1330D01*
G02X485300Y187595I158J-475D01*
G01Y181205D01*
G02X484642Y180730I-500J0D01*
G03Y178070I-442J-1330D01*
G02X485300Y177595I158J-475D01*
G01Y171205D01*
G02X484642Y170730I-500J0D01*
G03Y168070I-442J-1330D01*
G02X485300Y167595I158J-475D01*
G01Y161205D01*
G02X484642Y160730I-500J0D01*
G03Y158070I-442J-1330D01*
G02X485300Y157595I158J-475D01*
G01Y126205D01*
G02X484642Y125730I-500J0D01*
G03Y123070I-442J-1330D01*
G02X485300Y122595I158J-475D01*
G01Y116205D01*
G02X484642Y115730I-500J0D01*
G03Y113070I-442J-1330D01*
G02X485300Y112595I158J-475D01*
G01Y106205D01*
G02X484642Y105730I-500J0D01*
G03Y103070I-442J-1330D01*
G02X485300Y102595I158J-475D01*
G01Y96205D01*
G02X484642Y95730I-500J0D01*
G03Y93070I-442J-1330D01*
G02X485300Y92595I158J-475D01*
G01Y86205D01*
G02X484642Y85730I-500J0D01*
G03Y83070I-442J-1330D01*
G02X485300Y82595I158J-475D01*
G01Y76205D01*
G02X484642Y75730I-500J0D01*
G03Y73070I-442J-1330D01*
G02X485300Y72595I158J-475D01*
G01Y66205D01*
G02X484642Y65730I-500J0D01*
G03Y63070I-442J-1330D01*
G02X485300Y62595I158J-475D01*
G01Y56205D01*
G02X484642Y55730I-500J0D01*
G03Y53070I-442J-1330D01*
G02X485300Y52595I158J-475D01*
G01Y46205D01*
G02X484642Y45730I-500J0D01*
G03Y43070I-442J-1330D01*
G02X485300Y42595I158J-475D01*
G01Y13676D01*
G02X484563Y13235I-500J-1D01*
G03Y10765I-663J-1235D01*
G02X485300Y10324I237J-440D01*
G01Y9160D01*
G02X484454Y8799I-500J0D01*
G03X465321Y-5902I-8453J-8799D01*
G02X464993Y-6632I-438J-242D01*
G03X464028Y-8590I307J-1368D01*
G02X463574Y-9300I-454J-210D01*
G01X457026D01*
G02X456572Y-8590I0J500D01*
G03X454028I-1272J590D01*
G02X453574Y-9300I-454J-210D01*
G01X447026D01*
G02X446572Y-8590I0J500D01*
G03X444028I-1272J590D01*
G02X443574Y-9300I-454J-210D01*
G01X437026D01*
G02X436572Y-8590I0J500D01*
G03X434028I-1272J590D01*
G02X433574Y-9300I-454J-210D01*
G01X427026D01*
G02X426572Y-8590I0J500D01*
G03X424028I-1272J590D01*
G02X423574Y-9300I-454J-210D01*
G01X417026D01*
G02X416572Y-8590I0J500D01*
G03X414028I-1272J590D01*
G02X413574Y-9300I-454J-210D01*
G01X407026D01*
G02X406572Y-8590I0J500D01*
G03X404028I-1272J590D01*
G02X403574Y-9300I-454J-210D01*
G01X397026D01*
G02X396572Y-8590I0J500D01*
G03X394028I-1272J590D01*
G02X393574Y-9300I-454J-210D01*
G01X387026D01*
G02X386572Y-8590I0J500D01*
G03X384028I-1272J590D01*
G02X383574Y-9300I-454J-210D01*
G01X377026D01*
G02X376572Y-8590I0J500D01*
G03X374028I-1272J590D01*
G02X373574Y-9300I-454J-210D01*
G01X367026D01*
G02X366572Y-8590I0J500D01*
G03X364028I-1272J590D01*
G02X363574Y-9300I-454J-210D01*
G01X354976D01*
G02X354535Y-8563I-1J500D01*
G03X352065I-1235J663D01*
G02X351624Y-9300I-440J-237D01*
G01X347026D01*
G02X346572Y-8590I0J500D01*
G03X344028I-1272J590D01*
G02X343574Y-9300I-454J-210D01*
G01X332026D01*
G02X331572Y-8590I0J500D01*
G03X329028I-1272J590D01*
G02X328574Y-9300I-454J-210D01*
G01X188835D01*
G02X188353Y-8669I0J500D01*
G03X185647I-1353J369D01*
G02X185165Y-9300I-482J-131D01*
G01X173835D01*
G02X173353Y-8669I0J500D01*
G03X170647I-1353J369D01*
G02X170165Y-9300I-482J-131D01*
G01X163835D01*
G02X163353Y-8669I0J500D01*
G03X160647I-1353J369D01*
G02X160165Y-9300I-482J-131D01*
G01X143835D01*
G02X143353Y-8669I0J500D01*
G03X140647I-1353J369D01*
G02X140165Y-9300I-482J-131D01*
G01X130326D01*
G02X129872Y-8590I0J500D01*
G03X127328I-1272J590D01*
G02X126874Y-9300I-454J-210D01*
G01X117468D01*
G02X117004Y-8616I1J500D01*
G03X114396I-1304J516D01*
G02X113932Y-9300I-465J-184D01*
G01X108005D01*
G02X107530Y-8642I0J500D01*
G03X104870I-1330J442D01*
G02X104395Y-9300I-475J-158D01*
G01X89826D01*
G02X89372Y-8590I0J500D01*
G03X86828I-1272J590D01*
G02X86374Y-9300I-454J-210D01*
G01X79076D01*
G02X78635Y-8563I-1J500D01*
G03X76165I-1235J663D01*
G02X75724Y-9300I-440J-237D01*
G01X69426D01*
G02X68972Y-8590I0J500D01*
G03X66428I-1272J590D01*
G02X65974Y-9300I-454J-210D01*
G01X57076D01*
G02X56635Y-8563I-1J500D01*
G03X54165I-1235J663D01*
G02X53724Y-9300I-440J-237D01*
G01X37826D01*
G02X37372Y-8590I0J500D01*
G03X34828I-1272J590D01*
G02X34374Y-9300I-454J-210D01*
G01X30726D01*
G02X30272Y-8590I0J500D01*
G03X27728I-1272J590D01*
G02X27274Y-9300I-454J-210D01*
G01X23378D01*
G02X22884Y-8721I0J500D01*
G03X20116I-1384J221D01*
G02X19622Y-9300I-494J-79D01*
G01X13835D01*
G02X13353Y-8669I0J500D01*
G03X10647I-1353J369D01*
G02X10165Y-9300I-482J-131D01*
G01X9160D01*
G37*
G36*
G01X71450Y178550D02*
X71194Y178806D01*
X71200Y178918D01*
G03X68400Y178926I-1400J81D01*
G02X67901Y178400I-499J-26D01*
G01X56602D01*
Y180299D01*
X58702Y182399D01*
Y194599D01*
X58901Y194798D01*
X59301D01*
X59402Y194899D01*
Y195502D01*
X58299D01*
X57698Y194901D01*
Y184419D01*
G02X56935Y183994I-500J0D01*
G03X55643Y181513I-734J-1195D01*
G02X55798Y180701I-199J-459D01*
G01X55598Y180501D01*
Y171601D01*
X55346Y171350D01*
X45900D01*
X37500Y162950D01*
Y140500D01*
X32000Y135000D01*
X18350D01*
X17400Y135950D01*
Y145600D01*
X16400Y146600D01*
X16350Y146550D01*
X-9250D01*
Y159249D01*
G02X-8590Y159722I500J-1D01*
G03Y162378I450J1328D01*
G02X-9250Y162851I-160J474D01*
G01Y178151D01*
G02X-8405Y178513I500J0D01*
G03Y185109I3137J3298D01*
G02X-9250Y185471I-345J362D01*
G01Y186079D01*
G02X-8605Y186558I500J0D01*
G03Y189242I405J1342D01*
G02X-9250Y189721I-145J479D01*
G01Y193013D01*
G02X-8579Y193482I500J-1D01*
G03Y196118I479J1318D01*
G02X-9250Y196587I-171J470D01*
G01Y198425D01*
G02X-8332Y198699I500J0D01*
G03Y202718I3064J2009D01*
G02X-9250Y202992I-418J274D01*
G01Y204352D01*
G02X-8632Y204838I500J0D01*
G03Y207562I332J1362D01*
G02X-9250Y208048I-118J486D01*
G01Y211152D01*
G02X-8553Y211612I500J0D01*
G03X-6659Y213310I553J1288D01*
G02X-6091Y213948I478J146D01*
G03X-6141Y222892I823J4477D01*
G02X-6727Y223282I-96J491D01*
G03X-6782Y223479I-1374J-277D01*
G02X-6313Y224150I470J171D01*
G01X25000D01*
X25048Y224198D01*
X25165D01*
X37016Y236050D01*
X59200D01*
X62700Y232550D01*
Y219550D01*
X62650Y219500D01*
X56369D01*
G02X56104Y220424I0J500D01*
G03X55825Y226855I-1967J3136D01*
G02Y227745I227J445D01*
G03X52449I-1688J3295D01*
G02Y226855I-227J-445D01*
G03X52170Y220424I1688J-3295D01*
G02X51905Y219500I-265J-424D01*
G01X49000D01*
X48950Y219450D01*
Y216806D01*
G02X48221Y216362I-500J0D01*
G03Y213868I-641J-1247D01*
G02X48950Y213424I229J-444D01*
G01Y208400D01*
X48998Y208352D01*
Y208185D01*
X60485Y196698D01*
X60652D01*
X60750Y196600D01*
X63448D01*
Y196498D01*
X69750D01*
G03X71333Y195967I1150J802D01*
G01X71750Y195550D01*
Y178850D01*
X71450Y178550D01*
G37*
G36*
G01X27900Y251800D02*
X26600Y253100D01*
Y418900D01*
X28215Y420515D01*
X32398D01*
G02X32898Y420011I0J-500D01*
G03X35702I1402J-11D01*
G02X36202Y420515I500J4D01*
G01X42398D01*
G02X42898Y420011I0J-500D01*
G03X45702I1402J-11D01*
G02X46202Y420515I500J4D01*
G01X52398D01*
G02X52898Y420011I0J-500D01*
G03X55702I1402J-11D01*
G02X56202Y420515I500J4D01*
G01X59407D01*
G02X59903Y419949I0J-500D01*
G03X59874Y419507I3322J-440D01*
G01Y416307D01*
G03X66576I3351J0D01*
G01Y419507D01*
G03X66547Y419949I-3351J2D01*
G02X67043Y420515I496J66D01*
G01X92281D01*
G02X92777Y419949I0J-500D01*
G03X92748Y419507I3322J-440D01*
G01Y416307D01*
G03X99450I3351J0D01*
G01Y419507D01*
G03X99421Y419949I-3351J2D01*
G02X99917Y420515I496J66D01*
G01X102398D01*
G02X102898Y420011I0J-500D01*
G03X105702I1402J-11D01*
G02X106202Y420515I500J4D01*
G01X112398D01*
G02X112898Y420011I0J-500D01*
G03X115702I1402J-11D01*
G02X116202Y420515I500J4D01*
G01X122398D01*
G02X122898Y420011I0J-500D01*
G03X125702I1402J-11D01*
G02X126202Y420515I500J4D01*
G01X132398D01*
G02X132898Y420011I0J-500D01*
G03X135702I1402J-11D01*
G02X136202Y420515I500J4D01*
G01X142398D01*
G02X142898Y420011I0J-500D01*
G03X145702I1402J-11D01*
G02X146202Y420515I500J4D01*
G01X152398D01*
G02X152898Y420011I0J-500D01*
G03X155702I1402J-11D01*
G02X156202Y420515I500J4D01*
G01X162398D01*
G02X162898Y420011I0J-500D01*
G03X165702I1402J-11D01*
G02X166202Y420515I500J4D01*
G01X172398D01*
G02X172898Y420011I0J-500D01*
G03X175702I1402J-11D01*
G02X176202Y420515I500J4D01*
G01X182398D01*
G02X182898Y420011I0J-500D01*
G03X185702I1402J-11D01*
G02X186202Y420515I500J4D01*
G01X192398D01*
G02X192898Y420011I0J-500D01*
G03X195702I1402J-11D01*
G02X196202Y420515I500J4D01*
G01X202398D01*
G02X202898Y420011I0J-500D01*
G03X205702I1402J-11D01*
G02X206202Y420515I500J4D01*
G01X212398D01*
G02X212898Y420011I0J-500D01*
G03X215702I1402J-11D01*
G02X216202Y420515I500J4D01*
G01X222398D01*
G02X222898Y420011I0J-500D01*
G03X225702I1402J-11D01*
G02X226202Y420515I500J4D01*
G01X232398D01*
G02X232898Y420011I0J-500D01*
G03X235702I1402J-11D01*
G02X236202Y420515I500J4D01*
G01X242398D01*
G02X242898Y420011I0J-500D01*
G03X245702I1402J-11D01*
G02X246202Y420515I500J4D01*
G01X252398D01*
G02X252898Y420011I0J-500D01*
G03X255702I1402J-11D01*
G02X256202Y420515I500J4D01*
G01X262398D01*
G02X262898Y420011I0J-500D01*
G03X265702I1402J-11D01*
G02X266202Y420515I500J4D01*
G01X272398D01*
G02X272898Y420011I0J-500D01*
G03X275702I1402J-11D01*
G02X276202Y420515I500J4D01*
G01X282398D01*
G02X282898Y420011I0J-500D01*
G03X285702I1402J-11D01*
G02X286202Y420515I500J4D01*
G01X292398D01*
G02X292898Y420011I0J-500D01*
G03X295702I1402J-11D01*
G02X296202Y420515I500J4D01*
G01X302398D01*
G02X302898Y420011I0J-500D01*
G03X305702I1402J-11D01*
G02X306202Y420515I500J4D01*
G01X312398D01*
G02X312898Y420011I0J-500D01*
G03X315702I1402J-11D01*
G02X316202Y420515I500J4D01*
G01X322398D01*
G02X322898Y420011I0J-500D01*
G03X325702I1402J-11D01*
G02X326202Y420515I500J4D01*
G01X332398D01*
G02X332898Y420011I0J-500D01*
G03X335702I1402J-11D01*
G02X336202Y420515I500J4D01*
G01X342398D01*
G02X342898Y420011I0J-500D01*
G03X345702I1402J-11D01*
G02X346202Y420515I500J4D01*
G01X352398D01*
G02X352898Y420011I0J-500D01*
G03X355702I1402J-11D01*
G02X356202Y420515I500J4D01*
G01X362398D01*
G02X362898Y420011I0J-500D01*
G03X365702I1402J-11D01*
G02X366202Y420515I500J4D01*
G01X372398D01*
G02X372898Y420011I0J-500D01*
G03X375702I1402J-11D01*
G02X376202Y420515I500J4D01*
G01X382398D01*
G02X382898Y420011I0J-500D01*
G03X385702I1402J-11D01*
G02X386202Y420515I500J4D01*
G01X392398D01*
G02X392898Y420011I0J-500D01*
G03X395702I1402J-11D01*
G02X396202Y420515I500J4D01*
G01X402398D01*
G02X402898Y420011I0J-500D01*
G03X405702I1402J-11D01*
G02X406202Y420515I500J4D01*
G01X412398D01*
G02X412898Y420011I0J-500D01*
G03X415702I1402J-11D01*
G02X416202Y420515I500J4D01*
G01X422398D01*
G02X422898Y420011I0J-500D01*
G03X425702I1402J-11D01*
G02X426202Y420515I500J4D01*
G01X432398D01*
G02X432898Y420011I0J-500D01*
G03X435702I1402J-11D01*
G02X436202Y420515I500J4D01*
G01X442398D01*
G02X442898Y420011I0J-500D01*
G03X445702I1402J-11D01*
G02X446202Y420515I500J4D01*
G01X452398D01*
G02X452898Y420011I0J-500D01*
G03X455702I1402J-11D01*
G02X456202Y420515I500J4D01*
G01X462398D01*
G02X462898Y420011I0J-500D01*
G03X465702I1402J-11D01*
G02X466202Y420515I500J4D01*
G01X466472D01*
G02X466847Y419684I0J-500D01*
G03X484627Y402985I9153J-8069D01*
G02X485480Y402632I353J-354D01*
G01Y401135D01*
G02X484775Y400679I-500J0D01*
G03Y398121I-575J-1279D01*
G02X485480Y397665I205J-456D01*
G01Y391135D01*
G02X484775Y390679I-500J0D01*
G03Y388121I-575J-1279D01*
G02X485480Y387665I205J-456D01*
G01Y381135D01*
G02X484775Y380679I-500J0D01*
G03Y378121I-575J-1279D01*
G02X485480Y377665I205J-456D01*
G01Y371135D01*
G02X484775Y370679I-500J0D01*
G03Y368121I-575J-1279D01*
G02X485480Y367665I205J-456D01*
G01Y361135D01*
G02X484775Y360679I-500J0D01*
G03Y358121I-575J-1279D01*
G02X485480Y357665I205J-456D01*
G01Y351135D01*
G02X484775Y350679I-500J0D01*
G03Y348121I-575J-1279D01*
G02X485480Y347665I205J-456D01*
G01Y341135D01*
G02X484775Y340679I-500J0D01*
G03Y338121I-575J-1279D01*
G02X485480Y337665I205J-456D01*
G01Y331135D01*
G02X484775Y330679I-500J0D01*
G03Y328121I-575J-1279D01*
G02X485480Y327665I205J-456D01*
G01Y321135D01*
G02X484775Y320679I-500J0D01*
G03Y318121I-575J-1279D01*
G02X485480Y317665I205J-456D01*
G01Y311135D01*
G02X484775Y310679I-500J0D01*
G03Y308121I-575J-1279D01*
G02X485480Y307665I205J-456D01*
G01Y301135D01*
G02X484775Y300679I-500J0D01*
G03X483177Y298442I-575J-1279D01*
G02X482812Y297600I-365J-342D01*
G01X459673D01*
G02X459265Y298389I0J500D01*
G03X456813I-1226J867D01*
G02X456405Y297600I-408J-289D01*
G01X448300D01*
X448200Y297700D01*
X365900D01*
X327300Y336300D01*
X251400D01*
X249300Y334200D01*
Y332600D01*
X249200Y332500D01*
Y322900D01*
X250083Y322017D01*
X250015Y321861D01*
G03X249972Y320849I1285J-562D01*
G02X249684Y320224I-473J-161D01*
G03X249015Y319665I520J-1302D01*
G01X249000Y319641D01*
X248803Y319444D01*
X248596Y319652D01*
X247500D01*
G02X247020Y320293I-1J500D01*
G03X244506Y321771I-1440J428D01*
G02X243747Y321823I-357J349D01*
G03X240845Y321813I-1447J-1073D01*
G02X240155Y321698I-404J295D01*
G03X239828Y319232I-805J-1148D01*
G02X240498Y318762I170J-470D01*
G01Y318754D01*
X243204Y316048D01*
X243898D01*
G02X244398Y315549I0J-500D01*
G03X245136Y314315I1402J1D01*
G02X245215Y313487I-237J-440D01*
G03X246764Y313635I885J-1087D01*
G02X246685Y314463I237J440D01*
G03X247109Y315048I-885J1087D01*
G02X247930Y315223I467J-179D01*
G01X252000Y311152D01*
Y280000D01*
X250600Y278600D01*
Y278398D01*
X250298Y278096D01*
Y275569D01*
G02X249615Y275104I-500J0D01*
G03Y272496I-515J-1304D01*
G02X250298Y272031I183J-465D01*
G01Y271653D01*
G02X249905Y271448I-250J0D01*
G03X247898Y271021I-805J-1148D01*
G01X247825Y270900D01*
X242900D01*
X242702Y270702D01*
X225898D01*
X219652Y276948D01*
X219710Y277100D01*
G03X217900Y278910I-1310J500D01*
G01X217748Y278852D01*
X217350Y279250D01*
X214250D01*
X207150Y286350D01*
X192850D01*
X188500Y290700D01*
Y341520D01*
X192251Y345271D01*
G02X193077Y345081I354J-353D01*
G03X198419Y350423I3973J1369D01*
G02X198229Y351249I163J472D01*
G01X210480Y363500D01*
X220100D01*
X234200Y377600D01*
Y406000D01*
X231100Y409100D01*
X90737D01*
G03X86107I-2315J-2354D01*
G01X73217D01*
G03X68587I-2315J-2354D01*
G01X48200D01*
X46000Y406900D01*
Y381607D01*
G02X45449Y381110I-500J0D01*
G03Y378320I-145J-1395D01*
G02X46000Y377823I51J-497D01*
G01Y342704D01*
G02X45442Y342208I-500J0D01*
G03Y339422I-162J-1393D01*
G02X46000Y338926I58J-496D01*
G01Y309800D01*
X37853Y301653D01*
X37808Y301634D01*
G03X37061Y300887I545J-1292D01*
G01X37042Y300842D01*
X36300Y300100D01*
Y286200D01*
X38300Y284200D01*
Y284100D01*
X41760D01*
G02X42112Y283245I0J-500D01*
G03X44088I988J-995D01*
G02X44440Y284100I352J355D01*
G01X44700D01*
X46000Y282800D01*
Y262235D01*
G02X45536Y261736I-500J0D01*
G03Y258940I102J-1398D01*
G02X46000Y258441I-36J-499D01*
G01Y253100D01*
X44700Y251800D01*
X27900D01*
G37*
G36*
G01X60900Y197700D02*
X50000Y208600D01*
Y218200D01*
X62700D01*
Y211000D01*
X63621Y210079D01*
G02X63407Y209246I-354J-353D01*
G03X63418Y206551I393J-1346D01*
G01X63600Y206500D01*
Y197900D01*
X63400Y197700D01*
X60900D01*
G37*
G36*
G01X205895Y149000D02*
X199915Y154980D01*
G02X199935Y155706I354J354D01*
G03X197956Y157685I-935J1044D01*
G02X197230Y157665I-372J334D01*
G01X189687Y165208D01*
X189778Y165373D01*
G03X187873Y167278I-1228J677D01*
G01X187708Y167187D01*
X184078Y170817D01*
X184171Y170983D01*
G03X184244Y171133I-1222J687D01*
G02X184706I231J-96D01*
G03X184876Y172510I1294J539D01*
G02X184074I-401J299D01*
G03X182261Y172893I-1124J-838D01*
G01X182095Y172800D01*
X175800Y179095D01*
Y216974D01*
G02X176510Y217428I500J0D01*
G03Y219972I590J1272D01*
G02X175800Y220426I-210J454D01*
G01Y222208D01*
G02X176350Y222706I500J0D01*
G03Y225694I150J1494D01*
G02X175800Y226192I-50J498D01*
G01Y231100D01*
X177850Y233150D01*
Y233422D01*
X177866Y233464D01*
G03Y234438I-1315J487D01*
G01X177850Y234480D01*
Y238613D01*
X177854Y238634D01*
G03Y239110I-1382J238D01*
G01X177850Y239131D01*
Y243698D01*
G03Y245302I-1150J802D01*
G01Y248249D01*
X177875Y248301D01*
G03Y249529I-1260J614D01*
G01X177850Y249581D01*
Y253659D01*
X177860Y253694D01*
G03Y254478I-1346J392D01*
G01X177850Y254513D01*
Y257050D01*
X183937Y263137D01*
G02X184675Y263103I354J-353D01*
G03X187153Y264074I1078J897D01*
G02X187652Y264600I499J26D01*
G01X206300D01*
X209850Y261050D01*
Y252370D01*
X209740Y252260D01*
Y250060D01*
X204180Y244500D01*
Y227500D01*
X204090Y227410D01*
Y226090D01*
X202592Y224592D01*
G02X201882Y224596I-353J354D01*
G03X201632Y222432I-1002J-981D01*
G02X202400Y222010I268J-422D01*
G01Y220415D01*
G03X202209Y220283I699J-1216D01*
G02X201447Y220441I-317J386D01*
G03X199196Y220778I-1247J-641D01*
G02X198513Y220747I-358J349D01*
G03X198606Y218703I-911J-1066D01*
G02X199289Y218734I358J-349D01*
G03X201091Y218717I911J1066D01*
G02X201853Y218559I317J-386D01*
G03X202400Y217985I1247J641D01*
G01Y216100D01*
X204180Y214320D01*
Y192015D01*
X218180Y178015D01*
X223346D01*
G03X223429Y177952I828J1005D01*
G02X223414Y177125I-289J-408D01*
G03X225066Y175133I714J-1089D01*
G02X225417Y175142I180J-174D01*
G03X227460Y175484I891J949D01*
G02X227795Y175590I221J-117D01*
G03X229331Y175853I592J1159D01*
G02X229688Y175859I181J-172D01*
G03X230425Y175498I912J929D01*
G01X230509Y175486D01*
X233042Y172953D01*
X233018Y172823D01*
G03X233114Y172042I1280J-239D01*
G02X232962Y171436I-455J-208D01*
G03X234686Y169495I787J-1037D01*
G02X235041Y169499I179J-174D01*
G03X237107Y171033I914J928D01*
G02X237209Y171370I221J117D01*
G03X237531Y171615I-618J1146D01*
G01X239944D01*
G02X240404Y170919I0J-500D01*
G03X242521Y169488I1198J-509D01*
G02X242872Y169490I177J-177D01*
G03X244944Y171008I910J931D01*
G02X245057Y171345I223J113D01*
G03X245291Y173530I-577J1167D01*
G02X245150Y174133I312J391D01*
G03X245123Y175289I-1180J551D01*
G02X245225Y175625I221J116D01*
G03X243772Y177770I-620J1145D01*
G02X243153Y177753I-320J384D01*
G03X241441Y177615I-777J-1044D01*
G01X240580D01*
X239105Y179090D01*
Y180990D01*
X240155Y182040D01*
Y183940D01*
X240580Y184365D01*
X243789D01*
X243810Y184344D01*
Y182094D01*
X246544Y179360D01*
X250031D01*
G03X250567Y179476I-1J1302D01*
G01X250616Y179498D01*
X251558D01*
X251614Y179468D01*
G03X252846I616J1147D01*
G01X252902Y179498D01*
X254298D01*
X254528Y179267D01*
Y170297D01*
X252578Y168347D01*
Y167847D01*
X250778Y166047D01*
Y164998D01*
X250500Y164720D01*
Y149000D01*
X205895D01*
G37*
G36*
G01X244780Y186077D02*
Y185815D01*
X245378Y185217D01*
Y184654D01*
G02X244952Y184477I-250J0D01*
G01X244262Y185166D01*
X240248D01*
X239354Y184272D01*
Y182372D01*
X238304Y181322D01*
Y180216D01*
X235353D01*
Y180468D01*
G03X233945Y181772I-1302J6D01*
G02X233815Y182245I-20J249D01*
G03X234069Y182408I-572J1170D01*
G02X234386I159J-193D01*
G03X236038I826J1007D01*
G02X236354I158J-193D01*
G03Y184422I826J1007D01*
G02X236038I-158J193D01*
G03X234386I-826J-1007D01*
G02X234069I-158J193D01*
G03X232384Y184393I-825J-1007D01*
G02X231616Y184527I-330J376D01*
G03X231387Y184827I-1139J-632D01*
G02X231383Y185181I175J179D01*
G03X230393Y187395I-928J913D01*
G02X230132Y187644I-11J249D01*
G01Y187680D01*
X227995Y189816D01*
X215895D01*
X214082Y191630D01*
Y219029D01*
X214100Y219074D01*
G03Y220126I-1300J526D01*
G01X214082Y220171D01*
Y242635D01*
X211950Y244766D01*
Y244850D01*
X210850Y245950D01*
Y261250D01*
X215507D01*
X215553Y261057D01*
G03X218477I1462J343D01*
G01X218523Y261250D01*
X220578D01*
Y238504D01*
X221150Y237932D01*
Y236750D01*
X220425D01*
G03X219911Y234517I-1045J-935D01*
G02X220600Y234055I189J-463D01*
G01Y227745D01*
G02X220373Y227496I-250J0D01*
G03X219365Y226923I127J-1396D01*
G02X218642Y226831I-405J294D01*
G03X218885Y224927I-892J-1081D01*
G02X219608Y225019I405J-294D01*
G03X219823Y224872I895J1079D01*
G01X219854Y224855D01*
X220056Y224653D01*
X219878Y224476D01*
Y224298D01*
X219580Y224000D01*
Y214717D01*
G02X219052Y214218I-500J0D01*
G03X219333Y211665I-74J-1300D01*
G01X219475Y211705D01*
X219878Y211302D01*
Y210876D01*
X222655Y208100D01*
X222657D01*
X223360Y207396D01*
X223784D01*
X224356Y206824D01*
X224361Y206729D01*
G03X225901Y205518I1300J69D01*
G02X226452Y205226I93J-491D01*
G03X228760Y205071I1194J519D01*
G02X229541Y205165I427J-259D01*
G01X230768Y203938D01*
Y203445D01*
X230561Y203409D01*
G03X230211Y203297I218J-1283D01*
G02X229601Y203437I-218J450D01*
G03X227543Y203416I-1021J-808D01*
G02X226917Y203273I-398J302D01*
G03X225551Y203162I-593J-1159D01*
G02X225203Y203212I-149J201D01*
G03X223249Y201500I-1037J-788D01*
G02X223253Y201149I-176J-178D01*
G03X224707Y199050I936J-905D01*
G02X225303Y198896I199J-459D01*
G03X227490Y199088I1032J793D01*
G02X227827Y199195I222J-115D01*
G03X229001Y199181I601J1155D01*
G02X229334Y199070I110J-224D01*
G03X230352Y198366I1161J590D01*
G02X230798Y197869I-54J-497D01*
G01Y197818D01*
X231148Y197468D01*
Y195715D01*
X231280Y195583D01*
Y195515D01*
X233378Y193416D01*
Y189983D01*
X233905Y189457D01*
X233903Y189351D01*
G03X236031Y188324I1302J-20D01*
G02X236348I158J-193D01*
G03X238386Y188856I826J1007D01*
G01X238449Y189015D01*
X239836D01*
X239899Y188856D01*
G03X242323I1212J475D01*
G01X242386Y189015D01*
X243773D01*
X243836Y188856D01*
G03X244041Y188505I1213J473D01*
G02Y188189I-193J-158D01*
G03X244613Y186136I1007J-826D01*
G01X244780Y186077D01*
G37*
G36*
G01X241057Y176715D02*
X241090Y176504D01*
G03X242237Y175414I1286J205D01*
G02X242679Y174852I-54J-497D01*
G03X242686Y174470I1291J-167D01*
G02X242218Y173888I-493J-82D01*
G03X240984Y172654I66J-1300D01*
G01X240972Y172416D01*
X237908D01*
X237886Y172642D01*
G03X237340Y173579I-1296J-127D01*
G02X237171Y174189I289J408D01*
G03X237216Y175125I-1191J526D01*
G02X237424Y175706I474J158D01*
G03X235880Y177794I-694J1102D01*
G02X235262Y177767I-326J379D01*
G03X233304Y176199I-760J-1057D01*
G02X233175Y175872I-230J-98D01*
G03X232684Y175495I525J-1191D01*
G02X231940Y175455I-390J313D01*
G01X231524Y175871D01*
G03X231496Y177732I-924J917D01*
G02X231486Y178085I172J182D01*
G03X229740Y180005I-951J889D01*
G02X229124Y180009I-305J396D01*
G03X227148Y179565I-809J-1020D01*
G02X226812Y179452I-224J111D01*
G03X225683Y179464I-577J-1167D01*
G02X225352Y179582I-106J227D01*
G03X222879Y179058I-1172J-567D01*
G01X222871Y178816D01*
X218878D01*
X205090Y192605D01*
Y215290D01*
X203500Y216880D01*
Y217846D01*
X203652Y217911D01*
G03Y220489I-552J1289D01*
G01X203500Y220554D01*
Y221640D01*
G02X203979Y222139I500J0D01*
G03X204915Y224529I-58J1401D01*
G02Y225235I354J353D01*
G01X205480Y225800D01*
Y244080D01*
X207100Y245700D01*
X209600D01*
X213080Y242220D01*
Y221489D01*
G02X212638Y220993I-500J0D01*
G03Y218207I162J-1393D01*
G02X213080Y217711I-58J-496D01*
G01Y191215D01*
X215480Y188815D01*
X227580D01*
X229130Y187265D01*
Y186324D01*
G02X228564Y185829I-500J0D01*
G03X228141Y185815I-169J-1291D01*
G02X227546Y186259I-97J491D01*
G03X225627Y187280I-1296J-122D01*
G02X225289Y187377I-120J220D01*
G03X223142Y185921I-1136J-636D01*
G02X223151Y185304I-389J-314D01*
G03X224829Y183383I1036J-788D01*
G02X225168Y183290I123J-218D01*
G03X227429Y183300I1128J651D01*
G02X227767Y183396I218J-123D01*
G03X228994Y183383I626J1142D01*
G02X229330Y183280I116J-222D01*
G03X230980Y182695I1147J616D01*
G01X231135Y182760D01*
X232864Y181031D01*
X232815Y180884D01*
G03X233446Y179321I1236J-410D01*
G01X233580Y179251D01*
Y179215D01*
X233718D01*
X233747Y179208D01*
G03X234355I304J1266D01*
G01X234384Y179215D01*
X236102D01*
X236124Y179211D01*
G03X236570I223J1283D01*
G01X236592Y179215D01*
X238304D01*
Y178758D01*
X240248Y176814D01*
X240282D01*
X240380Y176715D01*
X241057D01*
G37*
G36*
G01X243876Y189915D02*
X242283D01*
X242209Y190031D01*
G03X240013I-1098J-700D01*
G01X239939Y189915D01*
X238346D01*
X238272Y190031D01*
G03X236378Y190362I-1098J-700D01*
G01X236346Y190337D01*
X236190Y190281D01*
X236033Y190337D01*
X236001Y190362D01*
G03X234826Y190577I-796J-1031D01*
G02X234180Y191055I-146J478D01*
G01Y193815D01*
X233398Y194598D01*
X231949Y196047D01*
Y197800D01*
X231599Y198150D01*
Y198699D01*
X231570Y198728D01*
Y198922D01*
X231607Y198982D01*
G03Y200338I-1112J678D01*
G01X231570Y200398D01*
Y201091D01*
G03Y203161I-790J1035D01*
G01Y204270D01*
X229414Y206426D01*
G02X229444Y207161I353J354D01*
G03X229554Y209810I-1164J1375D01*
G01X228364Y211000D01*
X224852D01*
X224149Y211702D01*
X224147D01*
X223482Y212368D01*
Y221082D01*
X224042Y221642D01*
X224181Y221606D01*
G03X225059Y224264I358J1356D01*
G01X224902Y224327D01*
Y239276D01*
X224600Y239578D01*
Y266841D01*
G02X225205Y267329I500J-1D01*
G03X226853Y269069I295J1371D01*
G02X227335Y269700I482J131D01*
G01X239812D01*
G02X240258Y268975I0J-500D01*
G03X242913Y267571I1342J-675D01*
G02X243787I437J-243D01*
G03X246442Y268975I1313J729D01*
G02X246888Y269700I446J225D01*
G01X247825D01*
X247898Y269579D01*
G03X249615Y268996I1202J721D01*
G02X250298Y268531I183J-465D01*
G01Y265335D01*
G02X249667Y264853I-500J0D01*
G03X249268Y262098I-367J-1353D01*
G02X249610Y261245I-12J-500D01*
G01X242030Y253665D01*
Y253478D01*
X241938Y253385D01*
Y248644D01*
G02X241112Y248265I-500J0D01*
G03X239251Y246168I-913J-1064D01*
G02X239277Y245459I-339J-367D01*
G03X240446Y243106I1023J-959D01*
G02X240998Y242608I52J-497D01*
G01Y225954D01*
X242030Y224922D01*
Y215654D01*
G03Y214746I1220J-454D01*
G01Y209519D01*
X241861Y209461D01*
G03X241113Y207652I419J-1233D01*
G01X241173Y207529D01*
X241027Y207286D01*
X240972Y207253D01*
G03X241034Y204981I666J-1119D01*
G01X241035Y204980D01*
X241257Y204860D01*
X241137Y204640D01*
G03X241105Y203454I1143J-624D01*
G01X241163Y203332D01*
X241018Y203090D01*
X240963Y203057D01*
G03X240398Y201500I662J-1121D01*
G01X240451Y201351D01*
X237936Y198836D01*
Y198736D01*
X237700Y198500D01*
Y194200D01*
X238200Y193700D01*
X244285D01*
X246600Y196015D01*
X247480D01*
X247698Y195796D01*
Y192011D01*
X247880Y191829D01*
Y190023D01*
X247848Y189966D01*
G03Y188696I1137J-635D01*
G01X247880Y188639D01*
Y186560D01*
X247748Y186428D01*
Y186141D01*
X247746Y186139D01*
Y183066D01*
X247578Y182898D01*
X246688D01*
X246414Y183172D01*
Y184883D01*
G03X246218Y185570I-1302J0D01*
G01X246180Y185631D01*
Y186717D01*
X246216Y186789D01*
X246230Y186819D01*
G03Y187907I-1182J544D01*
G01X246216Y187937D01*
X246180Y188009D01*
Y188685D01*
X246216Y188757D01*
X246230Y188787D01*
G03X243950Y190031I-1182J545D01*
G01X243876Y189915D01*
G37*
G36*
G01X314106Y229149D02*
G02X314472Y229990I366J341D01*
G01X316921D01*
G02X317364Y229259I0J-500D01*
G03X319852I1244J-647D01*
G02X320295Y229990I443J231D01*
G01X334910D01*
X341100Y223800D01*
Y155000D01*
X335118Y149018D01*
X251580D01*
Y165715D01*
X253380Y167515D01*
Y168015D01*
X255330Y169965D01*
Y185000D01*
X255883Y185553D01*
X256011Y185532D01*
G03X256175Y185514I224J1282D01*
G02X256646Y185098I-22J-499D01*
G03X258019Y184016I1284J217D01*
G02X258541Y183628I34J-499D01*
G03X260605Y182883I1270J287D01*
G02X261225Y182874I304J-397D01*
G03X262985Y184787I822J1009D01*
G02X262980Y185475I360J347D01*
G03X261297Y187442I-950J891D01*
G01X261267Y187422D01*
X261123Y187375D01*
X260923Y187476D01*
X260889Y187519D01*
G03X258600Y186997I-1019J-810D01*
G02X258062Y186610I-488J110D01*
G03X257985Y186616I-140J-1294D01*
G02X257514Y187032I22J499D01*
G03X256765Y188002I-1284J-217D01*
G01X256723Y188021D01*
X256500Y188244D01*
Y188330D01*
X255351Y189479D01*
X255330Y189578D01*
Y193533D01*
X255382Y193676D01*
X256102Y195117D01*
Y198641D01*
X255330Y199412D01*
Y201600D01*
X255800Y202070D01*
Y208880D01*
X255632Y209048D01*
Y209050D01*
X252467Y212214D01*
X252466D01*
X251580Y213100D01*
Y218970D01*
X259164Y226554D01*
Y229990D01*
X311688D01*
G02X312054Y229149I0J-500D01*
G03X314106I1026J-955D01*
G37*
G36*
G01X251300Y181950D02*
X250350Y182900D01*
Y185061D01*
X250352Y185063D01*
Y185350D01*
X250902Y185900D01*
X254000D01*
X254450Y185450D01*
Y181950D01*
X251300D01*
G37*
%LPC*%
G75*
G36*
G01X346884Y78976D02*
G02X353737Y77861I3608J560D01*
G02X346884Y78976I-3835J-1951D01*
G37*
G36*
G01X229644D02*
G02X236497Y77861I3608J560D01*
G02X229644Y78976I-3835J-1951D01*
G37*
G36*
G01X112404D02*
G02X119257Y77861I3608J560D01*
G02X112404Y78976I-3835J-1951D01*
G37*
G36*
G01X294386Y304844D02*
G03X293821Y304455I-76J-494D01*
G02X292664Y306136I-1371J295D01*
G03X293229Y306525I76J494D01*
G02X294386Y304844I1371J-295D01*
G37*
G36*
G01X260516Y296093D02*
G03Y295357I338J-368D01*
G02X258484I-1016J-1107D01*
G03Y296093I-338J368D01*
G02X260516I1016J1107D01*
G37*
G36*
G01X203165Y274023D02*
G03X203071Y274709I-404J294D01*
G02X202833Y276669I869J1100D01*
G03X202769Y277349I-395J306D01*
G02X204807Y277538I930J1049D01*
G03X204871Y276858I395J-306D01*
G02X205075Y274986I-931J-1049D01*
G03X205169Y274300I404J-294D01*
G02X203165Y274023I-869J-1100D01*
G37*
G36*
G01X341068Y263551D02*
G03X340332I-368J-338D01*
G02Y265449I-1032J949D01*
G03X341068I368J338D01*
G02Y263551I1032J-949D01*
G37*
G36*
G01X72983Y169025D02*
G03X72747Y168342I208J-454D01*
G02X70917Y168975I-1247J-642D01*
G03X71153Y169658I-208J454D01*
G02X72983Y169025I1247J642D01*
G37*
G36*
G01X65796Y167331D02*
G03X66374Y166884I498J46D01*
G02X65204Y165369I226J-1384D01*
G03X64626Y165816I-498J-46D01*
G02X65796Y167331I-226J1384D01*
G37*
G36*
G01X184352Y167015D02*
G03X184851Y166502I500J-13D01*
G02X183448Y165135I-1J-1402D01*
G03X182949Y165648I-500J13D01*
G02X184352Y167015I1J1402D01*
G37*
G36*
G01X230670Y140501D02*
G03X230639Y141211I-367J340D01*
G02X232610Y141299I941J1039D01*
G03X232641Y140589I367J-340D01*
G02X230670Y140501I-941J-1039D01*
G37*
G36*
G01X89553Y129004D02*
G03X88975Y128610I-88J-492D01*
G02X87847Y130266I-1375J276D01*
G03X88425Y130660I88J492D01*
G02X89553Y129004I1375J-276D01*
G37*
G36*
G01X239115Y111427D02*
G03X238431Y111230I-245J-436D01*
G02X237885Y113123I-1231J670D01*
G03X238569Y113320I245J436D01*
G02X239115Y111427I1231J-670D01*
G37*
G36*
G01X229738Y96440D02*
G03X229444Y95807I178J-467D01*
G02X227622Y96653I-1323J-464D01*
G03X227916Y97286I-178J467D01*
G02X229738Y96440I1323J464D01*
G37*
G36*
G01X195388Y51589D02*
G03Y50879I352J-355D01*
G02X193412I-988J-995D01*
G03Y51589I-352J355D01*
G02X195388I988J995D01*
G37*
G36*
G01X267500Y44313D02*
G03X267947Y43790I499J-26D01*
G02X266400Y42467I-147J-1394D01*
G03X265953Y42990I-499J26D01*
G02X267500Y44313I147J1394D01*
G37*
G36*
G01X239341Y39389D02*
G03X238894Y38837I50J-497D01*
G02X237359Y40079I-1394J-153D01*
G03X237806Y40631I-50J497D01*
G02X239341Y39389I1394J153D01*
G37*
G36*
G01X192996Y37537D02*
G03X193443Y36995I498J-45D01*
G02X191904Y35725I-143J-1395D01*
G03X191457Y36267I-498J45D01*
G02X192996Y37537I143J1395D01*
G37*
G36*
G01X319993Y2872D02*
G03X320511Y2372I500J0D01*
G02X319158Y970I49J-1401D01*
G03X318640Y1470I-500J0D01*
G02X318542I-49J1401D01*
G03X318025Y970I-17J-500D01*
G02X316672Y2372I-1402J1D01*
G03X317189Y2872I17J500D01*
G02X319993I1402J-1D01*
G37*
G36*
G01X304245D02*
G03X304763Y2372I500J0D01*
G02X303410Y970I49J-1401D01*
G03X302892Y1470I-500J0D01*
G02X302794I-49J1401D01*
G03X302277Y970I-17J-500D01*
G02X299473I-1402J1D01*
G03X298955Y1470I-500J0D01*
G02X300308Y2872I-49J1401D01*
G03X300826Y2372I500J0D01*
G02X300924I49J-1401D01*
G03X301441Y2872I17J500D01*
G02X304245I1402J-1D01*
G37*
G36*
G01X292434D02*
G03X292952Y2372I500J0D01*
G02X291599Y970I49J-1401D01*
G03X291081Y1470I-500J0D01*
G02X290983I-49J1401D01*
G03X290466Y970I-17J-500D01*
G02X289113Y2372I-1402J1D01*
G03X289630Y2872I17J500D01*
G02X292434I1402J-1D01*
G37*
G36*
G01X284560D02*
G03X285078Y2372I500J0D01*
G02X283725Y970I49J-1401D01*
G03X283207Y1470I-500J0D01*
G02X283109I-49J1401D01*
G03X282592Y970I-17J-500D01*
G02X279788I-1402J1D01*
G03X279270Y1470I-500J0D01*
G02X279172I-49J1401D01*
G03X278655Y970I-17J-500D01*
G02X275851I-1402J1D01*
G03X275333Y1470I-500J0D01*
G02X275235I-49J1401D01*
G03X274718Y970I-17J-500D01*
G02X271914I-1402J1D01*
G03X271396Y1470I-500J0D01*
G02X271298I-49J1401D01*
G03X270781Y970I-17J-500D01*
G02X269428Y2372I-1402J1D01*
G03X269945Y2872I17J500D01*
G02X272749I1402J-1D01*
G03X273267Y2372I500J0D01*
G02X273365I49J-1401D01*
G03X273882Y2872I17J500D01*
G02X276686I1402J-1D01*
G03X277204Y2372I500J0D01*
G02X277302I49J-1401D01*
G03X277819Y2872I17J500D01*
G02X280623I1402J-1D01*
G03X281141Y2372I500J0D01*
G02X281239I49J-1401D01*
G03X281756Y2872I17J500D01*
G02X284560I1402J-1D01*
G37*
G36*
G01X95670Y386544D02*
G02X94190I-740J-1307D01*
G03Y387415I-246J436D01*
G02X95670I740J1307D01*
G03Y386544I246J-435D01*
G37*
G36*
G01X70463Y379131D02*
G02X70428Y380754I-1281J784D01*
G03X71260Y380757I415J279D01*
G02X71294Y379163I1170J-772D01*
G03X70463Y379131I-405J-293D01*
G37*
G36*
G01X139942Y380357D02*
G02X139394Y378884I814J-1141D01*
G03X138618Y379173I-486J-118D01*
G02X139166Y380646I-814J1141D01*
G03X139942Y380357I486J118D01*
G37*
G36*
G01X139607Y344768D02*
G02X138280Y345717I-1327J-453D01*
G03X138753Y346378I0J500D01*
G02X140080Y345429I1327J453D01*
G03X139607Y344768I0J-500D01*
G37*
G36*
G01X261089Y301611D02*
G02X261067Y303339I-1239J848D01*
G03X261874Y303335I405J293D01*
G02X261896Y301636I1126J-835D01*
G03X261089Y301611I-394J-308D01*
G37*
G36*
G01X325500Y280927D02*
G02X322699Y280942I-1400J73D01*
G03X322121Y281416I-500J-20D01*
G02X323301Y282858I-221J1384D01*
G03X323879Y282384I500J20D01*
G02X324174Y282400I223J-1384D01*
G03X324700Y282873I27J499D01*
G02X326026Y281400I1400J-73D01*
G03X325500Y280927I-27J-499D01*
G37*
G36*
G01X310784Y278623D02*
G02X309490Y279799I-1384J-223D01*
G03X310016Y280377I32J499D01*
G02X311310Y279201I1384J223D01*
G03X310784Y278623I-32J-499D01*
G37*
G36*
G01X301866Y278717D02*
G02X300756Y279778I-1366J-317D01*
G03X301334Y280383I91J492D01*
G02X302444Y279322I1366J317D01*
G03X301866Y278717I-91J-492D01*
G37*
G36*
G01X330375Y272907D02*
G02Y274493I-1275J793D01*
G03X331225I425J264D01*
G02Y272907I1275J-793D01*
G03X330375I-425J-264D01*
G37*
G36*
G01X465528Y270733D02*
G02X463038Y269568I-1128J-833D01*
G03X462407Y269928I-486J-118D01*
G02X463362Y271602I-407J1342D01*
G03X463993Y271242I486J118D01*
G02X464216Y271290I406J-1342D01*
G03X464552Y272082I-66J495D01*
G02X465864Y271525I1128J833D01*
G03X465528Y270733I66J-495D01*
G37*
G36*
G01X446328Y267548D02*
G02X444447Y267561I-948J-1033D01*
G03X444452Y268303I-333J373D01*
G02X444462Y270378I948J1033D01*
G03Y271121I-335J371D01*
G02X444425Y273170I938J1042D01*
G03X444420Y273894I-348J360D01*
G02X444212Y274140I959J1022D01*
G03X443376Y274136I-417J-276D01*
G02X443368Y275675I-1176J763D01*
G03X444204Y275679I417J276D01*
G02X446355Y273908I1176J-764D01*
G03X446360Y273184I348J-360D01*
G02X446338Y271121I-960J-1021D01*
G03Y270378I335J-372D01*
G02X446333Y268290I-938J-1042D01*
G03X446328Y267548I333J-373D01*
G37*
G36*
G01X471131Y257094D02*
X469831D01*
G02X466597Y261059I0J3301D01*
G03X466000Y261648I-490J100D01*
G02X467153Y263407I-320J1467D01*
G03X467931Y263095I491J97D01*
G02X469830Y263696I1899J-2700D01*
G01X471131D01*
G02Y257094I0J-3301D01*
G37*
G36*
G01X138524Y255234D02*
G02X136802Y255177I-824J-1134D01*
G03X136776Y255966I-320J384D01*
G02X138498Y256023I824J1134D01*
G03X138524Y255234I320J-384D01*
G37*
G36*
G01X317870Y245897D02*
G02X315468Y244651I-1370J-297D01*
G03X314759Y244677I-367J-339D01*
G02X314832Y246649I-959J1023D01*
G03X315541Y246623I367J339D01*
G02X316604Y246998I959J-1023D01*
G03X317130Y247603I37J499D01*
G02X318396Y246502I1370J297D01*
G03X317870Y245897I-37J-499D01*
G37*
G36*
G01X352257Y242445D02*
G02X350504Y242741I-1057J-921D01*
G03X350633Y243503I-248J434D01*
G02X352386Y243207I1057J921D01*
G03X352257Y242445I248J-434D01*
G37*
G36*
G01X309969Y239778D02*
G02X309956Y241310I-1181J756D01*
G03X310793Y241318I416J277D01*
G02X310806Y239786I1181J-756D01*
G03X309969Y239778I-416J-277D01*
G37*
G36*
G01X359299Y237333D02*
G02X358181Y236422I200J-1388D01*
G03X357639Y237087I-470J170D01*
G02X358757Y237998I-200J1388D01*
G03X359299Y237333I470J-170D01*
G37*
G36*
G01X343019Y237175D02*
G02X341472Y236336I-253J-1379D01*
G03X341101Y237021I-461J193D01*
G02X342648Y237860I253J1379D01*
G03X343019Y237175I461J-193D01*
G37*
G36*
G01X159313Y234405D02*
G02X159032Y232831I993J-989D01*
G03X158223Y232975I-454J-209D01*
G02X158504Y234549I-993J989D01*
G03X159313Y234405I454J209D01*
G37*
G36*
G01X86937Y231186D02*
G02X85427Y231637I-1087J-886D01*
G03X85663Y232429I-151J476D01*
G02X87173Y231978I1087J886D01*
G03X86937Y231186I151J-476D01*
G37*
G36*
G01X166069Y214726D02*
G02X166016Y216348I-1169J774D01*
G03X166831Y216374I398J302D01*
G02X166884Y214752I1169J-774D01*
G03X166069Y214726I-398J-302D01*
G37*
G36*
G01X413987Y206088D02*
G02Y207742I-1254J827D01*
G03X414821I417J276D01*
G02Y206088I1254J-827D01*
G03X413987I-417J-276D01*
G37*
G36*
G01X118816Y197580D02*
G02X118757Y195737I1026J-955D01*
G03X118004Y195761I-387J-317D01*
G02X118063Y197604I-1026J955D01*
G03X118816Y197580I387J317D01*
G37*
G36*
G01X392044Y196965D02*
G02X391993Y195134I1036J-945D01*
G03X391236Y195155I-388J-316D01*
G02X391287Y196986I-1036J945D01*
G03X392044Y196965I388J316D01*
G37*
G36*
G01X384646Y195009D02*
G02X384593Y196890I-1066J911D01*
G03X385334Y196911I361J346D01*
G02X385387Y195030I1066J-911D01*
G03X384646Y195009I-361J-346D01*
G37*
G36*
G01X413336Y192846D02*
G02X411423Y192845I-956J-1026D01*
G03Y193576I-341J365D01*
G02X411441Y195644I956J1026D01*
G03Y196387I-335J371D01*
G02X411468Y198495I938J1042D01*
G03Y199255I-325J380D01*
G02X413291Y199254I912J1065D01*
G03Y198494I325J-380D01*
G02X413317Y196387I-912J-1065D01*
G03Y195644I335J-371D01*
G02X413336Y193577I-938J-1042D01*
G03Y192846I341J-365D01*
G37*
G36*
G01X438306Y195577D02*
G02X435254I-1526J-3482D01*
G03Y196493I-201J458D01*
G02X438306I1526J3482D01*
G03Y195577I201J-458D01*
G37*
G36*
G01X113902Y184581D02*
G02X113088Y185873I-1402J19D01*
G03X113798Y186319I210J453D01*
G02X114503Y187516I1402J-19D01*
G03Y188384I-249J434D01*
G02X113803Y189477I697J1217D01*
G03X113120Y189898I-498J-43D01*
G02X113115Y192504I-520J1302D01*
G03X113799Y192951I184J465D01*
G02X113801Y192998I1402J-36D01*
G03X113118Y193497I-499J35D01*
G02X113999Y194702I-518J1303D01*
G03X114682Y194203I499J-35D01*
G02X115897Y191684I517J-1303D01*
G03Y190816I249J-434D01*
G02Y188384I-697J-1216D01*
G03Y187516I249J-434D01*
G02X114612Y185027I-698J-1216D01*
G03X113902Y184581I-210J-453D01*
G37*
G36*
G01X101655Y183097D02*
G02X101754Y181646I1245J-644D01*
G03X100965Y181683I-409J-288D01*
G02X99442Y183920I-1065J912D01*
G03X99731Y184605I-164J473D01*
G02X101458Y183875I1269J595D01*
G03X101169Y183190I164J-473D01*
G02X101201Y183118I-1265J-605D01*
G03X101655Y183097I232J94D01*
G37*
G36*
G01X108213Y173197D02*
G02X108184Y174939I-1113J853D01*
G03X108967Y174953I386J318D01*
G02X108996Y173211I1113J-853D01*
G03X108213Y173197I-386J-318D01*
G37*
G36*
G01X157611Y168871D02*
G02X155910Y169041I-961J-1021D01*
G03X155989Y169829I-264J424D01*
G02X157690Y169659I961J1021D01*
G03X157611Y168871I264J-424D01*
G37*
G36*
G01X135705Y157036D02*
G02X135460Y155394I995J-988D01*
G03X134663Y155513I-442J-233D01*
G02X134908Y157155I-995J988D01*
G03X135705Y157036I442J233D01*
G37*
G36*
G01X90255Y155530D02*
G02X89302Y154307I445J-1330D01*
G03X88645Y154819I-498J38D01*
G02X87676Y154848I-445J1330D01*
G03X86993Y154441I-186J-464D01*
G02X86124Y155901I-1393J159D01*
G03X86807Y156308I186J464D01*
G02X89598Y156042I1393J-158D01*
G03X90255Y155530I498J-38D01*
G37*
G36*
G01X155612Y148365D02*
G02X155463Y150119I-1162J785D01*
G03X156238Y150185I361J346D01*
G02X156387Y148431I1162J-785D01*
G03X155612Y148365I-361J-346D01*
G37*
G36*
G01X295820Y138132D02*
G02X294072I-874J-1096D01*
G03Y138914I-312J391D01*
G02X295820I874J1096D01*
G03Y138132I312J-391D01*
G37*
G36*
G01X208707Y136293D02*
G02X208046Y138044I-1307J507D01*
G03X208743Y138307I231J444D01*
G02X209404Y136556I1307J-507D01*
G03X208707Y136293I-231J-444D01*
G37*
G36*
G01X169538Y134653D02*
G02X168326Y135500I-1288J-553D01*
G03X168812Y136197I27J499D01*
G02X170024Y135350I1288J553D01*
G03X169538Y134653I-27J-499D01*
G37*
G36*
G01X65913D02*
G02X63916Y134683I-1013J-969D01*
G03X63926Y135385I-351J356D01*
G02X64053Y137441I1013J969D01*
G03X64054Y138215I-316J387D01*
G02X65828Y138213I888J1085D01*
G03X65827Y137439I316J-387D01*
G02X65923Y135355I-888J-1085D01*
G03X65913Y134653I351J-356D01*
G37*
G36*
G01X87687Y133929D02*
G02X85944Y133914I-862J-1106D01*
G03X85938Y134697I-314J389D01*
G02X88150Y136182I862J1106D01*
G03X88965Y135944I482J135D01*
G02X88550Y134521I935J-1045D01*
G03X87735Y134759I-482J-135D01*
G02X87681Y134712I-947J1034D01*
G03X87687Y133929I314J-389D01*
G37*
G36*
G01X268043Y122487D02*
G02Y124113I-1143J813D01*
G03X268857I407J289D01*
G02Y122487I1143J-813D01*
G03X268043I-407J-289D01*
G37*
G36*
G01X197766Y124201D02*
G02X196203Y124453I-966J-1017D01*
G03X196334Y125267I-213J452D01*
G02X197897Y125015I966J1017D01*
G03X197766Y124201I213J-452D01*
G37*
G36*
G01X85495Y122184D02*
G02X84205Y121080I80J-1400D01*
G03X83687Y121684I-489J105D01*
G02X84977Y122788I-80J1400D01*
G03X85495Y122184I489J-105D01*
G37*
G36*
G01X268078Y115257D02*
G02X266722Y116402I-1378J-257D01*
G03X267222Y116993I8J500D01*
G02X268578Y115848I1378J257D01*
G03X268078Y115257I-8J-500D01*
G37*
G36*
G01X259299Y111932D02*
G02X257744Y112937I-1349J-382D01*
G03X258151Y113568I-74J494D01*
G02X258120Y114197I1349J382D01*
G03X257726Y114775I-492J88D01*
G02X259380Y115903I274J1375D01*
G03X259774Y115325I492J-88D01*
G02X259706Y112563I-274J-1375D01*
G03X259299Y111932I74J-494D01*
G37*
G36*
G01X227607Y102672D02*
G02X226798Y101295I589J-1272D01*
G03X226089Y101712I-499J-37D01*
G02X224100Y103062I-589J1272D01*
G03X223555Y103588I-499J28D01*
G02X224825Y104906I-130J1396D01*
G03X225370Y104380I499J-28D01*
G02X226898Y103089I130J-1396D01*
G03X227607Y102672I499J37D01*
G37*
G36*
G01X393428Y99153D02*
G02X391656Y98710I-628J-1253D01*
G03X391472Y99447I-408J290D01*
G02X393244Y99890I628J1253D01*
G03X393428Y99153I408J-290D01*
G37*
G36*
G01X263652Y75912D02*
G02X262320Y79022I-4302J-2D01*
G03X263165Y79398I345J362D01*
G02X264508Y76264I4650J138D01*
G03X263652Y75912I-356J-351D01*
G37*
G36*
G01X146412D02*
G02X145080Y79022I-4302J-2D01*
G03X145925Y79398I345J362D01*
G02X147268Y76264I4650J138D01*
G03X146412Y75912I-356J-351D01*
G37*
G36*
G01X29172D02*
G02X27840Y79022I-4302J-2D01*
G03X28685Y79398I345J362D01*
G02X30028Y76264I4650J138D01*
G03X29172Y75912I-356J-351D01*
G37*
G36*
G01X202978Y73082D02*
G02X201210Y73110I-901J-1074D01*
G03X201222Y73886I-309J393D01*
G02X202990Y73858I901J1074D01*
G03X202978Y73082I309J-393D01*
G37*
G36*
G01X237975Y54059D02*
G02X236607Y55186I-1375J-275D01*
G03X237100Y55784I3J500D01*
G02X237093Y56297I1375J275D01*
G03X236601Y56882I-493J85D01*
G02X237982Y58046I-1J1402D01*
G03X238474Y57461I493J-85D01*
G02X238468Y54657I0J-1402D01*
G03X237975Y54059I-3J-500D01*
G37*
G36*
G01X199643Y51671D02*
G02Y53297I-1143J813D01*
G03X200457I407J289D01*
G02Y51671I1143J-813D01*
G03X199643I-407J-289D01*
G37*
G36*
G01X191717Y50749D02*
G02X189830Y50883I-1017J-965D01*
G03X189883Y51619I-310J392D01*
G02X191770Y51485I1017J965D01*
G03X191717Y50749I310J-392D01*
G37*
G36*
G01X209147Y49677D02*
G02X207664Y48733I-155J-1393D01*
G03X207245Y49391I-474J161D01*
G02X207690Y52156I155J1393D01*
G03X208291Y52684I103J489D01*
G02X210222Y54092I1398J111D01*
G03X210908Y54615I190J462D01*
G02X211008Y55328I1392J168D01*
G03X210736Y55985I-461J194D01*
G02X212556Y56740I528J1299D01*
G03X212828Y56083I461J-194D01*
G02X211767Y53487I-528J-1299D01*
G03X211081Y52964I-190J-462D01*
G02X211084Y52652I-1392J-169D01*
G03X211729Y52124I497J-51D01*
G02X213470Y50333I413J-1340D01*
G03X213884Y49676I473J-161D01*
G02X214878Y49071I-166J-1392D01*
G03X215705I413J280D01*
G02X217419Y49573I1161J-787D01*
G03X218113Y49985I197J459D01*
G02X220021Y51157I1396J-133D01*
G03X220702Y51586I182J466D01*
G02X222643Y50191I1398J-102D01*
G03X222509Y49353I194J-461D01*
G02X220210Y48049I-918J-1060D01*
G03X219663Y48459I-492J-87D01*
G02X218956Y48563I-156J1393D01*
G03X218262Y48151I-197J-459D01*
G02X215705Y47497I-1396J133D01*
G03X214878I-414J-280D01*
G02X212389Y48735I-1162J786D01*
G03X211975Y49392I-473J161D01*
G02X210747Y50927I167J1392D01*
G03X210102Y51455I-497J51D01*
G02X209399Y51423I-413J1340D01*
G03X208798Y50895I-103J-489D01*
G02X208728Y50335I-1398J-110D01*
G03X209147Y49677I474J-161D01*
G37*
G36*
G01X253359Y47697D02*
G02X250607Y47707I-1375J275D01*
G03X250054Y48108I-491J-95D01*
G02X249633Y48119I-174J1391D01*
G03X249059Y47746I-88J-492D01*
G02X246339Y47738I-1361J336D01*
G03X245761Y48107I-485J-122D01*
G02X244435Y48572I-262J1377D01*
G03X243673Y48569I-380J-325D01*
G02X241202Y49579I-1073J903D01*
G03X240519Y50081I-498J38D01*
G02X241398Y51277I-519J1303D01*
G03X242081Y50775I498J-38D01*
G02X243665Y50384I519J-1303D01*
G03X244427Y50387I380J325D01*
G02X246859Y49828I1073J-903D01*
G03X247437Y49459I485J122D01*
G02X247944Y49462I262J-1377D01*
G03X248518Y49835I88J492D01*
G02X251256Y49764I1361J-336D01*
G03X251809Y49363I491J95D01*
G02X252169Y49362I176J-1391D01*
G03X252725Y49759I66J495D01*
G02X253915Y48094I1375J-275D01*
G03X253359Y47697I-66J-495D01*
G37*
G36*
G01X215458Y39985D02*
G02X214101Y39112I-58J-1401D01*
G03X213659Y39800I-463J189D01*
G02X212552Y40421I58J1401D01*
G03X211724Y40425I-415J-278D01*
G02X211732Y41997I-1157J792D01*
G03X212560Y41993I415J278D01*
G02X215016Y40673I1157J-792D01*
G03X215458Y39985I463J-189D01*
G37*
G36*
G01X264651Y38702D02*
G02X262924Y38714I-871J-1098D01*
G03X262929Y39502I-306J396D01*
G02X264656Y39490I871J1098D01*
G03X264651Y38702I306J-396D01*
G37*
G36*
G01X282609Y38081D02*
G02X282432Y36602I1091J-881D01*
G03X281591Y36703I-452J-213D01*
G02X281768Y38182I-1091J881D01*
G03X282609Y38081I452J213D01*
G37*
G36*
G01X254319Y35088D02*
G02X252908Y35103I-718J-1204D01*
G03X252918Y35967I-247J435D01*
G02X254329Y35952I718J1204D01*
G03X254319Y35088I247J-435D01*
G37*
G36*
G01X311343Y29160D02*
G02X310730Y27477I707J-1211D01*
G03X310007Y27740I-471J-169D01*
G02X310620Y29423I-707J1211D01*
G03X311343Y29160I471J169D01*
G37*
G36*
G01X84600Y26859D02*
G02X84524Y28422I-1200J725D01*
G03X85353Y28462I401J299D01*
G02X85429Y26899I1200J-725D01*
G03X84600Y26859I-401J-299D01*
G37*
G36*
G01X188232Y24379D02*
G02X186473Y24138I-732J-1195D01*
G03X186368Y24905I-366J341D01*
G02X188127Y25146I732J1195D01*
G03X188232Y24379I366J-341D01*
G37*
G36*
G01X168603Y21568D02*
G02X167398Y22449I-1303J-518D01*
G03X167897Y23132I35J499D01*
G02X169102Y22251I1303J518D01*
G03X168603Y21568I-35J-499D01*
G37*
G36*
G01X181658Y13498D02*
G02X181709Y11804I1142J-813D01*
G03X180973Y11850I-389J-314D01*
G02X179478Y14161I-973J1010D01*
G03X179688Y14930I-186J464D01*
G02X181322Y14483I1112J854D01*
G03X181112Y13714I186J-464D01*
G02X181235Y13524I-1112J-854D01*
G03X181658Y13498I220J119D01*
G37*
G36*
G01X322656Y7280D02*
G02X321132Y5756I-128J-1396D01*
G03X320281Y6063I-498J-47D01*
G01X319266Y5048D01*
X301550D01*
X295350Y11248D01*
X260135D01*
G03X259758Y10420I0J-500D01*
G02X258110Y10772I-1058J-920D01*
G01X258255Y10839D01*
Y11248D01*
X257650D01*
X252150Y16748D01*
X243166D01*
X238756Y12339D01*
G03X238950Y11512I354J-353D01*
G02X237172Y9734I-450J-1328D01*
G03X236345Y9928I-474J-160D01*
G01X235351Y8933D01*
G02X232449Y11835I-1451J1451D01*
G01X241466Y20852D01*
X253850D01*
X255898Y18803D01*
G03X256711Y18960I353J354D01*
G02X258551Y17120I1289J-551D01*
G03X258394Y16307I197J-460D01*
G01X259350Y15352D01*
X297050D01*
X303250Y9152D01*
X304085D01*
G03X304513Y9909I0J500D01*
G02X307087I1287J775D01*
G03X307515Y9152I428J-257D01*
G01X309002D01*
G03X309430Y9909I0J500D01*
G02X312004I1287J775D01*
G03X312432Y9152I428J-257D01*
G01X317566D01*
X319949Y11535D01*
G02X322851Y8633I1451J-1451D01*
G01X322349Y8131D01*
G03X322656Y7280I354J-353D01*
G37*
G36*
G01X192041Y970D02*
G02X190688Y2372I-1402J1D01*
G03X191205Y2872I17J500D01*
G02X194009I1402J-1D01*
G03X194527Y2372I500J0D01*
G02X194625I49J-1401D01*
G03X195142Y2872I17J500D01*
G02X197946I1402J-1D01*
G03X198464Y2372I500J0D01*
G02X198562I49J-1401D01*
G03X199079Y2872I17J500D01*
G02X201883I1402J-1D01*
G03X202401Y2372I500J0D01*
G02X202499I49J-1401D01*
G03X203016Y2872I17J500D01*
G02X205820I1402J-1D01*
G03X206338Y2372I500J0D01*
G02X206436I49J-1401D01*
G03X206953Y2872I17J500D01*
G02X209757I1402J-1D01*
G03X210275Y2372I500J0D01*
G02X210373I49J-1401D01*
G03X210890Y2872I17J500D01*
G02X213694I1402J-1D01*
G03X214212Y2372I500J0D01*
G02X214310I49J-1401D01*
G03X214827Y2872I17J500D01*
G02X217631I1402J-1D01*
G03X218149Y2372I500J0D01*
G02X218247I49J-1401D01*
G03X218764Y2872I17J500D01*
G02X221568I1402J-1D01*
G03X222086Y2372I500J0D01*
G02X222184I49J-1401D01*
G03X222701Y2872I17J500D01*
G02X225505I1402J-1D01*
G03X226023Y2372I500J0D01*
G02X226121I49J-1401D01*
G03X226638Y2872I17J500D01*
G02X229442I1402J-1D01*
G03X229960Y2372I500J0D01*
G02X230127Y2368I50J-1401D01*
G03X230383Y2703I21J249D01*
G02X233011Y2686I1317J481D01*
G03X233298Y2353I234J-89D01*
G02X233427Y2375I300J-1369D01*
G03X233863Y2911I-62J496D01*
G02X236657Y2897I1398J112D01*
G03X237078Y2358I498J-45D01*
G02X235657Y256I-216J-1385D01*
G03X234800Y259I-429J-256D01*
G02X232289Y1482I-1201J724D01*
G03X232002Y1815I-234J89D01*
G02X231836Y1789I-300J1369D01*
G03X231391Y1207I48J-498D01*
G02X228607Y970I-1382J-236D01*
G03X228089Y1470I-500J0D01*
G02X227991I-49J1401D01*
G03X227474Y970I-17J-500D01*
G02X224670I-1402J1D01*
G03X224152Y1470I-500J0D01*
G02X224054I-49J1401D01*
G03X223537Y970I-17J-500D01*
G02X220733I-1402J1D01*
G03X220215Y1470I-500J0D01*
G02X220117I-49J1401D01*
G03X219600Y970I-17J-500D01*
G02X216796I-1402J1D01*
G03X216278Y1470I-500J0D01*
G02X216180I-49J1401D01*
G03X215663Y970I-17J-500D01*
G02X212859I-1402J1D01*
G03X212341Y1470I-500J0D01*
G02X212243I-49J1401D01*
G03X211726Y970I-17J-500D01*
G02X208922I-1402J1D01*
G03X208404Y1470I-500J0D01*
G02X208306I-49J1401D01*
G03X207789Y970I-17J-500D01*
G02X204985I-1402J1D01*
G03X204467Y1470I-500J0D01*
G02X204369I-49J1401D01*
G03X203852Y970I-17J-500D01*
G02X201048I-1402J1D01*
G03X200530Y1470I-500J0D01*
G02X200432I-49J1401D01*
G03X199915Y970I-17J-500D01*
G02X197111I-1402J1D01*
G03X196593Y1470I-500J0D01*
G02X196495I-49J1401D01*
G03X195978Y970I-17J-500D01*
G02X193174I-1402J1D01*
G03X192656Y1470I-500J0D01*
G02X192558I-49J1401D01*
G03X192041Y970I-17J-500D01*
G37*
G36*
G01X263587Y2086D02*
G02X262400Y629I213J-1386D01*
G03X261824Y1098I-499J-25D01*
G02X263011Y2555I-213J1386D01*
G03X263587Y2086I499J25D01*
G37*
G36*
G01X257137Y-4075D02*
G02X255129Y-2245I-1237J659D01*
G03X255102Y-1394I-275J417D01*
G02X256571Y-1349I698J1216D01*
G03X256598Y-2200I275J-417D01*
G02X257095Y-2683I-698J-1216D01*
G03X257963Y-2657I427J261D01*
G02X258005Y-4049I1237J-659D01*
G03X257137Y-4075I-427J-261D01*
G37*
G36*
G01X47613Y202905D02*
G02X46098Y202580I-512J-1305D01*
G03X45924Y203395I-357J350D01*
G02X47439Y203720I512J1305D01*
G03X47613Y202905I357J-350D01*
G37*
G36*
G01X51793Y183110D02*
G03X51675Y183827I-398J303D01*
G02X53573Y184140I783J1163D01*
G03X53691Y183423I398J-303D01*
G02X51793Y183110I-783J-1163D01*
G37*
G36*
G01X47199Y194144D02*
G03X47296Y193467I410J-287D01*
G02X45270Y193179I-878J-1093D01*
G03X45173Y193856I-410J287D01*
G02X47199Y194144I878J1093D01*
G37*
G36*
G01X365105Y371518D02*
G03X364267I-419J-274D01*
G02Y376112I-3518J2297D01*
G03X365105I419J274D01*
G02Y371518I3518J-2297D01*
G37*
G36*
G01X361613Y352446D02*
G03X360868I-372J-333D01*
G02Y356184I-2088J1869D01*
G03X361613I373J333D01*
G02X365789Y356183I2088J-1869D01*
G03X366535I373J333D01*
G02Y352447I2088J-1868D01*
G03X365789I-373J-333D01*
G02X361613Y352446I-2088J1868D01*
G37*
G36*
G01X219155Y329380D02*
G03X219142Y328681I351J-356D01*
G02X216995Y328720I-1093J-1031D01*
G03X217008Y329419I-351J356D01*
G02X219155Y329380I1093J1031D01*
G37*
G36*
G01X393834Y319057D02*
G03X394516Y319005I369J338D01*
G02X394363Y316964I879J-1092D01*
G03X393681Y317016I-369J-338D01*
G02X393834Y319057I-879J1092D01*
G37*
G36*
G01X204318Y289951D02*
G03X203582I-368J-338D01*
G02Y291849I-1032J949D01*
G03X204318I368J338D01*
G02Y289951I1032J-949D01*
G37*
G36*
G01X240642Y282813D02*
G03X241325Y282686I407J290D01*
G02X240955Y280703I772J-1170D01*
G03X240272Y280830I-407J-290D01*
G02X240642Y282813I-772J1170D01*
G37*
G36*
G01X41331Y364767D02*
G02X40281Y363435I449J-1433D01*
G03X39650Y363951I-499J34D01*
G02X40681Y365260I-370J1352D01*
G03X41331Y364767I500J-16D01*
G37*
G36*
G01X41964Y335921D02*
G02X40837Y337048I-1464J-337D01*
G03X41436Y337647I112J487D01*
G02X42563Y336520I1464J337D01*
G03X41964Y335921I-112J-487D01*
G37*
G36*
G01X372397Y324366D02*
G02X371598Y323098I603J-1266D01*
G03X370883Y323549I-500J0D01*
G02X368991Y325367I-603J1266D01*
G03X368496Y326063I-459J197D01*
G02X369684Y326909I-101J1398D01*
G03X370179Y326213I459J-197D01*
G02X371682Y324817I101J-1398D01*
G03X372397Y324366I500J0D01*
G37*
G36*
G01X218509Y322890D02*
G02X218323Y321405I1083J-890D01*
G03X217483Y321510I-453J-212D01*
G02X215137Y321791I-1083J890D01*
G03X214427Y322001I-450J-217D01*
G02X214963Y323809I-727J1199D01*
G03X215673Y323599I450J217D01*
G02X217669Y322995I727J-1199D01*
G03X218509Y322890I453J212D01*
G37*
G36*
G01X247218Y294655D02*
G02X246030Y295740I-1368J-305D01*
G03X246582Y296345I64J496D01*
G02X247770Y295260I1368J305D01*
G03X247218Y294655I-64J-496D01*
G37*
G36*
G01X246244Y288424D02*
G02X244356I-944J-1037D01*
G03Y289163I-336J370D01*
G02X246244I944J1037D01*
G03Y288424I336J-370D01*
G37*
G36*
G01X40303Y274177D02*
G02X39049Y272840I147J-1394D01*
G03X38497Y273358I-500J21D01*
G02X39751Y274695I-147J1394D01*
G03X40303Y274177I500J-21D01*
G37*
G36*
G01X40202Y268066D02*
G02X39595Y266339I698J-1216D01*
G03X38862Y266579I-466J-183D01*
G02X39480Y268337I-802J1270D01*
G03X40202Y268066I473J163D01*
G37*
G36*
G01X57532Y207328D02*
G02X56174Y207884I-1132J-828D01*
G03X56496Y208672I-81J493D01*
G02X57854Y208116I1132J828D01*
G03X57532Y207328I81J-493D01*
G37*
G36*
G01X227421Y169533D02*
G03X227068I-176J-177D01*
G02X225322Y171462I-918J924D01*
G03X225358Y171811I-159J193D01*
G02X227250Y173590I1016J815D01*
G03X227917Y173585I336J370D01*
G02X229496Y171523I863J-974D01*
G03X229425Y171175I137J-209D01*
G02X227421Y169533I-1084J-721D01*
G37*
G36*
G01X250997D02*
G03X250643Y169537I-179J-175D01*
G02X249031Y171563I-914J927D01*
G03X249108Y171908I-134J211D01*
G02X249030Y173163I1099J698D01*
G03X248911Y173496I-226J107D01*
G02X248929Y175862I553J1179D01*
G03X249056Y176190I-102J228D01*
G02X251142Y177658I1194J519D01*
G03X251493Y177666I171J182D01*
G02X253123Y175660I937J-904D01*
G03X252915Y175078I266J-423D01*
G02X252912Y174243I-1235J-413D01*
G03X253111Y173662I473J-163D01*
G02X253107Y171478I-711J-1091D01*
G03X253031Y171135I136J-210D01*
G02X250997Y169533I-1102J-693D01*
G37*
G36*
G01X213222Y156044D02*
G03X213157Y155361I329J-376D01*
G02X211128Y155556I-1107J-861D01*
G03X211193Y156239I-329J376D01*
G02X213222Y156044I1107J861D01*
G37*
G36*
G01X195478Y235542D02*
G02X193756Y235599I-898J-1077D01*
G03X193782Y236388I-294J405D01*
G02X195504Y236331I898J1077D01*
G03X195478Y235542I294J-405D01*
G37*
G36*
G01X193901Y211210D02*
G02X192573Y212554I-1401J-56D01*
G03X193099Y213074I26J499D01*
G02X194427Y211730I1401J56D01*
G03X193901Y211210I-26J-499D01*
G37*
G36*
G01X199262Y175443D02*
G02X199200Y173631I1038J-943D01*
G03X198438Y173657I-392J-310D01*
G02X198500Y175469I-1038J943D01*
G03X199262Y175443I392J310D01*
G37*
G36*
G01X210844Y167802D02*
G02X210010Y168935I-1394J-152D01*
G03X210706Y169448I199J459D01*
G02X211540Y168315I1394J152D01*
G03X210844Y167802I-199J-459D01*
G37*
G36*
G01X227592Y190919D02*
G03X227242Y190939I-185J-168D01*
G02X225584Y190884I-862J976D01*
G03X224965Y190877I-305J-396D01*
G02X223249Y192834I-819J1013D01*
G03X223255Y193190I-172J181D01*
G02X224688Y195303I929J913D01*
G03X225289Y195473I194J461D01*
G02X227450Y195407I1058J-758D01*
G03X228040Y195201I424J265D01*
G02X229772Y194081I434J-1228D01*
G03X230417Y193644I498J41D01*
G02X230249Y191220I383J-1244D01*
G03X229627Y191052I-211J-453D01*
G02X227592Y190919I-1070J742D01*
G37*
G36*
G01X236680Y202741D02*
G03X236205Y202115I9J-500D01*
G02X233729Y202250I-1260J-330D01*
G03X233544Y202841I-467J178D01*
G02X233178Y204608I736J1074D01*
G03X233097Y204954I-212J133D01*
G02X232897Y207020I683J1109D01*
G03X232911Y207373I-170J184D01*
G02X234880Y209075I958J882D01*
G03X235659Y209079I388J315D01*
G02X237313Y207131I1019J-811D01*
G03X237216Y206791I121J-218D01*
G02X237213Y205513I-1136J-636D01*
G03X237306Y205172I217J-124D01*
G02X236680Y202741I-648J-1129D01*
G37*
G36*
G01X290613Y166230D02*
G02X290336Y164569I967J-1015D01*
G03X289547Y164700I-444J-231D01*
G02X289824Y166361I-967J1015D01*
G03X290613Y166230I444J231D01*
G37*
G36*
G01X268766Y180073D02*
G02X267331Y179870I-566J-1173D01*
G03X267214Y180692I-334J372D01*
G02X268649Y180895I566J1173D01*
G03X268766Y180073I334J-372D01*
G37*
G36*
G01X271767Y188074D02*
G02X270005Y188141I-917J-924D01*
G03X270033Y188876I-324J380D01*
G02X271795Y188809I917J924D01*
G03X271767Y188074I324J-380D01*
G37*
G36*
G01X325815Y192110D02*
G02X324365Y191201I-135J-1395D01*
G03X323945Y191873I-469J174D01*
G02X325395Y192782I135J1395D01*
G03X325815Y192110I469J-174D01*
G37*
G36*
G01X272878Y195060D02*
G02X272726Y193333I1022J-960D01*
G03X271959Y193418I-419J-273D01*
G02X270105Y193454I-909J932D01*
G03X269364Y193438I-363J-344D01*
G02X267402Y195149I-984J852D01*
G03X267249Y195927I-376J330D01*
G02X267001Y198096I581J1165D01*
G03X266988Y198878I-318J386D01*
G02X268612Y198905I795J1031D01*
G03X268625Y198123I318J-386D01*
G02X268847Y197905I-795J-1031D01*
G03X269610Y197884I390J312D01*
G02X271597Y196202I970J-869D01*
G03X271727Y195462I390J-313D01*
G02X272107Y195110I-677J-1112D01*
G03X272878Y195060I406J292D01*
G37*
G36*
G01X261499Y200583D02*
G02X259735Y198671I-831J-1003D01*
G03X259383Y198677I-179J-174D01*
G02X259413Y200524I-903J938D01*
G03X259765Y200518I179J174D01*
G02X259846Y200590I905J-936D01*
G03X259849Y201362I-316J387D01*
G02X261502Y201355I831J1003D01*
G03X261499Y200583I316J-387D01*
G37*
G36*
G01X311911Y200336D02*
G02X310472Y201516I-1385J-221D01*
G03X310946Y202094I-20J499D01*
G02X313328Y203300I1385J221D01*
G03X314011Y203274I355J352D01*
G02X315469Y203509I919J-1059D01*
G03X316153Y203877I193J462D01*
G02X316991Y202321I1377J-262D01*
G03X316307Y201953I-193J-462D01*
G02X313933Y201230I-1377J262D01*
G03X313250Y201256I-355J-352D01*
G02X312385Y200914I-919J1059D01*
G03X311911Y200336I20J-499D01*
G37*
G36*
G01X334025Y203933D02*
G02X332438Y203908I-775J-1168D01*
G03X332425Y204732I-290J408D01*
G02X334012Y204757I775J1168D01*
G03X334025Y203933I290J-408D01*
G37*
G36*
G01X333926Y214107D02*
G02X332274Y213694I-526J-1407D01*
G03X332074Y214493I-375J331D01*
G02X333726Y214906I526J1407D01*
G03X333926Y214107I375J-331D01*
G37*
G36*
G01X326361Y212955D02*
G02X323853Y211880I-1381J-240D01*
G03X323089Y211927I-402J-297D01*
G02X320680Y212735I-1016J966D01*
G03X320159Y213179I-497J-56D01*
G02X321486Y214737I-66J1400D01*
G03X322007Y214293I497J56D01*
G02X323200Y213728I67J-1400D01*
G03X323964Y213681I402J297D01*
G02X325220Y214096I1016J-966D01*
G03X325799Y214675I86J493D01*
G02X326940Y213534I1381J240D01*
G03X326361Y212955I-86J-493D01*
G37*
G36*
G01X260419Y179717D02*
G03X261057Y179648I360J347D01*
G02X260841Y177663I723J-1083D01*
G03X260203Y177732I-360J-347D01*
G02X260419Y179717I-723J1083D01*
G37*
G36*
G01X307322Y180342D02*
G03X306638I-342J-365D01*
G02Y182388I-958J1023D01*
G03X307322I342J365D01*
G02Y180342I958J-1023D01*
G37*
G36*
G01X291604Y192056D02*
G03X291617Y191360I365J-341D01*
G02X289605Y191322I-988J-995D01*
G03X289592Y192018I-365J341D01*
G02X291604Y192056I988J995D01*
G37*
G36*
G01X311928Y191169D02*
G03X311791Y191856I-418J274D01*
G02X311603Y192009I788J1160D01*
G03X310907I-348J-358D01*
G02X310372Y191685I-975J1007D01*
G03X310070Y191014I158J-475D01*
G02X308338Y191795I-1290J-549D01*
G03X308640Y192466I-158J475D01*
G02X310907Y194021I1290J549D01*
G03X311603I348J358D01*
G02X313752Y192246I977J-1006D01*
G03X313889Y191559I418J-274D01*
G02X311928Y191169I-789J-1159D01*
G37*
G36*
G01X281037Y191620D02*
G03X281741Y191549I387J316D01*
G02X281543Y189579I889J-1084D01*
G03X280839Y189650I-387J-316D01*
G02X281037Y191620I-889J1084D01*
G37*
G36*
G01X263030Y193202D02*
G03X263048Y192581I401J-299D01*
G02X261083Y190872I-997J-838D01*
G03X260733Y190892I-185J-168D01*
G02X260123Y193149I-859J979D01*
G03X260710Y193735I96J491D01*
G02X263030Y193202I1278J247D01*
G37*
G36*
G01X256855Y207040D02*
G03X256886Y207390I-162J191D01*
G02X258732Y207226I1004J829D01*
G03X258701Y206876I162J-191D01*
G02X256855Y207040I-1004J-829D01*
G37*
G36*
G01X291489Y211877D02*
G03X290807Y211928I-368J-338D01*
G02X290958Y213969I-880J1091D01*
G03X291640Y213918I368J338D01*
G02X291489Y211877I880J-1091D01*
G37*
G36*
G01X252983Y214717D02*
G03X252989Y215415I-355J352D01*
G02X254853Y215397I941J900D01*
G03X254847Y214699I355J-352D01*
G02X252983Y214717I-941J-900D01*
G37*
G36*
G01X261597Y214871D02*
G03X261111Y214347I13J-500D01*
G02X259776Y215586I-1300J-63D01*
G03X260262Y216110I-13J500D01*
G02X261597Y214871I1300J63D01*
G37*
G54D46*
X20500Y232284D03*
X40900Y240487D03*
X51280Y351815D03*
X62480Y384598D03*
X65850Y394550D03*
X62200Y394500D03*
X84182Y387237D03*
X80182Y391237D03*
X84182D03*
X95150Y217800D03*
X94900Y381300D03*
X92930Y398344D03*
X180300Y2400D03*
X194100Y82584D03*
X193400Y95684D03*
X216700Y80984D03*
X250787Y14584D03*
X277900Y268900D03*
X268500Y296650D03*
X305180Y322788D03*
X295134Y319169D03*
X294180Y309736D03*
X324700Y75700D03*
Y71500D03*
X320949Y139712D03*
X318522Y137034D03*
X315485Y319210D03*
X311100Y316000D03*
X327762Y81400D03*
X330000Y116500D03*
Y123300D03*
X338980Y314515D03*
X334780Y314315D03*
X362400Y154400D03*
X366500D03*
X374147Y106453D03*
X369553D03*
X388800Y154600D03*
X400937Y90763D03*
X394000Y154600D03*
X399800Y172300D03*
X402033Y216715D03*
Y221617D03*
X397700Y250600D03*
X428500Y154200D03*
X423300D03*
X424600Y250566D03*
X419820Y245700D03*
X448080Y288315D03*
X461281Y77981D03*
X474047Y106453D03*
X469500Y147400D03*
Y151300D03*
X461872Y282800D03*
X470600Y294100D03*
X478053Y106453D03*
X296900Y96550D03*
X294985Y80700D03*
X38830Y261099D03*
X192200Y295500D03*
X196000D03*
X199600Y295600D03*
X204200Y322900D03*
X206200Y318400D03*
X207500Y315100D03*
X213958Y343750D03*
X212600Y329400D03*
X239482Y339100D03*
X231400Y329909D03*
X249400Y384000D03*
X377993Y318161D03*
X378700Y339200D03*
X382800D03*
X405493Y326528D03*
X399993Y328315D03*
X396780Y326815D03*
X394250Y333650D03*
X453222Y323976D03*
X439315Y331482D03*
Y339230D03*
Y335482D03*
X446413Y373182D03*
X474780Y323815D03*
X463580Y323915D03*
X463365Y344538D03*
X463500Y340400D03*
X474980Y339815D03*
X472067Y337230D03*
Y332730D03*
X472113Y328482D03*
X463165Y348738D03*
X473815Y375982D03*
X338559Y205441D03*
G54D64*
X470815Y346990D03*
Y356990D03*
G54D52*
X49800Y190726D03*
X218913Y165987D03*
X246480Y160844D03*
X242730Y160615D03*
X242095Y180615D03*
X227280Y217399D03*
X233980Y198189D03*
X232430Y214056D03*
X227700Y214184D03*
X239824Y221100D03*
X267730Y212365D03*
X267930Y206165D03*
X267600Y185546D03*
X267799Y189100D03*
X267682Y172598D03*
X267980Y166315D03*
X258145Y194668D03*
X259030Y172915D03*
X253981Y164787D03*
X260380Y164715D03*
G54D51*
X436780Y182255D03*
Y209815D03*
X28850Y172100D03*
Y162100D03*
Y152100D03*
Y142100D03*
G54D59*
X305280Y361115D03*
X295280D03*
X290280Y371115D03*
X320280D03*
G54D53*
X14417Y214881D03*
X26622Y194409D03*
G54D45*
X301Y41899D03*
X2400Y83650D03*
X2480Y104520D03*
X7115Y103415D03*
X7150Y94050D03*
X7400Y98800D03*
X1539Y250145D03*
X1500Y245384D03*
X1654Y277791D03*
X1780Y281665D03*
X1937Y286563D03*
X-1400Y290500D03*
X1818Y292468D03*
X-1700Y296350D03*
X1700Y298350D03*
X-295Y321996D03*
X2787Y323964D03*
X-295Y345618D03*
Y329870D03*
X-308Y325933D03*
X2736Y343649D03*
X-295Y337744D03*
X-308Y341681D03*
Y333807D03*
X2736Y335775D03*
X2787Y331838D03*
X2736Y327901D03*
X2787Y339712D03*
X2736Y359397D03*
X-295Y361366D03*
X-308Y365303D03*
X2787Y363334D03*
X-295Y353492D03*
X-308Y349555D03*
Y357429D03*
X2787Y347586D03*
X2736Y367271D03*
X2787Y355460D03*
X2736Y351523D03*
X-308Y373177D03*
X-295Y369240D03*
X2800Y375145D03*
X26482Y5502D03*
Y22502D03*
X16307Y15307D03*
X16012Y6488D03*
X23624Y33526D03*
X14500Y57984D03*
X18000Y63984D03*
X18800Y87000D03*
X10300Y91800D03*
X17091Y105409D03*
X15000Y125700D03*
X16591Y259004D03*
X16563Y253098D03*
X16658Y247193D03*
X20500Y247567D03*
X16591Y282626D03*
X16685Y276720D03*
X16780Y270815D03*
X16686Y264909D03*
X20500Y271815D03*
X16780Y300342D03*
X16658Y294437D03*
X16564Y288531D03*
X20500Y296063D03*
Y311315D03*
Y350563D03*
X15800Y371208D03*
X20500Y374815D03*
X46200Y82400D03*
X46749Y108066D03*
X29600Y116800D03*
X31700Y123050D03*
X45200Y117700D03*
X49780Y260315D03*
X49100Y250400D03*
X49200Y278689D03*
X44780Y288400D03*
X49080Y284315D03*
X42700Y297200D03*
X42718Y293618D03*
X49400Y391800D03*
X70500Y-4400D03*
X62282Y22766D03*
Y50266D03*
X52902Y81886D03*
X64400Y81684D03*
X58200D03*
X56156Y99520D03*
X69300Y117526D03*
X68200Y130884D03*
X70916Y122284D03*
X56762Y129860D03*
X61000Y122384D03*
X56711Y136160D03*
X66200Y175300D03*
X53100Y166600D03*
X69800Y175000D03*
X58000Y166900D03*
X63700Y163800D03*
X69950Y163300D03*
X60000Y172630D03*
X68302Y206266D03*
X70650Y242950D03*
X55500Y253600D03*
X65400Y240700D03*
X58280Y284315D03*
X51280Y347815D03*
X69635Y356315D03*
X61100Y347800D03*
X51400Y368315D03*
X51280Y376815D03*
X54680Y376800D03*
X51400Y372315D03*
X53850Y380900D03*
X56737Y404037D03*
X78982Y11084D03*
Y49966D03*
X77340Y83934D03*
X82600Y82486D03*
X92311Y81784D03*
X74800Y111300D03*
X76900Y93050D03*
X72766Y101076D03*
X85575Y111300D03*
X85600Y100400D03*
X81100Y101300D03*
X76776Y120400D03*
X90838Y121936D03*
X71875Y130833D03*
X78718Y133187D03*
X74560Y138209D03*
X71906Y144594D03*
X80900Y171300D03*
X80300Y160400D03*
X92600Y161900D03*
X85300Y164100D03*
X81900D03*
X80900Y186700D03*
X79637Y177900D03*
X78800Y217400D03*
X74200Y221600D03*
X84480Y269865D03*
X88300Y337300D03*
X84100Y341400D03*
X84180Y345515D03*
X88200Y333300D03*
X92000Y329500D03*
X80100Y349400D03*
X86000Y366400D03*
X79900Y366300D03*
X80100Y353400D03*
X85119Y376485D03*
X76080Y376515D03*
X105900Y106000D03*
X105500Y124384D03*
X105600Y128484D03*
X110254Y113698D03*
X95636Y140938D03*
X110508Y144396D03*
X96700Y165500D03*
X100700Y156600D03*
X94300Y173800D03*
X105275Y167925D03*
X94200Y170200D03*
X94400Y179225D03*
X107000Y177800D03*
X100100Y177300D03*
X105200Y207400D03*
X96100Y227900D03*
Y233315D03*
X103830Y272415D03*
X103730Y303265D03*
X105530Y299415D03*
X110930Y285265D03*
X107180Y294315D03*
X109130Y290365D03*
X96200Y321100D03*
X96980Y312715D03*
X102080Y308415D03*
X97900Y317215D03*
X93600Y325500D03*
X113060Y342315D03*
X107940Y342560D03*
X109150Y328100D03*
X110500Y353315D03*
X101850Y371000D03*
X96552Y391848D03*
X99658Y401550D03*
X103437Y404537D03*
X118328Y3628D03*
X117726Y22526D03*
X128800Y22760D03*
X123000Y15084D03*
X123850Y56200D03*
X124284Y72050D03*
X133547Y72097D03*
X128300Y99100D03*
X122750Y105900D03*
X116600Y130000D03*
X116700Y124384D03*
X133668Y126068D03*
X125954Y150498D03*
X125754Y155998D03*
X128300Y187900D03*
X131200Y252000D03*
X129300Y257900D03*
X126685Y268215D03*
X119500Y277050D03*
X115380Y280665D03*
X135200Y275400D03*
X127400Y263600D03*
X127875Y290275D03*
X127400Y283300D03*
X116400Y310700D03*
X128094Y338406D03*
X124250Y333615D03*
X115780Y363815D03*
X118780Y356815D03*
X120642Y349315D03*
X132293Y368207D03*
X127500Y384950D03*
X117750Y387450D03*
X118700Y375300D03*
X120411Y389889D03*
X140200Y1000D03*
X140880Y20849D03*
X148880D03*
X156880D03*
X145300Y20460D03*
X153300Y20360D03*
X145546Y99626D03*
X141874Y92074D03*
X138680Y113200D03*
X153154Y113698D03*
X142054Y113598D03*
X143500Y131900D03*
X148700Y125600D03*
X156600Y137700D03*
X143668Y156500D03*
X149200Y155849D03*
X143700Y165249D03*
X148800Y194100D03*
X156100Y184500D03*
X140700Y230600D03*
X148750Y221200D03*
X139300Y265300D03*
X141480Y271515D03*
X138226Y277100D03*
X138080Y273615D03*
X140080Y294281D03*
X140130Y299415D03*
X140480Y321265D03*
X140086Y304521D03*
X140304Y309641D03*
X136900Y318300D03*
X136630Y323515D03*
X140480Y325715D03*
X140086Y357071D03*
X140130Y351965D03*
X140304Y362191D03*
X140355Y366890D03*
X136000Y365600D03*
X135700Y370600D03*
X150756Y380415D03*
X174916Y22600D03*
X165000Y24660D03*
X169200Y32650D03*
X173950Y64200D03*
X169900Y69184D03*
X165100Y71000D03*
X158000Y71400D03*
X169900Y79550D03*
X157900Y111500D03*
X158438Y105900D03*
X160600Y116400D03*
X176150Y131900D03*
X173820Y123520D03*
X176200Y143650D03*
X173750Y141150D03*
X174100Y172400D03*
X159400Y157249D03*
X170000Y166350D03*
X166650Y166500D03*
X158300Y188700D03*
X165500Y186400D03*
X162900Y218700D03*
X162884Y236961D03*
X159150Y224750D03*
X159680Y244641D03*
X159630Y249761D03*
Y254881D03*
X159675Y259996D03*
X163030Y282715D03*
X169728Y263346D03*
X176750Y269050D03*
X176600Y263979D03*
X176450Y286200D03*
X176400Y291100D03*
X176450Y296300D03*
X176513Y301213D03*
X159654Y296841D03*
X159576Y301961D03*
X162884Y289161D03*
X157230Y286165D03*
X176567Y306306D03*
X176400Y311104D03*
Y316104D03*
X159514Y307081D03*
X159544Y312201D03*
X176400Y321200D03*
X169659Y315546D03*
X162884Y341711D03*
X176401Y338701D03*
X176622Y343622D03*
X163180Y334965D03*
X157230Y341711D03*
X159304Y349391D03*
X159226Y354511D03*
X159164Y359631D03*
X159194Y364751D03*
X176692Y363708D03*
X176600Y358836D03*
X176665Y353665D03*
X176506Y348794D03*
X177804Y380189D03*
X157804Y380315D03*
X169728Y368096D03*
X176685Y372515D03*
X176571Y368729D03*
X170756Y380189D03*
X178953Y6031D03*
X190900Y23700D03*
X197000Y25700D03*
X186400Y12584D03*
X180400Y35200D03*
X179900Y31250D03*
X190700Y41084D03*
X186947Y44437D03*
X196394Y41380D03*
X196300Y57384D03*
X196800Y65984D03*
X189800Y65584D03*
X182400Y69084D03*
X180547Y49437D03*
X193300Y77784D03*
X179800Y79284D03*
X182400Y81700D03*
X192900Y104784D03*
X194700Y107884D03*
X197700Y100884D03*
X183250Y104100D03*
X196500Y104684D03*
X193900Y100400D03*
X180700Y131950D03*
X190700Y126300D03*
X197800Y114300D03*
X178700Y123300D03*
X198000Y134200D03*
X195000Y141150D03*
X183400Y136649D03*
X179150Y140750D03*
X191722Y158104D03*
X185753Y269054D03*
X196100Y267812D03*
X181000Y282200D03*
X185778Y343622D03*
X180750Y325850D03*
X185664Y348664D03*
X185665Y353665D03*
X185596Y358704D03*
X185492Y363708D03*
X185650Y367250D03*
Y371000D03*
X184500Y377950D03*
X197804Y379989D03*
X190756Y380115D03*
X202450Y23584D03*
X200500Y26584D03*
X216212Y26484D03*
X206387Y23491D03*
X204418Y26566D03*
X205000Y34284D03*
X199543Y48841D03*
X205733Y40794D03*
X209800Y65384D03*
X200400D03*
X217000Y72984D03*
X216976Y77184D03*
X214600Y105784D03*
X201400Y104722D03*
X219300Y100000D03*
X210500Y101084D03*
X203500Y100600D03*
X210500Y96084D03*
X207100Y101100D03*
X209600Y108084D03*
X217500Y111084D03*
X202600Y126584D03*
X208200Y126984D03*
X202000Y123284D03*
X202600Y117984D03*
X203600Y142400D03*
X217804Y379989D03*
X211080Y370215D03*
X210756Y379989D03*
X227800Y34884D03*
X228300Y39984D03*
X231800D03*
X224906Y48184D03*
X233500Y34784D03*
X238950Y65647D03*
X238475Y61084D03*
X223559Y65684D03*
X228700Y52084D03*
X241524Y91084D03*
X229300Y108084D03*
X220738Y109446D03*
X232700Y95884D03*
X237800Y125884D03*
X221200Y130500D03*
X240676Y145338D03*
X227700Y141200D03*
X227450Y137650D03*
X230780Y380015D03*
X258600Y6031D03*
X243300D03*
X258000Y21984D03*
X260100Y27684D03*
X242000Y10184D03*
X258000Y32450D03*
X250600Y32284D03*
Y39084D03*
X250500Y35633D03*
X255700Y46384D03*
X246500Y90700D03*
X259114Y91084D03*
X250787Y72714D03*
X258600Y97684D03*
X248450Y108500D03*
X260400Y108950D03*
X262200Y102284D03*
X262350Y117550D03*
X248000Y116400D03*
X262100Y234000D03*
X253400Y229250D03*
X251250Y235400D03*
X254627Y242373D03*
X265300Y-3400D03*
X273600Y6031D03*
X266170Y3154D03*
X272100Y44484D03*
X270000Y28984D03*
X277000D03*
Y39284D03*
X273500Y28984D03*
X280500Y28500D03*
X277700Y47184D03*
X264400Y108550D03*
X270300Y102284D03*
X270700Y105700D03*
X278300Y106584D03*
X274100Y99700D03*
X275400Y104184D03*
X264100Y97684D03*
X274300Y131300D03*
X276000Y118000D03*
X272100Y140400D03*
X280800Y145700D03*
X277250Y140450D03*
X273950Y233900D03*
X265550Y234900D03*
X269300Y235600D03*
X278600Y233900D03*
X270364Y254938D03*
X277146Y256524D03*
X282080Y283016D03*
X264050Y322500D03*
X270280Y333215D03*
X274550Y328900D03*
X297500Y6031D03*
X304812Y23491D03*
X288100Y24584D03*
X291800Y37784D03*
X299280Y28000D03*
X291900Y46300D03*
X295780Y28300D03*
X291800Y41984D03*
X287800Y36084D03*
X300598Y116656D03*
X300368Y112938D03*
X304244Y126622D03*
X285948Y143200D03*
X290700Y135300D03*
X305438Y240562D03*
X300394Y245600D03*
X293348Y246278D03*
X293600Y280700D03*
X285800Y266000D03*
X293700Y269500D03*
X285880Y301215D03*
X303100Y291350D03*
X292880Y299700D03*
X285880Y283015D03*
X305580Y300115D03*
X301080D03*
X288580Y322615D03*
X300180Y316115D03*
X288580Y312615D03*
X301080Y309515D03*
Y304815D03*
X305580D03*
Y309515D03*
X310717Y2871D03*
X324497Y3200D03*
X315600Y23984D03*
X318600Y28400D03*
X307280Y31600D03*
X316800Y82484D03*
X316500Y95884D03*
X307200Y243700D03*
X311380Y284139D03*
X306580Y284100D03*
X321600Y289700D03*
X315200Y291924D03*
X317780Y303715D03*
X309957Y300115D03*
X317100Y286000D03*
X317780Y299315D03*
X306580Y291900D03*
X325880Y305915D03*
X310080Y304815D03*
Y309515D03*
X328000Y3300D03*
X329300Y19700D03*
X344700Y48600D03*
X337500Y53500D03*
Y58800D03*
X344200Y144300D03*
X344300Y163500D03*
X342394Y245094D03*
X333950Y265000D03*
X336450Y267450D03*
X328400Y298756D03*
X343100Y301050D03*
X329280Y322515D03*
X336580Y307915D03*
X332080D03*
X340680D03*
X329280Y314115D03*
X358760Y6860D03*
X358465Y15535D03*
X358764Y72536D03*
X352264Y96864D03*
X367500Y164600D03*
X364350Y234650D03*
X355000Y251664D03*
X362100Y262700D03*
X359750Y265650D03*
X351280Y302315D03*
X388339Y85400D03*
X382040Y112540D03*
X389914Y131514D03*
X376780Y132580D03*
X381280Y132420D03*
X371000Y164600D03*
X373800Y166900D03*
X385300Y235566D03*
X385132Y252968D03*
X379450Y248550D03*
X375700Y259700D03*
X381826Y261976D03*
X392900Y90600D03*
X399363Y131663D03*
X410880Y125380D03*
X403599Y176099D03*
X408233Y218915D03*
X408300Y231500D03*
X408134Y226214D03*
X408233Y222616D03*
X397850Y237000D03*
X410015Y254400D03*
X407613Y240566D03*
X397314Y245566D03*
X397900Y240566D03*
X400350Y254550D03*
X396785Y269515D03*
X396400Y261976D03*
X405800Y264324D03*
X416685Y99615D03*
X429284Y99716D03*
X414880Y125420D03*
X425000Y170500D03*
X422080Y185520D03*
X419335Y229214D03*
X413200Y229415D03*
X420300Y238600D03*
X416000Y254300D03*
X441882Y99982D03*
X451331Y100131D03*
X445700Y257028D03*
X443200Y249130D03*
X453181Y248814D03*
X457451Y132651D03*
X463780Y132720D03*
X467079Y112821D03*
X468280Y132780D03*
X459467Y257028D03*
X475500Y240600D03*
X455056Y280100D03*
X466604Y266596D03*
X455500Y270500D03*
X458756Y280156D03*
X69496Y194196D03*
X69400Y190750D03*
X69100Y187400D03*
X64000Y184100D03*
X44305Y199509D03*
X37481Y199715D03*
X49900Y199688D03*
X41140Y207534D03*
X33380Y204015D03*
Y210465D03*
X33427Y216264D03*
X37580Y195415D03*
X1780Y213680D03*
X6280Y205315D03*
X38600Y323964D03*
X41780Y347815D03*
X38429Y347586D03*
X38457Y353492D03*
X41900Y372474D03*
X40780Y378315D03*
X41780Y368315D03*
X38900Y374900D03*
X192600Y309500D03*
X197600Y309700D03*
X217900Y282150D03*
X204300Y298113D03*
X207118Y295513D03*
X217682Y297927D03*
Y293727D03*
Y302327D03*
X209000Y287300D03*
X207500Y304900D03*
X202200Y309700D03*
X217682Y306727D03*
Y310727D03*
X210600Y321600D03*
X210417Y317767D03*
X207400Y341950D03*
X217100Y339876D03*
X205000Y329310D03*
X203300Y333250D03*
X211180Y355215D03*
X210780Y360215D03*
X234400Y280950D03*
X225600Y276200D03*
X233700Y277500D03*
X233650Y273500D03*
X228400Y283123D03*
X221445Y283351D03*
X235282Y297927D03*
X222082Y293727D03*
X235282D03*
X226482D03*
Y297927D03*
X222082Y302327D03*
X230882D03*
X226482D03*
X234700Y321550D03*
X236882Y305130D03*
X222082Y310727D03*
X235100Y310800D03*
X230882Y310727D03*
X226482D03*
Y306727D03*
X234700Y336850D03*
X228200Y342800D03*
X237950Y329400D03*
X239800Y367750D03*
X247500Y301500D03*
X249100Y291800D03*
X248201Y305050D03*
X258850Y343800D03*
X243550Y335600D03*
X249280Y367750D03*
X255600Y403500D03*
X266732Y357750D03*
X347400Y367800D03*
X363700Y317661D03*
X351280Y315315D03*
Y328815D03*
Y343315D03*
Y358315D03*
X359400Y363300D03*
X364400D03*
X371280Y302315D03*
X389671Y313799D03*
X380993Y313862D03*
X385493Y314362D03*
X371395Y314764D03*
X385493Y321764D03*
X376493Y313862D03*
X373993Y332362D03*
Y329035D03*
X389596Y325862D03*
X385493D03*
X381395D03*
X385493Y330063D03*
X375245Y336610D03*
X387550Y349200D03*
X385780Y358815D03*
X375780D03*
X373000Y363300D03*
X384464Y370800D03*
X393993Y313862D03*
X396557Y321857D03*
X402800Y307700D03*
X400000Y346600D03*
X403694Y342161D03*
X407280Y364315D03*
X401150Y365950D03*
X399780Y353815D03*
X408780Y360439D03*
X405850Y356350D03*
X400200Y381400D03*
X392500Y371100D03*
X430700Y364200D03*
X413280Y365815D03*
X421800Y350500D03*
X430900Y359839D03*
X438200Y361300D03*
X434300Y354700D03*
X453000Y373800D03*
X442147Y373182D03*
X468500Y364100D03*
X461800Y376524D03*
X469100Y382600D03*
X466200Y373800D03*
X456126Y376077D03*
X466009Y368671D03*
X455000Y379600D03*
X469600Y379124D03*
X467100Y394850D03*
X53100Y214302D03*
X59800Y204300D03*
X195700Y161950D03*
X198600Y160149D03*
X189850Y177520D03*
X178900Y207854D03*
X181100Y218700D03*
X183500Y210300D03*
X191100Y216438D03*
X188180Y214668D03*
X188500Y210054D03*
X188179Y218013D03*
X185500Y233951D03*
Y238500D03*
X190532Y223232D03*
X195080Y229700D03*
X194300Y224200D03*
X185500Y244044D03*
Y248915D03*
X185753Y254000D03*
Y259054D03*
X198600Y241600D03*
X201675Y168550D03*
X205350Y164150D03*
X222350Y154400D03*
X224700Y157850D03*
X240618Y156600D03*
X209200Y219400D03*
X209671Y230656D03*
X209800Y235800D03*
X241550Y259100D03*
X235900Y246200D03*
X232100Y245400D03*
X230949Y236500D03*
X236617Y238007D03*
X327180Y225165D03*
X333300Y195236D03*
X335000Y192200D03*
X332052Y171614D03*
X323180Y225165D03*
X317815Y206946D03*
X309400Y213300D03*
X309025Y207014D03*
X323680Y200715D03*
X313080Y214760D03*
X322380Y207265D03*
X317567Y188465D03*
X325680Y186715D03*
X321200Y187050D03*
X315980Y193215D03*
X311380Y184665D03*
X310480Y164003D03*
X312993Y171736D03*
X319200Y174441D03*
X321930Y163615D03*
X325080Y171115D03*
X313880Y164015D03*
X305330Y201515D03*
X296457Y212965D03*
X302330Y212783D03*
X299080Y182053D03*
X284880Y193388D03*
X284580Y177010D03*
X304480Y193008D03*
X303132Y166067D03*
X296580Y165215D03*
X284365Y204465D03*
X284080Y199040D03*
X277959Y181873D03*
X283600Y183500D03*
X275180Y188965D03*
X283317Y170778D03*
G54D47*
X138926Y390072D03*
X148926D03*
X158926D03*
X138926Y400072D03*
X148926D03*
X158926D03*
X168926Y390072D03*
X178926D03*
X168926Y400072D03*
X178926D03*
X188926Y390072D03*
X198926D03*
X188926Y400072D03*
X198926D03*
X208926Y390072D03*
X218926D03*
X208926Y400072D03*
X218926D03*
X347300Y137600D03*
X354280Y285685D03*
X364280D03*
X374280D03*
X396325D03*
X406325D03*
X416325D03*
X197050Y336450D03*
X286280Y342115D03*
X296280D03*
X319280D03*
X329280D03*
G54D42*
X179536Y-4441D03*
X10028Y391169D03*
X10020Y233200D03*
G54D48*
X337300Y137600D03*
G54D41*
X337505Y-4449D03*
G54D60*
X300280Y371115D03*
X325280Y361115D03*
X315280D03*
X310280Y371115D03*
G54D40*
X387642Y116957D03*
G54D39*
X449847Y69713D03*
G54D44*
X472985Y122595D03*
X14417Y200708D03*
G54D43*
X374559Y122595D03*
G54D56*
X427280Y384513D03*
G54D55*
Y409113D03*
G54D54*
X446180Y396313D03*
G54D63*
X472180Y311319D03*
G54D61*
X356780Y405315D03*
X375280D03*
X393780D03*
G54D58*
X277280Y384115D03*
X338280D03*
G54D49*
X376134Y28501D03*
X471410D03*
G54D62*
X414780Y311319D03*
G54D50*
X447450Y170165D03*
Y221905D03*
G54D57*
X285280Y396115D03*
X330280D03*
G54D38*
X470481Y277915D03*
%LPD*%
G75*
G54D10*
X0Y0D03*
Y411615D03*
X476000Y0D03*
Y411615D03*
G54D20*
X277280Y384115D03*
X338280D03*
G54D11*
X-8300Y14100D03*
Y24100D03*
Y34100D03*
X301Y41899D03*
X-8200Y65600D03*
Y55600D03*
X-5070Y85770D03*
X-8200Y85600D03*
X2400Y83650D03*
X2480Y104520D03*
X-8200Y95600D03*
X7115Y103415D03*
X7150Y94050D03*
X7400Y98800D03*
X-8000Y130000D03*
X-8100Y118200D03*
X-8140Y161050D03*
X-8200Y187900D03*
X-8100Y194800D03*
X1780Y205315D03*
X-8300Y206200D03*
X-8000Y212900D03*
X6280Y205315D03*
X1780Y213680D03*
X-8100Y223000D03*
X-8200Y230600D03*
Y260600D03*
Y250600D03*
Y240600D03*
X1539Y250145D03*
X1500Y245384D03*
X1654Y277791D03*
X1780Y281665D03*
X-8200Y270600D03*
Y280600D03*
Y300600D03*
Y290600D03*
X1937Y286563D03*
X-1400Y290500D03*
X1818Y292468D03*
X-1700Y296350D03*
X1700Y298350D03*
X-295Y321996D03*
X2787Y323964D03*
X-8200Y320600D03*
Y310600D03*
X-295Y345618D03*
Y329870D03*
X-308Y325933D03*
X2736Y343649D03*
X-295Y337744D03*
X-308Y341681D03*
Y333807D03*
X2736Y335775D03*
X-8200Y340600D03*
Y330600D03*
X2787Y331838D03*
X2736Y327901D03*
X2787Y339712D03*
X2736Y359397D03*
X-295Y361366D03*
X-308Y365303D03*
X2787Y363334D03*
X-295Y353492D03*
X-308Y349555D03*
X-8200Y360600D03*
Y350600D03*
X-308Y357429D03*
X2787Y347586D03*
X2736Y367271D03*
X2787Y355460D03*
X2736Y351523D03*
X-308Y373177D03*
X-8200Y380600D03*
Y370600D03*
X-295Y369240D03*
X2800Y375145D03*
X-8200Y400600D03*
Y390600D03*
X29000Y-8000D03*
X12000Y-8300D03*
X21500Y-8500D03*
X26482Y5502D03*
Y22502D03*
X16307Y15307D03*
X16012Y6488D03*
X23624Y33526D03*
X14500Y57984D03*
X18000Y63984D03*
X18800Y87000D03*
X10300Y91800D03*
X17091Y105409D03*
X15000Y125700D03*
X16591Y259004D03*
X16563Y253098D03*
X16658Y247193D03*
X20500Y247567D03*
X16591Y282626D03*
X16685Y276720D03*
X16780Y270815D03*
X16686Y264909D03*
X20500Y271815D03*
X16780Y300342D03*
X16658Y294437D03*
X16564Y288531D03*
X20500Y296063D03*
Y311315D03*
X23780Y367315D03*
X20500Y350563D03*
X24780Y361315D03*
X15800Y371208D03*
X20500Y374815D03*
X24300Y420000D03*
X14300D03*
X36100Y-8000D03*
X46200Y82400D03*
X46749Y108066D03*
X29600Y116800D03*
X31700Y123050D03*
X45200Y117700D03*
X46418Y192374D03*
X46051Y194949D03*
X37580Y195415D03*
X49800Y190726D03*
X44305Y199509D03*
X33427Y216264D03*
X33380Y210465D03*
Y204015D03*
X41140Y207534D03*
X49900Y199688D03*
X46437Y204700D03*
X47580Y215115D03*
X37481Y199715D03*
X47100Y201600D03*
X45638Y260338D03*
X49780Y260315D03*
X49100Y250400D03*
X49200Y278689D03*
X40450Y272783D03*
X40900Y266850D03*
X38350Y274752D03*
X43100Y282250D03*
X38353Y300342D03*
X38258Y294437D03*
X44780Y288400D03*
X49080Y284315D03*
X42700Y297200D03*
X42718Y293618D03*
X38600Y323964D03*
X45280Y340815D03*
X39280Y365303D03*
X41780Y347815D03*
X38429Y347586D03*
X38457Y353492D03*
X41900Y372474D03*
X40780Y378315D03*
X41780Y368315D03*
X38900Y374900D03*
X45304Y379715D03*
X49400Y391800D03*
X44300Y420000D03*
X34300D03*
X70500Y-4400D03*
X55400Y-7900D03*
X67700Y-8000D03*
X62282Y22766D03*
Y50266D03*
X52902Y81886D03*
X64400Y81684D03*
X58200D03*
X56156Y99520D03*
X69300Y117526D03*
X64900Y133684D03*
X68200Y130884D03*
X57000Y126908D03*
X56700Y133208D03*
X65000Y131000D03*
X70916Y122284D03*
X56762Y129860D03*
X61000Y122384D03*
X64939Y136354D03*
X68400Y144584D03*
X65000Y142010D03*
X64942Y139300D03*
X56711Y136160D03*
X66600Y165500D03*
X66200Y175300D03*
X53100Y166600D03*
X69800Y175000D03*
X58000Y166900D03*
X64400Y167200D03*
X63700Y163800D03*
X69950Y163300D03*
X60000Y172630D03*
X71500Y167700D03*
X64000Y184100D03*
X59300Y180400D03*
X69800Y179000D03*
X52458Y184990D03*
X56200Y182800D03*
X70900Y197300D03*
X69100Y187400D03*
X69400Y190750D03*
X52908Y182260D03*
X69496Y194196D03*
X69326Y202792D03*
X59800Y204300D03*
X56400Y206500D03*
X68302Y206266D03*
X57628Y209500D03*
X60200Y207200D03*
X53833Y207023D03*
X71300Y200500D03*
X53100Y214302D03*
X63800Y207900D03*
X70650Y242950D03*
X55500Y253600D03*
X59681Y246700D03*
X65400Y240700D03*
X58280Y284315D03*
X51280Y347815D03*
X69635Y356315D03*
X61100Y347800D03*
X51400Y368315D03*
X51280Y376815D03*
X54680Y376800D03*
X51400Y372315D03*
X53850Y380900D03*
X69480Y389598D03*
X69930Y395037D03*
X69290Y400500D03*
X69280Y392356D03*
X70575Y398050D03*
X56737Y404037D03*
X54300Y420000D03*
X77400Y-7900D03*
X88100Y-8000D03*
X83400Y27584D03*
X78982Y11084D03*
X86553Y27737D03*
X78982Y49966D03*
X77340Y83934D03*
X82600Y82486D03*
X92311Y81784D03*
X74800Y111300D03*
X76900Y93050D03*
X72766Y101076D03*
X85575Y111300D03*
X85600Y100400D03*
X81100Y101300D03*
X76776Y120400D03*
X85575Y120784D03*
X87600Y128886D03*
X89800Y130384D03*
X90838Y121936D03*
X86825Y132823D03*
X83607Y123084D03*
X75381Y130795D03*
X71875Y130833D03*
X78718Y133187D03*
X85600Y154600D03*
X89900Y134900D03*
X86800Y135803D03*
X74600Y135591D03*
X78709Y135796D03*
X90700Y154200D03*
X74560Y138209D03*
X71906Y144594D03*
X80900Y171300D03*
X80300Y160400D03*
X92600Y161900D03*
X85300Y164100D03*
X81900D03*
X88200Y156149D03*
X72400Y170300D03*
X80900Y186700D03*
X79637Y177900D03*
X73800Y187100D03*
X78800Y217400D03*
X85100Y204200D03*
X85850Y230300D03*
X74200Y221600D03*
X86750Y233315D03*
X84480Y269865D03*
X88300Y337300D03*
X84100Y341400D03*
X84180Y345515D03*
X88200Y333300D03*
X92000Y329500D03*
X80100Y349400D03*
X86000Y366400D03*
X79900Y366300D03*
X80100Y353400D03*
X85119Y376485D03*
X72430Y379985D03*
X76080Y376515D03*
X73528Y401434D03*
X106200Y-8200D03*
X105900Y106000D03*
X105500Y124384D03*
X105600Y128484D03*
X110254Y113698D03*
X95636Y140938D03*
X110508Y144396D03*
X96700Y165500D03*
X107100Y174050D03*
X100700Y156600D03*
X110080Y174100D03*
X94300Y173800D03*
X105275Y167925D03*
X94200Y170200D03*
X94400Y179225D03*
X112600Y194800D03*
Y191200D03*
X112500Y184600D03*
X107000Y177800D03*
X101000Y185200D03*
X99900Y182595D03*
X102900Y182453D03*
X100100Y177300D03*
X105200Y207400D03*
X96100Y227900D03*
Y233315D03*
X103830Y272415D03*
X103730Y303265D03*
X105530Y299415D03*
X110930Y285265D03*
X107180Y294315D03*
X109130Y290365D03*
X96200Y321100D03*
X96980Y312715D03*
X102080Y308415D03*
X97900Y317215D03*
X93600Y325500D03*
X113060Y342315D03*
X107940Y342560D03*
X109150Y328100D03*
X110500Y353315D03*
X101850Y371000D03*
X111700Y379200D03*
X96552Y391848D03*
X99658Y401550D03*
X103437Y404537D03*
X114300Y420000D03*
X104300D03*
X128600Y-8000D03*
X115700Y-8100D03*
X118328Y3628D03*
X117726Y22526D03*
X128800Y22760D03*
X123000Y15084D03*
X123850Y56200D03*
X124284Y72050D03*
X133547Y72097D03*
X128300Y99100D03*
X122750Y105900D03*
X133680Y113620D03*
X116600Y130000D03*
X116700Y124384D03*
X133668Y126068D03*
X125954Y150498D03*
X133668Y156500D03*
X125754Y155998D03*
X128300Y187900D03*
X116978Y196716D03*
X115200Y192900D03*
Y186300D03*
X119842Y196625D03*
X115200Y189600D03*
X131200Y252000D03*
X129300Y257900D03*
X126685Y268215D03*
X119500Y277050D03*
X115380Y280665D03*
X135200Y275400D03*
X127400Y263600D03*
X127875Y290275D03*
X127400Y283300D03*
X116400Y310700D03*
X128094Y338406D03*
X124250Y333615D03*
X115780Y363815D03*
X118780Y356815D03*
X120642Y349315D03*
X132293Y368207D03*
X127500Y384950D03*
X117750Y387450D03*
X118700Y375300D03*
X120411Y389889D03*
X134300Y420000D03*
X124300D03*
X142000Y-8300D03*
X140200Y1000D03*
X140880Y20849D03*
X148880D03*
X156880D03*
X145300Y20460D03*
X153300Y20360D03*
X145546Y99626D03*
X141874Y92074D03*
X138680Y125500D03*
X148680Y113620D03*
X138680Y113200D03*
X153154Y113698D03*
X142054Y113598D03*
X143500Y131900D03*
X148700Y125600D03*
X156600Y137700D03*
X148600Y143000D03*
X154450Y149150D03*
X156650Y167850D03*
X143668Y156500D03*
X136700Y156049D03*
X149200Y155849D03*
X143700Y165249D03*
X148800Y194100D03*
X156100Y184500D03*
X140700Y230600D03*
X148750Y221200D03*
X137700Y254100D03*
X137600Y257100D03*
X139300Y265300D03*
X141480Y271515D03*
X138226Y277100D03*
X138080Y273615D03*
X140080Y294281D03*
X140130Y299415D03*
X140480Y321265D03*
X140086Y304521D03*
X140304Y309641D03*
X136900Y318300D03*
X136630Y323515D03*
X140480Y325715D03*
X138280Y344315D03*
X137780Y332315D03*
X140086Y357071D03*
X140080Y346831D03*
X140130Y351965D03*
X140304Y362191D03*
X140355Y366890D03*
X136000Y365600D03*
X135700Y370600D03*
X144280Y376565D03*
X137804Y380315D03*
X150756Y380415D03*
X140756Y379215D03*
X154300Y420000D03*
X144300D03*
X162000Y-8300D03*
X172000D03*
X169200Y23650D03*
X167300Y21050D03*
X174916Y22600D03*
X165000Y24660D03*
X169200Y32650D03*
X173950Y64200D03*
X169900Y69184D03*
X165100Y71000D03*
X158000Y71400D03*
X169900Y79550D03*
X157900Y111500D03*
X158438Y105900D03*
X160600Y116400D03*
X169751Y128149D03*
X176150Y131900D03*
X173820Y123520D03*
X157400Y149400D03*
X176200Y143650D03*
X173750Y141150D03*
X170100Y136750D03*
X168250Y134100D03*
X174100Y172400D03*
X156950Y170850D03*
X159400Y157249D03*
X170000Y166350D03*
X166650Y166500D03*
X175900Y175500D03*
X178150Y173500D03*
X158300Y188700D03*
X165500Y186400D03*
X168000Y215600D03*
X162900Y218700D03*
X177100D03*
X164900Y215500D03*
X162884Y236961D03*
X176472Y238872D03*
X176551Y233951D03*
X160306Y233415D03*
X159150Y224750D03*
X157230Y233965D03*
X159680Y244641D03*
X159630Y249761D03*
Y254881D03*
X159675Y259996D03*
X176542Y258958D03*
X176514Y254086D03*
X176615Y248915D03*
X176700Y244500D03*
X163030Y282715D03*
X169728Y263346D03*
X176750Y269050D03*
X176600Y263979D03*
X176450Y286200D03*
X176400Y291100D03*
X176450Y296300D03*
X176513Y301213D03*
X159654Y296841D03*
X159576Y301961D03*
X162884Y289161D03*
X157230Y286165D03*
X176567Y306306D03*
X176400Y311104D03*
Y316104D03*
X159514Y307081D03*
X159544Y312201D03*
X176400Y321200D03*
X169659Y315546D03*
X162884Y341711D03*
X176401Y338701D03*
X176622Y343622D03*
X163180Y334965D03*
X157230Y341711D03*
X159304Y349391D03*
X159226Y354511D03*
X159164Y359631D03*
X159194Y364751D03*
X176692Y363708D03*
X176600Y358836D03*
X176665Y353665D03*
X176506Y348794D03*
X177804Y380189D03*
X157804Y380315D03*
X164280Y376365D03*
X169728Y368096D03*
X176685Y372515D03*
X176571Y368729D03*
X170756Y380189D03*
X174300Y420000D03*
X164300D03*
X194576Y971D03*
X198513D03*
X196544Y2871D03*
X190639Y971D03*
X187000Y-8300D03*
X178953Y6031D03*
X192607Y2871D03*
X190900Y23700D03*
X182800Y12684D03*
X180800Y15784D03*
X197000Y25700D03*
X187500Y23184D03*
X180000Y12860D03*
X186400Y12584D03*
X187100Y26100D03*
X191600Y37662D03*
X180400Y35200D03*
X179900Y31250D03*
X193300Y35600D03*
X190700Y41084D03*
X186947Y44437D03*
X196394Y41380D03*
X190900Y52584D03*
X190700Y49784D03*
X194400Y52584D03*
X196300Y57384D03*
X196800Y65984D03*
X189800Y65584D03*
X182400Y69084D03*
X180547Y49437D03*
X198500Y52484D03*
X194400Y49884D03*
X193300Y77784D03*
X179800Y79284D03*
X182400Y81700D03*
X192900Y104784D03*
X194700Y107884D03*
X197700Y100884D03*
X183250Y104100D03*
X196500Y104684D03*
X193900Y100400D03*
X180700Y131950D03*
X197300Y126284D03*
X190700Y126300D03*
X196800Y123184D03*
X197800Y114300D03*
X178700Y123300D03*
X198000Y134200D03*
X195000Y141150D03*
X183400Y136649D03*
X179150Y140750D03*
X197400Y174600D03*
X182950Y171672D03*
X199000Y156750D03*
X186000Y171672D03*
X195600Y156850D03*
X195700Y161950D03*
X198600Y160149D03*
X184850Y165100D03*
X188550Y166050D03*
X182950Y167050D03*
X191722Y158104D03*
X189850Y177520D03*
X178900Y207854D03*
X181100Y218700D03*
X183500Y210300D03*
X191100Y216438D03*
X192500Y211154D03*
X194500Y213130D03*
X188180Y214668D03*
X188500Y210054D03*
X188179Y218013D03*
X185500Y233951D03*
Y238500D03*
X190532Y223232D03*
X194580Y234465D03*
X195080Y229700D03*
X194680Y237465D03*
X194300Y224200D03*
X197602Y219681D03*
X185500Y244044D03*
Y248915D03*
X185753Y254000D03*
Y259054D03*
X198600Y241600D03*
X185753Y264000D03*
Y269054D03*
X196100Y267812D03*
X181000Y282200D03*
X192600Y309500D03*
X197600Y309700D03*
X186000Y338800D03*
X185778Y343622D03*
X180750Y325850D03*
X185664Y348664D03*
X185665Y353665D03*
X185596Y358704D03*
X185492Y363708D03*
X185650Y367250D03*
Y371000D03*
X184500Y377950D03*
X197804Y379989D03*
X190756Y380115D03*
X194300Y420000D03*
X184300D03*
X204418Y2871D03*
X206387Y971D03*
X218198D03*
X202450D03*
X212292Y2871D03*
X208355D03*
X214261Y971D03*
X220166Y2871D03*
X210324Y971D03*
X216229Y2871D03*
X200481D03*
X202450Y23584D03*
X200500Y26584D03*
X216212Y26484D03*
X206387Y23491D03*
X204418Y26566D03*
X208992Y48284D03*
X205000Y34284D03*
X199543Y48841D03*
X210567Y41217D03*
X216866Y48284D03*
X205733Y40794D03*
X215400Y38584D03*
X213717Y48284D03*
Y41201D03*
X209689Y52795D03*
X212300Y54784D03*
X219509Y49852D03*
X212142Y50784D03*
X207400D03*
X211264Y57284D03*
X209800Y65384D03*
X200400D03*
X201600Y52484D03*
X202076Y72008D03*
X217000Y72984D03*
X216976Y77184D03*
X202124Y74960D03*
X214600Y105784D03*
X201400Y104722D03*
X219300Y100000D03*
X210500Y101084D03*
X203500Y100600D03*
X210500Y96084D03*
X207100Y101100D03*
X209600Y108084D03*
X217500Y111084D03*
X202600Y126584D03*
X208200Y126984D03*
X202000Y123284D03*
X202600Y117984D03*
X210050Y137800D03*
X207400Y136800D03*
X212050Y154500D03*
X203600Y142400D03*
X203700Y147100D03*
X201675Y168550D03*
X205350Y164150D03*
X209450Y167650D03*
X218913Y165987D03*
X200300Y174500D03*
X212300Y157100D03*
X212100Y169600D03*
X218978Y212918D03*
X217750Y225750D03*
X209200Y219400D03*
X200880Y223615D03*
X203921Y223540D03*
X209671Y230656D03*
X220500Y226100D03*
X203100Y219200D03*
X219380Y235815D03*
X209800Y235800D03*
X200200Y219800D03*
X212800Y219600D03*
X219650Y258450D03*
Y255700D03*
X217200Y243000D03*
X217100Y257100D03*
X204300Y273200D03*
X203700Y278398D03*
X217900Y282150D03*
X210450Y280250D03*
X218400Y277600D03*
Y274800D03*
X204887Y281576D03*
X203940Y275809D03*
X204300Y298113D03*
X207118Y295513D03*
X205350Y290900D03*
X202550D03*
X217682Y297927D03*
Y293727D03*
Y302327D03*
X207529Y301327D03*
X209000Y287300D03*
X219592Y322000D03*
X213700Y323200D03*
X207500Y304900D03*
X216400Y322400D03*
X202200Y309700D03*
X217682Y306727D03*
Y310727D03*
X207600Y311400D03*
X210600Y321600D03*
X210417Y317767D03*
X207400Y341950D03*
X217100Y339876D03*
X205000Y329310D03*
X211000Y341400D03*
X203300Y333250D03*
X211180Y355215D03*
X210580Y365815D03*
X210780Y360215D03*
X217804Y379989D03*
X204280Y376365D03*
X211080Y370215D03*
X210756Y379989D03*
X214300Y420000D03*
X204300D03*
X230009Y971D03*
X226072D03*
X228040Y2871D03*
X224103D03*
X222135Y971D03*
X233600Y984D03*
X231700Y3184D03*
X236862Y973D03*
X235261Y3023D03*
X238500Y10184D03*
X233900Y10384D03*
X221591Y48293D03*
X227800Y34884D03*
X228300Y39984D03*
X237500Y38684D03*
X239200Y40784D03*
X231800Y39984D03*
X224906Y48184D03*
X233500Y34784D03*
X240000Y51384D03*
X222100Y51484D03*
X238475Y56059D03*
X236600Y58284D03*
X238950Y65647D03*
X238475Y61084D03*
X236600Y53784D03*
X223559Y65684D03*
X228700Y52084D03*
X241524Y91084D03*
X229300Y108084D03*
X220738Y109446D03*
X225500Y102984D03*
X228196Y101400D03*
X229239Y97750D03*
X237200Y111900D03*
X223425Y104984D03*
X239800Y112650D03*
X228121Y95343D03*
X232700Y95884D03*
X237800Y125884D03*
X221200Y130500D03*
X231700Y139550D03*
X240676Y145338D03*
X227700Y141200D03*
X222350Y154400D03*
X231580Y142250D03*
X227450Y137650D03*
X226308Y176091D03*
X234298Y172584D03*
X226150Y170457D03*
X233750Y170400D03*
X224700Y157850D03*
X241618Y174665D03*
X228780Y172610D03*
X235980Y174715D03*
X233700Y174681D03*
X236590Y172515D03*
X235955Y170427D03*
X241602Y170410D03*
X228342Y170453D03*
X240618Y156600D03*
X224128Y176036D03*
X226374Y172626D03*
X235212Y183415D03*
X237180D03*
X233243D03*
X239138Y195232D03*
X230800Y192400D03*
X241107Y183421D03*
X235201Y195232D03*
X230455Y186094D03*
X228557Y191794D03*
X228359Y186846D03*
X230600Y176788D03*
X226347Y194715D03*
X228474Y193973D03*
X226380Y191915D03*
X224180Y179015D03*
X224146Y191890D03*
X234051Y180474D03*
X237174Y189331D03*
X235205D03*
X241111D03*
X236730Y176808D03*
X230477Y183896D03*
X226296Y183941D03*
X228393Y184538D03*
X228315Y178989D03*
X226235Y178285D03*
X224187Y184516D03*
X230535Y178974D03*
X226250Y186137D03*
X224184Y194103D03*
X224154Y186740D03*
X234502Y176709D03*
X228387Y176749D03*
X230520Y194797D03*
X233880Y186274D03*
X236347Y180494D03*
X227700Y214184D03*
X241890Y198181D03*
X228580Y202629D03*
X230780Y202126D03*
X226324Y202114D03*
X236080Y206155D03*
X228280Y208536D03*
X225661Y206798D03*
X224166Y202425D03*
X236678Y208268D03*
X227646Y205745D03*
X232430Y214056D03*
X228427Y200350D03*
X224189Y200244D03*
X233869Y208255D03*
X233980Y198189D03*
X227280Y217399D03*
X230495Y199660D03*
X226335Y199689D03*
X236658Y204043D03*
X234945Y201785D03*
X233780Y206063D03*
X234280Y203915D03*
X236617Y238007D03*
X230949Y236500D03*
X239824Y221100D03*
X224538Y222962D03*
X240300Y244500D03*
X240200Y247200D03*
X232100Y245400D03*
X235900Y246200D03*
X222380Y242400D03*
X241550Y259100D03*
X234400Y280950D03*
X239500Y282000D03*
X225500Y268700D03*
X225600Y276200D03*
X233700Y277500D03*
X233650Y273500D03*
X228400Y283123D03*
X221445Y283351D03*
X235282Y297927D03*
X222082Y293727D03*
X235282D03*
X226482D03*
Y297927D03*
X222082Y302327D03*
X230882D03*
X226482D03*
X236140Y283550D03*
X234700Y321550D03*
X236882Y305130D03*
X222082Y310727D03*
X235100Y310800D03*
X230882Y310727D03*
X226482D03*
Y306727D03*
X231500Y322200D03*
X223578Y322000D03*
X239350Y320550D03*
X234700Y336850D03*
X228200Y342800D03*
X237950Y329400D03*
X239800Y367750D03*
X224280Y376365D03*
X230780Y380015D03*
X234300Y420000D03*
X224300D03*
X255800Y-178D03*
X255900Y-3416D03*
X259200Y-3316D03*
X261611Y2484D03*
X258600Y6031D03*
X243300D03*
X258000Y18409D03*
X258700Y9500D03*
X258000Y21984D03*
X260100Y27684D03*
X242000Y10184D03*
X253600Y33884D03*
X258000Y32450D03*
X253637Y37171D03*
X250600Y32284D03*
X247698Y48082D03*
X251984Y47972D03*
X250600Y39084D03*
X250500Y35633D03*
X255700Y46384D03*
X242600Y49472D03*
X249879Y49499D03*
X245500Y49484D03*
X254100D03*
X246500Y90700D03*
X259114Y91084D03*
X250787Y72714D03*
X257950Y111550D03*
X258600Y97684D03*
X248450Y108500D03*
X260400Y108950D03*
X262200Y102284D03*
X258000Y116150D03*
X262350Y117550D03*
X248000Y116400D03*
X259500Y113950D03*
X251680Y174665D03*
X249464Y174675D03*
X246480Y160844D03*
X252400Y172571D03*
X242284Y172588D03*
X251929Y170442D03*
X244480Y172512D03*
X243970Y174683D03*
X250207Y172606D03*
X242730Y160615D03*
X243782Y170421D03*
X260380Y164715D03*
X253981Y164787D03*
X249730Y170465D03*
X259030Y172915D03*
X252918Y183421D03*
X250949D03*
X256230Y186815D03*
X250954Y195236D03*
X252918D03*
X243075Y183421D03*
X261988Y193982D03*
X252430Y176762D03*
X247012Y195232D03*
Y183421D03*
X244604Y176769D03*
X262047Y183884D03*
X259870Y186709D03*
X255992Y193800D03*
X255874Y191800D03*
Y184015D03*
X255854Y178565D03*
X252230Y180615D03*
X262051Y191743D03*
X261780Y178565D03*
X258145Y194668D03*
X257930Y185315D03*
X242095Y180615D03*
X245048Y187363D03*
Y189331D03*
X248985D03*
X262030Y186365D03*
X250250Y176709D03*
X259480Y178815D03*
X259874Y191871D03*
X259811Y183915D03*
X242376Y176709D03*
X250031Y180662D03*
X243075Y195232D03*
X257697Y206047D03*
X251945Y201945D03*
X249768Y206425D03*
X243878Y201929D03*
X249477Y201992D03*
X249819Y204146D03*
X261562Y216173D03*
X252000Y204197D03*
X244532Y204043D03*
X257890Y208219D03*
X242280Y204016D03*
X244552Y208268D03*
X243819Y206161D03*
X258480Y199615D03*
X256300Y201964D03*
X255874Y199715D03*
X243250Y215200D03*
X251123Y208409D03*
X242280Y208228D03*
X253906Y213799D03*
X260680Y202365D03*
X259811Y214284D03*
X252213Y197980D03*
X244162Y198232D03*
X253930Y216315D03*
X252000Y206413D03*
X260668Y199580D03*
X241638Y206134D03*
X241625Y201936D03*
X249713Y198128D03*
X262100Y234000D03*
X253400Y229250D03*
X251250Y235400D03*
X247295Y233804D03*
X249386Y226614D03*
X246500Y246600D03*
X254627Y242373D03*
X261784Y252166D03*
X249100Y266500D03*
X249300Y263500D03*
X242097Y281516D03*
X249100Y270300D03*
Y273800D03*
X245300Y290200D03*
X247500Y301500D03*
X247950Y296650D03*
X245850Y294350D03*
X249100Y291800D03*
X245300Y287387D03*
X245500Y299250D03*
X263000Y302500D03*
X248201Y305050D03*
X253000Y318700D03*
X251300Y321300D03*
X250204Y318922D03*
X246100Y312400D03*
X245800Y315550D03*
X260700Y311200D03*
X246500Y307248D03*
X245306Y304900D03*
X258850Y343800D03*
X243550Y335600D03*
X249280Y367750D03*
X255600Y403500D03*
X254300Y420000D03*
X244300D03*
X263800Y700D03*
X271347Y2871D03*
X277253Y971D03*
X273316D03*
X279221Y2871D03*
X265300Y-3400D03*
X281190Y971D03*
X275284Y2871D03*
X269379Y971D03*
X273600Y6031D03*
X266170Y3154D03*
X283158Y2871D03*
X272100Y44484D03*
X263780Y37604D03*
X270000Y28984D03*
X277000D03*
Y39284D03*
X273500Y28984D03*
X283700Y37200D03*
X280500Y28500D03*
X266100Y44384D03*
X277700Y47184D03*
X263800Y40600D03*
X267800Y42396D03*
X280500Y37584D03*
X264400Y108550D03*
X270300Y102284D03*
X270700Y105700D03*
X278300Y106584D03*
X274100Y99700D03*
X275400Y104184D03*
X264100Y97684D03*
X270000Y123300D03*
X274300Y131300D03*
X266900Y123300D03*
X268600Y117250D03*
X266700Y115000D03*
X276000Y118000D03*
X272100Y140400D03*
X280800Y145700D03*
X271930Y146715D03*
X277250Y140450D03*
X267980Y166315D03*
X267682Y172598D03*
X283317Y170778D03*
X267780Y181865D03*
X273900Y194100D03*
X275180Y188965D03*
X267799Y189100D03*
X268200Y178900D03*
X267600Y185546D03*
X268380Y194290D03*
X283600Y183500D03*
X282630Y190465D03*
X277959Y181873D03*
X270580Y197015D03*
X270950Y189800D03*
X270850Y187150D03*
X267830Y197092D03*
X271050Y194350D03*
X279950Y190734D03*
X284080Y199040D03*
X284365Y204465D03*
X267783Y199909D03*
X267930Y206165D03*
X267730Y212365D03*
X273950Y233900D03*
X265550Y234900D03*
X269300Y235600D03*
X283638Y232536D03*
X278600Y233900D03*
X270364Y254938D03*
X266384Y251814D03*
X277146Y256524D03*
X266350Y269800D03*
X282080Y283016D03*
X264050Y322500D03*
X270280Y333215D03*
X274550Y328900D03*
X266732Y357750D03*
X284300Y420000D03*
X274300D03*
X264300D03*
X302843Y2871D03*
X285127Y971D03*
X300875D03*
X289064D03*
X291032Y2871D03*
X304812Y971D03*
X298906Y2871D03*
X293001Y971D03*
X297500Y6031D03*
X304812Y23491D03*
X288100Y24584D03*
X291800Y37784D03*
X299280Y28000D03*
X291900Y46300D03*
X295780Y28300D03*
X291800Y41984D03*
X287800Y36084D03*
X300598Y116656D03*
X300368Y112938D03*
X304244Y126622D03*
X294946Y140010D03*
X285948Y143200D03*
X290700Y135300D03*
X294946Y137036D03*
X291580Y165215D03*
X295400Y171700D03*
X290900Y172200D03*
X300824Y173450D03*
X288580Y165715D03*
X296580Y165215D03*
X303132Y166067D03*
X290630Y190365D03*
X290579Y193013D03*
X304480Y193008D03*
X295780Y196365D03*
X293367Y186915D03*
X290223Y180154D03*
X284580Y177010D03*
X284880Y193388D03*
X299080Y182053D03*
X305680Y181365D03*
X292520Y212827D03*
X294679Y206733D03*
X300780Y206815D03*
X290551Y207065D03*
X291091Y200659D03*
X302330Y212783D03*
X296457Y212965D03*
X289927Y213019D03*
X305330Y201515D03*
X287012Y232392D03*
X292594Y232167D03*
X305438Y240562D03*
X300394Y245600D03*
X293348Y246278D03*
X302700Y280700D03*
X293600D03*
X300500Y278400D03*
X285800Y266000D03*
X293700Y269500D03*
X285880Y301215D03*
X303100Y291350D03*
X292880Y299700D03*
X285880Y283015D03*
X305580Y300115D03*
X301080D03*
X294600Y306230D03*
X288580Y322615D03*
X300180Y316115D03*
X292450Y304750D03*
X288580Y312615D03*
X301080Y309515D03*
Y304815D03*
X305580D03*
Y309515D03*
X304300Y420000D03*
X294300D03*
X318591Y2871D03*
X316623Y971D03*
X310717Y2871D03*
X322528Y5884D03*
X320560Y971D03*
X324497Y3200D03*
X322528Y23856D03*
X315600Y23984D03*
X321400Y10084D03*
X309300Y28950D03*
X318600Y28400D03*
X312050Y27950D03*
X307280Y31600D03*
X316800Y82484D03*
X316500Y95884D03*
X313880Y164015D03*
X325080Y171115D03*
X326180Y174415D03*
X306580Y172100D03*
X310237Y171865D03*
X321930Y163615D03*
X319200Y174441D03*
X312993Y171736D03*
X310480Y164003D03*
X324080Y193268D03*
X325680Y190715D03*
X311380Y184665D03*
X315980Y193215D03*
X326221Y194867D03*
X308280Y181365D03*
X313100Y190400D03*
X308780Y190465D03*
X321200Y187050D03*
X325680Y186715D03*
X309930Y193015D03*
X312580D03*
X317567Y188465D03*
X322380Y207265D03*
X313080Y214760D03*
X320093Y214579D03*
X316130Y216450D03*
X316142Y212865D03*
X325780Y202745D03*
X311625Y207019D03*
X325934Y206400D03*
X306670Y205862D03*
X326245Y199251D03*
X323680Y200715D03*
X309025Y207014D03*
X322073Y212893D03*
X309400Y213300D03*
X317815Y206946D03*
X312331Y202315D03*
X314930Y202215D03*
X310526Y200115D03*
X317530Y203615D03*
X324980Y212715D03*
X323180Y225165D03*
X318608Y228612D03*
X313080Y228194D03*
X318500Y247900D03*
X316500Y245600D03*
X307200Y243700D03*
X313800Y245700D03*
X308788Y240534D03*
X311974Y240562D03*
X326100Y282800D03*
X324100Y281000D03*
X309400Y278400D03*
X321900Y282800D03*
X311400Y280600D03*
X311380Y284139D03*
X306580Y284100D03*
X321600Y289700D03*
X315200Y291924D03*
X317780Y303715D03*
X309957Y300115D03*
X317100Y286000D03*
X317780Y299315D03*
X306580Y291900D03*
X325880Y305915D03*
X310080Y304815D03*
Y309515D03*
X324300Y420000D03*
X314300D03*
X330300Y-8000D03*
X345300D03*
X328000Y3300D03*
X329300Y19700D03*
X344700Y48600D03*
X337500Y53500D03*
Y58800D03*
X344200Y144300D03*
X344300Y163500D03*
X333580Y163615D03*
X332052Y171614D03*
X335000Y192200D03*
X333300Y195236D03*
X333250Y202765D03*
X333200Y205900D03*
X327180Y214915D03*
X342766Y235796D03*
X341354Y238400D03*
X327180Y225165D03*
X342394Y245094D03*
X333950Y265000D03*
X339300Y264500D03*
X342100D03*
X336450Y267450D03*
X328400Y298756D03*
X343100Y301050D03*
X329280Y322515D03*
X336580Y307915D03*
X332080D03*
X340680D03*
X336980Y322715D03*
X329280Y314115D03*
X347400Y367800D03*
X344300Y420000D03*
X334300D03*
X353300Y-7900D03*
X365300Y-8000D03*
X358760Y6860D03*
X358465Y15535D03*
X358764Y72536D03*
X352264Y96864D03*
X367500Y164600D03*
X357438Y238474D03*
X364350Y234650D03*
X359500Y235946D03*
X351200Y241524D03*
X355000Y251664D03*
X351690Y244424D03*
X362100Y262700D03*
X359750Y265650D03*
X351280Y302315D03*
X363700Y317661D03*
X351280Y315315D03*
Y328815D03*
Y343315D03*
X368395Y327461D03*
X351280Y358315D03*
X359400Y363300D03*
X364400D03*
X364300Y420000D03*
X354300D03*
X375300Y-8000D03*
X385300D03*
X388339Y85400D03*
X382040Y112540D03*
X389914Y131514D03*
X376780Y132580D03*
X381280Y132420D03*
X371000Y164600D03*
X373800Y166900D03*
X383580Y195920D03*
X390200Y196100D03*
X386400Y196000D03*
X385300Y235566D03*
X385650Y248950D03*
X385950Y242200D03*
X385132Y252968D03*
X379450Y248550D03*
X375700Y259700D03*
X381826Y261976D03*
X371280Y302315D03*
X373000Y323100D03*
X389671Y313799D03*
X380993Y313862D03*
X385493Y314362D03*
X371395Y314764D03*
X385493Y321764D03*
X376493Y313862D03*
X370280Y324815D03*
X373993Y332362D03*
Y329035D03*
X389596Y325862D03*
X385493D03*
X381395D03*
X385493Y330063D03*
X375245Y336610D03*
X387550Y349200D03*
X385780Y358815D03*
X375780D03*
X373000Y363300D03*
X384464Y370800D03*
X380800Y375000D03*
X384300Y420000D03*
X374300D03*
X395300Y-8000D03*
X405300D03*
X392900Y90600D03*
X392100Y100700D03*
X392800Y97900D03*
X399363Y131663D03*
X410880Y125380D03*
X403599Y176099D03*
X393080Y196020D03*
X408233Y218915D03*
X408300Y231500D03*
X408134Y226214D03*
X408233Y222616D03*
X397850Y237000D03*
X410015Y254400D03*
X407613Y240566D03*
X397314Y245566D03*
X397900Y240566D03*
X400350Y254550D03*
X396785Y269515D03*
X396400Y261976D03*
X405800Y264324D03*
X393993Y313862D03*
X396557Y321857D03*
X402800Y307700D03*
X395395Y317913D03*
X392802Y318108D03*
X400000Y346600D03*
X403694Y342161D03*
X407280Y364315D03*
X401150Y365950D03*
X399780Y353815D03*
X408780Y360439D03*
X405850Y356350D03*
X400200Y381400D03*
X392500Y371100D03*
X404300Y420000D03*
X394300D03*
X415300Y-8000D03*
X425300D03*
X416685Y99615D03*
X429284Y99716D03*
X414880Y125420D03*
X425000Y170500D03*
X412380Y191820D03*
X422080Y185520D03*
X412379Y194602D03*
Y197429D03*
X412380Y200320D03*
X419335Y229214D03*
X413200Y229415D03*
X420300Y238600D03*
X416000Y254300D03*
X430700Y364200D03*
X413280Y365815D03*
X421800Y350500D03*
X430900Y359839D03*
X424300Y420000D03*
X414300D03*
X435300Y-8000D03*
X445300D03*
X441882Y99982D03*
X451331Y100131D03*
X445700Y257028D03*
X443200Y249130D03*
X453181Y248814D03*
X445400Y269336D03*
Y272163D03*
X442200Y274900D03*
X445380Y266515D03*
Y274915D03*
X438200Y361300D03*
X434300Y354700D03*
X453000Y373800D03*
X442147Y373182D03*
X454300Y420000D03*
X444300D03*
X434300D03*
X455300Y-8000D03*
X465300D03*
X457451Y132651D03*
X463780Y132720D03*
X467079Y112821D03*
X468280Y132780D03*
X459467Y257028D03*
X475500Y240600D03*
X455056Y280100D03*
X466604Y266596D03*
X465680Y272915D03*
X455500Y270500D03*
X458756Y280156D03*
X464400Y269900D03*
X462000Y271270D03*
X468500Y364100D03*
X461800Y376524D03*
X469100Y382600D03*
X466200Y373800D03*
X456126Y376077D03*
X466009Y368671D03*
X455000Y379600D03*
X469600Y379124D03*
X467100Y394850D03*
X464300Y420000D03*
X483900Y12000D03*
X484200Y44400D03*
Y54400D03*
Y64400D03*
Y74400D03*
Y84400D03*
Y94400D03*
Y104400D03*
Y114400D03*
Y124400D03*
Y159400D03*
Y169400D03*
Y179400D03*
Y189400D03*
Y199400D03*
Y209400D03*
Y219400D03*
Y229400D03*
Y239400D03*
Y299400D03*
Y309400D03*
Y319400D03*
Y329400D03*
Y339400D03*
Y349400D03*
Y359400D03*
Y369400D03*
Y379400D03*
Y389400D03*
Y399400D03*
G54D30*
X470481Y260395D03*
Y277915D03*
G54D12*
X-5268Y181811D03*
Y218425D03*
X26622Y194409D03*
X14417Y214881D03*
G54D21*
X305280Y361115D03*
X295280D03*
X300280Y371115D03*
X290280D03*
X325280Y361115D03*
X315280D03*
X320280Y371115D03*
X310280D03*
G54D22*
X376134Y28501D03*
X471410D03*
G54D31*
X470815Y346990D03*
Y356990D03*
G54D13*
G01X-26818Y-225134D02*
X373182D01*
G01X-26818Y-195134D02*
Y-175134D01*
X373182D01*
G01X23182Y-245134D02*
Y-225134D01*
G01X148682Y-245134D02*
Y-225134D01*
G01X148182Y-175134D02*
Y-145134D01*
G01X198182Y-245134D02*
Y-225134D01*
G01X245112Y184883D02*
Y182633D01*
X247083Y180662D01*
X250031D01*
G01X244680Y185315D02*
X245112Y184883D01*
G01X243075Y195232D02*
X243584Y195741D01*
X244359D01*
X246746Y198128D01*
X249713D01*
G01D02*
Y197053D01*
X249000Y196340D01*
Y192550D01*
X251150Y190400D01*
Y187989D01*
X249050Y185889D01*
Y185602D01*
X249048Y185600D01*
Y182352D01*
X250031Y181369D01*
Y180662D01*
G01X251945Y201945D02*
X253045D01*
X254330Y203230D01*
Y208511D01*
X251928Y210912D01*
X250788D01*
X249550Y212150D01*
Y214000D01*
G01X337300Y137600D02*
X341352D01*
G01X333248D02*
X337300D01*
G01D02*
Y141652D01*
G01Y133548D02*
Y137600D01*
X-5268Y200708D03*
X24870Y75910D03*
X14417Y200708D03*
X10028Y233177D03*
Y391169D03*
X33335Y79536D03*
X115422Y75910D03*
X116012Y79536D03*
X150575D03*
X142110Y75910D03*
X179536Y-4441D03*
X233252Y79536D03*
X232662Y75910D03*
X259350D03*
X267815Y79536D03*
X285280Y396115D03*
X330280D03*
X337528Y-4441D03*
X349902Y75910D03*
X350492Y79536D03*
X387642Y116957D03*
X374559Y122595D03*
X449847Y69713D03*
X472985Y122595D03*
G54D32*
X482292Y252718D03*
Y285592D03*
G54D14*
X28850Y142100D03*
Y152100D03*
Y162100D03*
Y172100D03*
X436780Y192095D03*
Y199975D03*
Y182255D03*
Y209815D03*
G54D23*
X368623Y354315D03*
X363701D03*
X358780D03*
G54D33*
G01X244532Y204043D02*
X246443D01*
G54D24*
X356780Y405315D03*
X375280D03*
X393780D03*
G54D15*
G01X373182Y-145134D02*
Y-245134D01*
X-26818D01*
G01D02*
Y-145134D01*
X373182D01*
G01X210450Y280250D02*
X215600Y275100D01*
Y273500D01*
X222380Y266720D01*
Y242400D01*
G01D02*
Y239250D01*
X223100Y238530D01*
Y225150D01*
X221680Y223730D01*
Y211622D01*
X223401Y209901D01*
X223403D01*
X224106Y209198D01*
X227618D01*
X228280Y208536D01*
G01X224874Y400072D02*
X228926D01*
G01D02*
Y404124D01*
G01Y396020D02*
Y400072D01*
G01X249550Y214000D02*
Y219488D01*
X257362Y227300D01*
Y231699D01*
X257363Y231700D01*
Y234413D01*
X257364Y234414D01*
Y235213D01*
X259851Y237700D01*
X259853D01*
X263976Y241823D01*
Y249178D01*
X263978Y249180D01*
Y251103D01*
X264084Y251209D01*
Y255680D01*
X268900Y260496D01*
Y282300D01*
G01X246443Y204043D02*
X247200Y204800D01*
Y210600D01*
X246200Y211600D01*
Y223300D01*
X242800Y226700D01*
Y239800D01*
G01D02*
Y244061D01*
X243739Y245000D01*
Y252639D01*
X252100Y261000D01*
Y277350D01*
X254280Y279530D01*
Y311420D01*
X247850Y317850D01*
X243950D01*
X242300Y319500D01*
Y320750D01*
G01X268900Y285250D02*
Y282300D01*
G01X472180Y311319D02*
X477932D01*
G01X466428D02*
X472180D01*
G01D02*
Y317071D01*
G01Y305567D02*
Y311319D01*
X20500Y232284D03*
X40300Y244600D03*
X38830Y261099D03*
X40900Y240487D03*
X38830Y255049D03*
X40400Y249161D03*
X38060Y267849D03*
X39580Y282499D03*
X38980Y288399D03*
X41500Y290284D03*
X42780Y329799D03*
X39780Y327799D03*
Y331799D03*
X42900Y337984D03*
X40500Y335584D03*
X48256Y340315D03*
X41780Y363334D03*
X70400Y81234D03*
X58200Y72784D03*
X52900D03*
X51280Y351815D03*
X69182Y379915D03*
X62480Y384598D03*
X65850Y394550D03*
X62200Y394500D03*
X84182Y387237D03*
X79977Y401415D03*
X76729Y401478D03*
X82780Y401714D03*
X80182Y391237D03*
X84182D03*
X95150Y217800D03*
X94930Y385237D03*
X94900Y381300D03*
X94930Y388722D03*
X92930Y398344D03*
X134980Y213115D03*
X177520Y98830D03*
X173200Y224200D03*
X176500D03*
X180300Y2400D03*
X194100Y82584D03*
X183690Y96072D03*
X193400Y95684D03*
X192200Y295500D03*
X196000D03*
X190000Y320200D03*
Y324000D03*
X190100Y328500D03*
X216700Y80984D03*
X211750Y239650D03*
X204300Y257800D03*
X208300D03*
X209100Y244350D03*
X204000Y262300D03*
X217015Y261400D03*
X199600Y295600D03*
X204200Y322900D03*
X206200Y318400D03*
X207500Y315100D03*
X213958Y343750D03*
X212600Y329400D03*
X218100Y330450D03*
X218050Y327650D03*
X237800Y258900D03*
X233900D03*
X231000Y263200D03*
X241600Y268300D03*
X231399Y283200D03*
X225325Y283251D03*
X239482Y339100D03*
X231400Y329909D03*
X250787Y14584D03*
X242800Y239800D03*
X246400Y249500D03*
X245100Y268300D03*
X258400Y278815D03*
X249400Y280500D03*
X259500Y294250D03*
Y297200D03*
X258400Y283900D03*
X259850Y302459D03*
X242300Y320750D03*
X245580Y320720D03*
X257950Y311150D03*
X262600Y328650D03*
X257050Y333300D03*
X251800Y328650D03*
X241930Y329376D03*
X249400Y384000D03*
X281200Y24284D03*
X268900Y282300D03*
X277900Y268900D03*
X276000Y277500D03*
X268900Y285250D03*
X268500Y296650D03*
X294985Y80700D03*
X296900Y96550D03*
X305180Y322788D03*
X295134Y319169D03*
X294180Y309736D03*
X305800Y10684D03*
X310717D03*
X308810Y80606D03*
X324700Y75700D03*
Y71500D03*
X307106Y96550D03*
X320949Y139712D03*
X318522Y137034D03*
X315485Y319210D03*
X311100Y316000D03*
X327762Y81400D03*
X330000Y116500D03*
Y123300D03*
X332600Y215900D03*
X333400Y212700D03*
X338559Y205441D03*
X336200Y219000D03*
Y222200D03*
X332500Y273700D03*
X329100D03*
X338980Y314515D03*
X334780Y314315D03*
X362400Y154400D03*
X366500D03*
X374147Y106453D03*
X369553D03*
X388800Y154600D03*
X377993Y318161D03*
X378700Y339200D03*
X382800D03*
X378600Y354600D03*
X383000Y354500D03*
X400937Y90763D03*
X394000Y154600D03*
X399800Y172300D03*
X402033Y216715D03*
Y221617D03*
X396400Y258570D03*
X397700Y250600D03*
X405493Y326528D03*
X399993Y328315D03*
X396780Y326815D03*
X394250Y333650D03*
X428500Y154200D03*
X423300D03*
X416075Y206915D03*
X412733D03*
X424600Y250566D03*
X419820Y245700D03*
X444680Y294915D03*
X448480D03*
X448080Y288315D03*
X453222Y323976D03*
X439315Y331482D03*
Y339230D03*
Y335482D03*
X446413Y373182D03*
X461281Y77981D03*
X474047Y106453D03*
X469500Y147400D03*
Y151300D03*
X465680Y263115D03*
X461872Y282800D03*
X458039Y299256D03*
X470600Y294100D03*
X474780Y323815D03*
X463580Y323915D03*
X463365Y344538D03*
X463500Y340400D03*
X474980Y339815D03*
X472067Y337230D03*
Y332730D03*
X472113Y328482D03*
X463165Y348738D03*
X473815Y375982D03*
X478053Y106453D03*
G54D34*
G01X321400Y10084D02*
X318416Y7100D01*
X302400D01*
X296200Y13300D01*
X258500D01*
X253000Y18800D01*
X242316D01*
X233900Y10384D01*
G54D25*
X414780Y311319D03*
X472180D03*
G54D16*
X54137Y223560D03*
Y231040D03*
G54D35*
G01X-12000Y418615D02*
Y-7000D01*
G03X-7000Y-12000I5000J0D01*
G01X483000D01*
G03X488000Y-7000I0J5000D01*
G01Y418615D01*
G03X483000Y423615I-5000J0D01*
G01X-7000D01*
G03X-12000Y418615I0J-5000D01*
G01X-7000Y423615D02*
X483000D01*
G02X488000Y418615I0J-5000D01*
G01Y-7000D01*
G02X483000Y-12000I-5000J0D01*
G01X-7000D01*
G02X-12000Y-7000I0J5000D01*
G01Y418615D01*
G02X-7000Y423615I5000J0D01*
G01X-23792Y-157134D02*
Y-149634D01*
X-20246D01*
G01X-21553Y-153259D02*
X-23792D01*
G01X-16385Y-157134D02*
Y-149634D01*
X-14053D01*
X-13306Y-150009D01*
X-12840Y-150509D01*
X-12653Y-151509D01*
X-12840Y-152509D01*
X-13399Y-153134D01*
X-14053Y-153509D01*
X-16385D01*
G01X-14053D02*
X-12653Y-157134D01*
G01X-5153D02*
X-8885D01*
Y-149634D01*
X-5153D01*
G01X-6646Y-153259D02*
X-8885D01*
G01X2347Y-157134D02*
X-1385D01*
Y-149634D01*
X2347D01*
G01X854Y-153259D02*
X-1385D01*
G01X6022Y-156134D02*
X6768Y-156759D01*
X7608Y-157134D01*
X8354D01*
X9101Y-156759D01*
X9660Y-156134D01*
X9940Y-155259D01*
X9754Y-154384D01*
X9287Y-153634D01*
X8447Y-153134D01*
X7328Y-152884D01*
X6675Y-152384D01*
X6395Y-151509D01*
X6582Y-150634D01*
X7048Y-150009D01*
X7701Y-149634D01*
X8354D01*
X9007Y-149884D01*
X9567Y-150509D01*
G01X17534Y-150259D02*
X16974Y-149884D01*
X16321Y-149634D01*
X15574D01*
X14735Y-150009D01*
X14082Y-150634D01*
X13615Y-151384D01*
X13242Y-152634D01*
X13148Y-153759D01*
X13335Y-154884D01*
X13615Y-155634D01*
X14175Y-156384D01*
X14828Y-156884D01*
X15481Y-157134D01*
X16134D01*
X16787Y-156884D01*
X17347Y-156509D01*
X17814Y-156009D01*
G01X20648Y-157134D02*
X22981Y-149634D01*
X25314Y-157134D01*
G01X24474Y-154509D02*
X21488D01*
G01X28615Y-149634D02*
Y-157134D01*
X32347D01*
G01X39847D02*
X36115D01*
Y-149634D01*
X39847D01*
G01X38354Y-153259D02*
X36115D01*
G54D17*
X70902Y406096D03*
X88422D03*
G54D26*
X427280Y384513D03*
G54D36*
G01X-20901Y-239134D02*
X-20318Y-238434D01*
X-19818Y-238034D01*
X-19151Y-237834D01*
X-18568Y-238034D01*
X-18151Y-238434D01*
X-17818Y-239034D01*
X-17735Y-239734D01*
X-17818Y-240334D01*
X-18151Y-240934D01*
X-18651Y-241434D01*
X-19235Y-241634D01*
X-19901Y-241434D01*
X-20485Y-240834D01*
X-20818Y-239934D01*
X-20901Y-238934D01*
X-20735Y-237634D01*
X-20485Y-236934D01*
X-20068Y-236234D01*
X-19485Y-235734D01*
X-18901Y-235634D01*
X-18318Y-235834D01*
X-17901Y-236334D01*
G01X-7318Y-241634D02*
X-7985Y-241534D01*
X-8568Y-241134D01*
X-9068Y-240534D01*
X-9401Y-239834D01*
X-9568Y-239034D01*
Y-238234D01*
X-9401Y-237434D01*
X-9068Y-236734D01*
X-8568Y-236134D01*
X-7985Y-235734D01*
X-7318Y-235634D01*
X-6651Y-235734D01*
X-6068Y-236134D01*
X-5568Y-236734D01*
X-5235Y-237434D01*
X-5068Y-238234D01*
Y-239034D01*
X-5235Y-239834D01*
X-5568Y-240534D01*
X-6068Y-241134D01*
X-6651Y-241534D01*
X-7318Y-241634D01*
G01X-2901D02*
Y-235634D01*
X265D01*
G01X-901Y-238534D02*
X-2901D01*
G01X10682Y-241634D02*
Y-235634D01*
X9682Y-236834D01*
G01Y-241634D02*
X11682D01*
G01X15099Y-236634D02*
X15599Y-236034D01*
X16182Y-235734D01*
X16849Y-235634D01*
X17682Y-235834D01*
X18265Y-236334D01*
X18432Y-236934D01*
X18349Y-237534D01*
X18015Y-238034D01*
X16349Y-239034D01*
X15599Y-239734D01*
X15099Y-240734D01*
X14932Y-241634D01*
X18432D01*
G01X49015D02*
Y-235634D01*
X51015D01*
X51682Y-235934D01*
X52182Y-236634D01*
X52349Y-237434D01*
X52182Y-238234D01*
X51765Y-238834D01*
X51015Y-239134D01*
X49015D01*
G01X56682Y-241634D02*
X56015Y-241534D01*
X55432Y-241134D01*
X54932Y-240534D01*
X54599Y-239834D01*
X54432Y-239034D01*
Y-238234D01*
X54599Y-237434D01*
X54932Y-236734D01*
X55432Y-236134D01*
X56015Y-235734D01*
X56682Y-235634D01*
X57349Y-235734D01*
X57932Y-236134D01*
X58432Y-236734D01*
X58765Y-237434D01*
X58932Y-238234D01*
Y-239034D01*
X58765Y-239834D01*
X58432Y-240534D01*
X57932Y-241134D01*
X57349Y-241534D01*
X56682Y-241634D01*
G01X60182Y-235634D02*
X61349Y-241634D01*
X62682Y-235634D01*
X64015Y-241634D01*
X65182Y-235634D01*
G01X70349Y-241634D02*
X67015D01*
Y-235634D01*
X70349D01*
G01X69015Y-238534D02*
X67015D01*
G01X73015Y-241634D02*
Y-235634D01*
X75099D01*
X75765Y-235934D01*
X76182Y-236334D01*
X76349Y-237134D01*
X76182Y-237934D01*
X75682Y-238434D01*
X75099Y-238734D01*
X73015D01*
G01X75099D02*
X76349Y-241634D01*
G01X85015D02*
Y-235634D01*
X87015D01*
X87682Y-235934D01*
X88182Y-236634D01*
X88349Y-237434D01*
X88182Y-238234D01*
X87765Y-238834D01*
X87015Y-239134D01*
X85015D01*
G01X91015Y-235634D02*
Y-241634D01*
X94349D01*
G01X96599D02*
X98682Y-235634D01*
X100765Y-241634D01*
G01X100015Y-239534D02*
X97349D01*
G01X102765Y-241634D02*
Y-235634D01*
X106599Y-241634D01*
Y-235634D01*
G01X112349Y-241634D02*
X109015D01*
Y-235634D01*
X112349D01*
G01X111015Y-238534D02*
X109015D01*
G01X122682Y-241634D02*
Y-235634D01*
X121682Y-236834D01*
G01Y-241634D02*
X123682D01*
G01X239138Y195232D02*
Y198338D01*
X240900Y200100D01*
X252943D01*
X254900Y198143D01*
Y195400D01*
X254276Y194151D01*
X254034Y193484D01*
X254008Y192975D01*
X253884Y190593D01*
X254274Y188771D01*
X256230Y186815D01*
G54D18*
X63225Y417907D03*
X96099D03*
G54D27*
X427280Y409113D03*
G54D37*
G01X-23293Y-232601D02*
X-22826Y-232934D01*
X-22301Y-233134D01*
X-21835D01*
X-21368Y-232934D01*
X-21018Y-232601D01*
X-20843Y-232134D01*
X-20960Y-231667D01*
X-21251Y-231267D01*
X-21776Y-231001D01*
X-22476Y-230867D01*
X-22885Y-230601D01*
X-23060Y-230134D01*
X-22943Y-229667D01*
X-22651Y-229334D01*
X-22243Y-229134D01*
X-21835D01*
X-21426Y-229267D01*
X-21076Y-229601D01*
G01X-18494Y-233134D02*
Y-229134D01*
G01X-16044D02*
Y-233134D01*
G01Y-231134D02*
X-18494D01*
G01X-11303Y-233134D02*
X-13637D01*
Y-229134D01*
X-11303D01*
G01X-12237Y-231067D02*
X-13637D01*
G01X-6504Y-233134D02*
X-8838D01*
Y-229134D01*
X-6504D01*
G01X-7438Y-231067D02*
X-8838D01*
G01X-2872Y-229134D02*
Y-233134D01*
G01X-4214Y-229134D02*
X-1530D01*
G01X-15176Y-222134D02*
Y-218134D01*
X-12960D01*
G01X-13776Y-220067D02*
X-15176D01*
G01X-10436Y-222134D02*
Y-218134D01*
X-8977D01*
X-8511Y-218334D01*
X-8219Y-218601D01*
X-8102Y-219134D01*
X-8219Y-219667D01*
X-8569Y-220001D01*
X-8977Y-220201D01*
X-10436D01*
G01X-8977D02*
X-8102Y-222134D01*
G01X-3303D02*
X-5637D01*
Y-218134D01*
X-3303D01*
G01X-4237Y-220067D02*
X-5637D01*
G01X1496Y-222134D02*
X-838D01*
Y-218134D01*
X1496D01*
G01X562Y-220067D02*
X-838D01*
G01X3903Y-221601D02*
X4370Y-221934D01*
X4895Y-222134D01*
X5361D01*
X5828Y-221934D01*
X6178Y-221601D01*
X6353Y-221134D01*
X6236Y-220667D01*
X5945Y-220267D01*
X5420Y-220001D01*
X4720Y-219867D01*
X4311Y-219601D01*
X4136Y-219134D01*
X4253Y-218667D01*
X4545Y-218334D01*
X4953Y-218134D01*
X5361D01*
X5770Y-218267D01*
X6120Y-218601D01*
G01X11210Y-218467D02*
X10860Y-218267D01*
X10452Y-218134D01*
X9985D01*
X9460Y-218334D01*
X9052Y-218667D01*
X8760Y-219067D01*
X8527Y-219734D01*
X8469Y-220334D01*
X8585Y-220934D01*
X8760Y-221334D01*
X9110Y-221734D01*
X9519Y-222001D01*
X9927Y-222134D01*
X10335D01*
X10744Y-222001D01*
X11094Y-221801D01*
X11385Y-221534D01*
G01X13268Y-222134D02*
X14726Y-218134D01*
X16184Y-222134D01*
G01X15659Y-220734D02*
X13793D01*
G01X18358Y-218134D02*
Y-222134D01*
X20692D01*
G01X25491D02*
X23157D01*
Y-218134D01*
X25491D01*
G01X24557Y-220067D02*
X23157D01*
G01X29123Y-222267D02*
X29006Y-222201D01*
Y-222067D01*
X29123Y-222001D01*
X29240Y-222067D01*
Y-222201D01*
X29123Y-222267D01*
G01X-15068Y-214134D02*
X-15535Y-214067D01*
X-15943Y-213801D01*
X-16293Y-213401D01*
X-16526Y-212934D01*
X-16643Y-212401D01*
Y-211867D01*
X-16526Y-211334D01*
X-16293Y-210867D01*
X-15943Y-210467D01*
X-15535Y-210201D01*
X-15068Y-210134D01*
X-14601Y-210201D01*
X-14193Y-210467D01*
X-13843Y-210867D01*
X-13610Y-211334D01*
X-13493Y-211867D01*
Y-212401D01*
X-13610Y-212934D01*
X-13843Y-213401D01*
X-14193Y-213801D01*
X-14601Y-214067D01*
X-15068Y-214134D01*
G01X-11436D02*
Y-210134D01*
X-9977D01*
X-9511Y-210334D01*
X-9219Y-210601D01*
X-9102Y-211134D01*
X-9219Y-211667D01*
X-9569Y-212001D01*
X-9977Y-212201D01*
X-11436D01*
G01X-9977D02*
X-9102Y-214134D01*
G01X-1371Y-210134D02*
X29D01*
G01X-671D02*
Y-214134D01*
G01X-1371D02*
X29D01*
G01X2786D02*
Y-210134D01*
X5470Y-214134D01*
Y-210134D01*
G01X12559Y-214134D02*
Y-210134D01*
X13959D01*
X14426Y-210334D01*
X14776Y-210801D01*
X14893Y-211334D01*
X14776Y-211867D01*
X14484Y-212267D01*
X13959Y-212467D01*
X12559D01*
G01X17067Y-214134D02*
X18525Y-210134D01*
X19983Y-214134D01*
G01X19458Y-212734D02*
X17592D01*
G01X22157Y-214134D02*
Y-210134D01*
X23616D01*
X24082Y-210334D01*
X24374Y-210601D01*
X24491Y-211134D01*
X24374Y-211667D01*
X24024Y-212001D01*
X23616Y-212201D01*
X22157D01*
G01X23616D02*
X24491Y-214134D01*
G01X28123Y-210134D02*
Y-214134D01*
G01X26781Y-210134D02*
X29465D01*
G01X35971D02*
X36788Y-214134D01*
X37721Y-210134D01*
X38654Y-214134D01*
X39471Y-210134D01*
G01X41820D02*
X43220D01*
G01X42520D02*
Y-214134D01*
G01X41820D02*
X43220D01*
G01X47319Y-210134D02*
Y-214134D01*
G01X45977Y-210134D02*
X48661D01*
G01X50893Y-214134D02*
Y-210134D01*
G01X53343D02*
Y-214134D01*
G01Y-212134D02*
X50893D01*
G01X56917Y-214134D02*
X56450Y-214067D01*
X56042Y-213801D01*
X55692Y-213401D01*
X55459Y-212934D01*
X55342Y-212401D01*
Y-211867D01*
X55459Y-211334D01*
X55692Y-210867D01*
X56042Y-210467D01*
X56450Y-210201D01*
X56917Y-210134D01*
X57384Y-210201D01*
X57792Y-210467D01*
X58142Y-210867D01*
X58375Y-211334D01*
X58492Y-211867D01*
Y-212401D01*
X58375Y-212934D01*
X58142Y-213401D01*
X57792Y-213801D01*
X57384Y-214067D01*
X56917Y-214134D01*
G01X60433Y-210134D02*
Y-213001D01*
X60666Y-213601D01*
X61133Y-214001D01*
X61716Y-214134D01*
X62299Y-214001D01*
X62766Y-213601D01*
X62999Y-213001D01*
Y-210134D01*
G01X66515D02*
Y-214134D01*
G01X65173Y-210134D02*
X67857D01*
G01X76113D02*
Y-214134D01*
G01X74771Y-210134D02*
X77455D01*
G01X79687Y-214134D02*
Y-210134D01*
G01X82137D02*
Y-214134D01*
G01Y-212134D02*
X79687D01*
G01X86878Y-214134D02*
X84544D01*
Y-210134D01*
X86878D01*
G01X85944Y-212067D02*
X84544D01*
G01X96592Y-210467D02*
X96242Y-210267D01*
X95834Y-210134D01*
X95367D01*
X94842Y-210334D01*
X94434Y-210667D01*
X94142Y-211067D01*
X93909Y-211734D01*
X93851Y-212334D01*
X93967Y-212934D01*
X94142Y-213334D01*
X94492Y-213734D01*
X94901Y-214001D01*
X95309Y-214134D01*
X95717D01*
X96126Y-214001D01*
X96476Y-213801D01*
X96767Y-213534D01*
G01X100108Y-214134D02*
X99641Y-214067D01*
X99233Y-213801D01*
X98883Y-213401D01*
X98650Y-212934D01*
X98533Y-212401D01*
Y-211867D01*
X98650Y-211334D01*
X98883Y-210867D01*
X99233Y-210467D01*
X99641Y-210201D01*
X100108Y-210134D01*
X100575Y-210201D01*
X100983Y-210467D01*
X101333Y-210867D01*
X101566Y-211334D01*
X101683Y-211867D01*
Y-212401D01*
X101566Y-212934D01*
X101333Y-213401D01*
X100983Y-213801D01*
X100575Y-214067D01*
X100108Y-214134D01*
G01X103565D02*
Y-210134D01*
X106249Y-214134D01*
Y-210134D01*
G01X108481Y-213601D02*
X108948Y-213934D01*
X109473Y-214134D01*
X109939D01*
X110406Y-213934D01*
X110756Y-213601D01*
X110931Y-213134D01*
X110814Y-212667D01*
X110523Y-212267D01*
X109998Y-212001D01*
X109298Y-211867D01*
X108889Y-211601D01*
X108714Y-211134D01*
X108831Y-210667D01*
X109123Y-210334D01*
X109531Y-210134D01*
X109939D01*
X110348Y-210267D01*
X110698Y-210601D01*
G01X115672Y-214134D02*
X113338D01*
Y-210134D01*
X115672D01*
G01X114738Y-212067D02*
X113338D01*
G01X117962Y-214134D02*
Y-210134D01*
X120646Y-214134D01*
Y-210134D01*
G01X124103D02*
Y-214134D01*
G01X122761Y-210134D02*
X125445D01*
G01X133701Y-214134D02*
X133234Y-214067D01*
X132826Y-213801D01*
X132476Y-213401D01*
X132243Y-212934D01*
X132126Y-212401D01*
Y-211867D01*
X132243Y-211334D01*
X132476Y-210867D01*
X132826Y-210467D01*
X133234Y-210201D01*
X133701Y-210134D01*
X134168Y-210201D01*
X134576Y-210467D01*
X134926Y-210867D01*
X135159Y-211334D01*
X135276Y-211867D01*
Y-212401D01*
X135159Y-212934D01*
X134926Y-213401D01*
X134576Y-213801D01*
X134168Y-214067D01*
X133701Y-214134D01*
G01X137392D02*
Y-210134D01*
X139608D01*
G01X138792Y-212067D02*
X137392D01*
G01X-16235Y-206134D02*
Y-202134D01*
X-14835D01*
X-14368Y-202334D01*
X-14018Y-202801D01*
X-13901Y-203334D01*
X-14018Y-203867D01*
X-14310Y-204267D01*
X-14835Y-204467D01*
X-16235D01*
G01X-11436Y-206134D02*
Y-202134D01*
X-9977D01*
X-9511Y-202334D01*
X-9219Y-202601D01*
X-9102Y-203134D01*
X-9219Y-203667D01*
X-9569Y-204001D01*
X-9977Y-204201D01*
X-11436D01*
G01X-9977D02*
X-9102Y-206134D01*
G01X-5470D02*
X-5937Y-206067D01*
X-6345Y-205801D01*
X-6695Y-205401D01*
X-6928Y-204934D01*
X-7045Y-204401D01*
Y-203867D01*
X-6928Y-203334D01*
X-6695Y-202867D01*
X-6345Y-202467D01*
X-5937Y-202201D01*
X-5470Y-202134D01*
X-5003Y-202201D01*
X-4595Y-202467D01*
X-4245Y-202867D01*
X-4012Y-203334D01*
X-3895Y-203867D01*
Y-204401D01*
X-4012Y-204934D01*
X-4245Y-205401D01*
X-4595Y-205801D01*
X-5003Y-206067D01*
X-5470Y-206134D01*
G01X612Y-202467D02*
X262Y-202267D01*
X-146Y-202134D01*
X-613D01*
X-1138Y-202334D01*
X-1546Y-202667D01*
X-1838Y-203067D01*
X-2071Y-203734D01*
X-2129Y-204334D01*
X-2013Y-204934D01*
X-1838Y-205334D01*
X-1488Y-205734D01*
X-1079Y-206001D01*
X-671Y-206134D01*
X-263D01*
X146Y-206001D01*
X496Y-205801D01*
X787Y-205534D01*
G01X2845Y-202134D02*
Y-205001D01*
X3078Y-205601D01*
X3545Y-206001D01*
X4128Y-206134D01*
X4711Y-206001D01*
X5178Y-205601D01*
X5411Y-205001D01*
Y-202134D01*
G01X7760Y-206134D02*
Y-202134D01*
X9219D01*
X9685Y-202334D01*
X9977Y-202601D01*
X10094Y-203134D01*
X9977Y-203667D01*
X9627Y-204001D01*
X9219Y-204201D01*
X7760D01*
G01X9219D02*
X10094Y-206134D01*
G01X14893D02*
X12559D01*
Y-202134D01*
X14893D01*
G01X13959Y-204067D02*
X12559D01*
G01X17008Y-206134D02*
Y-202134D01*
X18525Y-205467D01*
X20042Y-202134D01*
Y-206134D01*
G01X24491D02*
X22157D01*
Y-202134D01*
X24491D01*
G01X23557Y-204067D02*
X22157D01*
G01X26781Y-206134D02*
Y-202134D01*
X29465Y-206134D01*
Y-202134D01*
G01X32922D02*
Y-206134D01*
G01X31580Y-202134D02*
X34264D01*
G01X42520Y-206134D02*
X42053Y-206067D01*
X41645Y-205801D01*
X41295Y-205401D01*
X41062Y-204934D01*
X40945Y-204401D01*
Y-203867D01*
X41062Y-203334D01*
X41295Y-202867D01*
X41645Y-202467D01*
X42053Y-202201D01*
X42520Y-202134D01*
X42987Y-202201D01*
X43395Y-202467D01*
X43745Y-202867D01*
X43978Y-203334D01*
X44095Y-203867D01*
Y-204401D01*
X43978Y-204934D01*
X43745Y-205401D01*
X43395Y-205801D01*
X42987Y-206067D01*
X42520Y-206134D01*
G01X46152D02*
Y-202134D01*
X47611D01*
X48077Y-202334D01*
X48369Y-202601D01*
X48486Y-203134D01*
X48369Y-203667D01*
X48019Y-204001D01*
X47611Y-204201D01*
X46152D01*
G01X47611D02*
X48486Y-206134D01*
G01X55400D02*
Y-202134D01*
X56917Y-205467D01*
X58434Y-202134D01*
Y-206134D01*
G01X60258D02*
X61716Y-202134D01*
X63174Y-206134D01*
G01X62649Y-204734D02*
X60783D01*
G01X65173Y-206134D02*
Y-202134D01*
X67857Y-206134D01*
Y-202134D01*
G01X70031D02*
Y-205001D01*
X70264Y-205601D01*
X70731Y-206001D01*
X71314Y-206134D01*
X71897Y-206001D01*
X72364Y-205601D01*
X72597Y-205001D01*
Y-202134D01*
G01X75005Y-206134D02*
Y-202134D01*
X77221D01*
G01X76405Y-204067D02*
X75005D01*
G01X79454Y-206134D02*
X80912Y-202134D01*
X82370Y-206134D01*
G01X81845Y-204734D02*
X79979D01*
G01X86994Y-202467D02*
X86644Y-202267D01*
X86236Y-202134D01*
X85769D01*
X85244Y-202334D01*
X84836Y-202667D01*
X84544Y-203067D01*
X84311Y-203734D01*
X84253Y-204334D01*
X84369Y-204934D01*
X84544Y-205334D01*
X84894Y-205734D01*
X85303Y-206001D01*
X85711Y-206134D01*
X86119D01*
X86528Y-206001D01*
X86878Y-205801D01*
X87169Y-205534D01*
G01X90510Y-202134D02*
Y-206134D01*
G01X89168Y-202134D02*
X91852D01*
G01X94026D02*
Y-205001D01*
X94259Y-205601D01*
X94726Y-206001D01*
X95309Y-206134D01*
X95892Y-206001D01*
X96359Y-205601D01*
X96592Y-205001D01*
Y-202134D01*
G01X98941Y-206134D02*
Y-202134D01*
X100400D01*
X100866Y-202334D01*
X101158Y-202601D01*
X101275Y-203134D01*
X101158Y-203667D01*
X100808Y-204001D01*
X100400Y-204201D01*
X98941D01*
G01X100400D02*
X101275Y-206134D01*
G01X106074D02*
X103740D01*
Y-202134D01*
X106074D01*
G01X105140Y-204067D02*
X103740D01*
G01X113805Y-202134D02*
X115205D01*
G01X114505D02*
Y-206134D01*
G01X113805D02*
X115205D01*
G01X117962D02*
Y-202134D01*
X120646Y-206134D01*
Y-202134D01*
G01X127152D02*
X127969Y-206134D01*
X128902Y-202134D01*
X129835Y-206134D01*
X130652Y-202134D01*
G01X132476Y-206134D02*
Y-202134D01*
G01X134926D02*
Y-206134D01*
G01Y-204134D02*
X132476D01*
G01X138500Y-206134D02*
X138033Y-206067D01*
X137625Y-205801D01*
X137275Y-205401D01*
X137042Y-204934D01*
X136925Y-204401D01*
Y-203867D01*
X137042Y-203334D01*
X137275Y-202867D01*
X137625Y-202467D01*
X138033Y-202201D01*
X138500Y-202134D01*
X138967Y-202201D01*
X139375Y-202467D01*
X139725Y-202867D01*
X139958Y-203334D01*
X140075Y-203867D01*
Y-204401D01*
X139958Y-204934D01*
X139725Y-205401D01*
X139375Y-205801D01*
X138967Y-206067D01*
X138500Y-206134D01*
G01X142132Y-202134D02*
Y-206134D01*
X144466D01*
G01X149265D02*
X146931D01*
Y-202134D01*
X149265D01*
G01X148331Y-204067D02*
X146931D01*
G01X-16410Y-198134D02*
Y-194134D01*
X-13726Y-198134D01*
Y-194134D01*
G01X-10269Y-198134D02*
X-10736Y-198067D01*
X-11144Y-197801D01*
X-11494Y-197401D01*
X-11727Y-196934D01*
X-11844Y-196401D01*
Y-195867D01*
X-11727Y-195334D01*
X-11494Y-194867D01*
X-11144Y-194467D01*
X-10736Y-194201D01*
X-10269Y-194134D01*
X-9802Y-194201D01*
X-9394Y-194467D01*
X-9044Y-194867D01*
X-8811Y-195334D01*
X-8694Y-195867D01*
Y-196401D01*
X-8811Y-196934D01*
X-9044Y-197401D01*
X-9394Y-197801D01*
X-9802Y-198067D01*
X-10269Y-198134D01*
G01X-5470Y-194134D02*
Y-198134D01*
G01X-6812Y-194134D02*
X-4128D01*
G01X4595Y-196001D02*
X4828Y-195801D01*
X5003Y-195467D01*
X5120Y-195001D01*
X5003Y-194601D01*
X4770Y-194334D01*
X4361Y-194134D01*
X2786D01*
Y-198134D01*
X4711D01*
X5120Y-197867D01*
X5353Y-197467D01*
X5470Y-197001D01*
X5353Y-196534D01*
X5003Y-196134D01*
X4595Y-196001D01*
X2786D01*
G01X10094Y-198134D02*
X7760D01*
Y-194134D01*
X10094D01*
G01X9160Y-196067D02*
X7760D01*
G01X17242Y-194134D02*
Y-197001D01*
X17475Y-197601D01*
X17942Y-198001D01*
X18525Y-198134D01*
X19108Y-198001D01*
X19575Y-197601D01*
X19808Y-197001D01*
Y-194134D01*
G01X22099Y-197601D02*
X22566Y-197934D01*
X23091Y-198134D01*
X23557D01*
X24024Y-197934D01*
X24374Y-197601D01*
X24549Y-197134D01*
X24432Y-196667D01*
X24141Y-196267D01*
X23616Y-196001D01*
X22916Y-195867D01*
X22507Y-195601D01*
X22332Y-195134D01*
X22449Y-194667D01*
X22741Y-194334D01*
X23149Y-194134D01*
X23557D01*
X23966Y-194267D01*
X24316Y-194601D01*
G01X29290Y-198134D02*
X26956D01*
Y-194134D01*
X29290D01*
G01X28356Y-196067D02*
X26956D01*
G01X31639Y-198134D02*
Y-194134D01*
X32805D01*
X33272Y-194334D01*
X33622Y-194601D01*
X33914Y-195001D01*
X34147Y-195467D01*
X34205Y-196134D01*
X34147Y-196801D01*
X33914Y-197267D01*
X33622Y-197667D01*
X33272Y-197934D01*
X32805Y-198134D01*
X31639D01*
G01X41412D02*
Y-194134D01*
X43628D01*
G01X42812Y-196067D02*
X41412D01*
G01X47319Y-198134D02*
X46852Y-198067D01*
X46444Y-197801D01*
X46094Y-197401D01*
X45861Y-196934D01*
X45744Y-196401D01*
Y-195867D01*
X45861Y-195334D01*
X46094Y-194867D01*
X46444Y-194467D01*
X46852Y-194201D01*
X47319Y-194134D01*
X47786Y-194201D01*
X48194Y-194467D01*
X48544Y-194867D01*
X48777Y-195334D01*
X48894Y-195867D01*
Y-196401D01*
X48777Y-196934D01*
X48544Y-197401D01*
X48194Y-197801D01*
X47786Y-198067D01*
X47319Y-198134D01*
G01X50951D02*
Y-194134D01*
X52410D01*
X52876Y-194334D01*
X53168Y-194601D01*
X53285Y-195134D01*
X53168Y-195667D01*
X52818Y-196001D01*
X52410Y-196201D01*
X50951D01*
G01X52410D02*
X53285Y-198134D01*
G01X62883D02*
X60549D01*
Y-194134D01*
X62883D01*
G01X61949Y-196067D02*
X60549D01*
G01X65173Y-198134D02*
Y-194134D01*
X67857Y-198134D01*
Y-194134D01*
G01X71664Y-196134D02*
X72831D01*
Y-197334D01*
X72481Y-197734D01*
X72072Y-198001D01*
X71489Y-198134D01*
X70906Y-198001D01*
X70497Y-197734D01*
X70147Y-197334D01*
X69914Y-196867D01*
X69797Y-196334D01*
Y-195867D01*
X69914Y-195467D01*
X70147Y-195001D01*
X70497Y-194601D01*
X70847Y-194334D01*
X71314Y-194134D01*
X71722D01*
X72189Y-194267D01*
X72539Y-194534D01*
G01X75413Y-194134D02*
X76813D01*
G01X76113D02*
Y-198134D01*
G01X75413D02*
X76813D01*
G01X79570D02*
Y-194134D01*
X82254Y-198134D01*
Y-194134D01*
G01X86878Y-198134D02*
X84544D01*
Y-194134D01*
X86878D01*
G01X85944Y-196067D02*
X84544D01*
G01X91677Y-198134D02*
X89343D01*
Y-194134D01*
X91677D01*
G01X90743Y-196067D02*
X89343D01*
G01X94142Y-198134D02*
Y-194134D01*
X95601D01*
X96067Y-194334D01*
X96359Y-194601D01*
X96476Y-195134D01*
X96359Y-195667D01*
X96009Y-196001D01*
X95601Y-196201D01*
X94142D01*
G01X95601D02*
X96476Y-198134D01*
G01X99408Y-194134D02*
X100808D01*
G01X100108D02*
Y-198134D01*
G01X99408D02*
X100808D01*
G01X103565D02*
Y-194134D01*
X106249Y-198134D01*
Y-194134D01*
G01X110056Y-196134D02*
X111223D01*
Y-197334D01*
X110873Y-197734D01*
X110464Y-198001D01*
X109881Y-198134D01*
X109298Y-198001D01*
X108889Y-197734D01*
X108539Y-197334D01*
X108306Y-196867D01*
X108189Y-196334D01*
Y-195867D01*
X108306Y-195467D01*
X108539Y-195001D01*
X108889Y-194601D01*
X109239Y-194334D01*
X109706Y-194134D01*
X110114D01*
X110581Y-194267D01*
X110931Y-194534D01*
G01X118021Y-198134D02*
Y-194134D01*
X119187D01*
X119654Y-194334D01*
X120004Y-194601D01*
X120296Y-195001D01*
X120529Y-195467D01*
X120587Y-196134D01*
X120529Y-196801D01*
X120296Y-197267D01*
X120004Y-197667D01*
X119654Y-197934D01*
X119187Y-198134D01*
X118021D01*
G01X125270D02*
X122936D01*
Y-194134D01*
X125270D01*
G01X124336Y-196067D02*
X122936D01*
G01X127677Y-197601D02*
X128144Y-197934D01*
X128669Y-198134D01*
X129135D01*
X129602Y-197934D01*
X129952Y-197601D01*
X130127Y-197134D01*
X130010Y-196667D01*
X129719Y-196267D01*
X129194Y-196001D01*
X128494Y-195867D01*
X128085Y-195601D01*
X127910Y-195134D01*
X128027Y-194667D01*
X128319Y-194334D01*
X128727Y-194134D01*
X129135D01*
X129544Y-194267D01*
X129894Y-194601D01*
G01X133001Y-194134D02*
X134401D01*
G01X133701D02*
Y-198134D01*
G01X133001D02*
X134401D01*
G01X138850Y-196134D02*
X140017D01*
Y-197334D01*
X139667Y-197734D01*
X139258Y-198001D01*
X138675Y-198134D01*
X138092Y-198001D01*
X137683Y-197734D01*
X137333Y-197334D01*
X137100Y-196867D01*
X136983Y-196334D01*
Y-195867D01*
X137100Y-195467D01*
X137333Y-195001D01*
X137683Y-194601D01*
X138033Y-194334D01*
X138500Y-194134D01*
X138908D01*
X139375Y-194267D01*
X139725Y-194534D01*
G01X141957Y-198134D02*
Y-194134D01*
X144641Y-198134D01*
Y-194134D01*
G01X-16235Y-190134D02*
Y-186134D01*
X-14835D01*
X-14368Y-186334D01*
X-14018Y-186801D01*
X-13901Y-187334D01*
X-14018Y-187867D01*
X-14310Y-188267D01*
X-14835Y-188467D01*
X-16235D01*
G01X-11436Y-190134D02*
Y-186134D01*
X-9977D01*
X-9511Y-186334D01*
X-9219Y-186601D01*
X-9102Y-187134D01*
X-9219Y-187667D01*
X-9569Y-188001D01*
X-9977Y-188201D01*
X-11436D01*
G01X-9977D02*
X-9102Y-190134D01*
G01X-5470D02*
X-5937Y-190067D01*
X-6345Y-189801D01*
X-6695Y-189401D01*
X-6928Y-188934D01*
X-7045Y-188401D01*
Y-187867D01*
X-6928Y-187334D01*
X-6695Y-186867D01*
X-6345Y-186467D01*
X-5937Y-186201D01*
X-5470Y-186134D01*
X-5003Y-186201D01*
X-4595Y-186467D01*
X-4245Y-186867D01*
X-4012Y-187334D01*
X-3895Y-187867D01*
Y-188401D01*
X-4012Y-188934D01*
X-4245Y-189401D01*
X-4595Y-189801D01*
X-5003Y-190067D01*
X-5470Y-190134D01*
G01X-1838D02*
Y-186134D01*
X-438D01*
X29Y-186334D01*
X379Y-186801D01*
X496Y-187334D01*
X379Y-187867D01*
X87Y-188267D01*
X-438Y-188467D01*
X-1838D01*
G01X2961Y-190134D02*
Y-186134D01*
X4420D01*
X4886Y-186334D01*
X5178Y-186601D01*
X5295Y-187134D01*
X5178Y-187667D01*
X4828Y-188001D01*
X4420Y-188201D01*
X2961D01*
G01X4420D02*
X5295Y-190134D01*
G01X8227Y-186134D02*
X9627D01*
G01X8927D02*
Y-190134D01*
G01X8227D02*
X9627D01*
G01X14893D02*
X12559D01*
Y-186134D01*
X14893D01*
G01X13959Y-188067D02*
X12559D01*
G01X18525Y-186134D02*
Y-190134D01*
G01X17183Y-186134D02*
X19867D01*
G01X21866Y-190134D02*
X23324Y-186134D01*
X24782Y-190134D01*
G01X24257Y-188734D02*
X22391D01*
G01X26956Y-190134D02*
Y-186134D01*
X28415D01*
X28881Y-186334D01*
X29173Y-186601D01*
X29290Y-187134D01*
X29173Y-187667D01*
X28823Y-188001D01*
X28415Y-188201D01*
X26956D01*
G01X28415D02*
X29290Y-190134D01*
G01X32922D02*
Y-188334D01*
X31755Y-186134D01*
G01X34089D02*
X32922Y-188334D01*
G01X42520Y-186134D02*
Y-190134D01*
G01X41178Y-186134D02*
X43862D01*
G01X47319Y-190134D02*
X46852Y-190067D01*
X46444Y-189801D01*
X46094Y-189401D01*
X45861Y-188934D01*
X45744Y-188401D01*
Y-187867D01*
X45861Y-187334D01*
X46094Y-186867D01*
X46444Y-186467D01*
X46852Y-186201D01*
X47319Y-186134D01*
X47786Y-186201D01*
X48194Y-186467D01*
X48544Y-186867D01*
X48777Y-187334D01*
X48894Y-187867D01*
Y-188401D01*
X48777Y-188934D01*
X48544Y-189401D01*
X48194Y-189801D01*
X47786Y-190067D01*
X47319Y-190134D01*
G01X55809D02*
Y-186134D01*
X58025D01*
G01X57209Y-188067D02*
X55809D01*
G01X60549Y-190134D02*
Y-186134D01*
X62008D01*
X62474Y-186334D01*
X62766Y-186601D01*
X62883Y-187134D01*
X62766Y-187667D01*
X62416Y-188001D01*
X62008Y-188201D01*
X60549D01*
G01X62008D02*
X62883Y-190134D01*
G01X67682D02*
X65348D01*
Y-186134D01*
X67682D01*
G01X66748Y-188067D02*
X65348D01*
G01X72481Y-190134D02*
X70147D01*
Y-186134D01*
X72481D01*
G01X71547Y-188067D02*
X70147D01*
G01X74888Y-189601D02*
X75355Y-189934D01*
X75880Y-190134D01*
X76346D01*
X76813Y-189934D01*
X77163Y-189601D01*
X77338Y-189134D01*
X77221Y-188667D01*
X76930Y-188267D01*
X76405Y-188001D01*
X75705Y-187867D01*
X75296Y-187601D01*
X75121Y-187134D01*
X75238Y-186667D01*
X75530Y-186334D01*
X75938Y-186134D01*
X76346D01*
X76755Y-186267D01*
X77105Y-186601D01*
G01X82195Y-186467D02*
X81845Y-186267D01*
X81437Y-186134D01*
X80970D01*
X80445Y-186334D01*
X80037Y-186667D01*
X79745Y-187067D01*
X79512Y-187734D01*
X79454Y-188334D01*
X79570Y-188934D01*
X79745Y-189334D01*
X80095Y-189734D01*
X80504Y-190001D01*
X80912Y-190134D01*
X81320D01*
X81729Y-190001D01*
X82079Y-189801D01*
X82370Y-189534D01*
G01X84253Y-190134D02*
X85711Y-186134D01*
X87169Y-190134D01*
G01X86644Y-188734D02*
X84778D01*
G01X89343Y-186134D02*
Y-190134D01*
X91677D01*
G01X96476D02*
X94142D01*
Y-186134D01*
X96476D01*
G01X95542Y-188067D02*
X94142D01*
G01X103449Y-190134D02*
X104907Y-186134D01*
X106365Y-190134D01*
G01X105840Y-188734D02*
X103974D01*
G01X108364Y-190134D02*
Y-186134D01*
X111048Y-190134D01*
Y-186134D01*
G01X113222Y-190134D02*
Y-186134D01*
X114388D01*
X114855Y-186334D01*
X115205Y-186601D01*
X115497Y-187001D01*
X115730Y-187467D01*
X115788Y-188134D01*
X115730Y-188801D01*
X115497Y-189267D01*
X115205Y-189667D01*
X114855Y-189934D01*
X114388Y-190134D01*
X113222D01*
G01X122878Y-189601D02*
X123345Y-189934D01*
X123870Y-190134D01*
X124336D01*
X124803Y-189934D01*
X125153Y-189601D01*
X125328Y-189134D01*
X125211Y-188667D01*
X124920Y-188267D01*
X124395Y-188001D01*
X123695Y-187867D01*
X123286Y-187601D01*
X123111Y-187134D01*
X123228Y-186667D01*
X123520Y-186334D01*
X123928Y-186134D01*
X124336D01*
X124745Y-186267D01*
X125095Y-186601D01*
G01X127677Y-190134D02*
Y-186134D01*
G01X130127D02*
Y-190134D01*
G01Y-188134D02*
X127677D01*
G01X132243Y-190134D02*
X133701Y-186134D01*
X135159Y-190134D01*
G01X134634Y-188734D02*
X132768D01*
G01X137333Y-186134D02*
Y-190134D01*
X139667D01*
G01X142132Y-186134D02*
Y-190134D01*
X144466D01*
G01X-23526Y-172134D02*
X-22068Y-168134D01*
X-20610Y-172134D01*
G01X-21135Y-170734D02*
X-23001D01*
G01X-18552Y-168134D02*
Y-171001D01*
X-18319Y-171601D01*
X-17852Y-172001D01*
X-17269Y-172134D01*
X-16686Y-172001D01*
X-16219Y-171601D01*
X-15986Y-171001D01*
Y-168134D01*
G01X-13695Y-171601D02*
X-13228Y-171934D01*
X-12703Y-172134D01*
X-12237D01*
X-11770Y-171934D01*
X-11420Y-171601D01*
X-11245Y-171134D01*
X-11362Y-170667D01*
X-11653Y-170267D01*
X-12178Y-170001D01*
X-12878Y-169867D01*
X-13287Y-169601D01*
X-13462Y-169134D01*
X-13345Y-168667D01*
X-13053Y-168334D01*
X-12645Y-168134D01*
X-12237D01*
X-11828Y-168267D01*
X-11478Y-168601D01*
G01X-7671Y-168134D02*
Y-172134D01*
G01X-9013Y-168134D02*
X-6329D01*
G01X-3572D02*
X-2172D01*
G01X-2872D02*
Y-172134D01*
G01X-3572D02*
X-2172D01*
G01X585D02*
Y-168134D01*
X3269Y-172134D01*
Y-168134D01*
G01X6726Y-172267D02*
X6609Y-172201D01*
Y-172067D01*
X6726Y-172001D01*
X6843Y-172067D01*
Y-172201D01*
X6726Y-172267D01*
G01X16324Y-168134D02*
Y-172134D01*
G01X14982Y-168134D02*
X17666D01*
G01X22290Y-172134D02*
X19956D01*
Y-168134D01*
X22290D01*
G01X21356Y-170067D02*
X19956D01*
G01X24697Y-172134D02*
X27147Y-168134D01*
G01X24697D02*
X27147Y-172134D01*
G01X29263D02*
X30721Y-168134D01*
X32179Y-172134D01*
G01X31654Y-170734D02*
X29788D01*
G01X34295Y-171601D02*
X34762Y-171934D01*
X35287Y-172134D01*
X35753D01*
X36220Y-171934D01*
X36570Y-171601D01*
X36745Y-171134D01*
X36628Y-170667D01*
X36337Y-170267D01*
X35812Y-170001D01*
X35112Y-169867D01*
X34703Y-169601D01*
X34528Y-169134D01*
X34645Y-168667D01*
X34937Y-168334D01*
X35345Y-168134D01*
X35753D01*
X36162Y-168267D01*
X36512Y-168601D01*
G01X45001Y-172134D02*
X45118Y-171267D01*
X45293Y-170534D01*
X45526Y-169867D01*
X45818Y-169134D01*
X46285Y-168134D01*
X43951D01*
G01X49917Y-172134D02*
X50325Y-172067D01*
X50792Y-171867D01*
X51084Y-171534D01*
X51200Y-171067D01*
X51084Y-170601D01*
X50734Y-170201D01*
X50209Y-170001D01*
X49625D01*
X49275Y-169867D01*
X48984Y-169534D01*
X48867Y-169067D01*
X49042Y-168601D01*
X49450Y-168267D01*
X49917Y-168134D01*
X50384Y-168267D01*
X50792Y-168601D01*
X50967Y-169067D01*
X50850Y-169534D01*
X50559Y-169867D01*
X50209Y-170001D01*
X49625D01*
X49100Y-170201D01*
X48750Y-170601D01*
X48634Y-171067D01*
X48750Y-171534D01*
X49042Y-171867D01*
X49509Y-172067D01*
X49917Y-172134D01*
G01X54599D02*
X54716Y-171267D01*
X54891Y-170534D01*
X55124Y-169867D01*
X55416Y-169134D01*
X55883Y-168134D01*
X53549D01*
G01X58232Y-171334D02*
X58582Y-171801D01*
X59048Y-172067D01*
X59573Y-172134D01*
X60040Y-172067D01*
X60507Y-171734D01*
X60798Y-171334D01*
X60857Y-170934D01*
X60740Y-170467D01*
X60332Y-170134D01*
X59923Y-170001D01*
X59398D01*
G01X59923D02*
X60273Y-169801D01*
X60565Y-169467D01*
X60682Y-169067D01*
X60565Y-168667D01*
X60273Y-168334D01*
X59748Y-168134D01*
X59223Y-168201D01*
X58698Y-168467D01*
G01X63031Y-171534D02*
X63381Y-171867D01*
X63789Y-172067D01*
X64314Y-172134D01*
X64839Y-172001D01*
X65247Y-171734D01*
X65539Y-171267D01*
X65597Y-170734D01*
X65481Y-170201D01*
X65189Y-169867D01*
X64781Y-169601D01*
X64372Y-169534D01*
X63964Y-169601D01*
X63439Y-169867D01*
X63614Y-168134D01*
X65189D01*
G01X72629D02*
Y-171001D01*
X72862Y-171601D01*
X73329Y-172001D01*
X73912Y-172134D01*
X74495Y-172001D01*
X74962Y-171601D01*
X75195Y-171001D01*
Y-168134D01*
G01X77486Y-171601D02*
X77953Y-171934D01*
X78478Y-172134D01*
X78944D01*
X79411Y-171934D01*
X79761Y-171601D01*
X79936Y-171134D01*
X79819Y-170667D01*
X79528Y-170267D01*
X79003Y-170001D01*
X78303Y-169867D01*
X77894Y-169601D01*
X77719Y-169134D01*
X77836Y-168667D01*
X78128Y-168334D01*
X78536Y-168134D01*
X78944D01*
X79353Y-168267D01*
X79703Y-168601D01*
G01X82052Y-172134D02*
X83510Y-168134D01*
X84968Y-172134D01*
G01X84443Y-170734D02*
X82577D01*
G01X-23176Y-163467D02*
X-22768Y-163001D01*
X-22418Y-162734D01*
X-21951Y-162601D01*
X-21543Y-162734D01*
X-21251Y-163001D01*
X-21018Y-163401D01*
X-20960Y-163867D01*
X-21018Y-164267D01*
X-21251Y-164667D01*
X-21601Y-165001D01*
X-22010Y-165134D01*
X-22476Y-165001D01*
X-22885Y-164601D01*
X-23118Y-164001D01*
X-23176Y-163334D01*
X-23060Y-162467D01*
X-22885Y-162001D01*
X-22593Y-161534D01*
X-22185Y-161201D01*
X-21776Y-161134D01*
X-21368Y-161267D01*
X-21076Y-161601D01*
G01X-18552Y-164534D02*
X-18202Y-164867D01*
X-17794Y-165067D01*
X-17269Y-165134D01*
X-16744Y-165001D01*
X-16336Y-164734D01*
X-16044Y-164267D01*
X-15986Y-163734D01*
X-16102Y-163201D01*
X-16394Y-162867D01*
X-16802Y-162601D01*
X-17211Y-162534D01*
X-17619Y-162601D01*
X-18144Y-162867D01*
X-17969Y-161134D01*
X-16394D01*
G01X-12470D02*
X-12937Y-161267D01*
X-13287Y-161601D01*
X-13520Y-162001D01*
X-13695Y-162534D01*
X-13753Y-163134D01*
X-13695Y-163734D01*
X-13520Y-164267D01*
X-13287Y-164667D01*
X-12937Y-165001D01*
X-12470Y-165134D01*
X-12003Y-165001D01*
X-11653Y-164667D01*
X-11420Y-164267D01*
X-11245Y-163734D01*
X-11187Y-163134D01*
X-11245Y-162534D01*
X-11420Y-162001D01*
X-11653Y-161601D01*
X-12003Y-161267D01*
X-12470Y-161134D01*
G01X-7671Y-165134D02*
Y-161134D01*
X-8371Y-161934D01*
G01Y-165134D02*
X-6971D01*
G01X177Y-161134D02*
X994Y-165134D01*
X1927Y-161134D01*
X2860Y-165134D01*
X3677Y-161134D01*
G01X6026D02*
X7426D01*
G01X6726D02*
Y-165134D01*
G01X6026D02*
X7426D01*
G01X10358Y-161134D02*
Y-165134D01*
X12692D01*
G01X15157Y-161134D02*
Y-165134D01*
X17491D01*
G01X20423Y-161134D02*
X21823D01*
G01X21123D02*
Y-165134D01*
G01X20423D02*
X21823D01*
G01X24464D02*
X25922Y-161134D01*
X27380Y-165134D01*
G01X26855Y-163734D02*
X24989D01*
G01X29204Y-165134D02*
Y-161134D01*
X30721Y-164467D01*
X32238Y-161134D01*
Y-165134D01*
G01X41602Y-161467D02*
X41252Y-161267D01*
X40844Y-161134D01*
X40377D01*
X39852Y-161334D01*
X39444Y-161667D01*
X39152Y-162067D01*
X38919Y-162734D01*
X38861Y-163334D01*
X38977Y-163934D01*
X39152Y-164334D01*
X39502Y-164734D01*
X39911Y-165001D01*
X40319Y-165134D01*
X40727D01*
X41136Y-165001D01*
X41486Y-164801D01*
X41777Y-164534D01*
G01X43660Y-165134D02*
X45118Y-161134D01*
X46576Y-165134D01*
G01X46051Y-163734D02*
X44185D01*
G01X48575Y-165134D02*
Y-161134D01*
X51259Y-165134D01*
Y-161134D01*
G01X53374Y-165134D02*
Y-161134D01*
X56058Y-165134D01*
Y-161134D01*
G01X59515Y-165134D02*
X59048Y-165067D01*
X58640Y-164801D01*
X58290Y-164401D01*
X58057Y-163934D01*
X57940Y-163401D01*
Y-162867D01*
X58057Y-162334D01*
X58290Y-161867D01*
X58640Y-161467D01*
X59048Y-161201D01*
X59515Y-161134D01*
X59982Y-161201D01*
X60390Y-161467D01*
X60740Y-161867D01*
X60973Y-162334D01*
X61090Y-162867D01*
Y-163401D01*
X60973Y-163934D01*
X60740Y-164401D01*
X60390Y-164801D01*
X59982Y-165067D01*
X59515Y-165134D01*
G01X62972D02*
Y-161134D01*
X65656Y-165134D01*
Y-161134D01*
G01X72629Y-165134D02*
Y-161134D01*
X73795D01*
X74262Y-161334D01*
X74612Y-161601D01*
X74904Y-162001D01*
X75137Y-162467D01*
X75195Y-163134D01*
X75137Y-163801D01*
X74904Y-164267D01*
X74612Y-164667D01*
X74262Y-164934D01*
X73795Y-165134D01*
X72629D01*
G01X77544D02*
Y-161134D01*
X79003D01*
X79469Y-161334D01*
X79761Y-161601D01*
X79878Y-162134D01*
X79761Y-162667D01*
X79411Y-163001D01*
X79003Y-163201D01*
X77544D01*
G01X79003D02*
X79878Y-165134D01*
G01X82810Y-161134D02*
X84210D01*
G01X83510D02*
Y-165134D01*
G01X82810D02*
X84210D01*
G01X86851Y-161134D02*
X88309Y-165134D01*
X89767Y-161134D01*
G01X94275Y-165134D02*
X91941D01*
Y-161134D01*
X94275D01*
G01X93341Y-163067D02*
X91941D01*
G01X100956Y-161134D02*
X101773Y-165134D01*
X102706Y-161134D01*
X103639Y-165134D01*
X104456Y-161134D01*
G01X108672Y-165134D02*
X106338D01*
Y-161134D01*
X108672D01*
G01X107738Y-163067D02*
X106338D01*
G01X111079Y-164601D02*
X111546Y-164934D01*
X112071Y-165134D01*
X112537D01*
X113004Y-164934D01*
X113354Y-164601D01*
X113529Y-164134D01*
X113412Y-163667D01*
X113121Y-163267D01*
X112596Y-163001D01*
X111896Y-162867D01*
X111487Y-162601D01*
X111312Y-162134D01*
X111429Y-161667D01*
X111721Y-161334D01*
X112129Y-161134D01*
X112537D01*
X112946Y-161267D01*
X113296Y-161601D01*
G01X117103Y-161134D02*
Y-165134D01*
G01X115761Y-161134D02*
X118445D01*
G01X-16068Y-178134D02*
Y-182134D01*
G01X-17410Y-178134D02*
X-14726D01*
G01X-12494Y-182134D02*
Y-178134D01*
G01X-10044D02*
Y-182134D01*
G01Y-180134D02*
X-12494D01*
G01X-7170Y-178134D02*
X-5770D01*
G01X-6470D02*
Y-182134D01*
G01X-7170D02*
X-5770D01*
G01X-2896Y-181601D02*
X-2429Y-181934D01*
X-1904Y-182134D01*
X-1438D01*
X-971Y-181934D01*
X-621Y-181601D01*
X-446Y-181134D01*
X-563Y-180667D01*
X-854Y-180267D01*
X-1379Y-180001D01*
X-2079Y-179867D01*
X-2488Y-179601D01*
X-2663Y-179134D01*
X-2546Y-178667D01*
X-2254Y-178334D01*
X-1846Y-178134D01*
X-1438D01*
X-1029Y-178267D01*
X-679Y-178601D01*
G01X6644Y-182134D02*
Y-178134D01*
X7810D01*
X8277Y-178334D01*
X8627Y-178601D01*
X8919Y-179001D01*
X9152Y-179467D01*
X9210Y-180134D01*
X9152Y-180801D01*
X8919Y-181267D01*
X8627Y-181667D01*
X8277Y-181934D01*
X7810Y-182134D01*
X6644D01*
G01X12726D02*
X12259Y-182067D01*
X11851Y-181801D01*
X11501Y-181401D01*
X11268Y-180934D01*
X11151Y-180401D01*
Y-179867D01*
X11268Y-179334D01*
X11501Y-178867D01*
X11851Y-178467D01*
X12259Y-178201D01*
X12726Y-178134D01*
X13193Y-178201D01*
X13601Y-178467D01*
X13951Y-178867D01*
X14184Y-179334D01*
X14301Y-179867D01*
Y-180401D01*
X14184Y-180934D01*
X13951Y-181401D01*
X13601Y-181801D01*
X13193Y-182067D01*
X12726Y-182134D01*
G01X18808Y-178467D02*
X18458Y-178267D01*
X18050Y-178134D01*
X17583D01*
X17058Y-178334D01*
X16650Y-178667D01*
X16358Y-179067D01*
X16125Y-179734D01*
X16067Y-180334D01*
X16183Y-180934D01*
X16358Y-181334D01*
X16708Y-181734D01*
X17117Y-182001D01*
X17525Y-182134D01*
X17933D01*
X18342Y-182001D01*
X18692Y-181801D01*
X18983Y-181534D01*
G01X21041Y-178134D02*
Y-181001D01*
X21274Y-181601D01*
X21741Y-182001D01*
X22324Y-182134D01*
X22907Y-182001D01*
X23374Y-181601D01*
X23607Y-181001D01*
Y-178134D01*
G01X25606Y-182134D02*
Y-178134D01*
X27123Y-181467D01*
X28640Y-178134D01*
Y-182134D01*
G01X33089D02*
X30755D01*
Y-178134D01*
X33089D01*
G01X32155Y-180067D02*
X30755D01*
G01X35379Y-182134D02*
Y-178134D01*
X38063Y-182134D01*
Y-178134D01*
G01X41520D02*
Y-182134D01*
G01X40178Y-178134D02*
X42862D01*
G01X52401Y-178467D02*
X52051Y-178267D01*
X51643Y-178134D01*
X51176D01*
X50651Y-178334D01*
X50243Y-178667D01*
X49951Y-179067D01*
X49718Y-179734D01*
X49660Y-180334D01*
X49776Y-180934D01*
X49951Y-181334D01*
X50301Y-181734D01*
X50710Y-182001D01*
X51118Y-182134D01*
X51526D01*
X51935Y-182001D01*
X52285Y-181801D01*
X52576Y-181534D01*
G01X55917Y-182134D02*
X55450Y-182067D01*
X55042Y-181801D01*
X54692Y-181401D01*
X54459Y-180934D01*
X54342Y-180401D01*
Y-179867D01*
X54459Y-179334D01*
X54692Y-178867D01*
X55042Y-178467D01*
X55450Y-178201D01*
X55917Y-178134D01*
X56384Y-178201D01*
X56792Y-178467D01*
X57142Y-178867D01*
X57375Y-179334D01*
X57492Y-179867D01*
Y-180401D01*
X57375Y-180934D01*
X57142Y-181401D01*
X56792Y-181801D01*
X56384Y-182067D01*
X55917Y-182134D01*
G01X59374D02*
Y-178134D01*
X62058Y-182134D01*
Y-178134D01*
G01X65515D02*
Y-182134D01*
G01X64173Y-178134D02*
X66857D01*
G01X68856Y-182134D02*
X70314Y-178134D01*
X71772Y-182134D01*
G01X71247Y-180734D02*
X69381D01*
G01X74413Y-178134D02*
X75813D01*
G01X75113D02*
Y-182134D01*
G01X74413D02*
X75813D01*
G01X78570D02*
Y-178134D01*
X81254Y-182134D01*
Y-178134D01*
G01X83486Y-181601D02*
X83953Y-181934D01*
X84478Y-182134D01*
X84944D01*
X85411Y-181934D01*
X85761Y-181601D01*
X85936Y-181134D01*
X85819Y-180667D01*
X85528Y-180267D01*
X85003Y-180001D01*
X84303Y-179867D01*
X83894Y-179601D01*
X83719Y-179134D01*
X83836Y-178667D01*
X84128Y-178334D01*
X84536Y-178134D01*
X84944D01*
X85353Y-178267D01*
X85703Y-178601D01*
G01X93609Y-178134D02*
X95009D01*
G01X94309D02*
Y-182134D01*
G01X93609D02*
X95009D01*
G01X97766D02*
Y-178134D01*
X100450Y-182134D01*
Y-178134D01*
G01X102799Y-182134D02*
Y-178134D01*
X105015D01*
G01X104199Y-180067D02*
X102799D01*
G01X108706Y-182134D02*
X108239Y-182067D01*
X107831Y-181801D01*
X107481Y-181401D01*
X107248Y-180934D01*
X107131Y-180401D01*
Y-179867D01*
X107248Y-179334D01*
X107481Y-178867D01*
X107831Y-178467D01*
X108239Y-178201D01*
X108706Y-178134D01*
X109173Y-178201D01*
X109581Y-178467D01*
X109931Y-178867D01*
X110164Y-179334D01*
X110281Y-179867D01*
Y-180401D01*
X110164Y-180934D01*
X109931Y-181401D01*
X109581Y-181801D01*
X109173Y-182067D01*
X108706Y-182134D01*
G01X112338D02*
Y-178134D01*
X113797D01*
X114263Y-178334D01*
X114555Y-178601D01*
X114672Y-179134D01*
X114555Y-179667D01*
X114205Y-180001D01*
X113797Y-180201D01*
X112338D01*
G01X113797D02*
X114672Y-182134D01*
G01X116787D02*
Y-178134D01*
X118304Y-181467D01*
X119821Y-178134D01*
Y-182134D01*
G01X121645D02*
X123103Y-178134D01*
X124561Y-182134D01*
G01X124036Y-180734D02*
X122170D01*
G01X127902Y-178134D02*
Y-182134D01*
G01X126560Y-178134D02*
X129244D01*
G01X132001D02*
X133401D01*
G01X132701D02*
Y-182134D01*
G01X132001D02*
X133401D01*
G01X137500D02*
X137033Y-182067D01*
X136625Y-181801D01*
X136275Y-181401D01*
X136042Y-180934D01*
X135925Y-180401D01*
Y-179867D01*
X136042Y-179334D01*
X136275Y-178867D01*
X136625Y-178467D01*
X137033Y-178201D01*
X137500Y-178134D01*
X137967Y-178201D01*
X138375Y-178467D01*
X138725Y-178867D01*
X138958Y-179334D01*
X139075Y-179867D01*
Y-180401D01*
X138958Y-180934D01*
X138725Y-181401D01*
X138375Y-181801D01*
X137967Y-182067D01*
X137500Y-182134D01*
G01X140957D02*
Y-178134D01*
X143641Y-182134D01*
Y-178134D01*
G01X26824Y-233134D02*
Y-229134D01*
X29040D01*
G01X28224Y-231067D02*
X26824D01*
G01X32031Y-229134D02*
X33431D01*
G01X32731D02*
Y-233134D01*
G01X32031D02*
X33431D01*
G01X36363Y-229134D02*
Y-233134D01*
X38697D01*
G01X40812D02*
Y-229134D01*
X42329Y-232467D01*
X43846Y-229134D01*
Y-233134D01*
G01X154932Y-241134D02*
Y-237134D01*
X154232Y-237934D01*
G01Y-241134D02*
X155632D01*
G01X159731Y-237134D02*
X159264Y-237267D01*
X158914Y-237601D01*
X158681Y-238001D01*
X158506Y-238534D01*
X158448Y-239134D01*
X158506Y-239734D01*
X158681Y-240267D01*
X158914Y-240667D01*
X159264Y-241001D01*
X159731Y-241134D01*
X160198Y-241001D01*
X160548Y-240667D01*
X160781Y-240267D01*
X160956Y-239734D01*
X161014Y-239134D01*
X160956Y-238534D01*
X160781Y-238001D01*
X160548Y-237601D01*
X160198Y-237267D01*
X159731Y-237134D01*
G01X163772Y-239801D02*
X165288D01*
G01X169329Y-241134D02*
Y-237134D01*
X168629Y-237934D01*
G01Y-241134D02*
X170029D01*
G01X174128D02*
X174536Y-241067D01*
X175003Y-240867D01*
X175295Y-240534D01*
X175411Y-240067D01*
X175295Y-239601D01*
X174945Y-239201D01*
X174420Y-239001D01*
X173836D01*
X173486Y-238867D01*
X173195Y-238534D01*
X173078Y-238067D01*
X173253Y-237601D01*
X173661Y-237267D01*
X174128Y-237134D01*
X174595Y-237267D01*
X175003Y-237601D01*
X175178Y-238067D01*
X175061Y-238534D01*
X174770Y-238867D01*
X174420Y-239001D01*
X173836D01*
X173311Y-239201D01*
X172961Y-239601D01*
X172845Y-240067D01*
X172961Y-240534D01*
X173253Y-240867D01*
X173720Y-241067D01*
X174128Y-241134D01*
G01X178169Y-239801D02*
X179685D01*
G01X183726Y-241134D02*
Y-237134D01*
X183026Y-237934D01*
G01Y-241134D02*
X184426D01*
G01X187417Y-237801D02*
X187767Y-237401D01*
X188175Y-237201D01*
X188642Y-237134D01*
X189225Y-237267D01*
X189633Y-237601D01*
X189750Y-238001D01*
X189692Y-238401D01*
X189458Y-238734D01*
X188292Y-239401D01*
X187767Y-239867D01*
X187417Y-240534D01*
X187300Y-241134D01*
X189750D01*
G01X151649Y-233134D02*
Y-229134D01*
X152815D01*
X153282Y-229334D01*
X153632Y-229601D01*
X153924Y-230001D01*
X154157Y-230467D01*
X154215Y-231134D01*
X154157Y-231801D01*
X153924Y-232267D01*
X153632Y-232667D01*
X153282Y-232934D01*
X152815Y-233134D01*
X151649D01*
G01X156273D02*
X157731Y-229134D01*
X159189Y-233134D01*
G01X158664Y-231734D02*
X156798D01*
G01X162530Y-229134D02*
Y-233134D01*
G01X161188Y-229134D02*
X163872D01*
G01X168496Y-233134D02*
X166162D01*
Y-229134D01*
X168496D01*
G01X167562Y-231067D02*
X166162D01*
G01X151590Y-153134D02*
Y-149134D01*
X154274Y-153134D01*
Y-149134D01*
G01X156273Y-153134D02*
X157731Y-149134D01*
X159189Y-153134D01*
G01X158664Y-151734D02*
X156798D01*
G01X161013Y-153134D02*
Y-149134D01*
X162530Y-152467D01*
X164047Y-149134D01*
Y-153134D01*
G01X168496D02*
X166162D01*
Y-149134D01*
X168496D01*
G01X167562Y-151067D02*
X166162D01*
G01X161182Y-218967D02*
X164682D01*
G01X165981D02*
X169481D01*
G01X170780D02*
X174280D01*
G01X181020Y-217634D02*
Y-213634D01*
X183236D01*
G01X182420Y-215567D02*
X181020D01*
G01X188210Y-213967D02*
X187860Y-213767D01*
X187452Y-213634D01*
X186985D01*
X186460Y-213834D01*
X186052Y-214167D01*
X185760Y-214567D01*
X185527Y-215234D01*
X185469Y-215834D01*
X185585Y-216434D01*
X185760Y-216834D01*
X186110Y-217234D01*
X186519Y-217501D01*
X186927Y-217634D01*
X187335D01*
X187744Y-217501D01*
X188094Y-217301D01*
X188385Y-217034D01*
G01X190559Y-217634D02*
Y-213634D01*
X191959D01*
X192426Y-213834D01*
X192776Y-214301D01*
X192893Y-214834D01*
X192776Y-215367D01*
X192484Y-215767D01*
X191959Y-215967D01*
X190559D01*
G01X201032Y-218967D02*
X200449Y-218301D01*
X200157Y-217634D01*
Y-214967D01*
X200449Y-214301D01*
X201032Y-213634D01*
G01X205015Y-217634D02*
Y-213634D01*
X207231D01*
G01X206415Y-215567D02*
X205015D01*
G01X209755Y-217634D02*
Y-213634D01*
X211214D01*
X211680Y-213834D01*
X211972Y-214101D01*
X212089Y-214634D01*
X211972Y-215167D01*
X211622Y-215501D01*
X211214Y-215701D01*
X209755D01*
G01X211214D02*
X212089Y-217634D01*
G01X216888D02*
X214554D01*
Y-213634D01*
X216888D01*
G01X215954Y-215567D02*
X214554D01*
G01X221687Y-217634D02*
X219353D01*
Y-213634D01*
X221687D01*
G01X220753Y-215567D02*
X219353D01*
G01X224094Y-217101D02*
X224561Y-217434D01*
X225086Y-217634D01*
X225552D01*
X226019Y-217434D01*
X226369Y-217101D01*
X226544Y-216634D01*
X226427Y-216167D01*
X226136Y-215767D01*
X225611Y-215501D01*
X224911Y-215367D01*
X224502Y-215101D01*
X224327Y-214634D01*
X224444Y-214167D01*
X224736Y-213834D01*
X225144Y-213634D01*
X225552D01*
X225961Y-213767D01*
X226311Y-214101D01*
G01X231401Y-213967D02*
X231051Y-213767D01*
X230643Y-213634D01*
X230176D01*
X229651Y-213834D01*
X229243Y-214167D01*
X228951Y-214567D01*
X228718Y-215234D01*
X228660Y-215834D01*
X228776Y-216434D01*
X228951Y-216834D01*
X229301Y-217234D01*
X229710Y-217501D01*
X230118Y-217634D01*
X230526D01*
X230935Y-217501D01*
X231285Y-217301D01*
X231576Y-217034D01*
G01X233459Y-217634D02*
X234917Y-213634D01*
X236375Y-217634D01*
G01X235850Y-216234D02*
X233984D01*
G01X238549Y-213634D02*
Y-217634D01*
X240883D01*
G01X245682D02*
X243348D01*
Y-213634D01*
X245682D01*
G01X244748Y-215567D02*
X243348D01*
G01X255396Y-213967D02*
X255046Y-213767D01*
X254638Y-213634D01*
X254171D01*
X253646Y-213834D01*
X253238Y-214167D01*
X252946Y-214567D01*
X252713Y-215234D01*
X252655Y-215834D01*
X252771Y-216434D01*
X252946Y-216834D01*
X253296Y-217234D01*
X253705Y-217501D01*
X254113Y-217634D01*
X254521D01*
X254930Y-217501D01*
X255280Y-217301D01*
X255571Y-217034D01*
G01X258912Y-217634D02*
X258445Y-217567D01*
X258037Y-217301D01*
X257687Y-216901D01*
X257454Y-216434D01*
X257337Y-215901D01*
Y-215367D01*
X257454Y-214834D01*
X257687Y-214367D01*
X258037Y-213967D01*
X258445Y-213701D01*
X258912Y-213634D01*
X259379Y-213701D01*
X259787Y-213967D01*
X260137Y-214367D01*
X260370Y-214834D01*
X260487Y-215367D01*
Y-215901D01*
X260370Y-216434D01*
X260137Y-216901D01*
X259787Y-217301D01*
X259379Y-217567D01*
X258912Y-217634D01*
G01X262369D02*
Y-213634D01*
X265053Y-217634D01*
Y-213634D01*
G01X267402Y-217634D02*
Y-213634D01*
X269618D01*
G01X268802Y-215567D02*
X267402D01*
G01X272609Y-213634D02*
X274009D01*
G01X273309D02*
Y-217634D01*
G01X272609D02*
X274009D01*
G01X276825D02*
Y-213634D01*
X277991D01*
X278458Y-213834D01*
X278808Y-214101D01*
X279100Y-214501D01*
X279333Y-214967D01*
X279391Y-215634D01*
X279333Y-216301D01*
X279100Y-216767D01*
X278808Y-217167D01*
X278458Y-217434D01*
X277991Y-217634D01*
X276825D01*
G01X284074D02*
X281740D01*
Y-213634D01*
X284074D01*
G01X283140Y-215567D02*
X281740D01*
G01X286364Y-217634D02*
Y-213634D01*
X289048Y-217634D01*
Y-213634D01*
G01X292505D02*
Y-217634D01*
G01X291163Y-213634D02*
X293847D01*
G01X296604D02*
X298004D01*
G01X297304D02*
Y-217634D01*
G01X296604D02*
X298004D01*
G01X300645D02*
X302103Y-213634D01*
X303561Y-217634D01*
G01X303036Y-216234D02*
X301170D01*
G01X305735Y-213634D02*
Y-217634D01*
X308069D01*
G01X315333D02*
Y-213634D01*
X316733D01*
X317200Y-213834D01*
X317550Y-214301D01*
X317667Y-214834D01*
X317550Y-215367D01*
X317258Y-215767D01*
X316733Y-215967D01*
X315333D01*
G01X320132Y-217634D02*
Y-213634D01*
X321591D01*
X322057Y-213834D01*
X322349Y-214101D01*
X322466Y-214634D01*
X322349Y-215167D01*
X321999Y-215501D01*
X321591Y-215701D01*
X320132D01*
G01X321591D02*
X322466Y-217634D01*
G01X326098D02*
X325631Y-217567D01*
X325223Y-217301D01*
X324873Y-216901D01*
X324640Y-216434D01*
X324523Y-215901D01*
Y-215367D01*
X324640Y-214834D01*
X324873Y-214367D01*
X325223Y-213967D01*
X325631Y-213701D01*
X326098Y-213634D01*
X326565Y-213701D01*
X326973Y-213967D01*
X327323Y-214367D01*
X327556Y-214834D01*
X327673Y-215367D01*
Y-215901D01*
X327556Y-216434D01*
X327323Y-216901D01*
X326973Y-217301D01*
X326565Y-217567D01*
X326098Y-217634D01*
G01X329730D02*
Y-213634D01*
X331130D01*
X331597Y-213834D01*
X331947Y-214301D01*
X332064Y-214834D01*
X331947Y-215367D01*
X331655Y-215767D01*
X331130Y-215967D01*
X329730D01*
G01X334529Y-217634D02*
Y-213634D01*
X335988D01*
X336454Y-213834D01*
X336746Y-214101D01*
X336863Y-214634D01*
X336746Y-215167D01*
X336396Y-215501D01*
X335988Y-215701D01*
X334529D01*
G01X335988D02*
X336863Y-217634D01*
G01X339795Y-213634D02*
X341195D01*
G01X340495D02*
Y-217634D01*
G01X339795D02*
X341195D01*
G01X346461D02*
X344127D01*
Y-213634D01*
X346461D01*
G01X345527Y-215567D02*
X344127D01*
G01X350093Y-213634D02*
Y-217634D01*
G01X348751Y-213634D02*
X351435D01*
G01X353434Y-217634D02*
X354892Y-213634D01*
X356350Y-217634D01*
G01X355825Y-216234D02*
X353959D01*
G01X358524Y-217634D02*
Y-213634D01*
X359983D01*
X360449Y-213834D01*
X360741Y-214101D01*
X360858Y-214634D01*
X360741Y-215167D01*
X360391Y-215501D01*
X359983Y-215701D01*
X358524D01*
G01X359983D02*
X360858Y-217634D01*
G01X364490D02*
Y-215834D01*
X363323Y-213634D01*
G01X365657D02*
X364490Y-215834D01*
G01X369581Y-218967D02*
X370164Y-218301D01*
X370456Y-217634D01*
Y-214967D01*
X370164Y-214301D01*
X369581Y-213634D01*
G01X165887Y-202134D02*
X169178Y-195835D01*
G01X165887D02*
X169178Y-202134D01*
G01X161182Y-202467D02*
X164682D01*
G01X165981D02*
X169481D01*
G01X170780D02*
X174280D01*
G01X181020Y-201134D02*
Y-197134D01*
X183236D01*
G01X182420Y-199067D02*
X181020D01*
G01X186227Y-197134D02*
X187627D01*
G01X186927D02*
Y-201134D01*
G01X186227D02*
X187627D01*
G01X190443Y-197134D02*
Y-200001D01*
X190676Y-200601D01*
X191143Y-201001D01*
X191726Y-201134D01*
X192309Y-201001D01*
X192776Y-200601D01*
X193009Y-200001D01*
Y-197134D01*
G01X196525Y-201134D02*
X196058Y-201067D01*
X195650Y-200801D01*
X195300Y-200401D01*
X195067Y-199934D01*
X194950Y-199401D01*
Y-198867D01*
X195067Y-198334D01*
X195300Y-197867D01*
X195650Y-197467D01*
X196058Y-197201D01*
X196525Y-197134D01*
X196992Y-197201D01*
X197400Y-197467D01*
X197750Y-197867D01*
X197983Y-198334D01*
X198100Y-198867D01*
Y-199401D01*
X197983Y-199934D01*
X197750Y-200401D01*
X197400Y-200801D01*
X196992Y-201067D01*
X196525Y-201134D01*
G01X205831Y-202467D02*
X205248Y-201801D01*
X204956Y-201134D01*
Y-198467D01*
X205248Y-197801D01*
X205831Y-197134D01*
G01X209814Y-201134D02*
Y-197134D01*
X212030D01*
G01X211214Y-199067D02*
X209814D01*
G01X214554Y-201134D02*
Y-197134D01*
X216013D01*
X216479Y-197334D01*
X216771Y-197601D01*
X216888Y-198134D01*
X216771Y-198667D01*
X216421Y-199001D01*
X216013Y-199201D01*
X214554D01*
G01X216013D02*
X216888Y-201134D01*
G01X221687D02*
X219353D01*
Y-197134D01*
X221687D01*
G01X220753Y-199067D02*
X219353D01*
G01X226486Y-201134D02*
X224152D01*
Y-197134D01*
X226486D01*
G01X225552Y-199067D02*
X224152D01*
G01X228893Y-200601D02*
X229360Y-200934D01*
X229885Y-201134D01*
X230351D01*
X230818Y-200934D01*
X231168Y-200601D01*
X231343Y-200134D01*
X231226Y-199667D01*
X230935Y-199267D01*
X230410Y-199001D01*
X229710Y-198867D01*
X229301Y-198601D01*
X229126Y-198134D01*
X229243Y-197667D01*
X229535Y-197334D01*
X229943Y-197134D01*
X230351D01*
X230760Y-197267D01*
X231110Y-197601D01*
G01X236200Y-197467D02*
X235850Y-197267D01*
X235442Y-197134D01*
X234975D01*
X234450Y-197334D01*
X234042Y-197667D01*
X233750Y-198067D01*
X233517Y-198734D01*
X233459Y-199334D01*
X233575Y-199934D01*
X233750Y-200334D01*
X234100Y-200734D01*
X234509Y-201001D01*
X234917Y-201134D01*
X235325D01*
X235734Y-201001D01*
X236084Y-200801D01*
X236375Y-200534D01*
G01X238258Y-201134D02*
X239716Y-197134D01*
X241174Y-201134D01*
G01X240649Y-199734D02*
X238783D01*
G01X243348Y-197134D02*
Y-201134D01*
X245682D01*
G01X250481D02*
X248147D01*
Y-197134D01*
X250481D01*
G01X249547Y-199067D02*
X248147D01*
G01X258212Y-197134D02*
X259612D01*
G01X258912D02*
Y-201134D01*
G01X258212D02*
X259612D01*
G01X262369D02*
Y-197134D01*
X265053Y-201134D01*
Y-197134D01*
G01X268510D02*
Y-201134D01*
G01X267168Y-197134D02*
X269852D01*
G01X274476Y-201134D02*
X272142D01*
Y-197134D01*
X274476D01*
G01X273542Y-199067D02*
X272142D01*
G01X276941Y-201134D02*
Y-197134D01*
X278400D01*
X278866Y-197334D01*
X279158Y-197601D01*
X279275Y-198134D01*
X279158Y-198667D01*
X278808Y-199001D01*
X278400Y-199201D01*
X276941D01*
G01X278400D02*
X279275Y-201134D01*
G01X281565D02*
Y-197134D01*
X284249Y-201134D01*
Y-197134D01*
G01X286248Y-201134D02*
X287706Y-197134D01*
X289164Y-201134D01*
G01X288639Y-199734D02*
X286773D01*
G01X291338Y-197134D02*
Y-201134D01*
X293672D01*
G01X300820Y-197134D02*
Y-200001D01*
X301053Y-200601D01*
X301520Y-201001D01*
X302103Y-201134D01*
X302686Y-201001D01*
X303153Y-200601D01*
X303386Y-200001D01*
Y-197134D01*
G01X305677Y-200601D02*
X306144Y-200934D01*
X306669Y-201134D01*
X307135D01*
X307602Y-200934D01*
X307952Y-200601D01*
X308127Y-200134D01*
X308010Y-199667D01*
X307719Y-199267D01*
X307194Y-199001D01*
X306494Y-198867D01*
X306085Y-198601D01*
X305910Y-198134D01*
X306027Y-197667D01*
X306319Y-197334D01*
X306727Y-197134D01*
X307135D01*
X307544Y-197267D01*
X307894Y-197601D01*
G01X312868Y-201134D02*
X310534D01*
Y-197134D01*
X312868D01*
G01X311934Y-199067D02*
X310534D01*
G01X321299Y-201134D02*
X320832Y-201067D01*
X320424Y-200801D01*
X320074Y-200401D01*
X319841Y-199934D01*
X319724Y-199401D01*
Y-198867D01*
X319841Y-198334D01*
X320074Y-197867D01*
X320424Y-197467D01*
X320832Y-197201D01*
X321299Y-197134D01*
X321766Y-197201D01*
X322174Y-197467D01*
X322524Y-197867D01*
X322757Y-198334D01*
X322874Y-198867D01*
Y-199401D01*
X322757Y-199934D01*
X322524Y-200401D01*
X322174Y-200801D01*
X321766Y-201067D01*
X321299Y-201134D01*
G01X324756D02*
Y-197134D01*
X327440Y-201134D01*
Y-197134D01*
G01X329730D02*
Y-201134D01*
X332064D01*
G01X335696D02*
Y-199334D01*
X334529Y-197134D01*
G01X336863D02*
X335696Y-199334D01*
G01X340787Y-202467D02*
X341370Y-201801D01*
X341662Y-201134D01*
Y-198467D01*
X341370Y-197801D01*
X340787Y-197134D01*
G01X161182Y-186467D02*
X164682D01*
G01X165981D02*
X169481D01*
G01X170780D02*
X174280D01*
G01X180961Y-185134D02*
Y-181134D01*
X182361D01*
X182828Y-181334D01*
X183178Y-181801D01*
X183295Y-182334D01*
X183178Y-182867D01*
X182886Y-183267D01*
X182361Y-183467D01*
X180961D01*
G01X185644Y-181134D02*
Y-184001D01*
X185877Y-184601D01*
X186344Y-185001D01*
X186927Y-185134D01*
X187510Y-185001D01*
X187977Y-184601D01*
X188210Y-184001D01*
Y-181134D01*
G01X192193Y-183001D02*
X192426Y-182801D01*
X192601Y-182467D01*
X192718Y-182001D01*
X192601Y-181601D01*
X192368Y-181334D01*
X191959Y-181134D01*
X190384D01*
Y-185134D01*
X192309D01*
X192718Y-184867D01*
X192951Y-184467D01*
X193068Y-184001D01*
X192951Y-183534D01*
X192601Y-183134D01*
X192193Y-183001D01*
X190384D01*
G01X195825Y-181134D02*
X197225D01*
G01X196525D02*
Y-185134D01*
G01X195825D02*
X197225D01*
G01X205831Y-186467D02*
X205248Y-185801D01*
X204956Y-185134D01*
Y-182467D01*
X205248Y-181801D01*
X205831Y-181134D01*
G01X209755Y-185134D02*
Y-181134D01*
X211155D01*
X211622Y-181334D01*
X211972Y-181801D01*
X212089Y-182334D01*
X211972Y-182867D01*
X211680Y-183267D01*
X211155Y-183467D01*
X209755D01*
G01X214438Y-181134D02*
Y-184001D01*
X214671Y-184601D01*
X215138Y-185001D01*
X215721Y-185134D01*
X216304Y-185001D01*
X216771Y-184601D01*
X217004Y-184001D01*
Y-181134D01*
G01X220987Y-183001D02*
X221220Y-182801D01*
X221395Y-182467D01*
X221512Y-182001D01*
X221395Y-181601D01*
X221162Y-181334D01*
X220753Y-181134D01*
X219178D01*
Y-185134D01*
X221103D01*
X221512Y-184867D01*
X221745Y-184467D01*
X221862Y-184001D01*
X221745Y-183534D01*
X221395Y-183134D01*
X220987Y-183001D01*
X219178D01*
G01X224152Y-181134D02*
Y-185134D01*
X226486D01*
G01X229418Y-181134D02*
X230818D01*
G01X230118D02*
Y-185134D01*
G01X229418D02*
X230818D01*
G01X236200Y-181467D02*
X235850Y-181267D01*
X235442Y-181134D01*
X234975D01*
X234450Y-181334D01*
X234042Y-181667D01*
X233750Y-182067D01*
X233517Y-182734D01*
X233459Y-183334D01*
X233575Y-183934D01*
X233750Y-184334D01*
X234100Y-184734D01*
X234509Y-185001D01*
X234917Y-185134D01*
X235325D01*
X235734Y-185001D01*
X236084Y-184801D01*
X236375Y-184534D01*
G01X243815Y-181134D02*
X245215D01*
G01X244515D02*
Y-185134D01*
G01X243815D02*
X245215D01*
G01X247972D02*
Y-181134D01*
X250656Y-185134D01*
Y-181134D01*
G01X253005Y-185134D02*
Y-181134D01*
X255221D01*
G01X254405Y-183067D02*
X253005D01*
G01X258912Y-185134D02*
X258445Y-185067D01*
X258037Y-184801D01*
X257687Y-184401D01*
X257454Y-183934D01*
X257337Y-183401D01*
Y-182867D01*
X257454Y-182334D01*
X257687Y-181867D01*
X258037Y-181467D01*
X258445Y-181201D01*
X258912Y-181134D01*
X259379Y-181201D01*
X259787Y-181467D01*
X260137Y-181867D01*
X260370Y-182334D01*
X260487Y-182867D01*
Y-183401D01*
X260370Y-183934D01*
X260137Y-184401D01*
X259787Y-184801D01*
X259379Y-185067D01*
X258912Y-185134D01*
G01X262544D02*
Y-181134D01*
X264003D01*
X264469Y-181334D01*
X264761Y-181601D01*
X264878Y-182134D01*
X264761Y-182667D01*
X264411Y-183001D01*
X264003Y-183201D01*
X262544D01*
G01X264003D02*
X264878Y-185134D01*
G01X266993D02*
Y-181134D01*
X268510Y-184467D01*
X270027Y-181134D01*
Y-185134D01*
G01X271851D02*
X273309Y-181134D01*
X274767Y-185134D01*
G01X274242Y-183734D02*
X272376D01*
G01X278108Y-181134D02*
Y-185134D01*
G01X276766Y-181134D02*
X279450D01*
G01X282207D02*
X283607D01*
G01X282907D02*
Y-185134D01*
G01X282207D02*
X283607D01*
G01X287706D02*
X287239Y-185067D01*
X286831Y-184801D01*
X286481Y-184401D01*
X286248Y-183934D01*
X286131Y-183401D01*
Y-182867D01*
X286248Y-182334D01*
X286481Y-181867D01*
X286831Y-181467D01*
X287239Y-181201D01*
X287706Y-181134D01*
X288173Y-181201D01*
X288581Y-181467D01*
X288931Y-181867D01*
X289164Y-182334D01*
X289281Y-182867D01*
Y-183401D01*
X289164Y-183934D01*
X288931Y-184401D01*
X288581Y-184801D01*
X288173Y-185067D01*
X287706Y-185134D01*
G01X291163D02*
Y-181134D01*
X293847Y-185134D01*
Y-181134D01*
G01X297596Y-186467D02*
X298179Y-185801D01*
X298471Y-185134D01*
Y-182467D01*
X298179Y-181801D01*
X297596Y-181134D01*
G01X201590Y-233134D02*
Y-229134D01*
X204274Y-233134D01*
Y-229134D01*
G01X206448D02*
Y-232001D01*
X206681Y-232601D01*
X207148Y-233001D01*
X207731Y-233134D01*
X208314Y-233001D01*
X208781Y-232601D01*
X209014Y-232001D01*
Y-229134D01*
G01X211013Y-233134D02*
Y-229134D01*
X212530Y-232467D01*
X214047Y-229134D01*
Y-233134D01*
G01X217796Y-231001D02*
X218029Y-230801D01*
X218204Y-230467D01*
X218321Y-230001D01*
X218204Y-229601D01*
X217971Y-229334D01*
X217562Y-229134D01*
X215987D01*
Y-233134D01*
X217912D01*
X218321Y-232867D01*
X218554Y-232467D01*
X218671Y-232001D01*
X218554Y-231534D01*
X218204Y-231134D01*
X217796Y-231001D01*
X215987D01*
G01X223295Y-233134D02*
X220961D01*
Y-229134D01*
X223295D01*
G01X222361Y-231067D02*
X220961D01*
G01X225760Y-233134D02*
Y-229134D01*
X227219D01*
X227685Y-229334D01*
X227977Y-229601D01*
X228094Y-230134D01*
X227977Y-230667D01*
X227627Y-231001D01*
X227219Y-231201D01*
X225760D01*
G01X227219D02*
X228094Y-233134D01*
G01X236532Y-240134D02*
Y-233835D01*
X235592Y-235095D01*
G01Y-240134D02*
X237473D01*
G01X242675D02*
X242831Y-238769D01*
X243067Y-237615D01*
X243380Y-236565D01*
X243772Y-235410D01*
X244399Y-233835D01*
X241264D01*
G01X249130D02*
X248504Y-234045D01*
X248034Y-234570D01*
X247720Y-235200D01*
X247485Y-236040D01*
X247407Y-236985D01*
X247485Y-237929D01*
X247720Y-238769D01*
X248034Y-239399D01*
X248504Y-239924D01*
X249130Y-240134D01*
X249757Y-239924D01*
X250227Y-239399D01*
X250541Y-238769D01*
X250776Y-237929D01*
X250854Y-236985D01*
X250776Y-236040D01*
X250541Y-235200D01*
X250227Y-234570D01*
X249757Y-234045D01*
X249130Y-233835D01*
G01X254411Y-238034D02*
X256448D01*
G01X260240Y-234885D02*
X260710Y-234255D01*
X261258Y-233940D01*
X261885Y-233835D01*
X262669Y-234045D01*
X263217Y-234570D01*
X263374Y-235200D01*
X263296Y-235830D01*
X262982Y-236355D01*
X261415Y-237404D01*
X260710Y-238139D01*
X260240Y-239189D01*
X260083Y-240134D01*
X263374D01*
G01X267871D02*
X268027Y-238769D01*
X268263Y-237615D01*
X268576Y-236565D01*
X268968Y-235410D01*
X269595Y-233835D01*
X266460D01*
G01X275267Y-240134D02*
Y-233835D01*
X272368Y-238349D01*
X276285D01*
G01X278902Y-239189D02*
X279372Y-239714D01*
X279920Y-240029D01*
X280625Y-240134D01*
X281331Y-239924D01*
X281879Y-239504D01*
X282271Y-238769D01*
X282349Y-237929D01*
X282193Y-237090D01*
X281801Y-236565D01*
X281252Y-236145D01*
X280704Y-236040D01*
X280155Y-236145D01*
X279450Y-236565D01*
X279685Y-233835D01*
X281801D01*
G01X285436Y-234885D02*
X285906Y-234255D01*
X286454Y-233940D01*
X287081Y-233835D01*
X287865Y-234045D01*
X288413Y-234570D01*
X288570Y-235200D01*
X288492Y-235830D01*
X288178Y-236355D01*
X286611Y-237404D01*
X285906Y-238139D01*
X285436Y-239189D01*
X285279Y-240134D01*
X288570D01*
G01X329450D02*
Y-233835D01*
X331409D01*
X332036Y-234150D01*
X332428Y-234570D01*
X332585Y-235410D01*
X332428Y-236250D01*
X331958Y-236774D01*
X331409Y-237090D01*
X329450D01*
G01X331409D02*
X332585Y-240134D01*
G01X338884D02*
X335749D01*
Y-233835D01*
X338884D01*
G01X337630Y-236879D02*
X335749D01*
G01X341657Y-233835D02*
X343615Y-240134D01*
X345574Y-233835D01*
G01X356840Y-236774D02*
X357154Y-236460D01*
X357389Y-235935D01*
X357546Y-235200D01*
X357389Y-234570D01*
X357075Y-234150D01*
X356527Y-233835D01*
X354411D01*
Y-240134D01*
X356997D01*
X357546Y-239714D01*
X357859Y-239084D01*
X358016Y-238349D01*
X357859Y-237615D01*
X357389Y-236985D01*
X356840Y-236774D01*
X354411D01*
G01X236495Y-167134D02*
Y-160835D01*
X238532Y-166084D01*
X240570Y-160835D01*
Y-167134D01*
G01X246555Y-161360D02*
X246085Y-161045D01*
X245537Y-160835D01*
X244910D01*
X244205Y-161150D01*
X243656Y-161675D01*
X243264Y-162305D01*
X242951Y-163355D01*
X242873Y-164299D01*
X243029Y-165244D01*
X243264Y-165874D01*
X243735Y-166504D01*
X244283Y-166924D01*
X244831Y-167134D01*
X245380D01*
X245928Y-166924D01*
X246399Y-166609D01*
X246790Y-166189D01*
G01X250190Y-160835D02*
X252071D01*
G01X251130D02*
Y-167134D01*
G01X250190D02*
X252071D01*
G01X255392D02*
Y-160835D01*
X257429Y-166084D01*
X259467Y-160835D01*
Y-167134D01*
G01X262083D02*
X265374Y-160835D01*
G01X262083D02*
X265374Y-167134D01*
G01X268539Y-164510D02*
X269087Y-163774D01*
X269557Y-163355D01*
X270184Y-163145D01*
X270733Y-163355D01*
X271124Y-163774D01*
X271438Y-164404D01*
X271516Y-165139D01*
X271438Y-165769D01*
X271124Y-166399D01*
X270654Y-166924D01*
X270106Y-167134D01*
X269479Y-166924D01*
X268931Y-166294D01*
X268617Y-165349D01*
X268539Y-164299D01*
X268695Y-162935D01*
X268931Y-162200D01*
X269322Y-161465D01*
X269871Y-160940D01*
X270419Y-160835D01*
X270968Y-161045D01*
X271360Y-161570D01*
G01X274681Y-166294D02*
X275308Y-166819D01*
X276013Y-167134D01*
X276640D01*
X277267Y-166819D01*
X277737Y-166294D01*
X277972Y-165559D01*
X277815Y-164824D01*
X277423Y-164195D01*
X276718Y-163774D01*
X275778Y-163565D01*
X275230Y-163145D01*
X274994Y-162410D01*
X275151Y-161675D01*
X275543Y-161150D01*
X276091Y-160835D01*
X276640D01*
X277188Y-161045D01*
X277659Y-161570D01*
G01X281058Y-160835D02*
Y-167134D01*
X284193D01*
G01X290492D02*
X287357D01*
Y-160835D01*
X290492D01*
G01X289238Y-163879D02*
X287357D01*
G01X293265Y-160835D02*
X295223Y-167134D01*
X297182Y-160835D01*
G01X299799Y-167134D02*
Y-160835D01*
G01X302776D02*
X299799Y-164720D01*
G01X303246Y-167134D02*
X301131Y-162935D01*
G54D28*
X447450Y170165D03*
Y221905D03*
G54D19*
X138926Y390072D03*
X148926D03*
X158926D03*
X138926Y400072D03*
X148926D03*
X158926D03*
X168926Y390072D03*
X178926D03*
X168926Y400072D03*
X178926D03*
X197050Y336450D03*
Y346450D03*
X188926Y390072D03*
X198926D03*
X188926Y400072D03*
X198926D03*
X208926Y390072D03*
X218926D03*
X208926Y400072D03*
X218926D03*
X228926Y390072D03*
Y400072D03*
X286280Y342115D03*
X296280D03*
X319280D03*
X347300Y137600D03*
X337300D03*
X329280Y342115D03*
X354280Y285685D03*
X364280D03*
X360749Y373815D03*
X368623D03*
X374280Y285685D03*
X396325D03*
X406325D03*
X416325D03*
G54D29*
X446180Y396313D03*
M02*
