G04 ================== begin FILE IDENTIFICATION RECORD ==================*
G04 Layout Name:  LAY-27452_B.brd*
G04 Film Name:    psm.art*
G04 File Format:  Gerber RS274X*
G04 File Origin:  Cadence Allegro 16.3-S047*
G04 Origin Date:  Thu Oct 18 15:46:22 2012*
G04 *
G04 Layer:  VIA CLASS/SOLDERMASK_TOP*
G04 Layer:  PIN/SOLDERMASK_TOP*
G04 Layer:  PACKAGE GEOMETRY/SOLDERMASK_TOP*
G04 Layer:  DRAWING FORMAT/FILM_TITLE_BLOCK*
G04 Layer:  BOARD GEOMETRY/OUTLINE*
G04 Layer:  BOARD GEOMETRY/SOLDERMASK_TOP*
G04 *
G04 Offset:    (0.00 0.00)*
G04 Mirror:    No*
G04 Mode:      Positive*
G04 Rotation:  0*
G04 FullContactRelief:  No*
G04 UndefLineWidth:     7.99*
G04 ================== end FILE IDENTIFICATION RECORD ====================*
%FSLAX55Y55*MOIN*%
%IR0*IPPOS*OFA0.00000B0.00000*MIA0B0*SFA1.00000B1.00000*%
%ADD25R,.021X.104*%
%ADD51R,.104X.021*%
%ADD74R,.123X.044*%
%ADD103O,.085X.203*%
%ADD64R,.044X.123*%
%ADD100O,.203X.085*%
%ADD99O,.23X.085*%
%ADD12C,.022*%
%ADD88R,.116X.074*%
%ADD33C,.014*%
%ADD87C,.024*%
%ADD79R,.074X.116*%
%ADD20C,.06*%
%ADD18R,.114X.059*%
%ADD26R,.021X.189*%
%ADD22C,.07*%
%ADD13R,.059X.114*%
%ADD83C,.062*%
%ADD50R,.189X.021*%
%ADD24C,.044*%
%ADD14C,.071*%
%ADD89C,.036*%
%ADD35C,.054*%
%ADD48C,.064*%
%ADD16C,.047*%
%ADD92C,.048*%
%ADD40C,.039*%
%ADD106R,.06X.06*%
%ADD27C,.067*%
%ADD77C,.086*%
%ADD38R,.016X.016*%
%ADD21R,.07X.07*%
%ADD84R,.062X.062*%
%ADD63R,.044X.044*%
%ADD23R,.071X.071*%
%ADD90R,.036X.036*%
%ADD34R,.054X.054*%
%ADD95C,.098*%
%ADD61R,.064X.064*%
%ADD105R,.098X.098*%
%AMMACRO60*
4,1,12,.08862,-.03055,
.08862,.00543,
.0635,.03055,
-.0635,.03055,
-.08862,.00543,
-.08862,-.03055,
-.05705,-.03055,
-.05705,-.0148,
-.04327,-.00102,
.04327,-.00102,
.05705,-.0148,
.05705,-.03055,
.08862,-.03055,
0.0*
%
%ADD60MACRO60*%
%ADD53R,.02X.032*%
%ADD108R,.024X.02*%
%ADD82O,.032X.015*%
%ADD81O,.015X.032*%
%ADD98R,.016X.02*%
%ADD43O,.034X.015*%
%ADD15R,.024X.022*%
%ADD49R,.031X.043*%
%ADD42O,.015X.034*%
%ADD19R,.022X.024*%
%ADD107R,.026X.022*%
%ADD55R,.041X.043*%
%ADD11C,.12*%
%ADD69O,.015X.037*%
%ADD91C,.104*%
%ADD67O,.037X.015*%
%ADD47R,.074X.02*%
%ADD45R,.052X.034*%
%ADD78C,.132*%
%ADD75R,.034X.052*%
%ADD39R,.037X.032*%
%ADD97R,.036X.043*%
%ADD68R,.015X.037*%
%ADD54R,.013X.039*%
%ADD32R,.032X.037*%
%ADD102R,.057X.041*%
%ADD66R,.037X.015*%
%ADD29R,.043X.036*%
%ADD10C,.224*%
%ADD101C,.162*%
%ADD70R,.035X.037*%
%ADD86R,.071X.055*%
%ADD57O,.064X.039*%
%ADD30R,.037X.035*%
%ADD17R,.094X.015*%
%ADD96R,.029X.054*%
%ADD72O,.039X.064*%
%ADD58R,.051X.059*%
%ADD52R,.015X.094*%
%ADD104O,.059X.046*%
%ADD94R,.104X.104*%
%ADD73R,.083X.038*%
%ADD56O,.049X.039*%
%ADD36O,.046X.059*%
%ADD85R,.232X.232*%
%ADD76R,.044X.059*%
%ADD71R,.038X.083*%
%ADD44R,.019X.067*%
%ADD41R,.124X.124*%
%ADD31O,.039X.049*%
%ADD109O,.079X.047*%
%ADD93R,.084X.029*%
%ADD80R,.107X.107*%
%ADD65R,.178X.166*%
%ADD37O,.047X.079*%
%ADD46R,.139X.189*%
%ADD28R,.189X.139*%
%ADD62R,.047X.079*%
%AMMACRO59*
4,1,12,-.08862,.03055,
-.08862,-.00543,
-.0635,-.03055,
.0635,-.03055,
.08862,-.00543,
.08862,.03055,
.05705,.03055,
.05705,.0148,
.04327,.00102,
-.04327,.00102,
-.05705,.0148,
-.05705,.03055,
-.08862,.03055,
0.0*
%
%ADD59MACRO59*%
%ADD110C,.01*%
%ADD111C,.02*%
%ADD112C,.00799*%
%ADD113C,.008*%
%ADD114C,.00598*%
G75*
%LPD*%
G75*
G36*
G01X189500Y89884D02*
X185500D01*
Y87934D01*
X189500D01*
Y89884D01*
G37*
G36*
G01X211850Y266900D02*
X207850D01*
Y264950D01*
X211850D01*
Y266900D01*
G37*
G36*
G01X240550Y261700D02*
Y265700D01*
X238600D01*
Y261700D01*
X240550D01*
G37*
G36*
G01X224950Y339750D02*
Y335750D01*
X226900D01*
Y339750D01*
X224950D01*
G37*
G36*
G01X256900Y270400D02*
Y274400D01*
X254950D01*
Y270400D01*
X256900D01*
G37*
G36*
G01X259050Y325850D02*
X255050D01*
Y323900D01*
X259050D01*
Y325850D01*
G37*
G36*
G01X257000Y385600D02*
Y382400D01*
X258000D01*
Y385600D01*
X257000D01*
G37*
G36*
G01X378580Y345686D02*
X382580D01*
Y347636D01*
X378580D01*
Y345686D01*
G37*
G54D100*
X427280Y409113D03*
G54D110*
G01X-26818Y-225134D02*
X373182D01*
G01X-26818Y-195134D02*
Y-175134D01*
X373182D01*
G01X23182Y-245134D02*
Y-225134D01*
G01X148682Y-245134D02*
Y-225134D01*
G01X148182Y-175134D02*
Y-145134D01*
G01X198182Y-245134D02*
Y-225134D01*
G54D101*
X447450Y170165D03*
Y221905D03*
G54D111*
G01X373182Y-145134D02*
Y-245134D01*
X-26818D01*
G01D02*
Y-145134D01*
X373182D01*
G54D102*
X444276Y362744D03*
Y368886D03*
G54D112*
G01X-12000Y418615D02*
Y-7000D01*
G03X-7000Y-12000I5000J0D01*
G01X483000D01*
G03X488000Y-7000I0J5000D01*
G01Y418615D01*
G03X483000Y423615I-5000J0D01*
G01X-7000D01*
G03X-12000Y418615I0J-5000D01*
G01X-7000Y423615D02*
X483000D01*
G02X488000Y418615I0J-5000D01*
G01Y-7000D01*
G02X483000Y-12000I-5000J0D01*
G01X-7000D01*
G02X-12000Y-7000I0J5000D01*
G01Y418615D01*
G02X-7000Y423615I5000J0D01*
G01X-23792Y-157134D02*
Y-149634D01*
X-20246D01*
G01X-21553Y-153259D02*
X-23792D01*
G01X-16385Y-157134D02*
Y-149634D01*
X-14053D01*
X-13306Y-150009D01*
X-12840Y-150509D01*
X-12653Y-151509D01*
X-12840Y-152509D01*
X-13399Y-153134D01*
X-14053Y-153509D01*
X-16385D01*
G01X-14053D02*
X-12653Y-157134D01*
G01X-5153D02*
X-8885D01*
Y-149634D01*
X-5153D01*
G01X-6646Y-153259D02*
X-8885D01*
G01X2347Y-157134D02*
X-1385D01*
Y-149634D01*
X2347D01*
G01X854Y-153259D02*
X-1385D01*
G01X6022Y-156134D02*
X6768Y-156759D01*
X7608Y-157134D01*
X8354D01*
X9101Y-156759D01*
X9660Y-156134D01*
X9940Y-155259D01*
X9754Y-154384D01*
X9287Y-153634D01*
X8447Y-153134D01*
X7328Y-152884D01*
X6675Y-152384D01*
X6395Y-151509D01*
X6582Y-150634D01*
X7048Y-150009D01*
X7701Y-149634D01*
X8354D01*
X9007Y-149884D01*
X9567Y-150509D01*
G01X17534Y-150259D02*
X16974Y-149884D01*
X16321Y-149634D01*
X15574D01*
X14735Y-150009D01*
X14082Y-150634D01*
X13615Y-151384D01*
X13242Y-152634D01*
X13148Y-153759D01*
X13335Y-154884D01*
X13615Y-155634D01*
X14175Y-156384D01*
X14828Y-156884D01*
X15481Y-157134D01*
X16134D01*
X16787Y-156884D01*
X17347Y-156509D01*
X17814Y-156009D01*
G01X20648Y-157134D02*
X22981Y-149634D01*
X25314Y-157134D01*
G01X24474Y-154509D02*
X21488D01*
G01X28615Y-149634D02*
Y-157134D01*
X32347D01*
G01X39847D02*
X36115D01*
Y-149634D01*
X39847D01*
G01X38354Y-153259D02*
X36115D01*
G54D10*
X0Y0D03*
Y411615D03*
X476000Y0D03*
Y411615D03*
G54D103*
X446180Y396313D03*
G54D113*
G01X-21709Y-241134D02*
X-21330Y-241717D01*
X-20823Y-242051D01*
X-20253Y-242134D01*
X-19747Y-242051D01*
X-19240Y-241634D01*
X-18924Y-241134D01*
X-18860Y-240634D01*
X-18987Y-240051D01*
X-19430Y-239634D01*
X-19873Y-239467D01*
X-20443D01*
G01X-19873D02*
X-19493Y-239217D01*
X-19177Y-238801D01*
X-19050Y-238301D01*
X-19177Y-237801D01*
X-19493Y-237384D01*
X-20063Y-237134D01*
X-20633Y-237217D01*
X-21203Y-237551D01*
G01X-10121Y-242134D02*
X-10627Y-242051D01*
X-11070Y-241717D01*
X-11450Y-241217D01*
X-11703Y-240634D01*
X-11830Y-239967D01*
Y-239301D01*
X-11703Y-238634D01*
X-11450Y-238051D01*
X-11070Y-237551D01*
X-10627Y-237217D01*
X-10121Y-237134D01*
X-9614Y-237217D01*
X-9171Y-237551D01*
X-8791Y-238051D01*
X-8538Y-238634D01*
X-8411Y-239301D01*
Y-239967D01*
X-8538Y-240634D01*
X-8791Y-241217D01*
X-9171Y-241717D01*
X-9614Y-242051D01*
X-10121Y-242134D01*
G01X-6226D02*
Y-237134D01*
X-3819D01*
G01X-4706Y-239551D02*
X-6226D01*
G01X5173Y-242134D02*
Y-237134D01*
X4414Y-238134D01*
G01Y-242134D02*
X5933D01*
G01X9068Y-237967D02*
X9448Y-237467D01*
X9892Y-237217D01*
X10398Y-237134D01*
X11031Y-237301D01*
X11475Y-237717D01*
X11601Y-238217D01*
X11538Y-238717D01*
X11285Y-239134D01*
X10018Y-239967D01*
X9448Y-240551D01*
X9068Y-241384D01*
X8942Y-242134D01*
X11601D01*
G01X30917D02*
Y-237134D01*
X32437D01*
X32943Y-237384D01*
X33323Y-237967D01*
X33450Y-238634D01*
X33323Y-239301D01*
X33007Y-239801D01*
X32437Y-240051D01*
X30917D01*
G01X36015Y-242134D02*
Y-237134D01*
X37598D01*
X38105Y-237384D01*
X38421Y-237717D01*
X38548Y-238384D01*
X38421Y-239051D01*
X38041Y-239467D01*
X37598Y-239717D01*
X36015D01*
G01X37598D02*
X38548Y-242134D01*
G01X41620Y-237134D02*
X43139D01*
G01X42379D02*
Y-242134D01*
G01X41620D02*
X43139D01*
G01X45831D02*
Y-237134D01*
X47477Y-241301D01*
X49124Y-237134D01*
Y-242134D01*
G01X50993D02*
X52575Y-237134D01*
X54158Y-242134D01*
G01X53589Y-240384D02*
X51562D01*
G01X56407Y-242134D02*
Y-237134D01*
X57990D01*
X58497Y-237384D01*
X58813Y-237717D01*
X58940Y-238384D01*
X58813Y-239051D01*
X58433Y-239467D01*
X57990Y-239717D01*
X56407D01*
G01X57990D02*
X58940Y-242134D01*
G01X62771D02*
Y-239884D01*
X61505Y-237134D01*
G01X64038D02*
X62771Y-239884D01*
G01X71638Y-241467D02*
X72144Y-241884D01*
X72714Y-242134D01*
X73221D01*
X73727Y-241884D01*
X74107Y-241467D01*
X74297Y-240884D01*
X74171Y-240301D01*
X73854Y-239801D01*
X73284Y-239467D01*
X72524Y-239301D01*
X72081Y-238967D01*
X71891Y-238384D01*
X72018Y-237801D01*
X72334Y-237384D01*
X72778Y-237134D01*
X73221D01*
X73664Y-237301D01*
X74044Y-237717D01*
G01X78065Y-242134D02*
X77559Y-242051D01*
X77116Y-241717D01*
X76736Y-241217D01*
X76483Y-240634D01*
X76356Y-239967D01*
Y-239301D01*
X76483Y-238634D01*
X76736Y-238051D01*
X77116Y-237551D01*
X77559Y-237217D01*
X78065Y-237134D01*
X78572Y-237217D01*
X79015Y-237551D01*
X79395Y-238051D01*
X79648Y-238634D01*
X79775Y-239301D01*
Y-239967D01*
X79648Y-240634D01*
X79395Y-241217D01*
X79015Y-241717D01*
X78572Y-242051D01*
X78065Y-242134D01*
G01X81897Y-237134D02*
Y-242134D01*
X84430D01*
G01X86869D02*
Y-237134D01*
X88135D01*
X88641Y-237384D01*
X89021Y-237717D01*
X89338Y-238217D01*
X89591Y-238801D01*
X89654Y-239634D01*
X89591Y-240467D01*
X89338Y-241051D01*
X89021Y-241551D01*
X88641Y-241884D01*
X88135Y-242134D01*
X86869D01*
G01X94626D02*
X92093D01*
Y-237134D01*
X94626D01*
G01X93613Y-239551D02*
X92093D01*
G01X97191Y-242134D02*
Y-237134D01*
X98774D01*
X99281Y-237384D01*
X99597Y-237717D01*
X99724Y-238384D01*
X99597Y-239051D01*
X99217Y-239467D01*
X98774Y-239717D01*
X97191D01*
G01X98774D02*
X99724Y-242134D01*
G01X101909D02*
Y-237134D01*
X103555Y-241301D01*
X105202Y-237134D01*
Y-242134D01*
G01X107071D02*
X108653Y-237134D01*
X110236Y-242134D01*
G01X109667Y-240384D02*
X107640D01*
G01X112422Y-241467D02*
X112928Y-241884D01*
X113498Y-242134D01*
X114005D01*
X114511Y-241884D01*
X114891Y-241467D01*
X115081Y-240884D01*
X114955Y-240301D01*
X114638Y-239801D01*
X114068Y-239467D01*
X113308Y-239301D01*
X112865Y-238967D01*
X112675Y-238384D01*
X112802Y-237801D01*
X113118Y-237384D01*
X113562Y-237134D01*
X114005D01*
X114448Y-237301D01*
X114828Y-237717D01*
G01X117457Y-242134D02*
Y-237134D01*
G01X119863D02*
X117457Y-240217D01*
G01X120242Y-242134D02*
X118533Y-238801D01*
G54D104*
X470481Y260395D03*
Y277915D03*
G54D11*
X1602Y21102D03*
X24082Y411115D03*
X202402Y249252D03*
X318982Y151117D03*
X450500Y500D03*
X475500Y389017D03*
G54D20*
X24870Y75910D03*
X115422D03*
X142110D03*
X232662D03*
X259350D03*
X349902D03*
X470815Y346990D03*
G54D114*
G01X-23293Y-232601D02*
X-22826Y-232934D01*
X-22301Y-233134D01*
X-21835D01*
X-21368Y-232934D01*
X-21018Y-232601D01*
X-20843Y-232134D01*
X-20960Y-231667D01*
X-21251Y-231267D01*
X-21776Y-231001D01*
X-22476Y-230867D01*
X-22885Y-230601D01*
X-23060Y-230134D01*
X-22943Y-229667D01*
X-22651Y-229334D01*
X-22243Y-229134D01*
X-21835D01*
X-21426Y-229267D01*
X-21076Y-229601D01*
G01X-18494Y-233134D02*
Y-229134D01*
G01X-16044D02*
Y-233134D01*
G01Y-231134D02*
X-18494D01*
G01X-11303Y-233134D02*
X-13637D01*
Y-229134D01*
X-11303D01*
G01X-12237Y-231067D02*
X-13637D01*
G01X-6504Y-233134D02*
X-8838D01*
Y-229134D01*
X-6504D01*
G01X-7438Y-231067D02*
X-8838D01*
G01X-2872Y-229134D02*
Y-233134D01*
G01X-4214Y-229134D02*
X-1530D01*
G01X-15176Y-222134D02*
Y-218134D01*
X-12960D01*
G01X-13776Y-220067D02*
X-15176D01*
G01X-10436Y-222134D02*
Y-218134D01*
X-8977D01*
X-8511Y-218334D01*
X-8219Y-218601D01*
X-8102Y-219134D01*
X-8219Y-219667D01*
X-8569Y-220001D01*
X-8977Y-220201D01*
X-10436D01*
G01X-8977D02*
X-8102Y-222134D01*
G01X-3303D02*
X-5637D01*
Y-218134D01*
X-3303D01*
G01X-4237Y-220067D02*
X-5637D01*
G01X1496Y-222134D02*
X-838D01*
Y-218134D01*
X1496D01*
G01X562Y-220067D02*
X-838D01*
G01X3903Y-221601D02*
X4370Y-221934D01*
X4895Y-222134D01*
X5361D01*
X5828Y-221934D01*
X6178Y-221601D01*
X6353Y-221134D01*
X6236Y-220667D01*
X5945Y-220267D01*
X5420Y-220001D01*
X4720Y-219867D01*
X4311Y-219601D01*
X4136Y-219134D01*
X4253Y-218667D01*
X4545Y-218334D01*
X4953Y-218134D01*
X5361D01*
X5770Y-218267D01*
X6120Y-218601D01*
G01X11210Y-218467D02*
X10860Y-218267D01*
X10452Y-218134D01*
X9985D01*
X9460Y-218334D01*
X9052Y-218667D01*
X8760Y-219067D01*
X8527Y-219734D01*
X8469Y-220334D01*
X8585Y-220934D01*
X8760Y-221334D01*
X9110Y-221734D01*
X9519Y-222001D01*
X9927Y-222134D01*
X10335D01*
X10744Y-222001D01*
X11094Y-221801D01*
X11385Y-221534D01*
G01X13268Y-222134D02*
X14726Y-218134D01*
X16184Y-222134D01*
G01X15659Y-220734D02*
X13793D01*
G01X18358Y-218134D02*
Y-222134D01*
X20692D01*
G01X25491D02*
X23157D01*
Y-218134D01*
X25491D01*
G01X24557Y-220067D02*
X23157D01*
G01X29123Y-222267D02*
X29006Y-222201D01*
Y-222067D01*
X29123Y-222001D01*
X29240Y-222067D01*
Y-222201D01*
X29123Y-222267D01*
G01X-15068Y-214134D02*
X-15535Y-214067D01*
X-15943Y-213801D01*
X-16293Y-213401D01*
X-16526Y-212934D01*
X-16643Y-212401D01*
Y-211867D01*
X-16526Y-211334D01*
X-16293Y-210867D01*
X-15943Y-210467D01*
X-15535Y-210201D01*
X-15068Y-210134D01*
X-14601Y-210201D01*
X-14193Y-210467D01*
X-13843Y-210867D01*
X-13610Y-211334D01*
X-13493Y-211867D01*
Y-212401D01*
X-13610Y-212934D01*
X-13843Y-213401D01*
X-14193Y-213801D01*
X-14601Y-214067D01*
X-15068Y-214134D01*
G01X-11436D02*
Y-210134D01*
X-9977D01*
X-9511Y-210334D01*
X-9219Y-210601D01*
X-9102Y-211134D01*
X-9219Y-211667D01*
X-9569Y-212001D01*
X-9977Y-212201D01*
X-11436D01*
G01X-9977D02*
X-9102Y-214134D01*
G01X-1371Y-210134D02*
X29D01*
G01X-671D02*
Y-214134D01*
G01X-1371D02*
X29D01*
G01X2786D02*
Y-210134D01*
X5470Y-214134D01*
Y-210134D01*
G01X12559Y-214134D02*
Y-210134D01*
X13959D01*
X14426Y-210334D01*
X14776Y-210801D01*
X14893Y-211334D01*
X14776Y-211867D01*
X14484Y-212267D01*
X13959Y-212467D01*
X12559D01*
G01X17067Y-214134D02*
X18525Y-210134D01*
X19983Y-214134D01*
G01X19458Y-212734D02*
X17592D01*
G01X22157Y-214134D02*
Y-210134D01*
X23616D01*
X24082Y-210334D01*
X24374Y-210601D01*
X24491Y-211134D01*
X24374Y-211667D01*
X24024Y-212001D01*
X23616Y-212201D01*
X22157D01*
G01X23616D02*
X24491Y-214134D01*
G01X28123Y-210134D02*
Y-214134D01*
G01X26781Y-210134D02*
X29465D01*
G01X35971D02*
X36788Y-214134D01*
X37721Y-210134D01*
X38654Y-214134D01*
X39471Y-210134D01*
G01X41820D02*
X43220D01*
G01X42520D02*
Y-214134D01*
G01X41820D02*
X43220D01*
G01X47319Y-210134D02*
Y-214134D01*
G01X45977Y-210134D02*
X48661D01*
G01X50893Y-214134D02*
Y-210134D01*
G01X53343D02*
Y-214134D01*
G01Y-212134D02*
X50893D01*
G01X56917Y-214134D02*
X56450Y-214067D01*
X56042Y-213801D01*
X55692Y-213401D01*
X55459Y-212934D01*
X55342Y-212401D01*
Y-211867D01*
X55459Y-211334D01*
X55692Y-210867D01*
X56042Y-210467D01*
X56450Y-210201D01*
X56917Y-210134D01*
X57384Y-210201D01*
X57792Y-210467D01*
X58142Y-210867D01*
X58375Y-211334D01*
X58492Y-211867D01*
Y-212401D01*
X58375Y-212934D01*
X58142Y-213401D01*
X57792Y-213801D01*
X57384Y-214067D01*
X56917Y-214134D01*
G01X60433Y-210134D02*
Y-213001D01*
X60666Y-213601D01*
X61133Y-214001D01*
X61716Y-214134D01*
X62299Y-214001D01*
X62766Y-213601D01*
X62999Y-213001D01*
Y-210134D01*
G01X66515D02*
Y-214134D01*
G01X65173Y-210134D02*
X67857D01*
G01X76113D02*
Y-214134D01*
G01X74771Y-210134D02*
X77455D01*
G01X79687Y-214134D02*
Y-210134D01*
G01X82137D02*
Y-214134D01*
G01Y-212134D02*
X79687D01*
G01X86878Y-214134D02*
X84544D01*
Y-210134D01*
X86878D01*
G01X85944Y-212067D02*
X84544D01*
G01X96592Y-210467D02*
X96242Y-210267D01*
X95834Y-210134D01*
X95367D01*
X94842Y-210334D01*
X94434Y-210667D01*
X94142Y-211067D01*
X93909Y-211734D01*
X93851Y-212334D01*
X93967Y-212934D01*
X94142Y-213334D01*
X94492Y-213734D01*
X94901Y-214001D01*
X95309Y-214134D01*
X95717D01*
X96126Y-214001D01*
X96476Y-213801D01*
X96767Y-213534D01*
G01X100108Y-214134D02*
X99641Y-214067D01*
X99233Y-213801D01*
X98883Y-213401D01*
X98650Y-212934D01*
X98533Y-212401D01*
Y-211867D01*
X98650Y-211334D01*
X98883Y-210867D01*
X99233Y-210467D01*
X99641Y-210201D01*
X100108Y-210134D01*
X100575Y-210201D01*
X100983Y-210467D01*
X101333Y-210867D01*
X101566Y-211334D01*
X101683Y-211867D01*
Y-212401D01*
X101566Y-212934D01*
X101333Y-213401D01*
X100983Y-213801D01*
X100575Y-214067D01*
X100108Y-214134D01*
G01X103565D02*
Y-210134D01*
X106249Y-214134D01*
Y-210134D01*
G01X108481Y-213601D02*
X108948Y-213934D01*
X109473Y-214134D01*
X109939D01*
X110406Y-213934D01*
X110756Y-213601D01*
X110931Y-213134D01*
X110814Y-212667D01*
X110523Y-212267D01*
X109998Y-212001D01*
X109298Y-211867D01*
X108889Y-211601D01*
X108714Y-211134D01*
X108831Y-210667D01*
X109123Y-210334D01*
X109531Y-210134D01*
X109939D01*
X110348Y-210267D01*
X110698Y-210601D01*
G01X115672Y-214134D02*
X113338D01*
Y-210134D01*
X115672D01*
G01X114738Y-212067D02*
X113338D01*
G01X117962Y-214134D02*
Y-210134D01*
X120646Y-214134D01*
Y-210134D01*
G01X124103D02*
Y-214134D01*
G01X122761Y-210134D02*
X125445D01*
G01X133701Y-214134D02*
X133234Y-214067D01*
X132826Y-213801D01*
X132476Y-213401D01*
X132243Y-212934D01*
X132126Y-212401D01*
Y-211867D01*
X132243Y-211334D01*
X132476Y-210867D01*
X132826Y-210467D01*
X133234Y-210201D01*
X133701Y-210134D01*
X134168Y-210201D01*
X134576Y-210467D01*
X134926Y-210867D01*
X135159Y-211334D01*
X135276Y-211867D01*
Y-212401D01*
X135159Y-212934D01*
X134926Y-213401D01*
X134576Y-213801D01*
X134168Y-214067D01*
X133701Y-214134D01*
G01X137392D02*
Y-210134D01*
X139608D01*
G01X138792Y-212067D02*
X137392D01*
G01X-16235Y-206134D02*
Y-202134D01*
X-14835D01*
X-14368Y-202334D01*
X-14018Y-202801D01*
X-13901Y-203334D01*
X-14018Y-203867D01*
X-14310Y-204267D01*
X-14835Y-204467D01*
X-16235D01*
G01X-11436Y-206134D02*
Y-202134D01*
X-9977D01*
X-9511Y-202334D01*
X-9219Y-202601D01*
X-9102Y-203134D01*
X-9219Y-203667D01*
X-9569Y-204001D01*
X-9977Y-204201D01*
X-11436D01*
G01X-9977D02*
X-9102Y-206134D01*
G01X-5470D02*
X-5937Y-206067D01*
X-6345Y-205801D01*
X-6695Y-205401D01*
X-6928Y-204934D01*
X-7045Y-204401D01*
Y-203867D01*
X-6928Y-203334D01*
X-6695Y-202867D01*
X-6345Y-202467D01*
X-5937Y-202201D01*
X-5470Y-202134D01*
X-5003Y-202201D01*
X-4595Y-202467D01*
X-4245Y-202867D01*
X-4012Y-203334D01*
X-3895Y-203867D01*
Y-204401D01*
X-4012Y-204934D01*
X-4245Y-205401D01*
X-4595Y-205801D01*
X-5003Y-206067D01*
X-5470Y-206134D01*
G01X612Y-202467D02*
X262Y-202267D01*
X-146Y-202134D01*
X-613D01*
X-1138Y-202334D01*
X-1546Y-202667D01*
X-1838Y-203067D01*
X-2071Y-203734D01*
X-2129Y-204334D01*
X-2013Y-204934D01*
X-1838Y-205334D01*
X-1488Y-205734D01*
X-1079Y-206001D01*
X-671Y-206134D01*
X-263D01*
X146Y-206001D01*
X496Y-205801D01*
X787Y-205534D01*
G01X2845Y-202134D02*
Y-205001D01*
X3078Y-205601D01*
X3545Y-206001D01*
X4128Y-206134D01*
X4711Y-206001D01*
X5178Y-205601D01*
X5411Y-205001D01*
Y-202134D01*
G01X7760Y-206134D02*
Y-202134D01*
X9219D01*
X9685Y-202334D01*
X9977Y-202601D01*
X10094Y-203134D01*
X9977Y-203667D01*
X9627Y-204001D01*
X9219Y-204201D01*
X7760D01*
G01X9219D02*
X10094Y-206134D01*
G01X14893D02*
X12559D01*
Y-202134D01*
X14893D01*
G01X13959Y-204067D02*
X12559D01*
G01X17008Y-206134D02*
Y-202134D01*
X18525Y-205467D01*
X20042Y-202134D01*
Y-206134D01*
G01X24491D02*
X22157D01*
Y-202134D01*
X24491D01*
G01X23557Y-204067D02*
X22157D01*
G01X26781Y-206134D02*
Y-202134D01*
X29465Y-206134D01*
Y-202134D01*
G01X32922D02*
Y-206134D01*
G01X31580Y-202134D02*
X34264D01*
G01X42520Y-206134D02*
X42053Y-206067D01*
X41645Y-205801D01*
X41295Y-205401D01*
X41062Y-204934D01*
X40945Y-204401D01*
Y-203867D01*
X41062Y-203334D01*
X41295Y-202867D01*
X41645Y-202467D01*
X42053Y-202201D01*
X42520Y-202134D01*
X42987Y-202201D01*
X43395Y-202467D01*
X43745Y-202867D01*
X43978Y-203334D01*
X44095Y-203867D01*
Y-204401D01*
X43978Y-204934D01*
X43745Y-205401D01*
X43395Y-205801D01*
X42987Y-206067D01*
X42520Y-206134D01*
G01X46152D02*
Y-202134D01*
X47611D01*
X48077Y-202334D01*
X48369Y-202601D01*
X48486Y-203134D01*
X48369Y-203667D01*
X48019Y-204001D01*
X47611Y-204201D01*
X46152D01*
G01X47611D02*
X48486Y-206134D01*
G01X55400D02*
Y-202134D01*
X56917Y-205467D01*
X58434Y-202134D01*
Y-206134D01*
G01X60258D02*
X61716Y-202134D01*
X63174Y-206134D01*
G01X62649Y-204734D02*
X60783D01*
G01X65173Y-206134D02*
Y-202134D01*
X67857Y-206134D01*
Y-202134D01*
G01X70031D02*
Y-205001D01*
X70264Y-205601D01*
X70731Y-206001D01*
X71314Y-206134D01*
X71897Y-206001D01*
X72364Y-205601D01*
X72597Y-205001D01*
Y-202134D01*
G01X75005Y-206134D02*
Y-202134D01*
X77221D01*
G01X76405Y-204067D02*
X75005D01*
G01X79454Y-206134D02*
X80912Y-202134D01*
X82370Y-206134D01*
G01X81845Y-204734D02*
X79979D01*
G01X86994Y-202467D02*
X86644Y-202267D01*
X86236Y-202134D01*
X85769D01*
X85244Y-202334D01*
X84836Y-202667D01*
X84544Y-203067D01*
X84311Y-203734D01*
X84253Y-204334D01*
X84369Y-204934D01*
X84544Y-205334D01*
X84894Y-205734D01*
X85303Y-206001D01*
X85711Y-206134D01*
X86119D01*
X86528Y-206001D01*
X86878Y-205801D01*
X87169Y-205534D01*
G01X90510Y-202134D02*
Y-206134D01*
G01X89168Y-202134D02*
X91852D01*
G01X94026D02*
Y-205001D01*
X94259Y-205601D01*
X94726Y-206001D01*
X95309Y-206134D01*
X95892Y-206001D01*
X96359Y-205601D01*
X96592Y-205001D01*
Y-202134D01*
G01X98941Y-206134D02*
Y-202134D01*
X100400D01*
X100866Y-202334D01*
X101158Y-202601D01*
X101275Y-203134D01*
X101158Y-203667D01*
X100808Y-204001D01*
X100400Y-204201D01*
X98941D01*
G01X100400D02*
X101275Y-206134D01*
G01X106074D02*
X103740D01*
Y-202134D01*
X106074D01*
G01X105140Y-204067D02*
X103740D01*
G01X113805Y-202134D02*
X115205D01*
G01X114505D02*
Y-206134D01*
G01X113805D02*
X115205D01*
G01X117962D02*
Y-202134D01*
X120646Y-206134D01*
Y-202134D01*
G01X127152D02*
X127969Y-206134D01*
X128902Y-202134D01*
X129835Y-206134D01*
X130652Y-202134D01*
G01X132476Y-206134D02*
Y-202134D01*
G01X134926D02*
Y-206134D01*
G01Y-204134D02*
X132476D01*
G01X138500Y-206134D02*
X138033Y-206067D01*
X137625Y-205801D01*
X137275Y-205401D01*
X137042Y-204934D01*
X136925Y-204401D01*
Y-203867D01*
X137042Y-203334D01*
X137275Y-202867D01*
X137625Y-202467D01*
X138033Y-202201D01*
X138500Y-202134D01*
X138967Y-202201D01*
X139375Y-202467D01*
X139725Y-202867D01*
X139958Y-203334D01*
X140075Y-203867D01*
Y-204401D01*
X139958Y-204934D01*
X139725Y-205401D01*
X139375Y-205801D01*
X138967Y-206067D01*
X138500Y-206134D01*
G01X142132Y-202134D02*
Y-206134D01*
X144466D01*
G01X149265D02*
X146931D01*
Y-202134D01*
X149265D01*
G01X148331Y-204067D02*
X146931D01*
G01X-16410Y-198134D02*
Y-194134D01*
X-13726Y-198134D01*
Y-194134D01*
G01X-10269Y-198134D02*
X-10736Y-198067D01*
X-11144Y-197801D01*
X-11494Y-197401D01*
X-11727Y-196934D01*
X-11844Y-196401D01*
Y-195867D01*
X-11727Y-195334D01*
X-11494Y-194867D01*
X-11144Y-194467D01*
X-10736Y-194201D01*
X-10269Y-194134D01*
X-9802Y-194201D01*
X-9394Y-194467D01*
X-9044Y-194867D01*
X-8811Y-195334D01*
X-8694Y-195867D01*
Y-196401D01*
X-8811Y-196934D01*
X-9044Y-197401D01*
X-9394Y-197801D01*
X-9802Y-198067D01*
X-10269Y-198134D01*
G01X-5470Y-194134D02*
Y-198134D01*
G01X-6812Y-194134D02*
X-4128D01*
G01X4595Y-196001D02*
X4828Y-195801D01*
X5003Y-195467D01*
X5120Y-195001D01*
X5003Y-194601D01*
X4770Y-194334D01*
X4361Y-194134D01*
X2786D01*
Y-198134D01*
X4711D01*
X5120Y-197867D01*
X5353Y-197467D01*
X5470Y-197001D01*
X5353Y-196534D01*
X5003Y-196134D01*
X4595Y-196001D01*
X2786D01*
G01X10094Y-198134D02*
X7760D01*
Y-194134D01*
X10094D01*
G01X9160Y-196067D02*
X7760D01*
G01X17242Y-194134D02*
Y-197001D01*
X17475Y-197601D01*
X17942Y-198001D01*
X18525Y-198134D01*
X19108Y-198001D01*
X19575Y-197601D01*
X19808Y-197001D01*
Y-194134D01*
G01X22099Y-197601D02*
X22566Y-197934D01*
X23091Y-198134D01*
X23557D01*
X24024Y-197934D01*
X24374Y-197601D01*
X24549Y-197134D01*
X24432Y-196667D01*
X24141Y-196267D01*
X23616Y-196001D01*
X22916Y-195867D01*
X22507Y-195601D01*
X22332Y-195134D01*
X22449Y-194667D01*
X22741Y-194334D01*
X23149Y-194134D01*
X23557D01*
X23966Y-194267D01*
X24316Y-194601D01*
G01X29290Y-198134D02*
X26956D01*
Y-194134D01*
X29290D01*
G01X28356Y-196067D02*
X26956D01*
G01X31639Y-198134D02*
Y-194134D01*
X32805D01*
X33272Y-194334D01*
X33622Y-194601D01*
X33914Y-195001D01*
X34147Y-195467D01*
X34205Y-196134D01*
X34147Y-196801D01*
X33914Y-197267D01*
X33622Y-197667D01*
X33272Y-197934D01*
X32805Y-198134D01*
X31639D01*
G01X41412D02*
Y-194134D01*
X43628D01*
G01X42812Y-196067D02*
X41412D01*
G01X47319Y-198134D02*
X46852Y-198067D01*
X46444Y-197801D01*
X46094Y-197401D01*
X45861Y-196934D01*
X45744Y-196401D01*
Y-195867D01*
X45861Y-195334D01*
X46094Y-194867D01*
X46444Y-194467D01*
X46852Y-194201D01*
X47319Y-194134D01*
X47786Y-194201D01*
X48194Y-194467D01*
X48544Y-194867D01*
X48777Y-195334D01*
X48894Y-195867D01*
Y-196401D01*
X48777Y-196934D01*
X48544Y-197401D01*
X48194Y-197801D01*
X47786Y-198067D01*
X47319Y-198134D01*
G01X50951D02*
Y-194134D01*
X52410D01*
X52876Y-194334D01*
X53168Y-194601D01*
X53285Y-195134D01*
X53168Y-195667D01*
X52818Y-196001D01*
X52410Y-196201D01*
X50951D01*
G01X52410D02*
X53285Y-198134D01*
G01X62883D02*
X60549D01*
Y-194134D01*
X62883D01*
G01X61949Y-196067D02*
X60549D01*
G01X65173Y-198134D02*
Y-194134D01*
X67857Y-198134D01*
Y-194134D01*
G01X71664Y-196134D02*
X72831D01*
Y-197334D01*
X72481Y-197734D01*
X72072Y-198001D01*
X71489Y-198134D01*
X70906Y-198001D01*
X70497Y-197734D01*
X70147Y-197334D01*
X69914Y-196867D01*
X69797Y-196334D01*
Y-195867D01*
X69914Y-195467D01*
X70147Y-195001D01*
X70497Y-194601D01*
X70847Y-194334D01*
X71314Y-194134D01*
X71722D01*
X72189Y-194267D01*
X72539Y-194534D01*
G01X75413Y-194134D02*
X76813D01*
G01X76113D02*
Y-198134D01*
G01X75413D02*
X76813D01*
G01X79570D02*
Y-194134D01*
X82254Y-198134D01*
Y-194134D01*
G01X86878Y-198134D02*
X84544D01*
Y-194134D01*
X86878D01*
G01X85944Y-196067D02*
X84544D01*
G01X91677Y-198134D02*
X89343D01*
Y-194134D01*
X91677D01*
G01X90743Y-196067D02*
X89343D01*
G01X94142Y-198134D02*
Y-194134D01*
X95601D01*
X96067Y-194334D01*
X96359Y-194601D01*
X96476Y-195134D01*
X96359Y-195667D01*
X96009Y-196001D01*
X95601Y-196201D01*
X94142D01*
G01X95601D02*
X96476Y-198134D01*
G01X99408Y-194134D02*
X100808D01*
G01X100108D02*
Y-198134D01*
G01X99408D02*
X100808D01*
G01X103565D02*
Y-194134D01*
X106249Y-198134D01*
Y-194134D01*
G01X110056Y-196134D02*
X111223D01*
Y-197334D01*
X110873Y-197734D01*
X110464Y-198001D01*
X109881Y-198134D01*
X109298Y-198001D01*
X108889Y-197734D01*
X108539Y-197334D01*
X108306Y-196867D01*
X108189Y-196334D01*
Y-195867D01*
X108306Y-195467D01*
X108539Y-195001D01*
X108889Y-194601D01*
X109239Y-194334D01*
X109706Y-194134D01*
X110114D01*
X110581Y-194267D01*
X110931Y-194534D01*
G01X118021Y-198134D02*
Y-194134D01*
X119187D01*
X119654Y-194334D01*
X120004Y-194601D01*
X120296Y-195001D01*
X120529Y-195467D01*
X120587Y-196134D01*
X120529Y-196801D01*
X120296Y-197267D01*
X120004Y-197667D01*
X119654Y-197934D01*
X119187Y-198134D01*
X118021D01*
G01X125270D02*
X122936D01*
Y-194134D01*
X125270D01*
G01X124336Y-196067D02*
X122936D01*
G01X127677Y-197601D02*
X128144Y-197934D01*
X128669Y-198134D01*
X129135D01*
X129602Y-197934D01*
X129952Y-197601D01*
X130127Y-197134D01*
X130010Y-196667D01*
X129719Y-196267D01*
X129194Y-196001D01*
X128494Y-195867D01*
X128085Y-195601D01*
X127910Y-195134D01*
X128027Y-194667D01*
X128319Y-194334D01*
X128727Y-194134D01*
X129135D01*
X129544Y-194267D01*
X129894Y-194601D01*
G01X133001Y-194134D02*
X134401D01*
G01X133701D02*
Y-198134D01*
G01X133001D02*
X134401D01*
G01X138850Y-196134D02*
X140017D01*
Y-197334D01*
X139667Y-197734D01*
X139258Y-198001D01*
X138675Y-198134D01*
X138092Y-198001D01*
X137683Y-197734D01*
X137333Y-197334D01*
X137100Y-196867D01*
X136983Y-196334D01*
Y-195867D01*
X137100Y-195467D01*
X137333Y-195001D01*
X137683Y-194601D01*
X138033Y-194334D01*
X138500Y-194134D01*
X138908D01*
X139375Y-194267D01*
X139725Y-194534D01*
G01X141957Y-198134D02*
Y-194134D01*
X144641Y-198134D01*
Y-194134D01*
G01X-16235Y-190134D02*
Y-186134D01*
X-14835D01*
X-14368Y-186334D01*
X-14018Y-186801D01*
X-13901Y-187334D01*
X-14018Y-187867D01*
X-14310Y-188267D01*
X-14835Y-188467D01*
X-16235D01*
G01X-11436Y-190134D02*
Y-186134D01*
X-9977D01*
X-9511Y-186334D01*
X-9219Y-186601D01*
X-9102Y-187134D01*
X-9219Y-187667D01*
X-9569Y-188001D01*
X-9977Y-188201D01*
X-11436D01*
G01X-9977D02*
X-9102Y-190134D01*
G01X-5470D02*
X-5937Y-190067D01*
X-6345Y-189801D01*
X-6695Y-189401D01*
X-6928Y-188934D01*
X-7045Y-188401D01*
Y-187867D01*
X-6928Y-187334D01*
X-6695Y-186867D01*
X-6345Y-186467D01*
X-5937Y-186201D01*
X-5470Y-186134D01*
X-5003Y-186201D01*
X-4595Y-186467D01*
X-4245Y-186867D01*
X-4012Y-187334D01*
X-3895Y-187867D01*
Y-188401D01*
X-4012Y-188934D01*
X-4245Y-189401D01*
X-4595Y-189801D01*
X-5003Y-190067D01*
X-5470Y-190134D01*
G01X-1838D02*
Y-186134D01*
X-438D01*
X29Y-186334D01*
X379Y-186801D01*
X496Y-187334D01*
X379Y-187867D01*
X87Y-188267D01*
X-438Y-188467D01*
X-1838D01*
G01X2961Y-190134D02*
Y-186134D01*
X4420D01*
X4886Y-186334D01*
X5178Y-186601D01*
X5295Y-187134D01*
X5178Y-187667D01*
X4828Y-188001D01*
X4420Y-188201D01*
X2961D01*
G01X4420D02*
X5295Y-190134D01*
G01X8227Y-186134D02*
X9627D01*
G01X8927D02*
Y-190134D01*
G01X8227D02*
X9627D01*
G01X14893D02*
X12559D01*
Y-186134D01*
X14893D01*
G01X13959Y-188067D02*
X12559D01*
G01X18525Y-186134D02*
Y-190134D01*
G01X17183Y-186134D02*
X19867D01*
G01X21866Y-190134D02*
X23324Y-186134D01*
X24782Y-190134D01*
G01X24257Y-188734D02*
X22391D01*
G01X26956Y-190134D02*
Y-186134D01*
X28415D01*
X28881Y-186334D01*
X29173Y-186601D01*
X29290Y-187134D01*
X29173Y-187667D01*
X28823Y-188001D01*
X28415Y-188201D01*
X26956D01*
G01X28415D02*
X29290Y-190134D01*
G01X32922D02*
Y-188334D01*
X31755Y-186134D01*
G01X34089D02*
X32922Y-188334D01*
G01X42520Y-186134D02*
Y-190134D01*
G01X41178Y-186134D02*
X43862D01*
G01X47319Y-190134D02*
X46852Y-190067D01*
X46444Y-189801D01*
X46094Y-189401D01*
X45861Y-188934D01*
X45744Y-188401D01*
Y-187867D01*
X45861Y-187334D01*
X46094Y-186867D01*
X46444Y-186467D01*
X46852Y-186201D01*
X47319Y-186134D01*
X47786Y-186201D01*
X48194Y-186467D01*
X48544Y-186867D01*
X48777Y-187334D01*
X48894Y-187867D01*
Y-188401D01*
X48777Y-188934D01*
X48544Y-189401D01*
X48194Y-189801D01*
X47786Y-190067D01*
X47319Y-190134D01*
G01X55809D02*
Y-186134D01*
X58025D01*
G01X57209Y-188067D02*
X55809D01*
G01X60549Y-190134D02*
Y-186134D01*
X62008D01*
X62474Y-186334D01*
X62766Y-186601D01*
X62883Y-187134D01*
X62766Y-187667D01*
X62416Y-188001D01*
X62008Y-188201D01*
X60549D01*
G01X62008D02*
X62883Y-190134D01*
G01X67682D02*
X65348D01*
Y-186134D01*
X67682D01*
G01X66748Y-188067D02*
X65348D01*
G01X72481Y-190134D02*
X70147D01*
Y-186134D01*
X72481D01*
G01X71547Y-188067D02*
X70147D01*
G01X74888Y-189601D02*
X75355Y-189934D01*
X75880Y-190134D01*
X76346D01*
X76813Y-189934D01*
X77163Y-189601D01*
X77338Y-189134D01*
X77221Y-188667D01*
X76930Y-188267D01*
X76405Y-188001D01*
X75705Y-187867D01*
X75296Y-187601D01*
X75121Y-187134D01*
X75238Y-186667D01*
X75530Y-186334D01*
X75938Y-186134D01*
X76346D01*
X76755Y-186267D01*
X77105Y-186601D01*
G01X82195Y-186467D02*
X81845Y-186267D01*
X81437Y-186134D01*
X80970D01*
X80445Y-186334D01*
X80037Y-186667D01*
X79745Y-187067D01*
X79512Y-187734D01*
X79454Y-188334D01*
X79570Y-188934D01*
X79745Y-189334D01*
X80095Y-189734D01*
X80504Y-190001D01*
X80912Y-190134D01*
X81320D01*
X81729Y-190001D01*
X82079Y-189801D01*
X82370Y-189534D01*
G01X84253Y-190134D02*
X85711Y-186134D01*
X87169Y-190134D01*
G01X86644Y-188734D02*
X84778D01*
G01X89343Y-186134D02*
Y-190134D01*
X91677D01*
G01X96476D02*
X94142D01*
Y-186134D01*
X96476D01*
G01X95542Y-188067D02*
X94142D01*
G01X103449Y-190134D02*
X104907Y-186134D01*
X106365Y-190134D01*
G01X105840Y-188734D02*
X103974D01*
G01X108364Y-190134D02*
Y-186134D01*
X111048Y-190134D01*
Y-186134D01*
G01X113222Y-190134D02*
Y-186134D01*
X114388D01*
X114855Y-186334D01*
X115205Y-186601D01*
X115497Y-187001D01*
X115730Y-187467D01*
X115788Y-188134D01*
X115730Y-188801D01*
X115497Y-189267D01*
X115205Y-189667D01*
X114855Y-189934D01*
X114388Y-190134D01*
X113222D01*
G01X122878Y-189601D02*
X123345Y-189934D01*
X123870Y-190134D01*
X124336D01*
X124803Y-189934D01*
X125153Y-189601D01*
X125328Y-189134D01*
X125211Y-188667D01*
X124920Y-188267D01*
X124395Y-188001D01*
X123695Y-187867D01*
X123286Y-187601D01*
X123111Y-187134D01*
X123228Y-186667D01*
X123520Y-186334D01*
X123928Y-186134D01*
X124336D01*
X124745Y-186267D01*
X125095Y-186601D01*
G01X127677Y-190134D02*
Y-186134D01*
G01X130127D02*
Y-190134D01*
G01Y-188134D02*
X127677D01*
G01X132243Y-190134D02*
X133701Y-186134D01*
X135159Y-190134D01*
G01X134634Y-188734D02*
X132768D01*
G01X137333Y-186134D02*
Y-190134D01*
X139667D01*
G01X142132Y-186134D02*
Y-190134D01*
X144466D01*
G01X-23526Y-172134D02*
X-22068Y-168134D01*
X-20610Y-172134D01*
G01X-21135Y-170734D02*
X-23001D01*
G01X-18552Y-168134D02*
Y-171001D01*
X-18319Y-171601D01*
X-17852Y-172001D01*
X-17269Y-172134D01*
X-16686Y-172001D01*
X-16219Y-171601D01*
X-15986Y-171001D01*
Y-168134D01*
G01X-13695Y-171601D02*
X-13228Y-171934D01*
X-12703Y-172134D01*
X-12237D01*
X-11770Y-171934D01*
X-11420Y-171601D01*
X-11245Y-171134D01*
X-11362Y-170667D01*
X-11653Y-170267D01*
X-12178Y-170001D01*
X-12878Y-169867D01*
X-13287Y-169601D01*
X-13462Y-169134D01*
X-13345Y-168667D01*
X-13053Y-168334D01*
X-12645Y-168134D01*
X-12237D01*
X-11828Y-168267D01*
X-11478Y-168601D01*
G01X-7671Y-168134D02*
Y-172134D01*
G01X-9013Y-168134D02*
X-6329D01*
G01X-3572D02*
X-2172D01*
G01X-2872D02*
Y-172134D01*
G01X-3572D02*
X-2172D01*
G01X585D02*
Y-168134D01*
X3269Y-172134D01*
Y-168134D01*
G01X6726Y-172267D02*
X6609Y-172201D01*
Y-172067D01*
X6726Y-172001D01*
X6843Y-172067D01*
Y-172201D01*
X6726Y-172267D01*
G01X16324Y-168134D02*
Y-172134D01*
G01X14982Y-168134D02*
X17666D01*
G01X22290Y-172134D02*
X19956D01*
Y-168134D01*
X22290D01*
G01X21356Y-170067D02*
X19956D01*
G01X24697Y-172134D02*
X27147Y-168134D01*
G01X24697D02*
X27147Y-172134D01*
G01X29263D02*
X30721Y-168134D01*
X32179Y-172134D01*
G01X31654Y-170734D02*
X29788D01*
G01X34295Y-171601D02*
X34762Y-171934D01*
X35287Y-172134D01*
X35753D01*
X36220Y-171934D01*
X36570Y-171601D01*
X36745Y-171134D01*
X36628Y-170667D01*
X36337Y-170267D01*
X35812Y-170001D01*
X35112Y-169867D01*
X34703Y-169601D01*
X34528Y-169134D01*
X34645Y-168667D01*
X34937Y-168334D01*
X35345Y-168134D01*
X35753D01*
X36162Y-168267D01*
X36512Y-168601D01*
G01X45001Y-172134D02*
X45118Y-171267D01*
X45293Y-170534D01*
X45526Y-169867D01*
X45818Y-169134D01*
X46285Y-168134D01*
X43951D01*
G01X49917Y-172134D02*
X50325Y-172067D01*
X50792Y-171867D01*
X51084Y-171534D01*
X51200Y-171067D01*
X51084Y-170601D01*
X50734Y-170201D01*
X50209Y-170001D01*
X49625D01*
X49275Y-169867D01*
X48984Y-169534D01*
X48867Y-169067D01*
X49042Y-168601D01*
X49450Y-168267D01*
X49917Y-168134D01*
X50384Y-168267D01*
X50792Y-168601D01*
X50967Y-169067D01*
X50850Y-169534D01*
X50559Y-169867D01*
X50209Y-170001D01*
X49625D01*
X49100Y-170201D01*
X48750Y-170601D01*
X48634Y-171067D01*
X48750Y-171534D01*
X49042Y-171867D01*
X49509Y-172067D01*
X49917Y-172134D01*
G01X54599D02*
X54716Y-171267D01*
X54891Y-170534D01*
X55124Y-169867D01*
X55416Y-169134D01*
X55883Y-168134D01*
X53549D01*
G01X58232Y-171334D02*
X58582Y-171801D01*
X59048Y-172067D01*
X59573Y-172134D01*
X60040Y-172067D01*
X60507Y-171734D01*
X60798Y-171334D01*
X60857Y-170934D01*
X60740Y-170467D01*
X60332Y-170134D01*
X59923Y-170001D01*
X59398D01*
G01X59923D02*
X60273Y-169801D01*
X60565Y-169467D01*
X60682Y-169067D01*
X60565Y-168667D01*
X60273Y-168334D01*
X59748Y-168134D01*
X59223Y-168201D01*
X58698Y-168467D01*
G01X63031Y-171534D02*
X63381Y-171867D01*
X63789Y-172067D01*
X64314Y-172134D01*
X64839Y-172001D01*
X65247Y-171734D01*
X65539Y-171267D01*
X65597Y-170734D01*
X65481Y-170201D01*
X65189Y-169867D01*
X64781Y-169601D01*
X64372Y-169534D01*
X63964Y-169601D01*
X63439Y-169867D01*
X63614Y-168134D01*
X65189D01*
G01X72629D02*
Y-171001D01*
X72862Y-171601D01*
X73329Y-172001D01*
X73912Y-172134D01*
X74495Y-172001D01*
X74962Y-171601D01*
X75195Y-171001D01*
Y-168134D01*
G01X77486Y-171601D02*
X77953Y-171934D01*
X78478Y-172134D01*
X78944D01*
X79411Y-171934D01*
X79761Y-171601D01*
X79936Y-171134D01*
X79819Y-170667D01*
X79528Y-170267D01*
X79003Y-170001D01*
X78303Y-169867D01*
X77894Y-169601D01*
X77719Y-169134D01*
X77836Y-168667D01*
X78128Y-168334D01*
X78536Y-168134D01*
X78944D01*
X79353Y-168267D01*
X79703Y-168601D01*
G01X82052Y-172134D02*
X83510Y-168134D01*
X84968Y-172134D01*
G01X84443Y-170734D02*
X82577D01*
G01X-23176Y-163467D02*
X-22768Y-163001D01*
X-22418Y-162734D01*
X-21951Y-162601D01*
X-21543Y-162734D01*
X-21251Y-163001D01*
X-21018Y-163401D01*
X-20960Y-163867D01*
X-21018Y-164267D01*
X-21251Y-164667D01*
X-21601Y-165001D01*
X-22010Y-165134D01*
X-22476Y-165001D01*
X-22885Y-164601D01*
X-23118Y-164001D01*
X-23176Y-163334D01*
X-23060Y-162467D01*
X-22885Y-162001D01*
X-22593Y-161534D01*
X-22185Y-161201D01*
X-21776Y-161134D01*
X-21368Y-161267D01*
X-21076Y-161601D01*
G01X-18552Y-164534D02*
X-18202Y-164867D01*
X-17794Y-165067D01*
X-17269Y-165134D01*
X-16744Y-165001D01*
X-16336Y-164734D01*
X-16044Y-164267D01*
X-15986Y-163734D01*
X-16102Y-163201D01*
X-16394Y-162867D01*
X-16802Y-162601D01*
X-17211Y-162534D01*
X-17619Y-162601D01*
X-18144Y-162867D01*
X-17969Y-161134D01*
X-16394D01*
G01X-12470D02*
X-12937Y-161267D01*
X-13287Y-161601D01*
X-13520Y-162001D01*
X-13695Y-162534D01*
X-13753Y-163134D01*
X-13695Y-163734D01*
X-13520Y-164267D01*
X-13287Y-164667D01*
X-12937Y-165001D01*
X-12470Y-165134D01*
X-12003Y-165001D01*
X-11653Y-164667D01*
X-11420Y-164267D01*
X-11245Y-163734D01*
X-11187Y-163134D01*
X-11245Y-162534D01*
X-11420Y-162001D01*
X-11653Y-161601D01*
X-12003Y-161267D01*
X-12470Y-161134D01*
G01X-7671Y-165134D02*
Y-161134D01*
X-8371Y-161934D01*
G01Y-165134D02*
X-6971D01*
G01X177Y-161134D02*
X994Y-165134D01*
X1927Y-161134D01*
X2860Y-165134D01*
X3677Y-161134D01*
G01X6026D02*
X7426D01*
G01X6726D02*
Y-165134D01*
G01X6026D02*
X7426D01*
G01X10358Y-161134D02*
Y-165134D01*
X12692D01*
G01X15157Y-161134D02*
Y-165134D01*
X17491D01*
G01X20423Y-161134D02*
X21823D01*
G01X21123D02*
Y-165134D01*
G01X20423D02*
X21823D01*
G01X24464D02*
X25922Y-161134D01*
X27380Y-165134D01*
G01X26855Y-163734D02*
X24989D01*
G01X29204Y-165134D02*
Y-161134D01*
X30721Y-164467D01*
X32238Y-161134D01*
Y-165134D01*
G01X41602Y-161467D02*
X41252Y-161267D01*
X40844Y-161134D01*
X40377D01*
X39852Y-161334D01*
X39444Y-161667D01*
X39152Y-162067D01*
X38919Y-162734D01*
X38861Y-163334D01*
X38977Y-163934D01*
X39152Y-164334D01*
X39502Y-164734D01*
X39911Y-165001D01*
X40319Y-165134D01*
X40727D01*
X41136Y-165001D01*
X41486Y-164801D01*
X41777Y-164534D01*
G01X43660Y-165134D02*
X45118Y-161134D01*
X46576Y-165134D01*
G01X46051Y-163734D02*
X44185D01*
G01X48575Y-165134D02*
Y-161134D01*
X51259Y-165134D01*
Y-161134D01*
G01X53374Y-165134D02*
Y-161134D01*
X56058Y-165134D01*
Y-161134D01*
G01X59515Y-165134D02*
X59048Y-165067D01*
X58640Y-164801D01*
X58290Y-164401D01*
X58057Y-163934D01*
X57940Y-163401D01*
Y-162867D01*
X58057Y-162334D01*
X58290Y-161867D01*
X58640Y-161467D01*
X59048Y-161201D01*
X59515Y-161134D01*
X59982Y-161201D01*
X60390Y-161467D01*
X60740Y-161867D01*
X60973Y-162334D01*
X61090Y-162867D01*
Y-163401D01*
X60973Y-163934D01*
X60740Y-164401D01*
X60390Y-164801D01*
X59982Y-165067D01*
X59515Y-165134D01*
G01X62972D02*
Y-161134D01*
X65656Y-165134D01*
Y-161134D01*
G01X72629Y-165134D02*
Y-161134D01*
X73795D01*
X74262Y-161334D01*
X74612Y-161601D01*
X74904Y-162001D01*
X75137Y-162467D01*
X75195Y-163134D01*
X75137Y-163801D01*
X74904Y-164267D01*
X74612Y-164667D01*
X74262Y-164934D01*
X73795Y-165134D01*
X72629D01*
G01X77544D02*
Y-161134D01*
X79003D01*
X79469Y-161334D01*
X79761Y-161601D01*
X79878Y-162134D01*
X79761Y-162667D01*
X79411Y-163001D01*
X79003Y-163201D01*
X77544D01*
G01X79003D02*
X79878Y-165134D01*
G01X82810Y-161134D02*
X84210D01*
G01X83510D02*
Y-165134D01*
G01X82810D02*
X84210D01*
G01X86851Y-161134D02*
X88309Y-165134D01*
X89767Y-161134D01*
G01X94275Y-165134D02*
X91941D01*
Y-161134D01*
X94275D01*
G01X93341Y-163067D02*
X91941D01*
G01X100956Y-161134D02*
X101773Y-165134D01*
X102706Y-161134D01*
X103639Y-165134D01*
X104456Y-161134D01*
G01X108672Y-165134D02*
X106338D01*
Y-161134D01*
X108672D01*
G01X107738Y-163067D02*
X106338D01*
G01X111079Y-164601D02*
X111546Y-164934D01*
X112071Y-165134D01*
X112537D01*
X113004Y-164934D01*
X113354Y-164601D01*
X113529Y-164134D01*
X113412Y-163667D01*
X113121Y-163267D01*
X112596Y-163001D01*
X111896Y-162867D01*
X111487Y-162601D01*
X111312Y-162134D01*
X111429Y-161667D01*
X111721Y-161334D01*
X112129Y-161134D01*
X112537D01*
X112946Y-161267D01*
X113296Y-161601D01*
G01X117103Y-161134D02*
Y-165134D01*
G01X115761Y-161134D02*
X118445D01*
G01X-16068Y-178134D02*
Y-182134D01*
G01X-17410Y-178134D02*
X-14726D01*
G01X-12494Y-182134D02*
Y-178134D01*
G01X-10044D02*
Y-182134D01*
G01Y-180134D02*
X-12494D01*
G01X-7170Y-178134D02*
X-5770D01*
G01X-6470D02*
Y-182134D01*
G01X-7170D02*
X-5770D01*
G01X-2896Y-181601D02*
X-2429Y-181934D01*
X-1904Y-182134D01*
X-1438D01*
X-971Y-181934D01*
X-621Y-181601D01*
X-446Y-181134D01*
X-563Y-180667D01*
X-854Y-180267D01*
X-1379Y-180001D01*
X-2079Y-179867D01*
X-2488Y-179601D01*
X-2663Y-179134D01*
X-2546Y-178667D01*
X-2254Y-178334D01*
X-1846Y-178134D01*
X-1438D01*
X-1029Y-178267D01*
X-679Y-178601D01*
G01X6644Y-182134D02*
Y-178134D01*
X7810D01*
X8277Y-178334D01*
X8627Y-178601D01*
X8919Y-179001D01*
X9152Y-179467D01*
X9210Y-180134D01*
X9152Y-180801D01*
X8919Y-181267D01*
X8627Y-181667D01*
X8277Y-181934D01*
X7810Y-182134D01*
X6644D01*
G01X12726D02*
X12259Y-182067D01*
X11851Y-181801D01*
X11501Y-181401D01*
X11268Y-180934D01*
X11151Y-180401D01*
Y-179867D01*
X11268Y-179334D01*
X11501Y-178867D01*
X11851Y-178467D01*
X12259Y-178201D01*
X12726Y-178134D01*
X13193Y-178201D01*
X13601Y-178467D01*
X13951Y-178867D01*
X14184Y-179334D01*
X14301Y-179867D01*
Y-180401D01*
X14184Y-180934D01*
X13951Y-181401D01*
X13601Y-181801D01*
X13193Y-182067D01*
X12726Y-182134D01*
G01X18808Y-178467D02*
X18458Y-178267D01*
X18050Y-178134D01*
X17583D01*
X17058Y-178334D01*
X16650Y-178667D01*
X16358Y-179067D01*
X16125Y-179734D01*
X16067Y-180334D01*
X16183Y-180934D01*
X16358Y-181334D01*
X16708Y-181734D01*
X17117Y-182001D01*
X17525Y-182134D01*
X17933D01*
X18342Y-182001D01*
X18692Y-181801D01*
X18983Y-181534D01*
G01X21041Y-178134D02*
Y-181001D01*
X21274Y-181601D01*
X21741Y-182001D01*
X22324Y-182134D01*
X22907Y-182001D01*
X23374Y-181601D01*
X23607Y-181001D01*
Y-178134D01*
G01X25606Y-182134D02*
Y-178134D01*
X27123Y-181467D01*
X28640Y-178134D01*
Y-182134D01*
G01X33089D02*
X30755D01*
Y-178134D01*
X33089D01*
G01X32155Y-180067D02*
X30755D01*
G01X35379Y-182134D02*
Y-178134D01*
X38063Y-182134D01*
Y-178134D01*
G01X41520D02*
Y-182134D01*
G01X40178Y-178134D02*
X42862D01*
G01X52401Y-178467D02*
X52051Y-178267D01*
X51643Y-178134D01*
X51176D01*
X50651Y-178334D01*
X50243Y-178667D01*
X49951Y-179067D01*
X49718Y-179734D01*
X49660Y-180334D01*
X49776Y-180934D01*
X49951Y-181334D01*
X50301Y-181734D01*
X50710Y-182001D01*
X51118Y-182134D01*
X51526D01*
X51935Y-182001D01*
X52285Y-181801D01*
X52576Y-181534D01*
G01X55917Y-182134D02*
X55450Y-182067D01*
X55042Y-181801D01*
X54692Y-181401D01*
X54459Y-180934D01*
X54342Y-180401D01*
Y-179867D01*
X54459Y-179334D01*
X54692Y-178867D01*
X55042Y-178467D01*
X55450Y-178201D01*
X55917Y-178134D01*
X56384Y-178201D01*
X56792Y-178467D01*
X57142Y-178867D01*
X57375Y-179334D01*
X57492Y-179867D01*
Y-180401D01*
X57375Y-180934D01*
X57142Y-181401D01*
X56792Y-181801D01*
X56384Y-182067D01*
X55917Y-182134D01*
G01X59374D02*
Y-178134D01*
X62058Y-182134D01*
Y-178134D01*
G01X65515D02*
Y-182134D01*
G01X64173Y-178134D02*
X66857D01*
G01X68856Y-182134D02*
X70314Y-178134D01*
X71772Y-182134D01*
G01X71247Y-180734D02*
X69381D01*
G01X74413Y-178134D02*
X75813D01*
G01X75113D02*
Y-182134D01*
G01X74413D02*
X75813D01*
G01X78570D02*
Y-178134D01*
X81254Y-182134D01*
Y-178134D01*
G01X83486Y-181601D02*
X83953Y-181934D01*
X84478Y-182134D01*
X84944D01*
X85411Y-181934D01*
X85761Y-181601D01*
X85936Y-181134D01*
X85819Y-180667D01*
X85528Y-180267D01*
X85003Y-180001D01*
X84303Y-179867D01*
X83894Y-179601D01*
X83719Y-179134D01*
X83836Y-178667D01*
X84128Y-178334D01*
X84536Y-178134D01*
X84944D01*
X85353Y-178267D01*
X85703Y-178601D01*
G01X93609Y-178134D02*
X95009D01*
G01X94309D02*
Y-182134D01*
G01X93609D02*
X95009D01*
G01X97766D02*
Y-178134D01*
X100450Y-182134D01*
Y-178134D01*
G01X102799Y-182134D02*
Y-178134D01*
X105015D01*
G01X104199Y-180067D02*
X102799D01*
G01X108706Y-182134D02*
X108239Y-182067D01*
X107831Y-181801D01*
X107481Y-181401D01*
X107248Y-180934D01*
X107131Y-180401D01*
Y-179867D01*
X107248Y-179334D01*
X107481Y-178867D01*
X107831Y-178467D01*
X108239Y-178201D01*
X108706Y-178134D01*
X109173Y-178201D01*
X109581Y-178467D01*
X109931Y-178867D01*
X110164Y-179334D01*
X110281Y-179867D01*
Y-180401D01*
X110164Y-180934D01*
X109931Y-181401D01*
X109581Y-181801D01*
X109173Y-182067D01*
X108706Y-182134D01*
G01X112338D02*
Y-178134D01*
X113797D01*
X114263Y-178334D01*
X114555Y-178601D01*
X114672Y-179134D01*
X114555Y-179667D01*
X114205Y-180001D01*
X113797Y-180201D01*
X112338D01*
G01X113797D02*
X114672Y-182134D01*
G01X116787D02*
Y-178134D01*
X118304Y-181467D01*
X119821Y-178134D01*
Y-182134D01*
G01X121645D02*
X123103Y-178134D01*
X124561Y-182134D01*
G01X124036Y-180734D02*
X122170D01*
G01X127902Y-178134D02*
Y-182134D01*
G01X126560Y-178134D02*
X129244D01*
G01X132001D02*
X133401D01*
G01X132701D02*
Y-182134D01*
G01X132001D02*
X133401D01*
G01X137500D02*
X137033Y-182067D01*
X136625Y-181801D01*
X136275Y-181401D01*
X136042Y-180934D01*
X135925Y-180401D01*
Y-179867D01*
X136042Y-179334D01*
X136275Y-178867D01*
X136625Y-178467D01*
X137033Y-178201D01*
X137500Y-178134D01*
X137967Y-178201D01*
X138375Y-178467D01*
X138725Y-178867D01*
X138958Y-179334D01*
X139075Y-179867D01*
Y-180401D01*
X138958Y-180934D01*
X138725Y-181401D01*
X138375Y-181801D01*
X137967Y-182067D01*
X137500Y-182134D01*
G01X140957D02*
Y-178134D01*
X143641Y-182134D01*
Y-178134D01*
G01X26824Y-233134D02*
Y-229134D01*
X29040D01*
G01X28224Y-231067D02*
X26824D01*
G01X32031Y-229134D02*
X33431D01*
G01X32731D02*
Y-233134D01*
G01X32031D02*
X33431D01*
G01X36363Y-229134D02*
Y-233134D01*
X38697D01*
G01X40812D02*
Y-229134D01*
X42329Y-232467D01*
X43846Y-229134D01*
Y-233134D01*
G01X154932Y-241134D02*
Y-237134D01*
X154232Y-237934D01*
G01Y-241134D02*
X155632D01*
G01X159731Y-237134D02*
X159264Y-237267D01*
X158914Y-237601D01*
X158681Y-238001D01*
X158506Y-238534D01*
X158448Y-239134D01*
X158506Y-239734D01*
X158681Y-240267D01*
X158914Y-240667D01*
X159264Y-241001D01*
X159731Y-241134D01*
X160198Y-241001D01*
X160548Y-240667D01*
X160781Y-240267D01*
X160956Y-239734D01*
X161014Y-239134D01*
X160956Y-238534D01*
X160781Y-238001D01*
X160548Y-237601D01*
X160198Y-237267D01*
X159731Y-237134D01*
G01X163772Y-239801D02*
X165288D01*
G01X169329Y-241134D02*
Y-237134D01*
X168629Y-237934D01*
G01Y-241134D02*
X170029D01*
G01X174128D02*
X174536Y-241067D01*
X175003Y-240867D01*
X175295Y-240534D01*
X175411Y-240067D01*
X175295Y-239601D01*
X174945Y-239201D01*
X174420Y-239001D01*
X173836D01*
X173486Y-238867D01*
X173195Y-238534D01*
X173078Y-238067D01*
X173253Y-237601D01*
X173661Y-237267D01*
X174128Y-237134D01*
X174595Y-237267D01*
X175003Y-237601D01*
X175178Y-238067D01*
X175061Y-238534D01*
X174770Y-238867D01*
X174420Y-239001D01*
X173836D01*
X173311Y-239201D01*
X172961Y-239601D01*
X172845Y-240067D01*
X172961Y-240534D01*
X173253Y-240867D01*
X173720Y-241067D01*
X174128Y-241134D01*
G01X178169Y-239801D02*
X179685D01*
G01X183726Y-241134D02*
Y-237134D01*
X183026Y-237934D01*
G01Y-241134D02*
X184426D01*
G01X187417Y-237801D02*
X187767Y-237401D01*
X188175Y-237201D01*
X188642Y-237134D01*
X189225Y-237267D01*
X189633Y-237601D01*
X189750Y-238001D01*
X189692Y-238401D01*
X189458Y-238734D01*
X188292Y-239401D01*
X187767Y-239867D01*
X187417Y-240534D01*
X187300Y-241134D01*
X189750D01*
G01X151649Y-233134D02*
Y-229134D01*
X152815D01*
X153282Y-229334D01*
X153632Y-229601D01*
X153924Y-230001D01*
X154157Y-230467D01*
X154215Y-231134D01*
X154157Y-231801D01*
X153924Y-232267D01*
X153632Y-232667D01*
X153282Y-232934D01*
X152815Y-233134D01*
X151649D01*
G01X156273D02*
X157731Y-229134D01*
X159189Y-233134D01*
G01X158664Y-231734D02*
X156798D01*
G01X162530Y-229134D02*
Y-233134D01*
G01X161188Y-229134D02*
X163872D01*
G01X168496Y-233134D02*
X166162D01*
Y-229134D01*
X168496D01*
G01X167562Y-231067D02*
X166162D01*
G01X151590Y-153134D02*
Y-149134D01*
X154274Y-153134D01*
Y-149134D01*
G01X156273Y-153134D02*
X157731Y-149134D01*
X159189Y-153134D01*
G01X158664Y-151734D02*
X156798D01*
G01X161013Y-153134D02*
Y-149134D01*
X162530Y-152467D01*
X164047Y-149134D01*
Y-153134D01*
G01X168496D02*
X166162D01*
Y-149134D01*
X168496D01*
G01X167562Y-151067D02*
X166162D01*
G01X161182Y-218967D02*
X164682D01*
G01X165981D02*
X169481D01*
G01X170780D02*
X174280D01*
G01X181020Y-217634D02*
Y-213634D01*
X183236D01*
G01X182420Y-215567D02*
X181020D01*
G01X188210Y-213967D02*
X187860Y-213767D01*
X187452Y-213634D01*
X186985D01*
X186460Y-213834D01*
X186052Y-214167D01*
X185760Y-214567D01*
X185527Y-215234D01*
X185469Y-215834D01*
X185585Y-216434D01*
X185760Y-216834D01*
X186110Y-217234D01*
X186519Y-217501D01*
X186927Y-217634D01*
X187335D01*
X187744Y-217501D01*
X188094Y-217301D01*
X188385Y-217034D01*
G01X190559Y-217634D02*
Y-213634D01*
X191959D01*
X192426Y-213834D01*
X192776Y-214301D01*
X192893Y-214834D01*
X192776Y-215367D01*
X192484Y-215767D01*
X191959Y-215967D01*
X190559D01*
G01X201032Y-218967D02*
X200449Y-218301D01*
X200157Y-217634D01*
Y-214967D01*
X200449Y-214301D01*
X201032Y-213634D01*
G01X205015Y-217634D02*
Y-213634D01*
X207231D01*
G01X206415Y-215567D02*
X205015D01*
G01X209755Y-217634D02*
Y-213634D01*
X211214D01*
X211680Y-213834D01*
X211972Y-214101D01*
X212089Y-214634D01*
X211972Y-215167D01*
X211622Y-215501D01*
X211214Y-215701D01*
X209755D01*
G01X211214D02*
X212089Y-217634D01*
G01X216888D02*
X214554D01*
Y-213634D01*
X216888D01*
G01X215954Y-215567D02*
X214554D01*
G01X221687Y-217634D02*
X219353D01*
Y-213634D01*
X221687D01*
G01X220753Y-215567D02*
X219353D01*
G01X224094Y-217101D02*
X224561Y-217434D01*
X225086Y-217634D01*
X225552D01*
X226019Y-217434D01*
X226369Y-217101D01*
X226544Y-216634D01*
X226427Y-216167D01*
X226136Y-215767D01*
X225611Y-215501D01*
X224911Y-215367D01*
X224502Y-215101D01*
X224327Y-214634D01*
X224444Y-214167D01*
X224736Y-213834D01*
X225144Y-213634D01*
X225552D01*
X225961Y-213767D01*
X226311Y-214101D01*
G01X231401Y-213967D02*
X231051Y-213767D01*
X230643Y-213634D01*
X230176D01*
X229651Y-213834D01*
X229243Y-214167D01*
X228951Y-214567D01*
X228718Y-215234D01*
X228660Y-215834D01*
X228776Y-216434D01*
X228951Y-216834D01*
X229301Y-217234D01*
X229710Y-217501D01*
X230118Y-217634D01*
X230526D01*
X230935Y-217501D01*
X231285Y-217301D01*
X231576Y-217034D01*
G01X233459Y-217634D02*
X234917Y-213634D01*
X236375Y-217634D01*
G01X235850Y-216234D02*
X233984D01*
G01X238549Y-213634D02*
Y-217634D01*
X240883D01*
G01X245682D02*
X243348D01*
Y-213634D01*
X245682D01*
G01X244748Y-215567D02*
X243348D01*
G01X255396Y-213967D02*
X255046Y-213767D01*
X254638Y-213634D01*
X254171D01*
X253646Y-213834D01*
X253238Y-214167D01*
X252946Y-214567D01*
X252713Y-215234D01*
X252655Y-215834D01*
X252771Y-216434D01*
X252946Y-216834D01*
X253296Y-217234D01*
X253705Y-217501D01*
X254113Y-217634D01*
X254521D01*
X254930Y-217501D01*
X255280Y-217301D01*
X255571Y-217034D01*
G01X258912Y-217634D02*
X258445Y-217567D01*
X258037Y-217301D01*
X257687Y-216901D01*
X257454Y-216434D01*
X257337Y-215901D01*
Y-215367D01*
X257454Y-214834D01*
X257687Y-214367D01*
X258037Y-213967D01*
X258445Y-213701D01*
X258912Y-213634D01*
X259379Y-213701D01*
X259787Y-213967D01*
X260137Y-214367D01*
X260370Y-214834D01*
X260487Y-215367D01*
Y-215901D01*
X260370Y-216434D01*
X260137Y-216901D01*
X259787Y-217301D01*
X259379Y-217567D01*
X258912Y-217634D01*
G01X262369D02*
Y-213634D01*
X265053Y-217634D01*
Y-213634D01*
G01X267402Y-217634D02*
Y-213634D01*
X269618D01*
G01X268802Y-215567D02*
X267402D01*
G01X272609Y-213634D02*
X274009D01*
G01X273309D02*
Y-217634D01*
G01X272609D02*
X274009D01*
G01X276825D02*
Y-213634D01*
X277991D01*
X278458Y-213834D01*
X278808Y-214101D01*
X279100Y-214501D01*
X279333Y-214967D01*
X279391Y-215634D01*
X279333Y-216301D01*
X279100Y-216767D01*
X278808Y-217167D01*
X278458Y-217434D01*
X277991Y-217634D01*
X276825D01*
G01X284074D02*
X281740D01*
Y-213634D01*
X284074D01*
G01X283140Y-215567D02*
X281740D01*
G01X286364Y-217634D02*
Y-213634D01*
X289048Y-217634D01*
Y-213634D01*
G01X292505D02*
Y-217634D01*
G01X291163Y-213634D02*
X293847D01*
G01X296604D02*
X298004D01*
G01X297304D02*
Y-217634D01*
G01X296604D02*
X298004D01*
G01X300645D02*
X302103Y-213634D01*
X303561Y-217634D01*
G01X303036Y-216234D02*
X301170D01*
G01X305735Y-213634D02*
Y-217634D01*
X308069D01*
G01X315333D02*
Y-213634D01*
X316733D01*
X317200Y-213834D01*
X317550Y-214301D01*
X317667Y-214834D01*
X317550Y-215367D01*
X317258Y-215767D01*
X316733Y-215967D01*
X315333D01*
G01X320132Y-217634D02*
Y-213634D01*
X321591D01*
X322057Y-213834D01*
X322349Y-214101D01*
X322466Y-214634D01*
X322349Y-215167D01*
X321999Y-215501D01*
X321591Y-215701D01*
X320132D01*
G01X321591D02*
X322466Y-217634D01*
G01X326098D02*
X325631Y-217567D01*
X325223Y-217301D01*
X324873Y-216901D01*
X324640Y-216434D01*
X324523Y-215901D01*
Y-215367D01*
X324640Y-214834D01*
X324873Y-214367D01*
X325223Y-213967D01*
X325631Y-213701D01*
X326098Y-213634D01*
X326565Y-213701D01*
X326973Y-213967D01*
X327323Y-214367D01*
X327556Y-214834D01*
X327673Y-215367D01*
Y-215901D01*
X327556Y-216434D01*
X327323Y-216901D01*
X326973Y-217301D01*
X326565Y-217567D01*
X326098Y-217634D01*
G01X329730D02*
Y-213634D01*
X331130D01*
X331597Y-213834D01*
X331947Y-214301D01*
X332064Y-214834D01*
X331947Y-215367D01*
X331655Y-215767D01*
X331130Y-215967D01*
X329730D01*
G01X334529Y-217634D02*
Y-213634D01*
X335988D01*
X336454Y-213834D01*
X336746Y-214101D01*
X336863Y-214634D01*
X336746Y-215167D01*
X336396Y-215501D01*
X335988Y-215701D01*
X334529D01*
G01X335988D02*
X336863Y-217634D01*
G01X339795Y-213634D02*
X341195D01*
G01X340495D02*
Y-217634D01*
G01X339795D02*
X341195D01*
G01X346461D02*
X344127D01*
Y-213634D01*
X346461D01*
G01X345527Y-215567D02*
X344127D01*
G01X350093Y-213634D02*
Y-217634D01*
G01X348751Y-213634D02*
X351435D01*
G01X353434Y-217634D02*
X354892Y-213634D01*
X356350Y-217634D01*
G01X355825Y-216234D02*
X353959D01*
G01X358524Y-217634D02*
Y-213634D01*
X359983D01*
X360449Y-213834D01*
X360741Y-214101D01*
X360858Y-214634D01*
X360741Y-215167D01*
X360391Y-215501D01*
X359983Y-215701D01*
X358524D01*
G01X359983D02*
X360858Y-217634D01*
G01X364490D02*
Y-215834D01*
X363323Y-213634D01*
G01X365657D02*
X364490Y-215834D01*
G01X369581Y-218967D02*
X370164Y-218301D01*
X370456Y-217634D01*
Y-214967D01*
X370164Y-214301D01*
X369581Y-213634D01*
G01X165887Y-202134D02*
X169178Y-195835D01*
G01X165887D02*
X169178Y-202134D01*
G01X161182Y-202467D02*
X164682D01*
G01X165981D02*
X169481D01*
G01X170780D02*
X174280D01*
G01X181020Y-201134D02*
Y-197134D01*
X183236D01*
G01X182420Y-199067D02*
X181020D01*
G01X186227Y-197134D02*
X187627D01*
G01X186927D02*
Y-201134D01*
G01X186227D02*
X187627D01*
G01X190443Y-197134D02*
Y-200001D01*
X190676Y-200601D01*
X191143Y-201001D01*
X191726Y-201134D01*
X192309Y-201001D01*
X192776Y-200601D01*
X193009Y-200001D01*
Y-197134D01*
G01X196525Y-201134D02*
X196058Y-201067D01*
X195650Y-200801D01*
X195300Y-200401D01*
X195067Y-199934D01*
X194950Y-199401D01*
Y-198867D01*
X195067Y-198334D01*
X195300Y-197867D01*
X195650Y-197467D01*
X196058Y-197201D01*
X196525Y-197134D01*
X196992Y-197201D01*
X197400Y-197467D01*
X197750Y-197867D01*
X197983Y-198334D01*
X198100Y-198867D01*
Y-199401D01*
X197983Y-199934D01*
X197750Y-200401D01*
X197400Y-200801D01*
X196992Y-201067D01*
X196525Y-201134D01*
G01X205831Y-202467D02*
X205248Y-201801D01*
X204956Y-201134D01*
Y-198467D01*
X205248Y-197801D01*
X205831Y-197134D01*
G01X209814Y-201134D02*
Y-197134D01*
X212030D01*
G01X211214Y-199067D02*
X209814D01*
G01X214554Y-201134D02*
Y-197134D01*
X216013D01*
X216479Y-197334D01*
X216771Y-197601D01*
X216888Y-198134D01*
X216771Y-198667D01*
X216421Y-199001D01*
X216013Y-199201D01*
X214554D01*
G01X216013D02*
X216888Y-201134D01*
G01X221687D02*
X219353D01*
Y-197134D01*
X221687D01*
G01X220753Y-199067D02*
X219353D01*
G01X226486Y-201134D02*
X224152D01*
Y-197134D01*
X226486D01*
G01X225552Y-199067D02*
X224152D01*
G01X228893Y-200601D02*
X229360Y-200934D01*
X229885Y-201134D01*
X230351D01*
X230818Y-200934D01*
X231168Y-200601D01*
X231343Y-200134D01*
X231226Y-199667D01*
X230935Y-199267D01*
X230410Y-199001D01*
X229710Y-198867D01*
X229301Y-198601D01*
X229126Y-198134D01*
X229243Y-197667D01*
X229535Y-197334D01*
X229943Y-197134D01*
X230351D01*
X230760Y-197267D01*
X231110Y-197601D01*
G01X236200Y-197467D02*
X235850Y-197267D01*
X235442Y-197134D01*
X234975D01*
X234450Y-197334D01*
X234042Y-197667D01*
X233750Y-198067D01*
X233517Y-198734D01*
X233459Y-199334D01*
X233575Y-199934D01*
X233750Y-200334D01*
X234100Y-200734D01*
X234509Y-201001D01*
X234917Y-201134D01*
X235325D01*
X235734Y-201001D01*
X236084Y-200801D01*
X236375Y-200534D01*
G01X238258Y-201134D02*
X239716Y-197134D01*
X241174Y-201134D01*
G01X240649Y-199734D02*
X238783D01*
G01X243348Y-197134D02*
Y-201134D01*
X245682D01*
G01X250481D02*
X248147D01*
Y-197134D01*
X250481D01*
G01X249547Y-199067D02*
X248147D01*
G01X258212Y-197134D02*
X259612D01*
G01X258912D02*
Y-201134D01*
G01X258212D02*
X259612D01*
G01X262369D02*
Y-197134D01*
X265053Y-201134D01*
Y-197134D01*
G01X268510D02*
Y-201134D01*
G01X267168Y-197134D02*
X269852D01*
G01X274476Y-201134D02*
X272142D01*
Y-197134D01*
X274476D01*
G01X273542Y-199067D02*
X272142D01*
G01X276941Y-201134D02*
Y-197134D01*
X278400D01*
X278866Y-197334D01*
X279158Y-197601D01*
X279275Y-198134D01*
X279158Y-198667D01*
X278808Y-199001D01*
X278400Y-199201D01*
X276941D01*
G01X278400D02*
X279275Y-201134D01*
G01X281565D02*
Y-197134D01*
X284249Y-201134D01*
Y-197134D01*
G01X286248Y-201134D02*
X287706Y-197134D01*
X289164Y-201134D01*
G01X288639Y-199734D02*
X286773D01*
G01X291338Y-197134D02*
Y-201134D01*
X293672D01*
G01X300820Y-197134D02*
Y-200001D01*
X301053Y-200601D01*
X301520Y-201001D01*
X302103Y-201134D01*
X302686Y-201001D01*
X303153Y-200601D01*
X303386Y-200001D01*
Y-197134D01*
G01X305677Y-200601D02*
X306144Y-200934D01*
X306669Y-201134D01*
X307135D01*
X307602Y-200934D01*
X307952Y-200601D01*
X308127Y-200134D01*
X308010Y-199667D01*
X307719Y-199267D01*
X307194Y-199001D01*
X306494Y-198867D01*
X306085Y-198601D01*
X305910Y-198134D01*
X306027Y-197667D01*
X306319Y-197334D01*
X306727Y-197134D01*
X307135D01*
X307544Y-197267D01*
X307894Y-197601D01*
G01X312868Y-201134D02*
X310534D01*
Y-197134D01*
X312868D01*
G01X311934Y-199067D02*
X310534D01*
G01X321299Y-201134D02*
X320832Y-201067D01*
X320424Y-200801D01*
X320074Y-200401D01*
X319841Y-199934D01*
X319724Y-199401D01*
Y-198867D01*
X319841Y-198334D01*
X320074Y-197867D01*
X320424Y-197467D01*
X320832Y-197201D01*
X321299Y-197134D01*
X321766Y-197201D01*
X322174Y-197467D01*
X322524Y-197867D01*
X322757Y-198334D01*
X322874Y-198867D01*
Y-199401D01*
X322757Y-199934D01*
X322524Y-200401D01*
X322174Y-200801D01*
X321766Y-201067D01*
X321299Y-201134D01*
G01X324756D02*
Y-197134D01*
X327440Y-201134D01*
Y-197134D01*
G01X329730D02*
Y-201134D01*
X332064D01*
G01X335696D02*
Y-199334D01*
X334529Y-197134D01*
G01X336863D02*
X335696Y-199334D01*
G01X340787Y-202467D02*
X341370Y-201801D01*
X341662Y-201134D01*
Y-198467D01*
X341370Y-197801D01*
X340787Y-197134D01*
G01X161182Y-186467D02*
X164682D01*
G01X165981D02*
X169481D01*
G01X170780D02*
X174280D01*
G01X180961Y-185134D02*
Y-181134D01*
X182361D01*
X182828Y-181334D01*
X183178Y-181801D01*
X183295Y-182334D01*
X183178Y-182867D01*
X182886Y-183267D01*
X182361Y-183467D01*
X180961D01*
G01X185644Y-181134D02*
Y-184001D01*
X185877Y-184601D01*
X186344Y-185001D01*
X186927Y-185134D01*
X187510Y-185001D01*
X187977Y-184601D01*
X188210Y-184001D01*
Y-181134D01*
G01X192193Y-183001D02*
X192426Y-182801D01*
X192601Y-182467D01*
X192718Y-182001D01*
X192601Y-181601D01*
X192368Y-181334D01*
X191959Y-181134D01*
X190384D01*
Y-185134D01*
X192309D01*
X192718Y-184867D01*
X192951Y-184467D01*
X193068Y-184001D01*
X192951Y-183534D01*
X192601Y-183134D01*
X192193Y-183001D01*
X190384D01*
G01X195825Y-181134D02*
X197225D01*
G01X196525D02*
Y-185134D01*
G01X195825D02*
X197225D01*
G01X205831Y-186467D02*
X205248Y-185801D01*
X204956Y-185134D01*
Y-182467D01*
X205248Y-181801D01*
X205831Y-181134D01*
G01X209755Y-185134D02*
Y-181134D01*
X211155D01*
X211622Y-181334D01*
X211972Y-181801D01*
X212089Y-182334D01*
X211972Y-182867D01*
X211680Y-183267D01*
X211155Y-183467D01*
X209755D01*
G01X214438Y-181134D02*
Y-184001D01*
X214671Y-184601D01*
X215138Y-185001D01*
X215721Y-185134D01*
X216304Y-185001D01*
X216771Y-184601D01*
X217004Y-184001D01*
Y-181134D01*
G01X220987Y-183001D02*
X221220Y-182801D01*
X221395Y-182467D01*
X221512Y-182001D01*
X221395Y-181601D01*
X221162Y-181334D01*
X220753Y-181134D01*
X219178D01*
Y-185134D01*
X221103D01*
X221512Y-184867D01*
X221745Y-184467D01*
X221862Y-184001D01*
X221745Y-183534D01*
X221395Y-183134D01*
X220987Y-183001D01*
X219178D01*
G01X224152Y-181134D02*
Y-185134D01*
X226486D01*
G01X229418Y-181134D02*
X230818D01*
G01X230118D02*
Y-185134D01*
G01X229418D02*
X230818D01*
G01X236200Y-181467D02*
X235850Y-181267D01*
X235442Y-181134D01*
X234975D01*
X234450Y-181334D01*
X234042Y-181667D01*
X233750Y-182067D01*
X233517Y-182734D01*
X233459Y-183334D01*
X233575Y-183934D01*
X233750Y-184334D01*
X234100Y-184734D01*
X234509Y-185001D01*
X234917Y-185134D01*
X235325D01*
X235734Y-185001D01*
X236084Y-184801D01*
X236375Y-184534D01*
G01X243815Y-181134D02*
X245215D01*
G01X244515D02*
Y-185134D01*
G01X243815D02*
X245215D01*
G01X247972D02*
Y-181134D01*
X250656Y-185134D01*
Y-181134D01*
G01X253005Y-185134D02*
Y-181134D01*
X255221D01*
G01X254405Y-183067D02*
X253005D01*
G01X258912Y-185134D02*
X258445Y-185067D01*
X258037Y-184801D01*
X257687Y-184401D01*
X257454Y-183934D01*
X257337Y-183401D01*
Y-182867D01*
X257454Y-182334D01*
X257687Y-181867D01*
X258037Y-181467D01*
X258445Y-181201D01*
X258912Y-181134D01*
X259379Y-181201D01*
X259787Y-181467D01*
X260137Y-181867D01*
X260370Y-182334D01*
X260487Y-182867D01*
Y-183401D01*
X260370Y-183934D01*
X260137Y-184401D01*
X259787Y-184801D01*
X259379Y-185067D01*
X258912Y-185134D01*
G01X262544D02*
Y-181134D01*
X264003D01*
X264469Y-181334D01*
X264761Y-181601D01*
X264878Y-182134D01*
X264761Y-182667D01*
X264411Y-183001D01*
X264003Y-183201D01*
X262544D01*
G01X264003D02*
X264878Y-185134D01*
G01X266993D02*
Y-181134D01*
X268510Y-184467D01*
X270027Y-181134D01*
Y-185134D01*
G01X271851D02*
X273309Y-181134D01*
X274767Y-185134D01*
G01X274242Y-183734D02*
X272376D01*
G01X278108Y-181134D02*
Y-185134D01*
G01X276766Y-181134D02*
X279450D01*
G01X282207D02*
X283607D01*
G01X282907D02*
Y-185134D01*
G01X282207D02*
X283607D01*
G01X287706D02*
X287239Y-185067D01*
X286831Y-184801D01*
X286481Y-184401D01*
X286248Y-183934D01*
X286131Y-183401D01*
Y-182867D01*
X286248Y-182334D01*
X286481Y-181867D01*
X286831Y-181467D01*
X287239Y-181201D01*
X287706Y-181134D01*
X288173Y-181201D01*
X288581Y-181467D01*
X288931Y-181867D01*
X289164Y-182334D01*
X289281Y-182867D01*
Y-183401D01*
X289164Y-183934D01*
X288931Y-184401D01*
X288581Y-184801D01*
X288173Y-185067D01*
X287706Y-185134D01*
G01X291163D02*
Y-181134D01*
X293847Y-185134D01*
Y-181134D01*
G01X297596Y-186467D02*
X298179Y-185801D01*
X298471Y-185134D01*
Y-182467D01*
X298179Y-181801D01*
X297596Y-181134D01*
G01X201590Y-233134D02*
Y-229134D01*
X204274Y-233134D01*
Y-229134D01*
G01X206448D02*
Y-232001D01*
X206681Y-232601D01*
X207148Y-233001D01*
X207731Y-233134D01*
X208314Y-233001D01*
X208781Y-232601D01*
X209014Y-232001D01*
Y-229134D01*
G01X211013Y-233134D02*
Y-229134D01*
X212530Y-232467D01*
X214047Y-229134D01*
Y-233134D01*
G01X217796Y-231001D02*
X218029Y-230801D01*
X218204Y-230467D01*
X218321Y-230001D01*
X218204Y-229601D01*
X217971Y-229334D01*
X217562Y-229134D01*
X215987D01*
Y-233134D01*
X217912D01*
X218321Y-232867D01*
X218554Y-232467D01*
X218671Y-232001D01*
X218554Y-231534D01*
X218204Y-231134D01*
X217796Y-231001D01*
X215987D01*
G01X223295Y-233134D02*
X220961D01*
Y-229134D01*
X223295D01*
G01X222361Y-231067D02*
X220961D01*
G01X225760Y-233134D02*
Y-229134D01*
X227219D01*
X227685Y-229334D01*
X227977Y-229601D01*
X228094Y-230134D01*
X227977Y-230667D01*
X227627Y-231001D01*
X227219Y-231201D01*
X225760D01*
G01X227219D02*
X228094Y-233134D01*
G01X236532Y-240134D02*
Y-233835D01*
X235592Y-235095D01*
G01Y-240134D02*
X237473D01*
G01X242675D02*
X242831Y-238769D01*
X243067Y-237615D01*
X243380Y-236565D01*
X243772Y-235410D01*
X244399Y-233835D01*
X241264D01*
G01X249130D02*
X248504Y-234045D01*
X248034Y-234570D01*
X247720Y-235200D01*
X247485Y-236040D01*
X247407Y-236985D01*
X247485Y-237929D01*
X247720Y-238769D01*
X248034Y-239399D01*
X248504Y-239924D01*
X249130Y-240134D01*
X249757Y-239924D01*
X250227Y-239399D01*
X250541Y-238769D01*
X250776Y-237929D01*
X250854Y-236985D01*
X250776Y-236040D01*
X250541Y-235200D01*
X250227Y-234570D01*
X249757Y-234045D01*
X249130Y-233835D01*
G01X254411Y-238034D02*
X256448D01*
G01X260240Y-234885D02*
X260710Y-234255D01*
X261258Y-233940D01*
X261885Y-233835D01*
X262669Y-234045D01*
X263217Y-234570D01*
X263374Y-235200D01*
X263296Y-235830D01*
X262982Y-236355D01*
X261415Y-237404D01*
X260710Y-238139D01*
X260240Y-239189D01*
X260083Y-240134D01*
X263374D01*
G01X267871D02*
X268027Y-238769D01*
X268263Y-237615D01*
X268576Y-236565D01*
X268968Y-235410D01*
X269595Y-233835D01*
X266460D01*
G01X275267Y-240134D02*
Y-233835D01*
X272368Y-238349D01*
X276285D01*
G01X278902Y-239189D02*
X279372Y-239714D01*
X279920Y-240029D01*
X280625Y-240134D01*
X281331Y-239924D01*
X281879Y-239504D01*
X282271Y-238769D01*
X282349Y-237929D01*
X282193Y-237090D01*
X281801Y-236565D01*
X281252Y-236145D01*
X280704Y-236040D01*
X280155Y-236145D01*
X279450Y-236565D01*
X279685Y-233835D01*
X281801D01*
G01X285436Y-234885D02*
X285906Y-234255D01*
X286454Y-233940D01*
X287081Y-233835D01*
X287865Y-234045D01*
X288413Y-234570D01*
X288570Y-235200D01*
X288492Y-235830D01*
X288178Y-236355D01*
X286611Y-237404D01*
X285906Y-238139D01*
X285436Y-239189D01*
X285279Y-240134D01*
X288570D01*
G01X329450D02*
Y-233835D01*
X331409D01*
X332036Y-234150D01*
X332428Y-234570D01*
X332585Y-235410D01*
X332428Y-236250D01*
X331958Y-236774D01*
X331409Y-237090D01*
X329450D01*
G01X331409D02*
X332585Y-240134D01*
G01X338884D02*
X335749D01*
Y-233835D01*
X338884D01*
G01X337630Y-236879D02*
X335749D01*
G01X341657Y-233835D02*
X343615Y-240134D01*
X345574Y-233835D01*
G01X356840Y-236774D02*
X357154Y-236460D01*
X357389Y-235935D01*
X357546Y-235200D01*
X357389Y-234570D01*
X357075Y-234150D01*
X356527Y-233835D01*
X354411D01*
Y-240134D01*
X356997D01*
X357546Y-239714D01*
X357859Y-239084D01*
X358016Y-238349D01*
X357859Y-237615D01*
X357389Y-236985D01*
X356840Y-236774D01*
X354411D01*
G01X236495Y-167134D02*
Y-160835D01*
X238532Y-166084D01*
X240570Y-160835D01*
Y-167134D01*
G01X246555Y-161360D02*
X246085Y-161045D01*
X245537Y-160835D01*
X244910D01*
X244205Y-161150D01*
X243656Y-161675D01*
X243264Y-162305D01*
X242951Y-163355D01*
X242873Y-164299D01*
X243029Y-165244D01*
X243264Y-165874D01*
X243735Y-166504D01*
X244283Y-166924D01*
X244831Y-167134D01*
X245380D01*
X245928Y-166924D01*
X246399Y-166609D01*
X246790Y-166189D01*
G01X250190Y-160835D02*
X252071D01*
G01X251130D02*
Y-167134D01*
G01X250190D02*
X252071D01*
G01X255392D02*
Y-160835D01*
X257429Y-166084D01*
X259467Y-160835D01*
Y-167134D01*
G01X262083D02*
X265374Y-160835D01*
G01X262083D02*
X265374Y-167134D01*
G01X268539Y-164510D02*
X269087Y-163774D01*
X269557Y-163355D01*
X270184Y-163145D01*
X270733Y-163355D01*
X271124Y-163774D01*
X271438Y-164404D01*
X271516Y-165139D01*
X271438Y-165769D01*
X271124Y-166399D01*
X270654Y-166924D01*
X270106Y-167134D01*
X269479Y-166924D01*
X268931Y-166294D01*
X268617Y-165349D01*
X268539Y-164299D01*
X268695Y-162935D01*
X268931Y-162200D01*
X269322Y-161465D01*
X269871Y-160940D01*
X270419Y-160835D01*
X270968Y-161045D01*
X271360Y-161570D01*
G01X274681Y-166294D02*
X275308Y-166819D01*
X276013Y-167134D01*
X276640D01*
X277267Y-166819D01*
X277737Y-166294D01*
X277972Y-165559D01*
X277815Y-164824D01*
X277423Y-164195D01*
X276718Y-163774D01*
X275778Y-163565D01*
X275230Y-163145D01*
X274994Y-162410D01*
X275151Y-161675D01*
X275543Y-161150D01*
X276091Y-160835D01*
X276640D01*
X277188Y-161045D01*
X277659Y-161570D01*
G01X281058Y-160835D02*
Y-167134D01*
X284193D01*
G01X290492D02*
X287357D01*
Y-160835D01*
X290492D01*
G01X289238Y-163879D02*
X287357D01*
G01X293265Y-160835D02*
X295223Y-167134D01*
X297182Y-160835D01*
G01X299799Y-167134D02*
Y-160835D01*
G01X302776D02*
X299799Y-164720D01*
G01X303246Y-167134D02*
X301131Y-162935D01*
G54D30*
X50329Y246815D03*
X56431D03*
X76229Y418513D03*
X82331D03*
X76005Y412131D03*
X82107D03*
X384464Y374905D03*
X390566D03*
X416729Y361315D03*
X422831D03*
X451349Y136400D03*
X457451D03*
G54D105*
X472180Y311319D03*
G54D21*
X28850Y142100D03*
X436780Y209815D03*
G54D12*
X-8300Y14100D03*
Y24100D03*
Y34100D03*
X-8200Y65600D03*
Y55600D03*
Y85600D03*
Y95600D03*
X-8000Y130000D03*
X-8100Y118200D03*
X-8140Y161050D03*
X-8200Y187900D03*
X-8100Y194800D03*
X-8300Y206200D03*
X-8000Y212900D03*
X-8100Y223000D03*
X-8200Y230600D03*
Y260600D03*
Y250600D03*
Y240600D03*
Y270600D03*
Y280600D03*
Y300600D03*
Y290600D03*
Y320600D03*
Y310600D03*
Y340600D03*
Y330600D03*
Y360600D03*
Y350600D03*
Y380600D03*
Y370600D03*
Y400600D03*
Y390600D03*
X29000Y-8000D03*
X12000Y-8300D03*
X21500Y-8500D03*
X24300Y420000D03*
X14300D03*
X36100Y-8000D03*
X37481Y199715D03*
X44300Y420000D03*
X34300D03*
X55400Y-7900D03*
X67700Y-8000D03*
X66600Y165500D03*
X69290Y400500D03*
X54300Y420000D03*
X77400Y-7900D03*
X88100Y-8000D03*
X80900Y186700D03*
X86750Y233315D03*
X106200Y-8200D03*
X114300Y420000D03*
X104300D03*
X128600Y-8000D03*
X115700Y-8100D03*
X115200Y189600D03*
X134300Y420000D03*
X124300D03*
X142000Y-8300D03*
X143500Y131900D03*
X148700Y125600D03*
X137804Y380315D03*
X150756Y380415D03*
X154300Y420000D03*
X144300D03*
X162000Y-8300D03*
X172000D03*
X165100Y71000D03*
X158000Y71400D03*
X169900Y79550D03*
X170100Y136750D03*
X176450Y286200D03*
X176400Y291100D03*
X176450Y296300D03*
X176513Y301213D03*
X176567Y306306D03*
X176400Y311104D03*
Y316104D03*
Y321200D03*
X177804Y380189D03*
X174300Y420000D03*
X164300D03*
X187000Y-8300D03*
X182400Y81700D03*
X197804Y379989D03*
X194300Y420000D03*
X184300D03*
X210050Y137800D03*
X204300Y273200D03*
X205350Y290900D03*
X219592Y322000D03*
X210600Y321600D03*
X203300Y333250D03*
X211180Y355215D03*
X211080Y370215D03*
X214300Y420000D03*
X204300D03*
X225500Y102984D03*
X228196Y101400D03*
X228400Y283123D03*
X230780Y380015D03*
X234300Y420000D03*
X224300D03*
X258000Y32450D03*
X254300Y420000D03*
X244300D03*
X277000Y39284D03*
X273500Y28984D03*
X280500Y28500D03*
X268600Y117250D03*
X278600Y233900D03*
X270280Y333215D03*
X266732Y357750D03*
X284300Y420000D03*
X274300D03*
X264300D03*
X291800Y37784D03*
X299280Y28000D03*
X295780Y28300D03*
X304300Y420000D03*
X294300D03*
X318600Y28400D03*
X312050Y27950D03*
X324300Y420000D03*
X314300D03*
X330300Y-8000D03*
X345300D03*
X344300Y420000D03*
X334300D03*
X353300Y-7900D03*
X365300Y-8000D03*
X352264Y96864D03*
X364300Y420000D03*
X354300D03*
X375300Y-8000D03*
X385300D03*
X390200Y196100D03*
X386400Y196000D03*
X387550Y349200D03*
X384300Y420000D03*
X374300D03*
X395300Y-8000D03*
X405300D03*
X404300Y420000D03*
X394300D03*
X415300Y-8000D03*
X425300D03*
X424300Y420000D03*
X414300D03*
X435300Y-8000D03*
X445300D03*
X454300Y420000D03*
X444300D03*
X434300D03*
X455300Y-8000D03*
X465300D03*
X464300Y420000D03*
X483900Y12000D03*
X484200Y44400D03*
Y54400D03*
Y64400D03*
Y74400D03*
Y84400D03*
Y94400D03*
Y104400D03*
Y114400D03*
Y124400D03*
Y159400D03*
Y169400D03*
Y179400D03*
Y189400D03*
Y199400D03*
Y209400D03*
Y219400D03*
Y229400D03*
Y239400D03*
Y299400D03*
Y309400D03*
Y319400D03*
Y329400D03*
Y339400D03*
Y349400D03*
Y359400D03*
Y369400D03*
Y379400D03*
Y389400D03*
Y399400D03*
G54D31*
X64400Y77184D03*
X70400D03*
X200100Y325700D03*
X194100D03*
X298900Y78600D03*
X304900D03*
X449255Y257028D03*
X455255D03*
G54D106*
X470815Y356990D03*
G54D40*
X86000Y366400D03*
X79900Y366300D03*
X156880Y28099D03*
X148880D03*
X140880D03*
X199400Y274750D03*
X205900Y75184D03*
X260500Y403500D03*
X272100Y40484D03*
X272400Y55700D03*
X278900Y61200D03*
X272500Y68000D03*
X278900Y74000D03*
X286080Y305915D03*
X317100Y286000D03*
X400200Y381400D03*
G54D13*
X-5070Y41899D03*
Y77699D03*
Y103415D03*
Y139215D03*
X12630Y41899D03*
Y77699D03*
Y103415D03*
Y139215D03*
G54D22*
X28850Y152100D03*
Y162100D03*
Y172100D03*
X436780Y192095D03*
Y199975D03*
Y182255D03*
G54D41*
X82166Y389210D03*
G54D32*
X58559Y176800D03*
X53441D03*
X77123Y405737D03*
X82241D03*
X110221Y356815D03*
X129221Y332315D03*
X134339D03*
X115339Y356815D03*
X220039Y365815D03*
X214921D03*
X220039Y360215D03*
X214921D03*
X421193Y213513D03*
X416075D03*
X452921Y294915D03*
X458039D03*
G54D107*
X468567Y367112D03*
Y370852D03*
G54D23*
X26622Y194409D03*
G54D14*
X-5268Y181811D03*
Y218425D03*
X14417Y214881D03*
G54D50*
X206702Y6031D03*
X231702D03*
X285402D03*
X310402D03*
G54D42*
X89061Y380075D03*
X87091D03*
X85121D03*
X83151D03*
X81181D03*
X79211D03*
X77241D03*
X75271D03*
Y398345D03*
X77241D03*
X79211D03*
X81181D03*
X83151D03*
X85121D03*
X87091D03*
X89061D03*
G54D15*
X6280Y207839D03*
Y210791D03*
X1780D03*
Y207839D03*
X52900Y78560D03*
Y75608D03*
X58200Y78560D03*
Y75608D03*
X62250Y117476D03*
Y114524D03*
X53900Y133208D03*
Y129860D03*
Y126908D03*
X71900Y138460D03*
Y135508D03*
X62500Y138408D03*
Y141360D03*
X53900Y136160D03*
X69800Y184576D03*
Y181624D03*
X66230Y181191D03*
Y178239D03*
X65930Y397439D03*
Y400391D03*
X72250Y117526D03*
Y114574D03*
X85600Y114524D03*
Y117476D03*
X77700Y114624D03*
Y117576D03*
X81500Y132908D03*
Y135860D03*
X125750Y91476D03*
Y88524D03*
X133680Y120923D03*
Y117971D03*
X134280Y344291D03*
Y341339D03*
X130280D03*
Y344291D03*
X123400Y353424D03*
Y356376D03*
X115000Y382926D03*
Y379974D03*
X148680Y120923D03*
Y117971D03*
X138680D03*
Y120923D03*
X163700Y90260D03*
Y87308D03*
X169900Y72208D03*
Y75160D03*
X173820Y126423D03*
Y129375D03*
X176900Y134424D03*
Y137376D03*
X199100Y74960D03*
Y72008D03*
X193300Y75060D03*
Y72108D03*
X182400Y72208D03*
Y75160D03*
X178820Y129375D03*
Y126423D03*
X180700Y137376D03*
Y134424D03*
X179200Y146326D03*
Y143374D03*
X207800Y324174D03*
Y327126D03*
X243400Y243724D03*
Y246676D03*
X263780Y31523D03*
Y34475D03*
X280500Y34460D03*
Y31508D03*
X295780Y31323D03*
Y34275D03*
X299280Y31323D03*
Y34275D03*
X288580Y320191D03*
Y317239D03*
X318600Y34275D03*
Y31323D03*
X314800D03*
Y34275D03*
X315280Y88323D03*
Y91275D03*
X311380Y289691D03*
Y286739D03*
X317900Y294876D03*
Y291924D03*
X321600Y295176D03*
Y292224D03*
X306580Y289691D03*
Y286739D03*
X329280Y320191D03*
Y317239D03*
X338980D03*
Y320191D03*
X334780Y317239D03*
Y320191D03*
X381280Y135839D03*
Y138791D03*
X376780Y135839D03*
Y138791D03*
X384600Y259024D03*
X388700D03*
X384600Y261976D03*
X388700D03*
X410880Y135539D03*
Y138491D03*
X392900Y259024D03*
Y261976D03*
X401200Y362126D03*
Y359174D03*
X404673Y359164D03*
Y362116D03*
X414880Y135539D03*
Y138491D03*
X442800Y134924D03*
Y137876D03*
X434280Y359839D03*
Y362791D03*
X463780Y135839D03*
Y138791D03*
X468280Y135839D03*
Y138791D03*
X461800Y379124D03*
Y382076D03*
X458100D03*
Y379124D03*
X465800D03*
Y382076D03*
G54D108*
X463606Y371230D03*
Y373790D03*
Y368670D03*
X456126D03*
Y371230D03*
Y373790D03*
G54D60*
X196850Y315366D03*
G54D24*
X10028Y233177D03*
Y391169D03*
X179536Y-4441D03*
X337528D03*
G54D33*
X65135Y196165D03*
Y194196D03*
Y192228D03*
Y190259D03*
X63166Y196165D03*
Y194196D03*
Y192228D03*
Y190259D03*
X61198Y196165D03*
Y194196D03*
Y192228D03*
Y190259D03*
X59229Y196165D03*
Y194196D03*
Y192228D03*
Y190259D03*
X57260Y196165D03*
Y194196D03*
Y192228D03*
Y190259D03*
X55292Y196165D03*
Y194196D03*
Y192228D03*
Y190259D03*
X53323Y196165D03*
Y194196D03*
Y192228D03*
Y190259D03*
X65135Y202071D03*
Y200102D03*
Y198134D03*
X63166Y202071D03*
Y200102D03*
Y198134D03*
X61198Y202071D03*
Y200102D03*
Y198134D03*
X59229Y202071D03*
Y200102D03*
Y198134D03*
X57260Y202071D03*
Y200102D03*
Y198134D03*
X55292Y202071D03*
Y200102D03*
Y198134D03*
X53323Y202071D03*
Y200102D03*
Y198134D03*
X220441Y174567D03*
X222410D03*
X224378D03*
X226347D03*
X228315D03*
X230284D03*
X232252D03*
X238158D03*
X240126D03*
X220441Y172599D03*
X222410D03*
X224378D03*
X230284D03*
X232252D03*
X238158D03*
X240126D03*
X220441Y170630D03*
X222410D03*
X224378D03*
X230284D03*
X232252D03*
X238158D03*
X240126D03*
X220441Y168662D03*
X222410D03*
X224378D03*
X226347D03*
X228315D03*
X230284D03*
X232252D03*
X234221D03*
X236189D03*
X238158D03*
X240126D03*
X220441Y166693D03*
X222410D03*
X224378D03*
X226347D03*
X228315D03*
X230284D03*
X232252D03*
X234221D03*
X236189D03*
X238158D03*
X240126D03*
X220441Y196221D03*
X222410D03*
X224378D03*
X226347D03*
X228315D03*
X230284D03*
X232252D03*
X234221D03*
X236189D03*
X238158D03*
X240126D03*
X220441Y194252D03*
X222410D03*
X232252D03*
X234221D03*
X236189D03*
X238158D03*
X240126D03*
X220441Y192284D03*
X222410D03*
X232252D03*
X236189D03*
X238158D03*
X240126D03*
X220441Y190315D03*
X222410D03*
X224378D03*
X226347D03*
X228315D03*
X230284D03*
X232252D03*
X234221D03*
X236189D03*
X238158D03*
X240126D03*
X220441Y188347D03*
X222410D03*
X224378D03*
X226347D03*
X228315D03*
X230284D03*
X232252D03*
X234221D03*
X236189D03*
X238158D03*
X240126D03*
X220441Y186378D03*
X222410D03*
X232252D03*
X236189D03*
X238158D03*
X240126D03*
X220441Y184410D03*
X222410D03*
X232252D03*
X234221D03*
X236189D03*
X238158D03*
X240126D03*
X220441Y182441D03*
X222410D03*
X224378D03*
X226347D03*
X228315D03*
X230284D03*
X232252D03*
X234221D03*
X236189D03*
X238158D03*
X240126D03*
X220441Y180473D03*
X222410D03*
X224378D03*
X226347D03*
X228315D03*
X230284D03*
X232252D03*
X238158D03*
X240126D03*
X220441Y178504D03*
X222410D03*
X232252D03*
X234221D03*
X236189D03*
X238158D03*
X240126D03*
X220441Y176536D03*
X222410D03*
X232252D03*
X238158D03*
X240126D03*
X220441Y211969D03*
X222410D03*
X224378D03*
X226347D03*
X228315D03*
X230284D03*
X232252D03*
X234221D03*
X236189D03*
X238158D03*
X240126D03*
X220441Y210000D03*
X222410D03*
X224378D03*
X226347D03*
X228315D03*
X230284D03*
X232252D03*
X234221D03*
X236189D03*
X238158D03*
X240126D03*
X220441Y208032D03*
X222410D03*
X224378D03*
X230284D03*
X232252D03*
X238158D03*
X240126D03*
X220441Y206063D03*
X222410D03*
X224378D03*
X230284D03*
X232252D03*
X238158D03*
X240126D03*
X220441Y204095D03*
X222410D03*
X224378D03*
X226347D03*
X228315D03*
X230284D03*
X232252D03*
X238158D03*
X240126D03*
X220441Y202126D03*
X222410D03*
X232252D03*
X238158D03*
X240126D03*
X220441Y200158D03*
X222410D03*
X232252D03*
X234221D03*
X236189D03*
X238158D03*
X240126D03*
X220441Y198189D03*
X222410D03*
X224378D03*
X226347D03*
X228315D03*
X230284D03*
X232252D03*
X238158D03*
X240126D03*
X246032Y174567D03*
X248000D03*
X253906D03*
X255874D03*
X257843D03*
X259811D03*
X261780D03*
X246032Y172599D03*
X248000D03*
X253906D03*
X255874D03*
X261780D03*
X246032Y170630D03*
X248000D03*
X253906D03*
X255874D03*
X261780D03*
X242095Y168662D03*
X244063D03*
X246032D03*
X248000D03*
X249969D03*
X251937D03*
X253906D03*
X255874D03*
X257843D03*
X259811D03*
X261780D03*
X242095Y166693D03*
X244063D03*
X246032D03*
X248000D03*
X249969D03*
X251937D03*
X253906D03*
X255874D03*
X257843D03*
X259811D03*
X261780D03*
X242095Y196221D03*
X244063D03*
X246032D03*
X248000D03*
X249969D03*
X251937D03*
X253906D03*
X255874D03*
X257843D03*
X259811D03*
X261780D03*
X242095Y194252D03*
X244063D03*
X246032D03*
X248000D03*
X249969D03*
X251937D03*
X253906D03*
X242095Y192284D03*
X244063D03*
X246032D03*
X248000D03*
X249969D03*
X253906D03*
X242095Y190315D03*
X244063D03*
X246032D03*
X248000D03*
X249969D03*
X251937D03*
X253906D03*
X255874D03*
X257843D03*
X259811D03*
X261780D03*
X242095Y188347D03*
X244063D03*
X246032D03*
X248000D03*
X249969D03*
X251937D03*
X253906D03*
X255874D03*
X257843D03*
X259811D03*
X261780D03*
X242095Y186378D03*
X244063D03*
X246032D03*
X248000D03*
X249969D03*
X253906D03*
X242095Y184410D03*
X244063D03*
X246032D03*
X248000D03*
X249969D03*
X251937D03*
X253906D03*
X242095Y182441D03*
X244063D03*
X246032D03*
X248000D03*
X249969D03*
X251937D03*
X253906D03*
X255874D03*
X257843D03*
X259811D03*
X261780D03*
X246032Y180473D03*
X248000D03*
X253906D03*
X255874D03*
X257843D03*
X259811D03*
X261780D03*
X242095Y178504D03*
X244063D03*
X246032D03*
X248000D03*
X249969D03*
X251937D03*
X253906D03*
X246032Y176536D03*
X248000D03*
X253906D03*
X242095Y211969D03*
X244063D03*
X246032D03*
X248000D03*
X249969D03*
X251937D03*
X253906D03*
X255874D03*
X257843D03*
X259811D03*
X261780D03*
X242095Y210000D03*
X244063D03*
X246032D03*
X248000D03*
X249969D03*
X251937D03*
X253906D03*
X255874D03*
X257843D03*
X259811D03*
X261780D03*
X246032Y208032D03*
X248000D03*
X253906D03*
X255874D03*
X261780D03*
X246032Y206063D03*
X248000D03*
X253906D03*
X255874D03*
X261780D03*
X246032Y204095D03*
X248000D03*
X253906D03*
X255874D03*
X257843D03*
X259811D03*
X261780D03*
X246032Y202126D03*
X248000D03*
X253906D03*
X242095Y200158D03*
X244063D03*
X246032D03*
X248000D03*
X249969D03*
X251937D03*
X253906D03*
X246032Y198189D03*
X248000D03*
X253906D03*
X255874D03*
X257843D03*
X259811D03*
X261780D03*
X263748Y174567D03*
X265717D03*
X263748Y172599D03*
X265717D03*
X263748Y170630D03*
X265717D03*
X263748Y168662D03*
X265717D03*
X263748Y166693D03*
X265717D03*
X263748Y196221D03*
X265717D03*
X263748Y194252D03*
X265717D03*
X263748Y192284D03*
X265717D03*
X263748Y190315D03*
X265717D03*
X263748Y188347D03*
X265717D03*
X263748Y186378D03*
X265717D03*
X263748Y184410D03*
X265717D03*
X263748Y182441D03*
X265717D03*
X263748Y180473D03*
X265717D03*
X263748Y178504D03*
X265717D03*
X263748Y176536D03*
X265717D03*
X263748Y211969D03*
X265717D03*
X263748Y210000D03*
X265717D03*
X263748Y208032D03*
X265717D03*
X263748Y206063D03*
X265717D03*
X263748Y204095D03*
X265717D03*
X263748Y202126D03*
X265717D03*
X263748Y200158D03*
X265717D03*
X263748Y198189D03*
X265717D03*
X286614Y175551D03*
X288583D03*
X286614Y173583D03*
X288583D03*
X286614Y171614D03*
X288583D03*
X286614Y169646D03*
X288583D03*
X290551D03*
X292520D03*
X294488D03*
X296457D03*
X298425D03*
X300394D03*
X302362D03*
X304331D03*
X286614Y167677D03*
X288583D03*
X290551D03*
X292520D03*
X294488D03*
X296457D03*
X298425D03*
X300394D03*
X302362D03*
X304331D03*
X286614Y197205D03*
X288583D03*
X286614Y195237D03*
X288583D03*
X286614Y193268D03*
X288583D03*
X286614Y191300D03*
X288583D03*
X286614Y189331D03*
X288583D03*
X286614Y187362D03*
X288583D03*
X286614Y185394D03*
X288583D03*
X286614Y183425D03*
X288583D03*
X286614Y181457D03*
X288583D03*
X286614Y179488D03*
X288583D03*
X286614Y177520D03*
X288583D03*
X286614Y210985D03*
X288583D03*
X290551D03*
X292520D03*
X294488D03*
X296457D03*
X298425D03*
X300394D03*
X302362D03*
X304331D03*
X286614Y209016D03*
X288583D03*
X290551D03*
X292520D03*
X294488D03*
X296457D03*
X298425D03*
X300394D03*
X302362D03*
X304331D03*
X286614Y207048D03*
X288583D03*
X286614Y205079D03*
X288583D03*
X286614Y203111D03*
X288583D03*
X286614Y201142D03*
X288583D03*
X286614Y199174D03*
X288583D03*
X306299Y169646D03*
X308268D03*
X310237D03*
X312205D03*
X314174D03*
X316142D03*
X318111D03*
X320079D03*
X322048D03*
X324016D03*
X325985D03*
X306299Y167677D03*
X308268D03*
X310237D03*
X312205D03*
X314174D03*
X316142D03*
X318111D03*
X320079D03*
X322048D03*
X324016D03*
X325985D03*
X306299Y210985D03*
X308268D03*
X310237D03*
X312205D03*
X314174D03*
X316142D03*
X318111D03*
X320079D03*
X322048D03*
X324016D03*
X325985D03*
X306299Y209016D03*
X308268D03*
X310237D03*
X312205D03*
X314174D03*
X316142D03*
X318111D03*
X320079D03*
X322048D03*
X324016D03*
X325985D03*
X327953Y175551D03*
X329922D03*
X327953Y173583D03*
X329922D03*
X327953Y171614D03*
X329922D03*
X327953Y169646D03*
X329922D03*
X327953Y167677D03*
X329922D03*
X327953Y197205D03*
X329922D03*
X327953Y195237D03*
X329922D03*
X327953Y193268D03*
X329922D03*
X327953Y191300D03*
X329922D03*
X327953Y189331D03*
X329922D03*
X327953Y187362D03*
X329922D03*
X327953Y185394D03*
X329922D03*
X327953Y183425D03*
X329922D03*
X327953Y181457D03*
X329922D03*
X327953Y179488D03*
X329922D03*
X327953Y177520D03*
X329922D03*
X327953Y210985D03*
X329922D03*
X327953Y209016D03*
X329922D03*
X327953Y207048D03*
X329922D03*
X327953Y205079D03*
X329922D03*
X327953Y203111D03*
X329922D03*
X327953Y201142D03*
X329922D03*
X327953Y199174D03*
X329922D03*
G54D51*
X187469Y6031D03*
X250934D03*
X266170D03*
X329635D03*
G54D109*
X482292Y252718D03*
Y285592D03*
G54D52*
X190639Y-5229D03*
X192607D03*
X194576D03*
X196544D03*
X198513D03*
X190639Y17291D03*
X192607D03*
X194576D03*
X196544D03*
X198513D03*
X200481Y-5229D03*
X202450D03*
X204418D03*
X206387D03*
X208355D03*
X210324D03*
X212292D03*
X214261D03*
X216229D03*
X218198D03*
X220166D03*
X200481Y17291D03*
X202450D03*
X204418D03*
X206387D03*
X208355D03*
X210324D03*
X212292D03*
X214261D03*
X216229D03*
X218198D03*
X220166D03*
X222135Y-5229D03*
X224103D03*
X226072D03*
X228040D03*
X230009D03*
X231977D03*
X233946D03*
X235914D03*
X237883D03*
X239851D03*
X222135Y17291D03*
X224103D03*
X226072D03*
X228040D03*
X230009D03*
X231977D03*
X233946D03*
X235914D03*
X237883D03*
X239851D03*
X241820Y-5229D03*
X243788D03*
X245757D03*
X247725D03*
X241820Y17291D03*
X243788D03*
X245757D03*
X247725D03*
X269379Y-5229D03*
X271347D03*
X273316D03*
X275284D03*
X277253D03*
X279221D03*
X281190D03*
X283158D03*
X269379Y17291D03*
X271347D03*
X273316D03*
X275284D03*
X277253D03*
X279221D03*
X281190D03*
X283158D03*
X287095Y-5229D03*
X285127D03*
X289064D03*
X291032D03*
X293001D03*
X294969D03*
X296938D03*
X298906D03*
X300875D03*
X302843D03*
X304812D03*
X285127Y17291D03*
X287095D03*
X289064D03*
X291032D03*
X293001D03*
X294969D03*
X296938D03*
X298906D03*
X300875D03*
X302843D03*
X304812D03*
X306780Y-5229D03*
X308749D03*
X310717D03*
X312686D03*
X314654D03*
X316623D03*
X318591D03*
X320560D03*
X322528D03*
X324497D03*
X326465D03*
X306780Y17291D03*
X308749D03*
X310717D03*
X312686D03*
X314654D03*
X316623D03*
X318591D03*
X320560D03*
X322528D03*
X324497D03*
X326465D03*
G54D70*
X207500Y338451D03*
Y332349D03*
G54D43*
X73031Y382315D03*
Y384285D03*
Y386255D03*
Y388225D03*
X91301D03*
Y386255D03*
Y384285D03*
Y382315D03*
X73031Y390195D03*
Y392165D03*
Y394135D03*
Y396105D03*
X91301D03*
Y394135D03*
Y392165D03*
Y390195D03*
G54D61*
X197050Y336450D03*
X228926Y390072D03*
X347300Y137600D03*
X354280Y285685D03*
X360749Y373815D03*
X396325Y285685D03*
G54D34*
X54137Y223560D03*
G54D16*
X-5268Y200708D03*
X14417D03*
X116012Y79536D03*
X233252D03*
X350492D03*
G54D25*
X20500Y241070D03*
Y304535D03*
Y319771D03*
Y383236D03*
G54D62*
X213559Y231115D03*
X223401D03*
G54D80*
X305580Y304815D03*
G54D44*
X113060Y348015D03*
X110500D03*
X107940D03*
Y333615D03*
X110500D03*
X113060D03*
X115620Y348015D03*
Y333615D03*
G54D71*
X221444Y328941D03*
X237482Y274878D03*
X227940Y328941D03*
X243978Y274878D03*
G54D17*
X9240Y259988D03*
Y258019D03*
Y256051D03*
Y254082D03*
Y252114D03*
Y250145D03*
Y248177D03*
Y246208D03*
Y244240D03*
Y281641D03*
Y279673D03*
Y277704D03*
Y275736D03*
Y273767D03*
Y271799D03*
Y269830D03*
Y267862D03*
Y265893D03*
Y263925D03*
Y261956D03*
Y283610D03*
Y301326D03*
Y299358D03*
Y297389D03*
Y295421D03*
Y293452D03*
Y291484D03*
Y289515D03*
Y287547D03*
Y285578D03*
Y324948D03*
Y322980D03*
Y344633D03*
Y342665D03*
Y340696D03*
Y338728D03*
Y336759D03*
Y334791D03*
Y332822D03*
Y330854D03*
Y328885D03*
Y326917D03*
Y366287D03*
Y364318D03*
Y362350D03*
Y360381D03*
Y358413D03*
Y356444D03*
Y354476D03*
Y352507D03*
Y350539D03*
Y348570D03*
Y346602D03*
Y380066D03*
Y378098D03*
Y376129D03*
Y374161D03*
Y372192D03*
Y370224D03*
Y368255D03*
X31760Y259988D03*
Y258019D03*
Y256051D03*
Y254082D03*
Y252114D03*
Y250145D03*
Y248177D03*
Y246208D03*
Y244240D03*
Y281641D03*
Y279673D03*
Y277704D03*
Y275736D03*
Y273767D03*
Y271799D03*
Y269830D03*
Y267862D03*
Y265893D03*
Y263925D03*
Y261956D03*
Y301326D03*
Y299358D03*
Y297389D03*
Y295421D03*
Y293452D03*
Y291484D03*
Y289515D03*
Y287547D03*
Y285578D03*
Y283610D03*
Y324948D03*
Y322980D03*
Y344633D03*
Y342665D03*
Y340696D03*
Y338728D03*
Y336759D03*
Y334791D03*
Y332822D03*
Y330854D03*
Y328885D03*
Y326917D03*
Y366287D03*
Y364318D03*
Y362350D03*
Y360381D03*
Y358413D03*
Y356444D03*
Y354476D03*
Y352507D03*
Y350539D03*
Y348570D03*
Y346602D03*
Y380066D03*
Y378098D03*
Y376129D03*
Y374161D03*
Y372192D03*
Y370224D03*
Y368255D03*
G54D53*
X189701Y44437D03*
Y62153D03*
X223559Y44437D03*
Y62153D03*
G54D35*
X54137Y231040D03*
G54D26*
X20500Y260303D03*
Y285303D03*
Y339003D03*
Y364003D03*
G54D36*
X70902Y406096D03*
X88422D03*
G54D72*
X235750Y263700D03*
X229750Y337750D03*
X222150D03*
X243350Y263700D03*
X252100Y272400D03*
X259700D03*
G54D54*
X197969Y44830D03*
X196394D03*
X194819D03*
X193244D03*
X191669D03*
Y61760D03*
X193244D03*
X194819D03*
X196394D03*
X197969D03*
X220016Y44830D03*
X218441D03*
X216866D03*
X215291D03*
X213717D03*
X212142D03*
X210567D03*
X208992D03*
X207417D03*
X205843D03*
X204268D03*
X202693D03*
X201118D03*
X199543D03*
Y61760D03*
X201118D03*
X202693D03*
X204268D03*
X205843D03*
X207417D03*
X208992D03*
X210567D03*
X212142D03*
X213717D03*
X215291D03*
X216866D03*
X218441D03*
X220016D03*
X221591Y44830D03*
Y61760D03*
G54D45*
X111480Y367815D03*
X120080Y363815D03*
Y371815D03*
G54D81*
X304596Y297114D03*
X302627D03*
X300659D03*
X304596Y312516D03*
X302627D03*
X300659D03*
X306564Y297114D03*
X308533D03*
X310501D03*
Y312516D03*
X308533D03*
X306564D03*
G54D90*
X358780Y354315D03*
G54D63*
X214300Y246150D03*
Y253550D03*
X222200Y249850D03*
G54D27*
X33335Y79536D03*
X150575D03*
X267815D03*
X374559Y122595D03*
X449847Y69713D03*
G54D18*
X26482Y-1547D03*
Y16153D03*
Y38449D03*
Y56149D03*
Y88449D03*
Y106149D03*
X62282Y-1547D03*
Y16153D03*
Y38449D03*
Y56149D03*
Y88449D03*
Y106149D03*
X78982Y-1551D03*
Y16149D03*
Y38449D03*
Y56149D03*
Y88449D03*
Y106149D03*
X114782Y-1551D03*
Y16149D03*
Y38449D03*
Y56149D03*
Y88449D03*
Y106149D03*
X131482Y-1551D03*
Y16149D03*
Y38449D03*
Y56149D03*
X167282Y-1551D03*
Y16149D03*
Y38449D03*
Y56149D03*
G54D28*
X52100Y158400D03*
G54D46*
X131600Y307400D03*
X344700Y36800D03*
X421800Y338400D03*
G54D37*
X63225Y417907D03*
X96099D03*
G54D73*
X253609Y295295D03*
Y301791D03*
G54D91*
X356780Y405315D03*
X375280D03*
G54D55*
X180547Y53295D03*
X232713D03*
G54D19*
X23624Y30250D03*
X26576D03*
X12024Y88450D03*
X14976D03*
X40504Y196615D03*
X43456D03*
X45304Y343815D03*
X48256D03*
X45304Y351815D03*
X48256D03*
X45304Y347815D03*
X48256D03*
Y376815D03*
X45304D03*
Y372315D03*
X48256D03*
X45304Y368315D03*
X48256D03*
X71776Y147184D03*
X68824D03*
X51804Y284315D03*
X54756D03*
X57826Y343300D03*
X54874D03*
Y347800D03*
X57826D03*
X63304Y387498D03*
X66256D03*
X63204Y391198D03*
X66156D03*
X79298Y80848D03*
X76346D03*
X73824Y123184D03*
X76776D03*
X72224Y128084D03*
X75176D03*
X108424Y128484D03*
X111376D03*
X108424Y124384D03*
X111376D03*
X96706Y409588D03*
X99658D03*
X96706Y404836D03*
X99658D03*
X117726Y25250D03*
X114774D03*
X144624Y147200D03*
X147576D03*
X140756Y376365D03*
X137804D03*
X150756D03*
X147804D03*
X169224Y26250D03*
X172176D03*
X169224Y30100D03*
X172176D03*
X170276Y64200D03*
X167324D03*
X160306Y230715D03*
X157354D03*
X160106Y282715D03*
X157154D03*
X160156Y334965D03*
X157204D03*
X170756Y376365D03*
X167804D03*
X177804D03*
X157804D03*
X160756D03*
X182375Y238872D03*
X179423D03*
X182375Y233951D03*
X179423D03*
X182375Y258958D03*
X179423D03*
X182375Y254086D03*
X179423D03*
X182375Y248915D03*
X179423D03*
X182375Y244044D03*
X179423D03*
X182375Y269050D03*
X179423D03*
X182375Y263979D03*
X179423D03*
Y301115D03*
X182375D03*
X179423Y296244D03*
X182375D03*
X179423Y286151D03*
X182375D03*
X179423Y291072D03*
X182375D03*
X179423Y321250D03*
X182375D03*
X179423Y316179D03*
X182375D03*
X179423Y311158D03*
X182375D03*
X179423Y306286D03*
X182375D03*
Y338701D03*
X179423D03*
X182375Y343622D03*
X179423D03*
X182375Y363708D03*
X179423D03*
X182375Y358836D03*
X179423D03*
X182375Y353665D03*
X179423D03*
X182375Y348794D03*
X179423D03*
X182456Y372515D03*
X179504D03*
X182375Y368729D03*
X179423D03*
X197804Y376365D03*
X180756D03*
X187804D03*
X190756D03*
X219724Y80984D03*
X217524Y88684D03*
X220476D03*
X219724Y72984D03*
X214376Y77184D03*
X211424D03*
X219724Y77084D03*
X214376Y72984D03*
X211424D03*
X214504Y355215D03*
X217456D03*
X214404Y370150D03*
X217356D03*
X200756Y376365D03*
X217804D03*
X210756D03*
X207804D03*
X222676Y80984D03*
Y72984D03*
Y77084D03*
X239876Y323850D03*
X236924D03*
X230756Y376365D03*
X227804D03*
X220756D03*
X411324Y258100D03*
X414276D03*
X448576Y278900D03*
X445624D03*
X469043Y332730D03*
X466091D03*
X469043Y328482D03*
X466091D03*
G54D82*
X297879Y303831D03*
Y301862D03*
Y299894D03*
Y309736D03*
Y307768D03*
Y305799D03*
X313281Y299894D03*
Y301862D03*
Y303831D03*
Y305799D03*
Y307768D03*
Y309736D03*
G54D64*
X221763Y273550D03*
X229637D03*
G54D65*
X226482Y302327D03*
G54D56*
X196000Y92084D03*
Y86084D03*
X339180Y298015D03*
Y304015D03*
G54D29*
X37277Y210965D03*
X42677D03*
X37375Y203563D03*
X42775D03*
X48678Y210413D03*
X54078D03*
X260675Y384000D03*
X254375D03*
X452680Y288315D03*
X458080D03*
G54D47*
X146659Y239521D03*
Y236961D03*
Y260001D03*
Y257441D03*
Y254881D03*
Y252321D03*
Y249761D03*
Y247201D03*
Y244641D03*
Y242081D03*
Y301961D03*
Y299401D03*
Y296841D03*
Y294281D03*
Y291721D03*
Y289161D03*
Y312201D03*
Y309641D03*
Y307081D03*
Y304521D03*
Y344271D03*
Y341711D03*
Y364751D03*
Y362191D03*
Y359631D03*
Y357071D03*
Y354511D03*
Y351951D03*
Y349391D03*
Y346831D03*
X169659Y236961D03*
Y239521D03*
Y242081D03*
Y244641D03*
Y247201D03*
Y249761D03*
Y252321D03*
Y254881D03*
Y257441D03*
Y260001D03*
Y289161D03*
Y291721D03*
Y294281D03*
Y296841D03*
Y299401D03*
Y301961D03*
Y304521D03*
Y307081D03*
Y309641D03*
Y312201D03*
Y341711D03*
Y344271D03*
Y346831D03*
Y349391D03*
Y351951D03*
Y354511D03*
Y357071D03*
Y359631D03*
Y362191D03*
Y364751D03*
G54D38*
X79298Y174000D03*
X81400D03*
G54D92*
X387642Y116957D03*
X472985Y122595D03*
G54D83*
X305280Y361115D03*
X295280D03*
X300280Y371115D03*
X290280D03*
X315280Y361115D03*
X320280Y371115D03*
X310280D03*
G54D74*
X255850Y314987D03*
Y307113D03*
G54D93*
X391763Y240566D03*
Y235566D03*
Y250566D03*
Y245566D03*
X413763Y235566D03*
Y240566D03*
Y245566D03*
Y250566D03*
G54D57*
X187500Y85084D03*
Y92684D03*
X209850Y262100D03*
Y269700D03*
X257050Y321050D03*
Y328650D03*
X380580Y342886D03*
Y350486D03*
G54D66*
X210856Y303311D03*
Y301343D03*
Y299374D03*
Y297406D03*
Y295437D03*
Y293469D03*
Y291500D03*
Y313154D03*
Y311185D03*
Y309217D03*
Y307248D03*
Y305280D03*
X242108Y303311D03*
Y301343D03*
Y299374D03*
Y297406D03*
Y295437D03*
Y293469D03*
Y291500D03*
Y313154D03*
Y311185D03*
Y309217D03*
Y307248D03*
Y305280D03*
G54D39*
X74700Y196759D03*
Y191641D03*
X120200Y378691D03*
Y383809D03*
X211424Y87243D03*
Y82125D03*
X212600Y337709D03*
Y332591D03*
X232700Y87025D03*
X226600Y87125D03*
X232700Y92143D03*
X226600Y92243D03*
X249100Y288859D03*
Y283741D03*
X254450D03*
Y288859D03*
X245580Y324006D03*
Y329124D03*
X295134Y322788D03*
X301174D03*
X295134Y327906D03*
X301174D03*
X309440Y322788D03*
X315485D03*
X309440Y327906D03*
X315485D03*
X332580Y303874D03*
Y298756D03*
X473815Y367171D03*
Y372289D03*
G54D75*
X281880Y268615D03*
X289880D03*
X285880Y277215D03*
G54D84*
X325280Y361115D03*
G54D48*
X138926Y390072D03*
X148926D03*
X158926D03*
X138926Y400072D03*
X148926D03*
X158926D03*
X168926Y390072D03*
X178926D03*
X168926Y400072D03*
X178926D03*
X197050Y346450D03*
X188926Y390072D03*
X198926D03*
X188926Y400072D03*
X198926D03*
X208926Y390072D03*
X218926D03*
X208926Y400072D03*
X218926D03*
X228926D03*
X286280Y342115D03*
X296280D03*
X319280D03*
X337300Y137600D03*
X329280Y342115D03*
X364280Y285685D03*
X368623Y373815D03*
X374280Y285685D03*
X406325D03*
X416325D03*
G54D76*
X282140Y288085D03*
X289620D03*
X285880Y296745D03*
G54D85*
X376134Y28501D03*
X471410D03*
G54D94*
X393780Y405315D03*
G54D58*
X199130Y228034D03*
Y236696D03*
X205430D03*
Y228034D03*
G54D67*
X210856Y289532D03*
Y315122D03*
X242108Y289532D03*
Y315122D03*
G54D49*
X177520Y83681D03*
X173780D03*
X170040D03*
Y93917D03*
X173780D03*
X177520D03*
G54D59*
X196850Y303934D03*
G54D86*
X368115Y87981D03*
Y77981D03*
Y97981D03*
X469375Y87981D03*
Y77981D03*
Y97981D03*
G54D68*
X219592Y286701D03*
X217624D03*
X215655D03*
X219592Y317953D03*
X217624D03*
X215655D03*
X237309Y286701D03*
X235340D03*
X233372D03*
X231403D03*
X229435D03*
X227466D03*
X225498D03*
X223529D03*
X221561D03*
X237309Y317953D03*
X235340D03*
X233372D03*
X231403D03*
X229435D03*
X227466D03*
X225498D03*
X223529D03*
X221561D03*
G54D95*
X414780Y311319D03*
G54D77*
X277280Y384115D03*
X338280D03*
G54D96*
X425780Y191215D03*
X422080D03*
X418380D03*
Y200815D03*
X422080D03*
X425780D03*
X462456Y265793D03*
X458756D03*
X455056D03*
Y275393D03*
X458756D03*
X462456D03*
G54D78*
X285280Y396115D03*
X330280D03*
G54D69*
X213687Y286701D03*
Y317953D03*
X239277Y286701D03*
Y317953D03*
G54D87*
X352300Y89200D03*
X382800Y339200D03*
G54D97*
X413233Y219715D03*
Y225115D03*
X465700Y294100D03*
Y288700D03*
G54D79*
X296100Y88800D03*
X307100D03*
X336800Y119400D03*
X347800D03*
X446567Y332982D03*
X457567D03*
G54D88*
X366780Y148815D03*
Y137815D03*
X391280Y149315D03*
Y138315D03*
X425900Y148300D03*
Y137300D03*
X477780Y149315D03*
Y138315D03*
G54D98*
X422879Y225265D03*
X419335D03*
X466043Y337230D03*
X469587D03*
G54D89*
X368623Y354315D03*
X363701D03*
G54D99*
X427280Y384513D03*
M02*
