G04 ================== begin FILE IDENTIFICATION RECORD ==================*
G04 Layout Name:  C:/Data/NPI/MCIMX6QAICPU1/REV D 080/FabOutput/LAY-27142.brd*
G04 Film Name:    ssp.art*
G04 File Format:  Gerber RS274X*
G04 File Origin:  Cadence Allegro 16.5-S032*
G04 Origin Date:  Wed Feb 06 14:30:39 2013*
G04 *
G04 Layer:  PIN/PASTEMASK_BOTTOM*
G04 Layer:  PACKAGE GEOMETRY/PASTEMASK_BOTTOM*
G04 Layer:  DRAWING FORMAT/FILM_TITLE_BLOCK*
G04 Layer:  DRAWING FORMAT/FILM_OUTLINE*
G04 Layer:  BOARD GEOMETRY/OUTLINE*
G04 Layer:  BOARD GEOMETRY/PASTEMASK_BOTTOM*
G04 *
G04 Offset:    (0.000 0.000)*
G04 Mirror:    No*
G04 Mode:      Positive*
G04 Rotation:  0*
G04 FullContactRelief:  No*
G04 UndefLineWidth:     8.000*
G04 ================== end FILE IDENTIFICATION RECORD ====================*
%FSLAX55Y55*MOIN*%
%IR0*IPPOS*OFA0.00000B0.00000*MIA0B0*SFA1.00000B1.00000*%
%AMMACRO36*
21,1,.018,.02,0.0,0.0,135.*%
%ADD36MACRO36*%
%ADD17R,.112X.07*%
%ADD28R,.07X.112*%
%ADD59R,.037X.102*%
%ADD41R,.119X.04*%
%ADD46O,.008X.038*%
%ADD45O,.038X.008*%
%ADD31R,.012X.021*%
%ADD38R,.021X.012*%
%ADD23O,.07X.04*%
%ADD39R,.04X.05*%
%ADD15O,.04X.07*%
%ADD61R,.016X.012*%
%ADD56R,.06X.04*%
%ADD53R,.04X.015*%
%ADD52R,.02X.016*%
%ADD49R,.021X.026*%
%ADD43R,.027X.01*%
%ADD22R,.011X.054*%
%ADD16O,.06X.035*%
%ADD13R,.02X.018*%
%ADD62R,.025X.05*%
%ADD29O,.035X.06*%
%ADD25R,.02X.045*%
%ADD18R,.05X.024*%
%ADD10R,.018X.02*%
%ADD60R,.016X.05*%
%ADD57R,.06X.025*%
%ADD50R,.014X.026*%
%ADD32R,.022X.018*%
%ADD14R,.016X.032*%
%ADD55R,.044X.024*%
%ADD24R,.018X.022*%
%ADD12O,.045X.035*%
%ADD26R,.048X.011*%
%ADD20O,.035X.045*%
%ADD40R,.06X.018*%
%ADD37R,.033X.028*%
%ADD35R,.028X.033*%
%ADD44R,.024X.056*%
%ADD42R,.039X.032*%
%ADD30R,.035X.028*%
%ADD21C,.014*%
%ADD11R,.028X.035*%
%ADD27R,.015X.0185*%
%ADD58R,.0185X.015*%
%ADD54R,.051X.059*%
%ADD33C,.025*%
%ADD51R,.039X.027*%
%ADD48R,.094X.055*%
%ADD19R,.012X.012*%
%ADD47R,.087X.055*%
%ADD34R,.011811X.011811*%
%ADD63C,.006*%
%ADD64C,.01*%
%ADD65C,.02*%
%ADD66C,.008*%
G75*
%LPD*%
G75*
G36*
G01X-13519Y321441D02*
Y323584D01*
X-9875D01*
Y321441D01*
X-13519D01*
G37*
G36*
G01X-13468Y318365D02*
Y320508D01*
X-9825D01*
Y318365D01*
X-13468D01*
G37*
G36*
G01X-13468Y315188D02*
Y317331D01*
X-9825D01*
Y315188D01*
X-13468D01*
G37*
G36*
G01X-18006Y321391D02*
Y323534D01*
X-14363D01*
Y321391D01*
X-18006D01*
G37*
G36*
G01X-18057Y318365D02*
Y320508D01*
X-14413D01*
Y318365D01*
X-18057D01*
G37*
G36*
G01X-18056Y315239D02*
Y317382D01*
X-14413D01*
Y315239D01*
X-18056D01*
G37*
G36*
G01X-13569Y324466D02*
Y326609D01*
X-9925D01*
Y324466D01*
X-13569D01*
G37*
G36*
G01X-17956Y324416D02*
Y326559D01*
X-14313D01*
Y324416D01*
X-17956D01*
G37*
G36*
G01X-18107Y312113D02*
Y314256D01*
X-14463D01*
Y312113D01*
X-18107D01*
G37*
G36*
G01X-22595Y324416D02*
Y326559D01*
X-18951D01*
Y324416D01*
X-22595D01*
G37*
G36*
G01Y321441D02*
Y323584D01*
X-18951D01*
Y321441D01*
X-22595D01*
G37*
G36*
G01X-22695Y318315D02*
Y320458D01*
X-19052D01*
Y318315D01*
X-22695D01*
G37*
G36*
G01Y315239D02*
Y317382D01*
X-19052D01*
Y315239D01*
X-22695D01*
G37*
G36*
G01X-13544Y312138D02*
Y314281D01*
X-9900D01*
Y312138D01*
X-13544D01*
G37*
G36*
G01X-22771Y312113D02*
Y314256D01*
X-19128D01*
Y312113D01*
X-22771D01*
G37*
G36*
G01X-12445Y349815D02*
Y351957D01*
X-8802D01*
Y349815D01*
X-12445D01*
G37*
G36*
G01Y346739D02*
Y348882D01*
X-8802D01*
Y346739D01*
X-12445D01*
G37*
G36*
G01X-12521Y343613D02*
Y345756D01*
X-8878D01*
Y343613D01*
X-12521D01*
G37*
G36*
G01X-9283Y310878D02*
Y313020D01*
X-5639D01*
Y310878D01*
X-9283D01*
G37*
G36*
G01X-9232Y325878D02*
Y328021D01*
X-5589D01*
Y325878D01*
X-9232D01*
G37*
G36*
G01X-9283Y320861D02*
Y323004D01*
X-5639D01*
Y320861D01*
X-9283D01*
G37*
G36*
G01Y315869D02*
Y318012D01*
X-5639D01*
Y315869D01*
X-9283D01*
G37*
G36*
G01X-3269Y352941D02*
Y355084D01*
X375D01*
Y352941D01*
X-3269D01*
G37*
G36*
G01X-3218Y349865D02*
Y352008D01*
X426D01*
Y349865D01*
X-3218D01*
G37*
G36*
G01X-3218Y346688D02*
Y348831D01*
X425D01*
Y346688D01*
X-3218D01*
G37*
G36*
G01X-7756Y352891D02*
Y355034D01*
X-4113D01*
Y352891D01*
X-7756D01*
G37*
G36*
G01X-7807Y349865D02*
Y352008D01*
X-4164D01*
Y349865D01*
X-7807D01*
G37*
G36*
G01X-7806Y346739D02*
Y348882D01*
X-4163D01*
Y346739D01*
X-7806D01*
G37*
G36*
G01X-3319Y355966D02*
Y358109D01*
X325D01*
Y355966D01*
X-3319D01*
G37*
G36*
G01X-7706Y355916D02*
Y358059D01*
X-4063D01*
Y355916D01*
X-7706D01*
G37*
G36*
G01X-7857Y343613D02*
Y345756D01*
X-4214D01*
Y343613D01*
X-7857D01*
G37*
G36*
G01X-12345Y355916D02*
Y358059D01*
X-8701D01*
Y355916D01*
X-12345D01*
G37*
G36*
G01Y352941D02*
Y355084D01*
X-8701D01*
Y352941D01*
X-12345D01*
G37*
G36*
G01X-3294Y343638D02*
Y345781D01*
X350D01*
Y343638D01*
X-3294D01*
G37*
G36*
G01X967Y352361D02*
Y354504D01*
X4611D01*
Y352361D01*
X967D01*
G37*
G36*
G01Y347369D02*
Y349512D01*
X4611D01*
Y347369D01*
X967D01*
G37*
G36*
G01Y342378D02*
Y344520D01*
X4611D01*
Y342378D01*
X967D01*
G37*
G36*
G01X1018Y357378D02*
Y359521D01*
X4661D01*
Y357378D01*
X1018D01*
G37*
G36*
G01X40230Y382988D02*
X46100D01*
Y378232D01*
X40230D01*
Y382988D01*
G37*
G36*
G01Y377154D02*
X46100D01*
Y372398D01*
X40230D01*
Y377154D01*
G37*
G36*
G01X32986D02*
X38856D01*
Y372398D01*
X32986D01*
Y377154D01*
G37*
G36*
G01X33017Y382957D02*
X38887D01*
Y378201D01*
X33017D01*
Y382957D01*
G37*
G36*
G01X218498Y92498D02*
X225463D01*
Y85502D01*
X218498D01*
Y92498D01*
G37*
G36*
G01Y84502D02*
X225474D01*
Y77561D01*
X218498D01*
Y84502D01*
G37*
G36*
G01X210518D02*
X217498D01*
Y77530D01*
X210518D01*
Y84502D01*
G37*
G36*
G01X210506Y92498D02*
X217498D01*
Y85502D01*
X210506D01*
Y92498D01*
G37*
G54D10*
X-54912Y328701D03*
Y318701D03*
Y323701D03*
X-42824Y24500D03*
X-45776D03*
X-42824Y21300D03*
X-45776D03*
X-32662Y22201D03*
Y18201D03*
Y14201D03*
X-42824Y27700D03*
X-45776D03*
X-32662Y149701D03*
Y144701D03*
X-32776Y153800D03*
X-35576Y232500D03*
Y228600D03*
X-51959Y328701D03*
Y318701D03*
Y323701D03*
X-14709Y22701D03*
X-17662D03*
X-29709Y22201D03*
Y18201D03*
Y14201D03*
X-18162Y17701D03*
X-15209D03*
X-17162Y37451D03*
X-14209D03*
X-13959Y32451D03*
X-16912D03*
X-23662Y81101D03*
X-20709D03*
X-20459Y77101D03*
X-23412D03*
X-21459Y72451D03*
X-24412D03*
X-20709Y84901D03*
X-23662D03*
X-24717Y110896D03*
X-21764D03*
X-24717Y125396D03*
X-21764D03*
X-24717Y114896D03*
X-21764D03*
X-24717Y121896D03*
X-21764D03*
X-29709Y149701D03*
Y144701D03*
X-29824Y153800D03*
X-32624Y232500D03*
Y228600D03*
X-2662Y17701D03*
X291D03*
X1576Y40500D03*
X-1376D03*
X-2662Y32701D03*
X291D03*
X-1412Y36701D03*
X1541D03*
X5124Y56200D03*
X8076D03*
X3838Y82701D03*
X6791D03*
X3838Y86701D03*
X6791D03*
X9024Y97300D03*
X7736Y110896D03*
X4783D03*
X7736Y105896D03*
X4783D03*
X7736Y115396D03*
X4783D03*
X7736Y120896D03*
X4783D03*
X3959Y138196D03*
X6911D03*
X10259D03*
X9911Y195089D03*
X6959D03*
X10233Y240296D03*
X3883D03*
X6836D03*
X10776Y269600D03*
X7824D03*
X7924Y273300D03*
X10876D03*
X32838Y61701D03*
Y47701D03*
Y56701D03*
Y65701D03*
Y75701D03*
Y85701D03*
Y90701D03*
Y80701D03*
Y70701D03*
X11976Y97300D03*
X32838Y95701D03*
Y100701D03*
X28524Y116900D03*
X31476D03*
X18338Y125201D03*
X21291D03*
X18338Y120601D03*
X21291D03*
X23933Y138096D03*
X26886D03*
X13211Y138196D03*
X33436D03*
X30483D03*
X27976Y195124D03*
X25024D03*
X13186Y240296D03*
X31033Y240289D03*
X19386D03*
X16433D03*
X27424Y355600D03*
X30376D03*
X30976Y340500D03*
X28024D03*
X35791Y61701D03*
Y47701D03*
Y56701D03*
Y65701D03*
Y75701D03*
Y85701D03*
Y90701D03*
Y80701D03*
Y70701D03*
Y95701D03*
Y100701D03*
X55738Y129601D03*
X39836Y138196D03*
X36883D03*
X47886D03*
X44933D03*
X54186D03*
X51233D03*
X33986Y240289D03*
X49386D03*
X46433D03*
X40233D03*
X43186D03*
X43324Y273100D03*
X46276D03*
X54476Y282600D03*
X51524D03*
X58424Y124600D03*
X61376D03*
X58691Y129601D03*
X71588Y232701D03*
X74541D03*
X69041Y246701D03*
X66088D03*
Y250201D03*
X69041D03*
X70226Y308814D03*
X67273D03*
Y312014D03*
X70226D03*
X67273Y315314D03*
X70226D03*
X81024Y62500D03*
X83976D03*
X99088Y61951D03*
X91576Y315200D03*
X88624D03*
X98688Y364001D03*
X94976Y387900D03*
X92024D03*
X83624D03*
X86576D03*
X115291Y62201D03*
X112338D03*
X102041Y61951D03*
X108588Y291201D03*
X111541D03*
X108588Y277451D03*
X111541D03*
X122486Y296096D03*
X119533D03*
X104641Y372001D03*
X101688D03*
X104641Y368501D03*
X101688D03*
X101641Y364001D03*
X105188D03*
X108141D03*
X127291Y46201D03*
X124338D03*
X127291Y58201D03*
X124338D03*
X127291Y54201D03*
X124338D03*
X127291Y50201D03*
X124338D03*
X143041Y79701D03*
X140088D03*
X143041Y75201D03*
X140088D03*
X138291Y117451D03*
X135338D03*
X134524Y254500D03*
X137476D03*
X140424Y387600D03*
X143376D03*
X140424Y384100D03*
X143376D03*
X154338Y35701D03*
X157291D03*
X164338Y94451D03*
Y98201D03*
X165588Y110201D03*
Y128701D03*
X165688Y132801D03*
X165588Y124701D03*
Y120701D03*
Y141201D03*
X159588Y189951D03*
X162541D03*
X165291Y194701D03*
X162338D03*
X166824Y216600D03*
X151041Y279451D03*
X148088D03*
X151041Y283251D03*
X148088D03*
X147588Y295101D03*
X150541D03*
X147533Y303096D03*
X150486D03*
X147533Y299096D03*
X150486D03*
X167291Y94451D03*
Y98201D03*
X168541Y110201D03*
Y128701D03*
X168641Y132801D03*
X168541Y124701D03*
Y120701D03*
Y141201D03*
X170476Y145500D03*
X167524D03*
X184588Y161951D03*
X187541D03*
X169776Y216600D03*
X187624Y213200D03*
X179338Y253451D03*
X182291D03*
X179338Y257201D03*
X182291D03*
X167724Y270600D03*
X170676D03*
X198976Y80000D03*
X196024D03*
X200024Y135000D03*
X202976D03*
Y128000D03*
X200024D03*
X190576Y213200D03*
X207276Y212000D03*
X204324D03*
X207276Y208800D03*
X204324D03*
X221538Y182701D03*
X224491D03*
X216576Y261400D03*
X213624D03*
X216541Y266201D03*
X213588D03*
X216541Y271701D03*
X213588D03*
X216541Y276201D03*
X213588D03*
X245924Y28400D03*
X248876D03*
X252088Y127701D03*
X255041D03*
X251838Y131701D03*
X254791D03*
X251588Y135701D03*
X254541D03*
X237291Y149201D03*
X234338D03*
X251588Y139701D03*
X254541D03*
X255338Y193701D03*
X254838Y200951D03*
X247076Y214200D03*
X244124D03*
X254838Y204701D03*
X241588Y233951D03*
X244541D03*
X244041Y226201D03*
X241088D03*
X244291Y229951D03*
X241338D03*
X239441Y258951D03*
X236488D03*
X236088Y279201D03*
X239041D03*
X250791Y326451D03*
X247838D03*
X276976Y47000D03*
X274024D03*
X265291Y28451D03*
X262338D03*
X276976Y57000D03*
X274024D03*
X271976Y131800D03*
X269024D03*
X268986Y123996D03*
X266033D03*
X268986Y128496D03*
X266033D03*
X271041Y142451D03*
X268088D03*
X269041Y136201D03*
X266088D03*
X266838Y159201D03*
X269791D03*
Y179201D03*
X266838D03*
X258291Y193701D03*
X257791Y200951D03*
X270041Y188701D03*
X267088D03*
X267033Y183996D03*
X269986D03*
X257791Y204701D03*
X275041Y274201D03*
X272088D03*
X261588Y303451D03*
X264541D03*
X272291Y315451D03*
X269338D03*
X257588Y325701D03*
X260541D03*
X272041D03*
X269088D03*
X272291Y375951D03*
X269338D03*
Y366201D03*
X272291D03*
Y371201D03*
X269338D03*
X286024Y74000D03*
X288976D03*
X288541Y150701D03*
X285588D03*
X286838Y354951D03*
X289791D03*
X299624Y345700D03*
X290291Y359701D03*
X287338D03*
X299724Y359300D03*
X311346Y271396D03*
X308393D03*
X302576Y345700D03*
X302676Y359300D03*
G54D11*
X-55986Y338454D03*
X-50886D03*
X-53436Y345948D03*
X-31736Y348204D03*
X-26636D03*
X-29186Y355698D03*
X250750Y373453D03*
X255850D03*
X253300Y380947D03*
G54D20*
X8760Y126396D03*
X2760D03*
X45314Y357451D03*
X39314D03*
X48100Y343600D03*
X42100D03*
X48100Y349300D03*
X42100D03*
X68300Y320000D03*
X62300D03*
X75000Y343800D03*
X94564Y239701D03*
X100564D03*
X100100Y334400D03*
X94100D03*
X100100Y328600D03*
X94100D03*
X90914Y347751D03*
X96914D03*
X81000Y343800D03*
X119510Y291096D03*
X119314Y285101D03*
X119064Y278901D03*
X119510Y301096D03*
X139814Y69701D03*
X144814Y290301D03*
X125510Y291096D03*
X125314Y285101D03*
X125064Y278901D03*
X125510Y301096D03*
X135200Y319100D03*
X141200D03*
X129800Y385600D03*
X135800D03*
X145814Y69701D03*
X165314Y184951D03*
X159314D03*
X162814Y200701D03*
X166814Y221201D03*
Y227201D03*
X159564Y257201D03*
X153564D03*
X150814Y290301D03*
X166314Y297451D03*
X160314D03*
X183900Y60400D03*
X177900D03*
X168814Y200701D03*
X172814Y221201D03*
Y227201D03*
X188300Y248600D03*
X182300D03*
X255064Y320701D03*
X273900Y52000D03*
X259064Y298201D03*
X265064D03*
X274814Y310201D03*
X268814D03*
X274564Y320701D03*
X268564D03*
X261064D03*
X279900Y52000D03*
G54D21*
X5488Y154597D03*
Y151447D03*
Y148298D03*
X8637Y154597D03*
Y151447D03*
Y148298D03*
X5488Y173494D03*
Y170345D03*
Y167195D03*
X8637Y173494D03*
Y170345D03*
Y167195D03*
X5488Y223888D03*
X8637D03*
X5488Y211290D03*
Y208140D03*
Y204991D03*
X8637Y211290D03*
Y208140D03*
Y204991D03*
X5488Y230187D03*
Y227038D03*
X8637Y230187D03*
Y227038D03*
X11787Y154597D03*
Y151447D03*
Y148298D03*
X14937Y154597D03*
Y151447D03*
Y148298D03*
X18086Y154597D03*
Y151447D03*
Y148298D03*
X21236Y154597D03*
Y151447D03*
Y148298D03*
X24385Y154597D03*
Y151447D03*
Y148298D03*
X27535Y154597D03*
Y151447D03*
Y148298D03*
X30685Y154597D03*
Y151447D03*
Y148298D03*
X11787Y173494D03*
Y170345D03*
Y167195D03*
X14937Y173494D03*
Y170345D03*
Y167195D03*
X18086Y173494D03*
Y170345D03*
Y167195D03*
X21236Y173494D03*
Y170345D03*
Y167195D03*
X24385Y173494D03*
Y170345D03*
Y167195D03*
X27535Y173494D03*
Y170345D03*
Y167195D03*
X30685Y173494D03*
Y170345D03*
Y167195D03*
X11787Y223888D03*
X14937D03*
X18086D03*
X21236D03*
X24385D03*
X27535D03*
X30685D03*
X11787Y211290D03*
Y208140D03*
Y204991D03*
X14937Y211290D03*
Y208140D03*
Y204991D03*
X18086Y211290D03*
Y208140D03*
Y204991D03*
X21236Y211290D03*
Y208140D03*
Y204991D03*
X24385Y211290D03*
Y208140D03*
Y204991D03*
X27535Y211290D03*
Y208140D03*
Y204991D03*
X30685Y211290D03*
Y208140D03*
Y204991D03*
X11787Y230187D03*
Y227038D03*
X14937Y230187D03*
Y227038D03*
X18086Y230187D03*
Y227038D03*
X21236Y230187D03*
Y227038D03*
X24385Y230187D03*
Y227038D03*
X27535Y230187D03*
Y227038D03*
X30685Y230187D03*
Y227038D03*
X33834Y154597D03*
Y151447D03*
Y148298D03*
X36984Y154597D03*
Y151447D03*
Y148298D03*
X40133Y154597D03*
Y151447D03*
Y148298D03*
X43283Y154597D03*
Y151447D03*
Y148298D03*
X46433Y154597D03*
Y151447D03*
Y148298D03*
X49582Y154597D03*
Y151447D03*
Y148298D03*
X52732Y154597D03*
Y151447D03*
Y148298D03*
X33834Y173494D03*
Y170345D03*
Y167195D03*
X36984Y173494D03*
Y170345D03*
Y167195D03*
X40133Y173494D03*
Y170345D03*
Y167195D03*
X43283Y173494D03*
Y170345D03*
Y167195D03*
X46433Y173494D03*
Y170345D03*
Y167195D03*
X49582Y173494D03*
Y170345D03*
Y167195D03*
X52732Y173494D03*
Y170345D03*
Y167195D03*
X33834Y223888D03*
X36984D03*
X40133D03*
X43283D03*
X46433D03*
X49582D03*
X52732D03*
X33834Y211290D03*
Y208140D03*
Y204991D03*
X36984Y211290D03*
Y208140D03*
Y204991D03*
X40133Y211290D03*
Y208140D03*
Y204991D03*
X43283Y211290D03*
Y208140D03*
Y204991D03*
X46433Y211290D03*
Y208140D03*
Y204991D03*
X49582Y211290D03*
Y208140D03*
Y204991D03*
X52732Y211290D03*
Y208140D03*
Y204991D03*
X33834Y230187D03*
Y227038D03*
X36984Y230187D03*
Y227038D03*
X40133Y230187D03*
Y227038D03*
X43283Y230187D03*
Y227038D03*
X46433Y230187D03*
Y227038D03*
X49582Y230187D03*
Y227038D03*
X52732Y230187D03*
Y227038D03*
G54D30*
X52647Y325750D03*
Y330850D03*
X45153Y328300D03*
G54D12*
X-44436Y8201D03*
Y14201D03*
X31000Y325900D03*
Y331900D03*
X20064Y348951D03*
Y342951D03*
X20565Y372951D03*
Y366951D03*
X13315Y379701D03*
Y385701D03*
X50600Y313900D03*
Y319900D03*
X88300Y335000D03*
Y341000D03*
X80800Y370600D03*
Y376600D03*
X105564Y319701D03*
Y325701D03*
X140964Y243951D03*
Y237951D03*
X141510Y309596D03*
Y303596D03*
X131010D03*
Y309596D03*
X149064Y137701D03*
Y143701D03*
X158314Y247451D03*
Y241451D03*
X165564Y289951D03*
Y283951D03*
X160064Y310951D03*
Y304951D03*
X149564Y331451D03*
Y337451D03*
X179510Y24496D03*
Y30496D03*
X183314Y190201D03*
Y196201D03*
X173900Y241300D03*
Y247300D03*
X209815Y13701D03*
Y7701D03*
X194200Y191200D03*
Y197200D03*
X268064Y174701D03*
Y168701D03*
G54D40*
X142664Y47021D03*
Y62381D03*
Y59821D03*
Y57261D03*
Y54701D03*
Y52141D03*
Y49581D03*
X165964Y47021D03*
Y49581D03*
Y52141D03*
Y54701D03*
Y57261D03*
Y59821D03*
Y62381D03*
G54D13*
X-39186Y8724D03*
Y11677D03*
X-41800Y75876D03*
Y72924D03*
X-38400Y75876D03*
Y72924D03*
X-40490Y242972D03*
Y240020D03*
X-37436Y323974D03*
Y326927D03*
X-37686Y344474D03*
Y347427D03*
X-41186Y344474D03*
Y347427D03*
X-19100Y45524D03*
Y48476D03*
X8064Y46224D03*
Y49177D03*
X-1340Y171943D03*
Y174896D03*
X-1590Y202220D03*
Y205172D03*
X8600Y261176D03*
Y258224D03*
X1100Y258124D03*
Y261076D03*
X4800Y258224D03*
Y261176D03*
X-1700Y290976D03*
Y288024D03*
X1600Y290976D03*
Y288024D03*
X400Y297524D03*
Y300476D03*
X6300Y297324D03*
Y300276D03*
X22710Y240220D03*
Y243172D03*
X16600Y258224D03*
Y261176D03*
X12900Y258224D03*
Y261176D03*
X29600Y315824D03*
Y318776D03*
X32800Y315824D03*
Y318776D03*
X18814Y379724D03*
Y382677D03*
X39200Y318276D03*
Y315324D03*
X36000Y318776D03*
Y315824D03*
X59710Y174872D03*
Y171920D03*
X59610Y203320D03*
Y206272D03*
X59710Y231565D03*
Y228613D03*
X67300Y302524D03*
Y305476D03*
X63600D03*
Y302524D03*
X59200Y344976D03*
Y342024D03*
X68700D03*
Y344976D03*
X93164Y132927D03*
Y129974D03*
X100064Y132677D03*
Y129724D03*
X99800Y145976D03*
Y143024D03*
X92214Y322527D03*
Y319574D03*
X93900Y379724D03*
X80400Y363076D03*
Y360124D03*
X93900Y382676D03*
X116564Y51724D03*
Y54677D03*
X120064Y131927D03*
Y128974D03*
X106664Y132327D03*
Y129374D03*
X112200Y131924D03*
Y134876D03*
X113064Y144677D03*
Y141724D03*
X122314Y144927D03*
Y141974D03*
X108065Y141177D03*
Y138224D03*
X103064Y145927D03*
Y142974D03*
X118564Y136974D03*
Y139927D03*
X117814Y306624D03*
Y309577D03*
X110564D03*
Y306624D03*
X114700Y374176D03*
Y371224D03*
X118200Y374176D03*
Y371224D03*
X130064Y131927D03*
Y128974D03*
X139064Y131927D03*
Y128974D03*
X123814Y131927D03*
Y128974D03*
X134064D03*
Y131927D03*
X136814Y142177D03*
Y139224D03*
X133064D03*
Y142177D03*
X140364Y141677D03*
Y138724D03*
X144164Y141677D03*
Y138724D03*
X134400Y240676D03*
Y237724D03*
X127064Y243474D03*
Y246427D03*
X123314Y243224D03*
Y246177D03*
X127100Y259076D03*
Y256124D03*
X130600D03*
Y259076D03*
X136010Y281572D03*
Y278620D03*
X129815Y281377D03*
Y278424D03*
X136510Y306620D03*
Y309572D03*
X125510Y306620D03*
Y309572D03*
X161064Y74927D03*
Y71974D03*
X157314Y74927D03*
Y71974D03*
X153564D03*
Y74927D03*
X163814Y86224D03*
Y89177D03*
X167064Y78474D03*
Y81427D03*
Y75177D03*
Y72224D03*
X149700Y111276D03*
Y108324D03*
X145800Y111276D03*
Y108324D03*
X145814Y132177D03*
Y129224D03*
X156564Y131427D03*
Y128474D03*
X145800Y115724D03*
Y118676D03*
X162314Y222724D03*
X151314Y227927D03*
Y224974D03*
X162314Y225677D03*
X155064Y231427D03*
Y228474D03*
X146564Y243724D03*
Y246677D03*
X151314Y235927D03*
Y232974D03*
X153064Y263474D03*
Y266427D03*
X156564Y263474D03*
Y266427D03*
X167814Y86224D03*
Y89177D03*
X177000Y98976D03*
Y96024D03*
X174300Y210724D03*
Y213676D03*
X181564Y228927D03*
Y225974D03*
X203000Y60976D03*
Y58024D03*
X209900D03*
Y60976D03*
X206600Y58024D03*
Y60976D03*
X192500Y86524D03*
Y89476D03*
X199000Y110524D03*
Y113476D03*
X202500Y164524D03*
Y167476D03*
X196064Y164524D03*
Y167477D03*
X191064Y228927D03*
Y225974D03*
X199100Y251976D03*
Y249024D03*
X219300Y47200D03*
Y50153D03*
X215700D03*
Y47200D03*
X222700Y50153D03*
Y47200D03*
X231800Y58024D03*
Y60976D03*
X223500Y58024D03*
Y60976D03*
X220100Y58024D03*
Y60976D03*
X216700Y58024D03*
Y60976D03*
X227000Y58024D03*
Y60976D03*
X213300D03*
Y58024D03*
X225500Y135524D03*
Y144976D03*
Y142024D03*
Y138476D03*
X221714Y178877D03*
Y175924D03*
X225515D03*
Y178877D03*
X218014Y176024D03*
Y178977D03*
X219064Y200924D03*
X223064Y186724D03*
Y189677D03*
X223814Y195974D03*
Y198927D03*
X219015Y190824D03*
Y193777D03*
X219064Y203877D03*
X227064Y241427D03*
Y238474D03*
X219064Y335427D03*
Y332474D03*
X225564Y335427D03*
Y332474D03*
X230064Y335427D03*
Y332474D03*
X233814Y335427D03*
Y332474D03*
X212314Y335677D03*
Y332724D03*
X232064Y358724D03*
Y361677D03*
X228565Y358724D03*
Y361677D03*
X224564Y358724D03*
Y361677D03*
X220814Y358724D03*
Y361677D03*
X212814Y358724D03*
Y361677D03*
X216814Y358724D03*
Y361677D03*
X235800Y58024D03*
Y60976D03*
X238000Y118476D03*
Y115524D03*
X247315Y150927D03*
Y147974D03*
X243065Y150927D03*
Y147974D03*
X254814Y235427D03*
Y232474D03*
X240314Y266677D03*
Y263724D03*
X235314Y266677D03*
Y263724D03*
X239564Y274677D03*
Y271724D03*
X235564Y274677D03*
Y271724D03*
X244815Y311724D03*
X251065Y311474D03*
X244164Y335727D03*
Y332774D03*
X237564Y335427D03*
Y332474D03*
X247814Y335677D03*
Y332724D03*
X238565Y326177D03*
Y323224D03*
X244815Y314677D03*
X251065Y314427D03*
X242815Y358724D03*
Y361677D03*
X239064Y358724D03*
Y361677D03*
X235564D03*
Y358724D03*
X248314D03*
Y361677D03*
X249500Y385674D03*
Y388626D03*
X262000Y154024D03*
Y156976D03*
X276564Y289427D03*
Y286474D03*
X271064Y289427D03*
Y286474D03*
X298014Y139924D03*
Y142877D03*
X280814Y197974D03*
Y200927D03*
X288014Y191577D03*
Y188624D03*
X286814Y208177D03*
Y205224D03*
X292814Y316474D03*
Y319427D03*
X288564Y316474D03*
Y319427D03*
X284064D03*
Y316474D03*
X279064Y373224D03*
Y376177D03*
X286600Y385476D03*
Y382524D03*
X279200Y382724D03*
Y385676D03*
X306814Y208177D03*
Y205224D03*
X303814Y299177D03*
Y296224D03*
G54D22*
X11984Y279384D03*
X13952D03*
X15921D03*
X17889D03*
X19858D03*
X21826D03*
X23794D03*
X25763D03*
X27731D03*
X29700D03*
X31668D03*
Y302416D03*
X29700D03*
X27731D03*
X25763D03*
X23794D03*
X21826D03*
X19858D03*
X17889D03*
X15921D03*
X13952D03*
X11984D03*
X33637Y279384D03*
X35606D03*
X37574D03*
X39542D03*
X41511D03*
X43480D03*
X45448D03*
X47416D03*
Y302416D03*
X45448D03*
X43480D03*
X41511D03*
X39542D03*
X37574D03*
X35606D03*
X33637D03*
G54D31*
X76467Y133238D03*
X74499D03*
X72530D03*
X70562D03*
X68593D03*
Y130364D03*
X70562D03*
X72530D03*
X74499D03*
X76467D03*
X78436Y133238D03*
Y130364D03*
G54D14*
X-40260Y129810D03*
X-35140D03*
X-40260Y138310D03*
X-35140D03*
X-37700D03*
X287970Y329335D03*
X293090D03*
X287970Y337835D03*
X293090D03*
X290530D03*
G54D32*
X64198Y345370D03*
Y341630D03*
G54D50*
X217544Y349221D03*
X220065D03*
X222585D03*
Y344181D03*
X220065D03*
X217544D03*
X253814D03*
X251294D03*
Y349221D03*
X253814D03*
X235294D03*
X237814D03*
X240335D03*
Y344181D03*
X237814D03*
X235294D03*
X239085Y370681D03*
X236565D03*
X234044D03*
Y375721D03*
X236565D03*
X239085D03*
X256335Y344181D03*
Y349221D03*
G54D23*
X23900Y319900D03*
Y331900D03*
G54D41*
X193602Y94397D03*
Y102271D03*
G54D51*
X251433Y161961D03*
Y165701D03*
Y169441D03*
X241196D03*
Y165701D03*
Y161961D03*
G54D33*
X84000Y58400D03*
X88000D03*
X218564Y234701D03*
Y230701D03*
X299564Y331951D03*
X303564D03*
G54D42*
X184164Y207451D03*
X190464D03*
G54D24*
X27630Y344998D03*
X31370D03*
X287030Y344713D03*
X290770D03*
X290685Y349701D03*
X286944D03*
G54D60*
X285005Y367711D03*
X290124D03*
Y375191D03*
X287564D03*
X285005D03*
G54D15*
X-41436Y335701D03*
X-29436D03*
X62200Y327200D03*
X74200D03*
G54D34*
X93961Y177298D03*
X96063D03*
X93961Y174148D03*
X96063D03*
X98162Y169947D03*
Y172050D03*
X93961Y199345D03*
X96063D03*
X93561Y196196D03*
X95663D03*
X93961Y193046D03*
X96063D03*
X97863Y196196D03*
X93961Y180447D03*
X96063D03*
X93961Y202495D03*
X96063D03*
X108510Y173547D03*
Y171445D03*
X113366Y167201D03*
X111263D03*
X120209Y171397D03*
Y169294D03*
Y173597D03*
Y175699D03*
X117060Y173597D03*
Y175699D03*
Y178555D03*
X101312Y169947D03*
Y172050D03*
X104461Y169947D03*
Y172050D03*
X107611Y176246D03*
Y178349D03*
X104461Y176246D03*
Y178349D03*
X101312Y176246D03*
Y178349D03*
X120209Y178555D03*
X117410Y193495D03*
Y195597D03*
X101312Y193997D03*
Y191894D03*
Y198394D03*
Y200496D03*
X107514Y196047D03*
Y198149D03*
X120209Y194673D03*
Y192571D03*
X117060Y180658D03*
X101312Y182546D03*
Y184648D03*
X104461Y182546D03*
Y184648D03*
Y194097D03*
Y191994D03*
Y198294D03*
Y200396D03*
X120209D03*
Y198294D03*
X107614Y193797D03*
Y191694D03*
X99966Y196196D03*
X107611Y182546D03*
Y184648D03*
X120209Y182858D03*
Y184960D03*
X117060Y182858D03*
Y184960D03*
X120209Y180658D03*
X111125Y209245D03*
Y211347D03*
X113510Y209245D03*
Y211347D03*
X104461Y206695D03*
Y204593D03*
X107611Y206695D03*
Y204593D03*
X101312Y206695D03*
Y204593D03*
X120209Y206695D03*
Y204593D03*
X121510Y307045D03*
Y309147D03*
X129658Y173597D03*
Y175699D03*
X123359Y171397D03*
Y169294D03*
X133163Y170701D03*
X135266D03*
X126508Y173597D03*
Y175699D03*
X123359Y173597D03*
Y175699D03*
Y178555D03*
X126508D03*
X129658D03*
X126508Y182858D03*
Y184960D03*
X132513Y180451D03*
X134616D03*
X134463Y187201D03*
X136566D03*
X131233Y199945D03*
X123359Y200396D03*
Y198294D03*
Y194673D03*
Y192571D03*
X126508Y200396D03*
Y198294D03*
Y194673D03*
Y192571D03*
X129658Y182858D03*
Y184960D03*
X123359Y182858D03*
Y184960D03*
Y180658D03*
X126508D03*
X129658D03*
X138791Y208651D03*
Y206549D03*
X130560Y206195D03*
Y208297D03*
X127960Y206195D03*
Y208297D03*
X136450Y208551D03*
Y206449D03*
X131233Y202047D03*
X125760Y205047D03*
Y202945D03*
X123359Y206695D03*
Y204593D03*
X140010Y281147D03*
Y279045D03*
G54D25*
X30608Y366579D03*
X33167D03*
Y388823D03*
X30608D03*
X35726Y366579D03*
X38285D03*
X40844D03*
X43403D03*
X45962D03*
X48521D03*
Y388823D03*
X45962D03*
X43403D03*
X40844D03*
X38285D03*
X35726D03*
G54D16*
X-43186Y328501D03*
Y320901D03*
X13315Y366151D03*
Y373751D03*
X101564Y286151D03*
Y293751D03*
X156314Y326251D03*
Y318651D03*
G54D43*
X177214Y278232D03*
Y282169D03*
X184403Y278232D03*
Y282169D03*
Y280201D03*
X177214D03*
G54D52*
X266574Y154261D03*
Y151701D03*
Y149141D03*
X274055D03*
Y151701D03*
Y154261D03*
G54D61*
X312969Y243824D03*
Y247368D03*
G54D44*
X180809Y280201D03*
G54D35*
X93551Y188321D03*
X98669D03*
X107769D03*
X102651D03*
X116951Y188422D03*
X122069D03*
X113005Y330351D03*
X118124D03*
X113005Y337751D03*
X118124D03*
X131219Y188412D03*
X126101D03*
X178701Y50596D03*
X183819D03*
X177624Y163451D03*
X172505D03*
X175374Y173951D03*
X170255D03*
X172755Y291201D03*
X177874D03*
X172755Y298701D03*
X177874D03*
X172755Y306451D03*
X177874D03*
X306759Y327700D03*
X301641D03*
G54D26*
X48730Y68390D03*
Y66421D03*
Y90043D03*
Y88075D03*
Y86106D03*
Y84138D03*
Y82169D03*
Y80201D03*
Y78232D03*
Y76264D03*
Y74295D03*
Y72327D03*
Y70358D03*
Y111697D03*
Y109728D03*
Y107760D03*
Y105791D03*
Y103823D03*
Y101854D03*
Y99886D03*
Y97917D03*
Y95949D03*
Y93980D03*
Y92012D03*
Y119571D03*
Y117602D03*
Y115634D03*
Y113665D03*
X126289Y66421D03*
Y68390D03*
Y70358D03*
Y72327D03*
Y74295D03*
Y76264D03*
Y78232D03*
Y80201D03*
Y82169D03*
Y84138D03*
Y86106D03*
Y88075D03*
Y90043D03*
Y92012D03*
Y93980D03*
Y95949D03*
Y97917D03*
Y99886D03*
Y101854D03*
Y103823D03*
Y105791D03*
Y107760D03*
Y109728D03*
Y111697D03*
Y113665D03*
Y115634D03*
Y117602D03*
Y119571D03*
G54D62*
X315169Y264269D03*
X311469D03*
X307769D03*
Y254669D03*
X311469D03*
X315169D03*
G54D53*
X273414Y199641D03*
X264714Y202201D03*
Y199641D03*
X273414Y202201D03*
Y204761D03*
X264714D03*
G54D17*
X-19701Y-2286D03*
Y8714D03*
X289900Y-2800D03*
Y8200D03*
X298114Y201901D03*
Y212901D03*
X316414Y202301D03*
Y213301D03*
G54D63*
G01X-65786Y-313899D02*
Y-308899D01*
X-66546Y-309899D01*
G01Y-313899D02*
X-65026D01*
G01X-59926D02*
Y-308899D01*
X-62269Y-312482D01*
X-59102D01*
G01X-50486Y-313899D02*
X-50992Y-313816D01*
X-51436Y-313483D01*
X-51816Y-312983D01*
X-52069Y-312399D01*
X-52196Y-311732D01*
Y-311066D01*
X-52069Y-310399D01*
X-51816Y-309816D01*
X-51436Y-309316D01*
X-50992Y-308982D01*
X-50486Y-308899D01*
X-49979Y-308982D01*
X-49536Y-309316D01*
X-49156Y-309816D01*
X-48902Y-310399D01*
X-48776Y-311066D01*
Y-311732D01*
X-48902Y-312399D01*
X-49156Y-312983D01*
X-49536Y-313483D01*
X-49979Y-313816D01*
X-50486Y-313899D01*
G01X-46589D02*
Y-308899D01*
X-44182D01*
G01X-45069Y-311316D02*
X-46589D01*
G01X-35186Y-313899D02*
Y-308899D01*
X-35946Y-309899D01*
G01Y-313899D02*
X-34426D01*
G01X-29326D02*
Y-308899D01*
X-31669Y-312482D01*
X-28502D01*
G01X-63886Y-303578D02*
X-63419Y-303911D01*
X-62894Y-304111D01*
X-62428D01*
X-61961Y-303911D01*
X-61611Y-303578D01*
X-61436Y-303111D01*
X-61553Y-302644D01*
X-61844Y-302244D01*
X-62369Y-301978D01*
X-63069Y-301844D01*
X-63478Y-301578D01*
X-63653Y-301111D01*
X-63536Y-300644D01*
X-63244Y-300311D01*
X-62836Y-300111D01*
X-62428D01*
X-62019Y-300244D01*
X-61669Y-300578D01*
G01X-59086Y-304111D02*
Y-300111D01*
G01X-56636D02*
Y-304111D01*
G01Y-302111D02*
X-59086D01*
G01X-51894Y-304111D02*
X-54228D01*
Y-300111D01*
X-51894D01*
G01X-52828Y-302044D02*
X-54228D01*
G01X-47094Y-304111D02*
X-49428D01*
Y-300111D01*
X-47094D01*
G01X-48028Y-302044D02*
X-49428D01*
G01X-43461Y-300111D02*
Y-304111D01*
G01X-44803Y-300111D02*
X-42120D01*
G01X-55661Y-285111D02*
X-56128Y-285044D01*
X-56536Y-284778D01*
X-56886Y-284378D01*
X-57120Y-283911D01*
X-57236Y-283378D01*
Y-282844D01*
X-57120Y-282311D01*
X-56886Y-281844D01*
X-56536Y-281444D01*
X-56128Y-281178D01*
X-55661Y-281111D01*
X-55194Y-281178D01*
X-54786Y-281444D01*
X-54436Y-281844D01*
X-54203Y-282311D01*
X-54086Y-282844D01*
Y-283378D01*
X-54203Y-283911D01*
X-54436Y-284378D01*
X-54786Y-284778D01*
X-55194Y-285044D01*
X-55661Y-285111D01*
G01X-52028D02*
Y-281111D01*
X-50569D01*
X-50103Y-281311D01*
X-49811Y-281578D01*
X-49694Y-282111D01*
X-49811Y-282644D01*
X-50161Y-282978D01*
X-50569Y-283178D01*
X-52028D01*
G01X-50569D02*
X-49694Y-285111D01*
G01X-41961Y-281111D02*
X-40561D01*
G01X-41261D02*
Y-285111D01*
G01X-41961D02*
X-40561D01*
G01X-37803D02*
Y-281111D01*
X-35120Y-285111D01*
Y-281111D01*
G01X-28028Y-285111D02*
Y-281111D01*
X-26628D01*
X-26161Y-281311D01*
X-25811Y-281778D01*
X-25694Y-282311D01*
X-25811Y-282844D01*
X-26103Y-283244D01*
X-26628Y-283444D01*
X-28028D01*
G01X-23520Y-285111D02*
X-22061Y-281111D01*
X-20603Y-285111D01*
G01X-21128Y-283711D02*
X-22994D01*
G01X-18428Y-285111D02*
Y-281111D01*
X-16969D01*
X-16503Y-281311D01*
X-16211Y-281578D01*
X-16094Y-282111D01*
X-16211Y-282644D01*
X-16561Y-282978D01*
X-16969Y-283178D01*
X-18428D01*
G01X-16969D02*
X-16094Y-285111D01*
G01X-12461Y-281111D02*
Y-285111D01*
G01X-13803Y-281111D02*
X-11120D01*
G01X-4611D02*
X-3794Y-285111D01*
X-2861Y-281111D01*
X-1928Y-285111D01*
X-1111Y-281111D01*
G01X1239D02*
X2639D01*
G01X1939D02*
Y-285111D01*
G01X1239D02*
X2639D01*
G01X6739Y-281111D02*
Y-285111D01*
G01X5397Y-281111D02*
X8080D01*
G01X10314Y-285111D02*
Y-281111D01*
G01X12764D02*
Y-285111D01*
G01Y-283111D02*
X10314D01*
G01X16339Y-285111D02*
X15872Y-285044D01*
X15464Y-284778D01*
X15114Y-284378D01*
X14881Y-283911D01*
X14764Y-283378D01*
Y-282844D01*
X14881Y-282311D01*
X15114Y-281844D01*
X15464Y-281444D01*
X15872Y-281178D01*
X16339Y-281111D01*
X16806Y-281178D01*
X17214Y-281444D01*
X17564Y-281844D01*
X17797Y-282311D01*
X17914Y-282844D01*
Y-283378D01*
X17797Y-283911D01*
X17564Y-284378D01*
X17214Y-284778D01*
X16806Y-285044D01*
X16339Y-285111D01*
G01X19856Y-281111D02*
Y-283978D01*
X20089Y-284578D01*
X20556Y-284978D01*
X21139Y-285111D01*
X21722Y-284978D01*
X22189Y-284578D01*
X22422Y-283978D01*
Y-281111D01*
G01X25939D02*
Y-285111D01*
G01X24597Y-281111D02*
X27281D01*
G01X35539D02*
Y-285111D01*
G01X34197Y-281111D02*
X36880D01*
G01X39114Y-285111D02*
Y-281111D01*
G01X41564D02*
Y-285111D01*
G01Y-283111D02*
X39114D01*
G01X46306Y-285111D02*
X43972D01*
Y-281111D01*
X46306D01*
G01X45372Y-283044D02*
X43972D01*
G01X56022Y-281444D02*
X55672Y-281244D01*
X55264Y-281111D01*
X54797D01*
X54272Y-281311D01*
X53864Y-281644D01*
X53572Y-282044D01*
X53339Y-282711D01*
X53280Y-283311D01*
X53397Y-283911D01*
X53572Y-284311D01*
X53922Y-284711D01*
X54331Y-284978D01*
X54739Y-285111D01*
X55147D01*
X55556Y-284978D01*
X55906Y-284778D01*
X56197Y-284511D01*
G01X59539Y-285111D02*
X59072Y-285044D01*
X58664Y-284778D01*
X58314Y-284378D01*
X58080Y-283911D01*
X57964Y-283378D01*
Y-282844D01*
X58080Y-282311D01*
X58314Y-281844D01*
X58664Y-281444D01*
X59072Y-281178D01*
X59539Y-281111D01*
X60006Y-281178D01*
X60414Y-281444D01*
X60764Y-281844D01*
X60997Y-282311D01*
X61114Y-282844D01*
Y-283378D01*
X60997Y-283911D01*
X60764Y-284378D01*
X60414Y-284778D01*
X60006Y-285044D01*
X59539Y-285111D01*
G01X62997D02*
Y-281111D01*
X65680Y-285111D01*
Y-281111D01*
G01X67914Y-284578D02*
X68381Y-284911D01*
X68906Y-285111D01*
X69372D01*
X69839Y-284911D01*
X70189Y-284578D01*
X70364Y-284111D01*
X70247Y-283644D01*
X69956Y-283244D01*
X69431Y-282978D01*
X68731Y-282844D01*
X68322Y-282578D01*
X68147Y-282111D01*
X68264Y-281644D01*
X68555Y-281311D01*
X68964Y-281111D01*
X69372D01*
X69781Y-281244D01*
X70131Y-281578D01*
G01X75106Y-285111D02*
X72772D01*
Y-281111D01*
X75106D01*
G01X74172Y-283044D02*
X72772D01*
G01X77397Y-285111D02*
Y-281111D01*
X80080Y-285111D01*
Y-281111D01*
G01X83539D02*
Y-285111D01*
G01X82197Y-281111D02*
X84880D01*
G01X93139Y-285111D02*
X92672Y-285044D01*
X92264Y-284778D01*
X91914Y-284378D01*
X91680Y-283911D01*
X91564Y-283378D01*
Y-282844D01*
X91680Y-282311D01*
X91914Y-281844D01*
X92264Y-281444D01*
X92672Y-281178D01*
X93139Y-281111D01*
X93606Y-281178D01*
X94014Y-281444D01*
X94364Y-281844D01*
X94597Y-282311D01*
X94714Y-282844D01*
Y-283378D01*
X94597Y-283911D01*
X94364Y-284378D01*
X94014Y-284778D01*
X93606Y-285044D01*
X93139Y-285111D01*
G01X96830D02*
Y-281111D01*
X99047D01*
G01X98231Y-283044D02*
X96830D01*
G01X-56828Y-277111D02*
Y-273111D01*
X-55428D01*
X-54961Y-273311D01*
X-54611Y-273778D01*
X-54494Y-274311D01*
X-54611Y-274844D01*
X-54903Y-275244D01*
X-55428Y-275444D01*
X-56828D01*
G01X-52028Y-277111D02*
Y-273111D01*
X-50569D01*
X-50103Y-273311D01*
X-49811Y-273578D01*
X-49694Y-274111D01*
X-49811Y-274644D01*
X-50161Y-274978D01*
X-50569Y-275178D01*
X-52028D01*
G01X-50569D02*
X-49694Y-277111D01*
G01X-46061D02*
X-46528Y-277044D01*
X-46936Y-276778D01*
X-47286Y-276378D01*
X-47520Y-275911D01*
X-47636Y-275378D01*
Y-274844D01*
X-47520Y-274311D01*
X-47286Y-273844D01*
X-46936Y-273444D01*
X-46528Y-273178D01*
X-46061Y-273111D01*
X-45594Y-273178D01*
X-45186Y-273444D01*
X-44836Y-273844D01*
X-44603Y-274311D01*
X-44486Y-274844D01*
Y-275378D01*
X-44603Y-275911D01*
X-44836Y-276378D01*
X-45186Y-276778D01*
X-45594Y-277044D01*
X-46061Y-277111D01*
G01X-39978Y-273444D02*
X-40328Y-273244D01*
X-40736Y-273111D01*
X-41203D01*
X-41728Y-273311D01*
X-42136Y-273644D01*
X-42428Y-274044D01*
X-42661Y-274711D01*
X-42720Y-275311D01*
X-42603Y-275911D01*
X-42428Y-276311D01*
X-42078Y-276711D01*
X-41669Y-276978D01*
X-41261Y-277111D01*
X-40853D01*
X-40444Y-276978D01*
X-40094Y-276778D01*
X-39803Y-276511D01*
G01X-37744Y-273111D02*
Y-275978D01*
X-37511Y-276578D01*
X-37044Y-276978D01*
X-36461Y-277111D01*
X-35878Y-276978D01*
X-35411Y-276578D01*
X-35178Y-275978D01*
Y-273111D01*
G01X-32828Y-277111D02*
Y-273111D01*
X-31369D01*
X-30903Y-273311D01*
X-30611Y-273578D01*
X-30494Y-274111D01*
X-30611Y-274644D01*
X-30961Y-274978D01*
X-31369Y-275178D01*
X-32828D01*
G01X-31369D02*
X-30494Y-277111D01*
G01X-25694D02*
X-28028D01*
Y-273111D01*
X-25694D01*
G01X-26628Y-275044D02*
X-28028D01*
G01X-23578Y-277111D02*
Y-273111D01*
X-22061Y-276444D01*
X-20544Y-273111D01*
Y-277111D01*
G01X-16094D02*
X-18428D01*
Y-273111D01*
X-16094D01*
G01X-17028Y-275044D02*
X-18428D01*
G01X-13803Y-277111D02*
Y-273111D01*
X-11120Y-277111D01*
Y-273111D01*
G01X-7661D02*
Y-277111D01*
G01X-9003Y-273111D02*
X-6320D01*
G01X1939Y-277111D02*
X1472Y-277044D01*
X1064Y-276778D01*
X714Y-276378D01*
X480Y-275911D01*
X364Y-275378D01*
Y-274844D01*
X480Y-274311D01*
X714Y-273844D01*
X1064Y-273444D01*
X1472Y-273178D01*
X1939Y-273111D01*
X2406Y-273178D01*
X2814Y-273444D01*
X3164Y-273844D01*
X3397Y-274311D01*
X3514Y-274844D01*
Y-275378D01*
X3397Y-275911D01*
X3164Y-276378D01*
X2814Y-276778D01*
X2406Y-277044D01*
X1939Y-277111D01*
G01X5572D02*
Y-273111D01*
X7031D01*
X7497Y-273311D01*
X7789Y-273578D01*
X7906Y-274111D01*
X7789Y-274644D01*
X7439Y-274978D01*
X7031Y-275178D01*
X5572D01*
G01X7031D02*
X7906Y-277111D01*
G01X14822D02*
Y-273111D01*
X16339Y-276444D01*
X17856Y-273111D01*
Y-277111D01*
G01X19680D02*
X21139Y-273111D01*
X22597Y-277111D01*
G01X22072Y-275711D02*
X20206D01*
G01X24597Y-277111D02*
Y-273111D01*
X27281Y-277111D01*
Y-273111D01*
G01X29456D02*
Y-275978D01*
X29689Y-276578D01*
X30156Y-276978D01*
X30739Y-277111D01*
X31322Y-276978D01*
X31789Y-276578D01*
X32022Y-275978D01*
Y-273111D01*
G01X34430Y-277111D02*
Y-273111D01*
X36647D01*
G01X35831Y-275044D02*
X34430D01*
G01X38880Y-277111D02*
X40339Y-273111D01*
X41797Y-277111D01*
G01X41272Y-275711D02*
X39406D01*
G01X46422Y-273444D02*
X46072Y-273244D01*
X45664Y-273111D01*
X45197D01*
X44672Y-273311D01*
X44264Y-273644D01*
X43972Y-274044D01*
X43739Y-274711D01*
X43680Y-275311D01*
X43797Y-275911D01*
X43972Y-276311D01*
X44322Y-276711D01*
X44731Y-276978D01*
X45139Y-277111D01*
X45547D01*
X45956Y-276978D01*
X46306Y-276778D01*
X46597Y-276511D01*
G01X49939Y-273111D02*
Y-277111D01*
G01X48597Y-273111D02*
X51280D01*
G01X53456D02*
Y-275978D01*
X53689Y-276578D01*
X54156Y-276978D01*
X54739Y-277111D01*
X55322Y-276978D01*
X55789Y-276578D01*
X56022Y-275978D01*
Y-273111D01*
G01X58372Y-277111D02*
Y-273111D01*
X59831D01*
X60297Y-273311D01*
X60589Y-273578D01*
X60706Y-274111D01*
X60589Y-274644D01*
X60239Y-274978D01*
X59831Y-275178D01*
X58372D01*
G01X59831D02*
X60706Y-277111D01*
G01X65506D02*
X63172D01*
Y-273111D01*
X65506D01*
G01X64572Y-275044D02*
X63172D01*
G01X73239Y-273111D02*
X74639D01*
G01X73939D02*
Y-277111D01*
G01X73239D02*
X74639D01*
G01X77397D02*
Y-273111D01*
X80080Y-277111D01*
Y-273111D01*
G01X86589D02*
X87405Y-277111D01*
X88339Y-273111D01*
X89272Y-277111D01*
X90089Y-273111D01*
G01X91914Y-277111D02*
Y-273111D01*
G01X94364D02*
Y-277111D01*
G01Y-275111D02*
X91914D01*
G01X97939Y-277111D02*
X97472Y-277044D01*
X97064Y-276778D01*
X96714Y-276378D01*
X96480Y-275911D01*
X96364Y-275378D01*
Y-274844D01*
X96480Y-274311D01*
X96714Y-273844D01*
X97064Y-273444D01*
X97472Y-273178D01*
X97939Y-273111D01*
X98406Y-273178D01*
X98814Y-273444D01*
X99164Y-273844D01*
X99397Y-274311D01*
X99514Y-274844D01*
Y-275378D01*
X99397Y-275911D01*
X99164Y-276378D01*
X98814Y-276778D01*
X98406Y-277044D01*
X97939Y-277111D01*
G01X101572Y-273111D02*
Y-277111D01*
X103906D01*
G01X108706D02*
X106372D01*
Y-273111D01*
X108706D01*
G01X107772Y-275044D02*
X106372D01*
G01X-57003Y-269111D02*
Y-265111D01*
X-54320Y-269111D01*
Y-265111D01*
G01X-50861Y-269111D02*
X-51328Y-269044D01*
X-51736Y-268778D01*
X-52086Y-268378D01*
X-52320Y-267911D01*
X-52436Y-267378D01*
Y-266844D01*
X-52320Y-266311D01*
X-52086Y-265844D01*
X-51736Y-265444D01*
X-51328Y-265178D01*
X-50861Y-265111D01*
X-50394Y-265178D01*
X-49986Y-265444D01*
X-49636Y-265844D01*
X-49403Y-266311D01*
X-49286Y-266844D01*
Y-267378D01*
X-49403Y-267911D01*
X-49636Y-268378D01*
X-49986Y-268778D01*
X-50394Y-269044D01*
X-50861Y-269111D01*
G01X-46061Y-265111D02*
Y-269111D01*
G01X-47403Y-265111D02*
X-44720D01*
G01X-35994Y-266978D02*
X-35761Y-266778D01*
X-35586Y-266444D01*
X-35469Y-265978D01*
X-35586Y-265578D01*
X-35819Y-265311D01*
X-36228Y-265111D01*
X-37803D01*
Y-269111D01*
X-35878D01*
X-35469Y-268844D01*
X-35236Y-268444D01*
X-35120Y-267978D01*
X-35236Y-267511D01*
X-35586Y-267111D01*
X-35994Y-266978D01*
X-37803D01*
G01X-30494Y-269111D02*
X-32828D01*
Y-265111D01*
X-30494D01*
G01X-31428Y-267044D02*
X-32828D01*
G01X-23344Y-265111D02*
Y-267978D01*
X-23111Y-268578D01*
X-22644Y-268978D01*
X-22061Y-269111D01*
X-21478Y-268978D01*
X-21011Y-268578D01*
X-20778Y-267978D01*
Y-265111D01*
G01X-18486Y-268578D02*
X-18019Y-268911D01*
X-17494Y-269111D01*
X-17028D01*
X-16561Y-268911D01*
X-16211Y-268578D01*
X-16036Y-268111D01*
X-16153Y-267644D01*
X-16444Y-267244D01*
X-16969Y-266978D01*
X-17669Y-266844D01*
X-18078Y-266578D01*
X-18253Y-266111D01*
X-18136Y-265644D01*
X-17844Y-265311D01*
X-17436Y-265111D01*
X-17028D01*
X-16619Y-265244D01*
X-16269Y-265578D01*
G01X-11294Y-269111D02*
X-13628D01*
Y-265111D01*
X-11294D01*
G01X-12228Y-267044D02*
X-13628D01*
G01X-8944Y-269111D02*
Y-265111D01*
X-7778D01*
X-7311Y-265311D01*
X-6961Y-265578D01*
X-6669Y-265978D01*
X-6436Y-266444D01*
X-6378Y-267111D01*
X-6436Y-267778D01*
X-6669Y-268244D01*
X-6961Y-268644D01*
X-7311Y-268911D01*
X-7778Y-269111D01*
X-8944D01*
G01X830D02*
Y-265111D01*
X3047D01*
G01X2231Y-267044D02*
X830D01*
G01X6739Y-269111D02*
X6272Y-269044D01*
X5864Y-268778D01*
X5514Y-268378D01*
X5280Y-267911D01*
X5164Y-267378D01*
Y-266844D01*
X5280Y-266311D01*
X5514Y-265844D01*
X5864Y-265444D01*
X6272Y-265178D01*
X6739Y-265111D01*
X7206Y-265178D01*
X7614Y-265444D01*
X7964Y-265844D01*
X8197Y-266311D01*
X8314Y-266844D01*
Y-267378D01*
X8197Y-267911D01*
X7964Y-268378D01*
X7614Y-268778D01*
X7206Y-269044D01*
X6739Y-269111D01*
G01X10372D02*
Y-265111D01*
X11831D01*
X12297Y-265311D01*
X12589Y-265578D01*
X12706Y-266111D01*
X12589Y-266644D01*
X12239Y-266978D01*
X11831Y-267178D01*
X10372D01*
G01X11831D02*
X12706Y-269111D01*
G01X22306D02*
X19972D01*
Y-265111D01*
X22306D01*
G01X21372Y-267044D02*
X19972D01*
G01X24597Y-269111D02*
Y-265111D01*
X27281Y-269111D01*
Y-265111D01*
G01X31089Y-267111D02*
X32256D01*
Y-268311D01*
X31906Y-268711D01*
X31497Y-268978D01*
X30914Y-269111D01*
X30331Y-268978D01*
X29922Y-268711D01*
X29572Y-268311D01*
X29339Y-267844D01*
X29222Y-267311D01*
Y-266844D01*
X29339Y-266444D01*
X29572Y-265978D01*
X29922Y-265578D01*
X30272Y-265311D01*
X30739Y-265111D01*
X31147D01*
X31614Y-265244D01*
X31964Y-265511D01*
G01X34839Y-265111D02*
X36239D01*
G01X35539D02*
Y-269111D01*
G01X34839D02*
X36239D01*
G01X38997D02*
Y-265111D01*
X41681Y-269111D01*
Y-265111D01*
G01X46306Y-269111D02*
X43972D01*
Y-265111D01*
X46306D01*
G01X45372Y-267044D02*
X43972D01*
G01X51106Y-269111D02*
X48772D01*
Y-265111D01*
X51106D01*
G01X50172Y-267044D02*
X48772D01*
G01X53572Y-269111D02*
Y-265111D01*
X55031D01*
X55497Y-265311D01*
X55789Y-265578D01*
X55906Y-266111D01*
X55789Y-266644D01*
X55439Y-266978D01*
X55031Y-267178D01*
X53572D01*
G01X55031D02*
X55906Y-269111D01*
G01X58839Y-265111D02*
X60239D01*
G01X59539D02*
Y-269111D01*
G01X58839D02*
X60239D01*
G01X62997D02*
Y-265111D01*
X65680Y-269111D01*
Y-265111D01*
G01X69489Y-267111D02*
X70656D01*
Y-268311D01*
X70306Y-268711D01*
X69897Y-268978D01*
X69314Y-269111D01*
X68731Y-268978D01*
X68322Y-268711D01*
X67972Y-268311D01*
X67739Y-267844D01*
X67622Y-267311D01*
Y-266844D01*
X67739Y-266444D01*
X67972Y-265978D01*
X68322Y-265578D01*
X68672Y-265311D01*
X69139Y-265111D01*
X69547D01*
X70014Y-265244D01*
X70364Y-265511D01*
G01X77456Y-269111D02*
Y-265111D01*
X78622D01*
X79089Y-265311D01*
X79439Y-265578D01*
X79731Y-265978D01*
X79964Y-266444D01*
X80022Y-267111D01*
X79964Y-267778D01*
X79731Y-268244D01*
X79439Y-268644D01*
X79089Y-268911D01*
X78622Y-269111D01*
X77456D01*
G01X84706D02*
X82372D01*
Y-265111D01*
X84706D01*
G01X83772Y-267044D02*
X82372D01*
G01X87114Y-268578D02*
X87581Y-268911D01*
X88106Y-269111D01*
X88572D01*
X89039Y-268911D01*
X89389Y-268578D01*
X89564Y-268111D01*
X89447Y-267644D01*
X89156Y-267244D01*
X88631Y-266978D01*
X87931Y-266844D01*
X87522Y-266578D01*
X87347Y-266111D01*
X87464Y-265644D01*
X87756Y-265311D01*
X88164Y-265111D01*
X88572D01*
X88981Y-265244D01*
X89331Y-265578D01*
G01X92439Y-265111D02*
X93839D01*
G01X93139D02*
Y-269111D01*
G01X92439D02*
X93839D01*
G01X98289Y-267111D02*
X99456D01*
Y-268311D01*
X99106Y-268711D01*
X98697Y-268978D01*
X98114Y-269111D01*
X97531Y-268978D01*
X97122Y-268711D01*
X96772Y-268311D01*
X96539Y-267844D01*
X96422Y-267311D01*
Y-266844D01*
X96539Y-266444D01*
X96772Y-265978D01*
X97122Y-265578D01*
X97472Y-265311D01*
X97939Y-265111D01*
X98347D01*
X98814Y-265244D01*
X99164Y-265511D01*
G01X101397Y-269111D02*
Y-265111D01*
X104080Y-269111D01*
Y-265111D01*
G01X-64120Y-243111D02*
X-62661Y-239111D01*
X-61203Y-243111D01*
G01X-61728Y-241711D02*
X-63595D01*
G01X-59144Y-239111D02*
Y-241978D01*
X-58911Y-242578D01*
X-58445Y-242978D01*
X-57861Y-243111D01*
X-57278Y-242978D01*
X-56811Y-242578D01*
X-56578Y-241978D01*
Y-239111D01*
G01X-54286Y-242578D02*
X-53819Y-242911D01*
X-53294Y-243111D01*
X-52828D01*
X-52361Y-242911D01*
X-52011Y-242578D01*
X-51836Y-242111D01*
X-51953Y-241644D01*
X-52244Y-241244D01*
X-52769Y-240978D01*
X-53469Y-240844D01*
X-53878Y-240578D01*
X-54053Y-240111D01*
X-53936Y-239644D01*
X-53645Y-239311D01*
X-53236Y-239111D01*
X-52828D01*
X-52419Y-239244D01*
X-52069Y-239578D01*
G01X-48261Y-239111D02*
Y-243111D01*
G01X-49603Y-239111D02*
X-46920D01*
G01X-44161D02*
X-42761D01*
G01X-43461D02*
Y-243111D01*
G01X-44161D02*
X-42761D01*
G01X-40003D02*
Y-239111D01*
X-37320Y-243111D01*
Y-239111D01*
G01X-33861Y-243244D02*
X-33978Y-243178D01*
Y-243044D01*
X-33861Y-242978D01*
X-33744Y-243044D01*
Y-243178D01*
X-33861Y-243244D01*
G01X-24261Y-239111D02*
Y-243111D01*
G01X-25603Y-239111D02*
X-22920D01*
G01X-18294Y-243111D02*
X-20628D01*
Y-239111D01*
X-18294D01*
G01X-19228Y-241044D02*
X-20628D01*
G01X-15886Y-243111D02*
X-13436Y-239111D01*
G01X-15886D02*
X-13436Y-243111D01*
G01X-11319D02*
X-9861Y-239111D01*
X-8403Y-243111D01*
G01X-8928Y-241711D02*
X-10794D01*
G01X-6286Y-242578D02*
X-5819Y-242911D01*
X-5294Y-243111D01*
X-4828D01*
X-4361Y-242911D01*
X-4011Y-242578D01*
X-3836Y-242111D01*
X-3953Y-241644D01*
X-4244Y-241244D01*
X-4769Y-240978D01*
X-5469Y-240844D01*
X-5878Y-240578D01*
X-6053Y-240111D01*
X-5936Y-239644D01*
X-5644Y-239311D01*
X-5236Y-239111D01*
X-4828D01*
X-4419Y-239244D01*
X-4069Y-239578D01*
G01X4422Y-243111D02*
X4539Y-242244D01*
X4714Y-241511D01*
X4947Y-240844D01*
X5239Y-240111D01*
X5706Y-239111D01*
X3372D01*
G01X9339Y-243111D02*
X9747Y-243044D01*
X10214Y-242844D01*
X10506Y-242511D01*
X10622Y-242044D01*
X10506Y-241578D01*
X10156Y-241178D01*
X9631Y-240978D01*
X9047D01*
X8697Y-240844D01*
X8406Y-240511D01*
X8289Y-240044D01*
X8464Y-239578D01*
X8872Y-239244D01*
X9339Y-239111D01*
X9806Y-239244D01*
X10214Y-239578D01*
X10389Y-240044D01*
X10272Y-240511D01*
X9981Y-240844D01*
X9631Y-240978D01*
X9047D01*
X8522Y-241178D01*
X8172Y-241578D01*
X8056Y-242044D01*
X8172Y-242511D01*
X8464Y-242844D01*
X8931Y-243044D01*
X9339Y-243111D01*
G01X14022D02*
X14139Y-242244D01*
X14314Y-241511D01*
X14547Y-240844D01*
X14839Y-240111D01*
X15306Y-239111D01*
X12972D01*
G01X17656Y-242311D02*
X18006Y-242778D01*
X18472Y-243044D01*
X18997Y-243111D01*
X19464Y-243044D01*
X19931Y-242711D01*
X20222Y-242311D01*
X20280Y-241911D01*
X20164Y-241444D01*
X19756Y-241111D01*
X19347Y-240978D01*
X18822D01*
G01X19347D02*
X19697Y-240778D01*
X19989Y-240444D01*
X20106Y-240044D01*
X19989Y-239644D01*
X19697Y-239311D01*
X19172Y-239111D01*
X18647Y-239178D01*
X18122Y-239444D01*
G01X22456Y-242511D02*
X22806Y-242844D01*
X23214Y-243044D01*
X23739Y-243111D01*
X24264Y-242978D01*
X24672Y-242711D01*
X24964Y-242244D01*
X25022Y-241711D01*
X24906Y-241178D01*
X24614Y-240844D01*
X24206Y-240578D01*
X23797Y-240511D01*
X23389Y-240578D01*
X22864Y-240844D01*
X23039Y-239111D01*
X24614D01*
G01X32056D02*
Y-241978D01*
X32289Y-242578D01*
X32756Y-242978D01*
X33339Y-243111D01*
X33922Y-242978D01*
X34389Y-242578D01*
X34622Y-241978D01*
Y-239111D01*
G01X36914Y-242578D02*
X37381Y-242911D01*
X37906Y-243111D01*
X38372D01*
X38839Y-242911D01*
X39189Y-242578D01*
X39364Y-242111D01*
X39247Y-241644D01*
X38956Y-241244D01*
X38431Y-240978D01*
X37731Y-240844D01*
X37322Y-240578D01*
X37147Y-240111D01*
X37264Y-239644D01*
X37556Y-239311D01*
X37964Y-239111D01*
X38372D01*
X38781Y-239244D01*
X39131Y-239578D01*
G01X41480Y-243111D02*
X42939Y-239111D01*
X44397Y-243111D01*
G01X43872Y-241711D02*
X42006D01*
G01X-56828Y-261111D02*
Y-257111D01*
X-55428D01*
X-54961Y-257311D01*
X-54611Y-257778D01*
X-54494Y-258311D01*
X-54611Y-258844D01*
X-54903Y-259244D01*
X-55428Y-259444D01*
X-56828D01*
G01X-52028Y-261111D02*
Y-257111D01*
X-50569D01*
X-50103Y-257311D01*
X-49811Y-257578D01*
X-49694Y-258111D01*
X-49811Y-258644D01*
X-50161Y-258978D01*
X-50569Y-259178D01*
X-52028D01*
G01X-50569D02*
X-49694Y-261111D01*
G01X-46061D02*
X-46528Y-261044D01*
X-46936Y-260778D01*
X-47286Y-260378D01*
X-47520Y-259911D01*
X-47636Y-259378D01*
Y-258844D01*
X-47520Y-258311D01*
X-47286Y-257844D01*
X-46936Y-257444D01*
X-46528Y-257178D01*
X-46061Y-257111D01*
X-45594Y-257178D01*
X-45186Y-257444D01*
X-44836Y-257844D01*
X-44603Y-258311D01*
X-44486Y-258844D01*
Y-259378D01*
X-44603Y-259911D01*
X-44836Y-260378D01*
X-45186Y-260778D01*
X-45594Y-261044D01*
X-46061Y-261111D01*
G01X-42428D02*
Y-257111D01*
X-41028D01*
X-40561Y-257311D01*
X-40211Y-257778D01*
X-40094Y-258311D01*
X-40211Y-258844D01*
X-40503Y-259244D01*
X-41028Y-259444D01*
X-42428D01*
G01X-37628Y-261111D02*
Y-257111D01*
X-36169D01*
X-35703Y-257311D01*
X-35411Y-257578D01*
X-35294Y-258111D01*
X-35411Y-258644D01*
X-35761Y-258978D01*
X-36169Y-259178D01*
X-37628D01*
G01X-36169D02*
X-35294Y-261111D01*
G01X-32361Y-257111D02*
X-30961D01*
G01X-31661D02*
Y-261111D01*
G01X-32361D02*
X-30961D01*
G01X-25694D02*
X-28028D01*
Y-257111D01*
X-25694D01*
G01X-26628Y-259044D02*
X-28028D01*
G01X-22061Y-257111D02*
Y-261111D01*
G01X-23403Y-257111D02*
X-20720D01*
G01X-18720Y-261111D02*
X-17261Y-257111D01*
X-15803Y-261111D01*
G01X-16328Y-259711D02*
X-18194D01*
G01X-13628Y-261111D02*
Y-257111D01*
X-12169D01*
X-11703Y-257311D01*
X-11411Y-257578D01*
X-11294Y-258111D01*
X-11411Y-258644D01*
X-11761Y-258978D01*
X-12169Y-259178D01*
X-13628D01*
G01X-12169D02*
X-11294Y-261111D01*
G01X-7661D02*
Y-259311D01*
X-8828Y-257111D01*
G01X-6494D02*
X-7661Y-259311D01*
G01X1939Y-257111D02*
Y-261111D01*
G01X597Y-257111D02*
X3280D01*
G01X6739Y-261111D02*
X6272Y-261044D01*
X5864Y-260778D01*
X5514Y-260378D01*
X5280Y-259911D01*
X5164Y-259378D01*
Y-258844D01*
X5280Y-258311D01*
X5514Y-257844D01*
X5864Y-257444D01*
X6272Y-257178D01*
X6739Y-257111D01*
X7206Y-257178D01*
X7614Y-257444D01*
X7964Y-257844D01*
X8197Y-258311D01*
X8314Y-258844D01*
Y-259378D01*
X8197Y-259911D01*
X7964Y-260378D01*
X7614Y-260778D01*
X7206Y-261044D01*
X6739Y-261111D01*
G01X15231D02*
Y-257111D01*
X17447D01*
G01X16631Y-259044D02*
X15231D01*
G01X19972Y-261111D02*
Y-257111D01*
X21431D01*
X21897Y-257311D01*
X22189Y-257578D01*
X22306Y-258111D01*
X22189Y-258644D01*
X21839Y-258978D01*
X21431Y-259178D01*
X19972D01*
G01X21431D02*
X22306Y-261111D01*
G01X27106D02*
X24772D01*
Y-257111D01*
X27106D01*
G01X26172Y-259044D02*
X24772D01*
G01X31906Y-261111D02*
X29572D01*
Y-257111D01*
X31906D01*
G01X30972Y-259044D02*
X29572D01*
G01X34314Y-260578D02*
X34781Y-260911D01*
X35306Y-261111D01*
X35772D01*
X36239Y-260911D01*
X36589Y-260578D01*
X36764Y-260111D01*
X36647Y-259644D01*
X36356Y-259244D01*
X35831Y-258978D01*
X35131Y-258844D01*
X34722Y-258578D01*
X34547Y-258111D01*
X34664Y-257644D01*
X34956Y-257311D01*
X35364Y-257111D01*
X35772D01*
X36181Y-257244D01*
X36531Y-257578D01*
G01X41622Y-257444D02*
X41272Y-257244D01*
X40864Y-257111D01*
X40397D01*
X39872Y-257311D01*
X39464Y-257644D01*
X39172Y-258044D01*
X38939Y-258711D01*
X38880Y-259311D01*
X38997Y-259911D01*
X39172Y-260311D01*
X39522Y-260711D01*
X39931Y-260978D01*
X40339Y-261111D01*
X40747D01*
X41156Y-260978D01*
X41506Y-260778D01*
X41797Y-260511D01*
G01X43680Y-261111D02*
X45139Y-257111D01*
X46597Y-261111D01*
G01X46072Y-259711D02*
X44206D01*
G01X48772Y-257111D02*
Y-261111D01*
X51106D01*
G01X55906D02*
X53572D01*
Y-257111D01*
X55906D01*
G01X54972Y-259044D02*
X53572D01*
G01X62880Y-261111D02*
X64339Y-257111D01*
X65797Y-261111D01*
G01X65272Y-259711D02*
X63405D01*
G01X67797Y-261111D02*
Y-257111D01*
X70480Y-261111D01*
Y-257111D01*
G01X72656Y-261111D02*
Y-257111D01*
X73822D01*
X74289Y-257311D01*
X74639Y-257578D01*
X74931Y-257978D01*
X75164Y-258444D01*
X75222Y-259111D01*
X75164Y-259778D01*
X74931Y-260244D01*
X74639Y-260644D01*
X74289Y-260911D01*
X73822Y-261111D01*
X72656D01*
G01X82314Y-260578D02*
X82781Y-260911D01*
X83306Y-261111D01*
X83772D01*
X84239Y-260911D01*
X84589Y-260578D01*
X84764Y-260111D01*
X84647Y-259644D01*
X84356Y-259244D01*
X83831Y-258978D01*
X83131Y-258844D01*
X82722Y-258578D01*
X82547Y-258111D01*
X82664Y-257644D01*
X82956Y-257311D01*
X83364Y-257111D01*
X83772D01*
X84181Y-257244D01*
X84531Y-257578D01*
G01X87114Y-261111D02*
Y-257111D01*
G01X89564D02*
Y-261111D01*
G01Y-259111D02*
X87114D01*
G01X91680Y-261111D02*
X93139Y-257111D01*
X94597Y-261111D01*
G01X94072Y-259711D02*
X92206D01*
G01X96772Y-257111D02*
Y-261111D01*
X99106D01*
G01X101572Y-257111D02*
Y-261111D01*
X103906D01*
G01X-56661Y-249111D02*
Y-253111D01*
G01X-58003Y-249111D02*
X-55320D01*
G01X-53086Y-253111D02*
Y-249111D01*
G01X-50636D02*
Y-253111D01*
G01Y-251111D02*
X-53086D01*
G01X-47761Y-249111D02*
X-46361D01*
G01X-47061D02*
Y-253111D01*
G01X-47761D02*
X-46361D01*
G01X-43486Y-252578D02*
X-43019Y-252911D01*
X-42494Y-253111D01*
X-42028D01*
X-41561Y-252911D01*
X-41211Y-252578D01*
X-41036Y-252111D01*
X-41153Y-251644D01*
X-41444Y-251244D01*
X-41969Y-250978D01*
X-42669Y-250844D01*
X-43078Y-250578D01*
X-43253Y-250111D01*
X-43136Y-249644D01*
X-42844Y-249311D01*
X-42436Y-249111D01*
X-42028D01*
X-41619Y-249244D01*
X-41269Y-249578D01*
G01X-33944Y-253111D02*
Y-249111D01*
X-32778D01*
X-32311Y-249311D01*
X-31961Y-249578D01*
X-31669Y-249978D01*
X-31436Y-250444D01*
X-31378Y-251111D01*
X-31436Y-251778D01*
X-31669Y-252244D01*
X-31961Y-252644D01*
X-32311Y-252911D01*
X-32778Y-253111D01*
X-33944D01*
G01X-27861D02*
X-28328Y-253044D01*
X-28736Y-252778D01*
X-29086Y-252378D01*
X-29320Y-251911D01*
X-29436Y-251378D01*
Y-250844D01*
X-29320Y-250311D01*
X-29086Y-249844D01*
X-28736Y-249444D01*
X-28328Y-249178D01*
X-27861Y-249111D01*
X-27394Y-249178D01*
X-26986Y-249444D01*
X-26636Y-249844D01*
X-26403Y-250311D01*
X-26286Y-250844D01*
Y-251378D01*
X-26403Y-251911D01*
X-26636Y-252378D01*
X-26986Y-252778D01*
X-27394Y-253044D01*
X-27861Y-253111D01*
G01X-21778Y-249444D02*
X-22128Y-249244D01*
X-22536Y-249111D01*
X-23003D01*
X-23528Y-249311D01*
X-23936Y-249644D01*
X-24228Y-250044D01*
X-24461Y-250711D01*
X-24520Y-251311D01*
X-24403Y-251911D01*
X-24228Y-252311D01*
X-23878Y-252711D01*
X-23469Y-252978D01*
X-23061Y-253111D01*
X-22653D01*
X-22244Y-252978D01*
X-21894Y-252778D01*
X-21603Y-252511D01*
G01X-19544Y-249111D02*
Y-251978D01*
X-19311Y-252578D01*
X-18844Y-252978D01*
X-18261Y-253111D01*
X-17678Y-252978D01*
X-17211Y-252578D01*
X-16978Y-251978D01*
Y-249111D01*
G01X-14978Y-253111D02*
Y-249111D01*
X-13461Y-252444D01*
X-11944Y-249111D01*
Y-253111D01*
G01X-7494D02*
X-9828D01*
Y-249111D01*
X-7494D01*
G01X-8428Y-251044D02*
X-9828D01*
G01X-5203Y-253111D02*
Y-249111D01*
X-2520Y-253111D01*
Y-249111D01*
G01X939D02*
Y-253111D01*
G01X-403Y-249111D02*
X2280D01*
G01X11822Y-249444D02*
X11472Y-249244D01*
X11064Y-249111D01*
X10597D01*
X10072Y-249311D01*
X9664Y-249644D01*
X9372Y-250044D01*
X9139Y-250711D01*
X9081Y-251311D01*
X9197Y-251911D01*
X9372Y-252311D01*
X9722Y-252711D01*
X10131Y-252978D01*
X10539Y-253111D01*
X10947D01*
X11356Y-252978D01*
X11706Y-252778D01*
X11997Y-252511D01*
G01X15339Y-253111D02*
X14872Y-253044D01*
X14464Y-252778D01*
X14114Y-252378D01*
X13881Y-251911D01*
X13764Y-251378D01*
Y-250844D01*
X13881Y-250311D01*
X14114Y-249844D01*
X14464Y-249444D01*
X14872Y-249178D01*
X15339Y-249111D01*
X15806Y-249178D01*
X16214Y-249444D01*
X16564Y-249844D01*
X16797Y-250311D01*
X16914Y-250844D01*
Y-251378D01*
X16797Y-251911D01*
X16564Y-252378D01*
X16214Y-252778D01*
X15806Y-253044D01*
X15339Y-253111D01*
G01X18797D02*
Y-249111D01*
X21481Y-253111D01*
Y-249111D01*
G01X24939D02*
Y-253111D01*
G01X23597Y-249111D02*
X26280D01*
G01X28281Y-253111D02*
X29739Y-249111D01*
X31197Y-253111D01*
G01X30672Y-251711D02*
X28806D01*
G01X33839Y-249111D02*
X35239D01*
G01X34539D02*
Y-253111D01*
G01X33839D02*
X35239D01*
G01X37997D02*
Y-249111D01*
X40680Y-253111D01*
Y-249111D01*
G01X42914Y-252578D02*
X43381Y-252911D01*
X43906Y-253111D01*
X44372D01*
X44839Y-252911D01*
X45189Y-252578D01*
X45364Y-252111D01*
X45247Y-251644D01*
X44956Y-251244D01*
X44431Y-250978D01*
X43731Y-250844D01*
X43322Y-250578D01*
X43147Y-250111D01*
X43264Y-249644D01*
X43556Y-249311D01*
X43964Y-249111D01*
X44372D01*
X44781Y-249244D01*
X45131Y-249578D01*
G01X53039Y-249111D02*
X54439D01*
G01X53739D02*
Y-253111D01*
G01X53039D02*
X54439D01*
G01X57197D02*
Y-249111D01*
X59880Y-253111D01*
Y-249111D01*
G01X62230Y-253111D02*
Y-249111D01*
X64447D01*
G01X63631Y-251044D02*
X62230D01*
G01X68139Y-253111D02*
X67672Y-253044D01*
X67264Y-252778D01*
X66914Y-252378D01*
X66680Y-251911D01*
X66564Y-251378D01*
Y-250844D01*
X66680Y-250311D01*
X66914Y-249844D01*
X67264Y-249444D01*
X67672Y-249178D01*
X68139Y-249111D01*
X68606Y-249178D01*
X69014Y-249444D01*
X69364Y-249844D01*
X69597Y-250311D01*
X69714Y-250844D01*
Y-251378D01*
X69597Y-251911D01*
X69364Y-252378D01*
X69014Y-252778D01*
X68606Y-253044D01*
X68139Y-253111D01*
G01X71772D02*
Y-249111D01*
X73231D01*
X73697Y-249311D01*
X73989Y-249578D01*
X74106Y-250111D01*
X73989Y-250644D01*
X73639Y-250978D01*
X73231Y-251178D01*
X71772D01*
G01X73231D02*
X74106Y-253111D01*
G01X76222D02*
Y-249111D01*
X77739Y-252444D01*
X79256Y-249111D01*
Y-253111D01*
G01X81080D02*
X82539Y-249111D01*
X83997Y-253111D01*
G01X83472Y-251711D02*
X81606D01*
G01X87339Y-249111D02*
Y-253111D01*
G01X85997Y-249111D02*
X88680D01*
G01X91439D02*
X92839D01*
G01X92139D02*
Y-253111D01*
G01X91439D02*
X92839D01*
G01X96939D02*
X96472Y-253044D01*
X96064Y-252778D01*
X95714Y-252378D01*
X95480Y-251911D01*
X95364Y-251378D01*
Y-250844D01*
X95480Y-250311D01*
X95714Y-249844D01*
X96064Y-249444D01*
X96472Y-249178D01*
X96939Y-249111D01*
X97406Y-249178D01*
X97814Y-249444D01*
X98164Y-249844D01*
X98397Y-250311D01*
X98514Y-250844D01*
Y-251378D01*
X98397Y-251911D01*
X98164Y-252378D01*
X97814Y-252778D01*
X97406Y-253044D01*
X96939Y-253111D01*
G01X100397D02*
Y-249111D01*
X103081Y-253111D01*
Y-249111D01*
G01X-63770Y-234444D02*
X-63361Y-233978D01*
X-63011Y-233711D01*
X-62544Y-233578D01*
X-62136Y-233711D01*
X-61844Y-233978D01*
X-61611Y-234378D01*
X-61553Y-234844D01*
X-61611Y-235244D01*
X-61844Y-235644D01*
X-62195Y-235978D01*
X-62603Y-236111D01*
X-63069Y-235978D01*
X-63478Y-235578D01*
X-63711Y-234978D01*
X-63770Y-234311D01*
X-63653Y-233444D01*
X-63478Y-232978D01*
X-63186Y-232511D01*
X-62778Y-232178D01*
X-62369Y-232111D01*
X-61961Y-232244D01*
X-61669Y-232578D01*
G01X-59144Y-235511D02*
X-58795Y-235844D01*
X-58386Y-236044D01*
X-57861Y-236111D01*
X-57336Y-235978D01*
X-56928Y-235711D01*
X-56636Y-235244D01*
X-56578Y-234711D01*
X-56694Y-234178D01*
X-56986Y-233844D01*
X-57395Y-233578D01*
X-57803Y-233511D01*
X-58211Y-233578D01*
X-58736Y-233844D01*
X-58561Y-232111D01*
X-56986D01*
G01X-53061D02*
X-53528Y-232244D01*
X-53878Y-232578D01*
X-54111Y-232978D01*
X-54286Y-233511D01*
X-54344Y-234111D01*
X-54286Y-234711D01*
X-54111Y-235244D01*
X-53878Y-235644D01*
X-53528Y-235978D01*
X-53061Y-236111D01*
X-52595Y-235978D01*
X-52244Y-235644D01*
X-52011Y-235244D01*
X-51836Y-234711D01*
X-51778Y-234111D01*
X-51836Y-233511D01*
X-52011Y-232978D01*
X-52244Y-232578D01*
X-52595Y-232244D01*
X-53061Y-232111D01*
G01X-48261Y-236111D02*
Y-232111D01*
X-48961Y-232911D01*
G01Y-236111D02*
X-47561D01*
G01X-40411Y-232111D02*
X-39594Y-236111D01*
X-38661Y-232111D01*
X-37728Y-236111D01*
X-36911Y-232111D01*
G01X-34561D02*
X-33161D01*
G01X-33861D02*
Y-236111D01*
G01X-34561D02*
X-33161D01*
G01X-30228Y-232111D02*
Y-236111D01*
X-27894D01*
G01X-25428Y-232111D02*
Y-236111D01*
X-23094D01*
G01X-20161Y-232111D02*
X-18761D01*
G01X-19461D02*
Y-236111D01*
G01X-20161D02*
X-18761D01*
G01X-16120D02*
X-14661Y-232111D01*
X-13203Y-236111D01*
G01X-13728Y-234711D02*
X-15594D01*
G01X-11378Y-236111D02*
Y-232111D01*
X-9861Y-235444D01*
X-8344Y-232111D01*
Y-236111D01*
G01X1022Y-232444D02*
X672Y-232244D01*
X264Y-232111D01*
X-203D01*
X-728Y-232311D01*
X-1136Y-232644D01*
X-1428Y-233044D01*
X-1661Y-233711D01*
X-1720Y-234311D01*
X-1603Y-234911D01*
X-1428Y-235311D01*
X-1078Y-235711D01*
X-669Y-235978D01*
X-261Y-236111D01*
X147D01*
X556Y-235978D01*
X906Y-235778D01*
X1197Y-235511D01*
G01X3080Y-236111D02*
X4539Y-232111D01*
X5997Y-236111D01*
G01X5472Y-234711D02*
X3606D01*
G01X7997Y-236111D02*
Y-232111D01*
X10681Y-236111D01*
Y-232111D01*
G01X12797Y-236111D02*
Y-232111D01*
X15480Y-236111D01*
Y-232111D01*
G01X18939Y-236111D02*
X18472Y-236044D01*
X18064Y-235778D01*
X17714Y-235378D01*
X17480Y-234911D01*
X17364Y-234378D01*
Y-233844D01*
X17480Y-233311D01*
X17714Y-232844D01*
X18064Y-232444D01*
X18472Y-232178D01*
X18939Y-232111D01*
X19406Y-232178D01*
X19814Y-232444D01*
X20164Y-232844D01*
X20397Y-233311D01*
X20514Y-233844D01*
Y-234378D01*
X20397Y-234911D01*
X20164Y-235378D01*
X19814Y-235778D01*
X19406Y-236044D01*
X18939Y-236111D01*
G01X22397D02*
Y-232111D01*
X25080Y-236111D01*
Y-232111D01*
G01X32056Y-236111D02*
Y-232111D01*
X33222D01*
X33689Y-232311D01*
X34039Y-232578D01*
X34331Y-232978D01*
X34564Y-233444D01*
X34622Y-234111D01*
X34564Y-234778D01*
X34331Y-235244D01*
X34039Y-235644D01*
X33689Y-235911D01*
X33222Y-236111D01*
X32056D01*
G01X36972D02*
Y-232111D01*
X38431D01*
X38897Y-232311D01*
X39189Y-232578D01*
X39306Y-233111D01*
X39189Y-233644D01*
X38839Y-233978D01*
X38431Y-234178D01*
X36972D01*
G01X38431D02*
X39306Y-236111D01*
G01X42239Y-232111D02*
X43639D01*
G01X42939D02*
Y-236111D01*
G01X42239D02*
X43639D01*
G01X46280Y-232111D02*
X47739Y-236111D01*
X49197Y-232111D01*
G01X53706Y-236111D02*
X51372D01*
Y-232111D01*
X53706D01*
G01X52772Y-234044D02*
X51372D01*
G01X60389Y-232111D02*
X61206Y-236111D01*
X62139Y-232111D01*
X63072Y-236111D01*
X63889Y-232111D01*
G01X68106Y-236111D02*
X65772D01*
Y-232111D01*
X68106D01*
G01X67172Y-234044D02*
X65772D01*
G01X70514Y-235578D02*
X70981Y-235911D01*
X71506Y-236111D01*
X71972D01*
X72439Y-235911D01*
X72789Y-235578D01*
X72964Y-235111D01*
X72847Y-234644D01*
X72556Y-234244D01*
X72031Y-233978D01*
X71331Y-233844D01*
X70922Y-233578D01*
X70747Y-233111D01*
X70864Y-232644D01*
X71156Y-232311D01*
X71564Y-232111D01*
X71972D01*
X72381Y-232244D01*
X72731Y-232578D01*
G01X76539Y-232111D02*
Y-236111D01*
G01X75197Y-232111D02*
X77880D01*
G01X-64384Y-228111D02*
Y-220611D01*
X-60838D01*
G01X-62144Y-224236D02*
X-64384D01*
G01X-56978Y-228111D02*
Y-220611D01*
X-54644D01*
X-53898Y-220986D01*
X-53431Y-221486D01*
X-53244Y-222486D01*
X-53431Y-223486D01*
X-53991Y-224111D01*
X-54644Y-224486D01*
X-56978D01*
G01X-54644D02*
X-53244Y-228111D01*
G01X-45744D02*
X-49478D01*
Y-220611D01*
X-45744D01*
G01X-47238Y-224236D02*
X-49478D01*
G01X-38244Y-228111D02*
X-41978D01*
Y-220611D01*
X-38244D01*
G01X-39738Y-224236D02*
X-41978D01*
G01X-34571Y-227111D02*
X-33824Y-227736D01*
X-32984Y-228111D01*
X-32238D01*
X-31491Y-227736D01*
X-30931Y-227111D01*
X-30651Y-226236D01*
X-30838Y-225361D01*
X-31304Y-224611D01*
X-32144Y-224111D01*
X-33264Y-223861D01*
X-33918Y-223361D01*
X-34198Y-222486D01*
X-34011Y-221611D01*
X-33544Y-220986D01*
X-32891Y-220611D01*
X-32238D01*
X-31584Y-220861D01*
X-31024Y-221486D01*
G01X-23058Y-221236D02*
X-23618Y-220861D01*
X-24271Y-220611D01*
X-25018D01*
X-25858Y-220986D01*
X-26511Y-221611D01*
X-26978Y-222361D01*
X-27351Y-223611D01*
X-27444Y-224736D01*
X-27258Y-225861D01*
X-26978Y-226611D01*
X-26418Y-227361D01*
X-25764Y-227861D01*
X-25111Y-228111D01*
X-24458D01*
X-23804Y-227861D01*
X-23244Y-227486D01*
X-22778Y-226986D01*
G01X-19944Y-228111D02*
X-17611Y-220611D01*
X-15278Y-228111D01*
G01X-16118Y-225486D02*
X-19104D01*
G01X-11978Y-220611D02*
Y-228111D01*
X-8244D01*
G01X-744D02*
X-4478D01*
Y-220611D01*
X-744D01*
G01X-2238Y-224236D02*
X-4478D01*
G01X10429Y-227111D02*
X11176Y-227736D01*
X12016Y-228111D01*
X12762D01*
X13509Y-227736D01*
X14069Y-227111D01*
X14349Y-226236D01*
X14162Y-225361D01*
X13696Y-224611D01*
X12856Y-224111D01*
X11736Y-223861D01*
X11082Y-223361D01*
X10802Y-222486D01*
X10989Y-221611D01*
X11456Y-220986D01*
X12109Y-220611D01*
X12762D01*
X13416Y-220861D01*
X13976Y-221486D01*
G01X21756Y-228111D02*
X18022D01*
Y-220611D01*
X21756D01*
G01X20262Y-224236D02*
X18022D01*
G01X24962Y-228111D02*
Y-220611D01*
X27389Y-226861D01*
X29816Y-220611D01*
Y-228111D01*
G01X33769Y-220611D02*
X36009D01*
G01X34889D02*
Y-228111D01*
G01X33769D02*
X36009D01*
G01X44442Y-221236D02*
X43882Y-220861D01*
X43229Y-220611D01*
X42482D01*
X41642Y-220986D01*
X40989Y-221611D01*
X40522Y-222361D01*
X40149Y-223611D01*
X40056Y-224736D01*
X40242Y-225861D01*
X40522Y-226611D01*
X41082Y-227361D01*
X41736Y-227861D01*
X42389Y-228111D01*
X43042D01*
X43696Y-227861D01*
X44256Y-227486D01*
X44722Y-226986D01*
G01X49889Y-228111D02*
X49142Y-227986D01*
X48489Y-227486D01*
X47929Y-226736D01*
X47556Y-225861D01*
X47369Y-224861D01*
Y-223861D01*
X47556Y-222861D01*
X47929Y-221986D01*
X48489Y-221236D01*
X49142Y-220736D01*
X49889Y-220611D01*
X50636Y-220736D01*
X51289Y-221236D01*
X51849Y-221986D01*
X52222Y-222861D01*
X52409Y-223861D01*
Y-224861D01*
X52222Y-225861D01*
X51849Y-226736D01*
X51289Y-227486D01*
X50636Y-227986D01*
X49889Y-228111D01*
G01X55242D02*
Y-220611D01*
X59536Y-228111D01*
Y-220611D01*
G01X62836Y-228111D02*
Y-220611D01*
X64702D01*
X65449Y-220986D01*
X66009Y-221486D01*
X66476Y-222236D01*
X66849Y-223111D01*
X66942Y-224361D01*
X66849Y-225611D01*
X66476Y-226486D01*
X66009Y-227236D01*
X65449Y-227736D01*
X64702Y-228111D01*
X62836D01*
G01X70336Y-220611D02*
Y-225986D01*
X70709Y-227111D01*
X71456Y-227861D01*
X72389Y-228111D01*
X73322Y-227861D01*
X74069Y-227111D01*
X74442Y-225986D01*
Y-220611D01*
G01X81942Y-221236D02*
X81382Y-220861D01*
X80729Y-220611D01*
X79982D01*
X79142Y-220986D01*
X78489Y-221611D01*
X78022Y-222361D01*
X77649Y-223611D01*
X77556Y-224736D01*
X77742Y-225861D01*
X78022Y-226611D01*
X78582Y-227361D01*
X79236Y-227861D01*
X79889Y-228111D01*
X80542D01*
X81196Y-227861D01*
X81756Y-227486D01*
X82222Y-226986D01*
G01X87389Y-220611D02*
Y-228111D01*
G01X85242Y-220611D02*
X89536D01*
G01X94889Y-228111D02*
X94142Y-227986D01*
X93489Y-227486D01*
X92929Y-226736D01*
X92556Y-225861D01*
X92369Y-224861D01*
Y-223861D01*
X92556Y-222861D01*
X92929Y-221986D01*
X93489Y-221236D01*
X94142Y-220736D01*
X94889Y-220611D01*
X95636Y-220736D01*
X96289Y-221236D01*
X96849Y-221986D01*
X97222Y-222861D01*
X97409Y-223861D01*
Y-224861D01*
X97222Y-225861D01*
X96849Y-226736D01*
X96289Y-227486D01*
X95636Y-227986D01*
X94889Y-228111D01*
G01X100522D02*
Y-220611D01*
X102856D01*
X103602Y-220986D01*
X104069Y-221486D01*
X104256Y-222486D01*
X104069Y-223486D01*
X103509Y-224111D01*
X102856Y-224486D01*
X100522D01*
G01X102856D02*
X104256Y-228111D01*
G01X-55770Y-293111D02*
Y-289111D01*
X-53553D01*
G01X-54369Y-291044D02*
X-55770D01*
G01X-51028Y-293111D02*
Y-289111D01*
X-49569D01*
X-49103Y-289311D01*
X-48811Y-289578D01*
X-48694Y-290111D01*
X-48811Y-290644D01*
X-49161Y-290978D01*
X-49569Y-291178D01*
X-51028D01*
G01X-49569D02*
X-48694Y-293111D01*
G01X-43894D02*
X-46228D01*
Y-289111D01*
X-43894D01*
G01X-44828Y-291044D02*
X-46228D01*
G01X-39094Y-293111D02*
X-41428D01*
Y-289111D01*
X-39094D01*
G01X-40028Y-291044D02*
X-41428D01*
G01X-36686Y-292578D02*
X-36219Y-292911D01*
X-35694Y-293111D01*
X-35228D01*
X-34761Y-292911D01*
X-34411Y-292578D01*
X-34236Y-292111D01*
X-34353Y-291644D01*
X-34644Y-291244D01*
X-35169Y-290978D01*
X-35869Y-290844D01*
X-36278Y-290578D01*
X-36453Y-290111D01*
X-36336Y-289644D01*
X-36044Y-289311D01*
X-35636Y-289111D01*
X-35228D01*
X-34819Y-289244D01*
X-34469Y-289578D01*
G01X-29378Y-289444D02*
X-29728Y-289244D01*
X-30136Y-289111D01*
X-30603D01*
X-31128Y-289311D01*
X-31536Y-289644D01*
X-31828Y-290044D01*
X-32061Y-290711D01*
X-32120Y-291311D01*
X-32003Y-291911D01*
X-31828Y-292311D01*
X-31478Y-292711D01*
X-31069Y-292978D01*
X-30661Y-293111D01*
X-30253D01*
X-29844Y-292978D01*
X-29494Y-292778D01*
X-29203Y-292511D01*
G01X-27320Y-293111D02*
X-25861Y-289111D01*
X-24403Y-293111D01*
G01X-24928Y-291711D02*
X-26794D01*
G01X-22228Y-289111D02*
Y-293111D01*
X-19894D01*
G01X-15094D02*
X-17428D01*
Y-289111D01*
X-15094D01*
G01X-16028Y-291044D02*
X-17428D01*
G01X-11461Y-293244D02*
X-11578Y-293178D01*
Y-293044D01*
X-11461Y-292978D01*
X-11344Y-293044D01*
Y-293178D01*
X-11461Y-293244D01*
G01X-16816Y-313233D02*
X-16309Y-313649D01*
X-15739Y-313899D01*
X-15232D01*
X-14726Y-313649D01*
X-14346Y-313233D01*
X-14156Y-312649D01*
X-14282Y-312066D01*
X-14599Y-311566D01*
X-15169Y-311232D01*
X-15929Y-311066D01*
X-16372Y-310733D01*
X-16562Y-310149D01*
X-16436Y-309566D01*
X-16119Y-309149D01*
X-15676Y-308899D01*
X-15232D01*
X-14789Y-309066D01*
X-14409Y-309483D01*
G01X-9119Y-313899D02*
X-11652D01*
Y-308899D01*
X-9119D01*
G01X-10132Y-311316D02*
X-11652D01*
G01X-3892Y-309316D02*
X-4272Y-309066D01*
X-4715Y-308899D01*
X-5222D01*
X-5792Y-309149D01*
X-6236Y-309566D01*
X-6552Y-310066D01*
X-6806Y-310899D01*
X-6869Y-311649D01*
X-6742Y-312399D01*
X-6552Y-312899D01*
X-6172Y-313399D01*
X-5729Y-313733D01*
X-5286Y-313899D01*
X-4842D01*
X-4399Y-313733D01*
X-4019Y-313483D01*
X-3702Y-313149D01*
G01X-186Y-313899D02*
X-692Y-313816D01*
X-1136Y-313483D01*
X-1516Y-312983D01*
X-1769Y-312399D01*
X-1896Y-311732D01*
Y-311066D01*
X-1769Y-310399D01*
X-1516Y-309816D01*
X-1136Y-309316D01*
X-692Y-308982D01*
X-186Y-308899D01*
X321Y-308982D01*
X764Y-309316D01*
X1144Y-309816D01*
X1398Y-310399D01*
X1524Y-311066D01*
Y-311732D01*
X1398Y-312399D01*
X1144Y-312983D01*
X764Y-313483D01*
X321Y-313816D01*
X-186Y-313899D01*
G01X3458D02*
Y-308899D01*
X6371Y-313899D01*
Y-308899D01*
G01X8621Y-313899D02*
Y-308899D01*
X9888D01*
X10394Y-309149D01*
X10774Y-309483D01*
X11091Y-309982D01*
X11344Y-310566D01*
X11408Y-311399D01*
X11344Y-312233D01*
X11091Y-312816D01*
X10774Y-313316D01*
X10394Y-313649D01*
X9888Y-313899D01*
X8621D01*
G01X13531D02*
X15114Y-308899D01*
X16698Y-313899D01*
G01X16128Y-312149D02*
X14101D01*
G01X18948Y-313899D02*
Y-308899D01*
X20531D01*
X21038Y-309149D01*
X21354Y-309483D01*
X21481Y-310149D01*
X21354Y-310816D01*
X20974Y-311232D01*
X20531Y-311483D01*
X18948D01*
G01X20531D02*
X21481Y-313899D01*
G01X25314D02*
Y-311649D01*
X24048Y-308899D01*
G01X26581D02*
X25314Y-311649D01*
G01X34184Y-313233D02*
X34691Y-313649D01*
X35261Y-313899D01*
X35768D01*
X36275Y-313649D01*
X36654Y-313233D01*
X36844Y-312649D01*
X36718Y-312066D01*
X36401Y-311566D01*
X35831Y-311232D01*
X35071Y-311066D01*
X34628Y-310733D01*
X34438Y-310149D01*
X34564Y-309566D01*
X34881Y-309149D01*
X35324Y-308899D01*
X35768D01*
X36211Y-309066D01*
X36591Y-309483D01*
G01X40614Y-313899D02*
X40108Y-313816D01*
X39664Y-313483D01*
X39285Y-312983D01*
X39031Y-312399D01*
X38904Y-311732D01*
Y-311066D01*
X39031Y-310399D01*
X39285Y-309816D01*
X39664Y-309316D01*
X40108Y-308982D01*
X40614Y-308899D01*
X41121Y-308982D01*
X41564Y-309316D01*
X41944Y-309816D01*
X42198Y-310399D01*
X42325Y-311066D01*
Y-311732D01*
X42198Y-312399D01*
X41944Y-312983D01*
X41564Y-313483D01*
X41121Y-313816D01*
X40614Y-313899D01*
G01X44448Y-308899D02*
Y-313899D01*
X46981D01*
G01X49421D02*
Y-308899D01*
X50688D01*
X51194Y-309149D01*
X51574Y-309483D01*
X51891Y-309982D01*
X52145Y-310566D01*
X52208Y-311399D01*
X52145Y-312233D01*
X51891Y-312816D01*
X51574Y-313316D01*
X51194Y-313649D01*
X50688Y-313899D01*
X49421D01*
G01X57181D02*
X54648D01*
Y-308899D01*
X57181D01*
G01X56168Y-311316D02*
X54648D01*
G01X59748Y-313899D02*
Y-308899D01*
X61331D01*
X61838Y-309149D01*
X62154Y-309483D01*
X62281Y-310149D01*
X62154Y-310816D01*
X61774Y-311232D01*
X61331Y-311483D01*
X59748D01*
G01X61331D02*
X62281Y-313899D01*
G01X69948D02*
Y-308899D01*
X71468D01*
X71974Y-309149D01*
X72354Y-309732D01*
X72481Y-310399D01*
X72354Y-311066D01*
X72038Y-311566D01*
X71468Y-311816D01*
X69948D01*
G01X74731Y-313899D02*
X76314Y-308899D01*
X77898Y-313899D01*
G01X77328Y-312149D02*
X75301D01*
G01X80084Y-313233D02*
X80591Y-313649D01*
X81161Y-313899D01*
X81668D01*
X82174Y-313649D01*
X82554Y-313233D01*
X82745Y-312649D01*
X82618Y-312066D01*
X82301Y-311566D01*
X81731Y-311232D01*
X80971Y-311066D01*
X80528Y-310733D01*
X80338Y-310149D01*
X80464Y-309566D01*
X80781Y-309149D01*
X81224Y-308899D01*
X81668D01*
X82111Y-309066D01*
X82491Y-309483D01*
G01X86514Y-308899D02*
Y-313899D01*
G01X85058Y-308899D02*
X87971D01*
G01X92881Y-313899D02*
X90348D01*
Y-308899D01*
X92881D01*
G01X91868Y-311316D02*
X90348D01*
G01X-13769Y-304111D02*
Y-300111D01*
X-11553D01*
G01X-12369Y-302044D02*
X-13769D01*
G01X-8561Y-300111D02*
X-7161D01*
G01X-7861D02*
Y-304111D01*
G01X-8561D02*
X-7161D01*
G01X-4228Y-300111D02*
Y-304111D01*
X-1894D01*
G01X222D02*
Y-300111D01*
X1739Y-303444D01*
X3256Y-300111D01*
Y-304111D01*
G01X114339Y-308111D02*
X113872Y-308244D01*
X113522Y-308578D01*
X113289Y-308978D01*
X113114Y-309511D01*
X113056Y-310111D01*
X113114Y-310711D01*
X113289Y-311244D01*
X113522Y-311644D01*
X113872Y-311978D01*
X114339Y-312111D01*
X114806Y-311978D01*
X115156Y-311644D01*
X115389Y-311244D01*
X115564Y-310711D01*
X115622Y-310111D01*
X115564Y-309511D01*
X115389Y-308978D01*
X115156Y-308578D01*
X114806Y-308244D01*
X114339Y-308111D01*
G01X119139Y-312111D02*
Y-308111D01*
X118439Y-308911D01*
G01Y-312111D02*
X119839D01*
G01X123181Y-310778D02*
X124697D01*
G01X128739Y-312111D02*
Y-308111D01*
X128039Y-308911D01*
G01Y-312111D02*
X129439D01*
G01X133539D02*
Y-308111D01*
X132839Y-308911D01*
G01Y-312111D02*
X134239D01*
G01X137581Y-310778D02*
X139097D01*
G01X143139Y-312111D02*
Y-308111D01*
X142439Y-308911D01*
G01Y-312111D02*
X143839D01*
G01X146656Y-311311D02*
X147006Y-311778D01*
X147472Y-312044D01*
X147997Y-312111D01*
X148464Y-312044D01*
X148931Y-311711D01*
X149222Y-311311D01*
X149281Y-310911D01*
X149164Y-310444D01*
X148756Y-310111D01*
X148347Y-309978D01*
X147822D01*
G01X148347D02*
X148697Y-309778D01*
X148989Y-309444D01*
X149106Y-309044D01*
X148989Y-308644D01*
X148697Y-308311D01*
X148172Y-308111D01*
X147647Y-308178D01*
X147122Y-308444D01*
G01X120589Y-289944D02*
X124089D01*
G01X125389D02*
X128889D01*
G01X130189D02*
X133689D01*
G01X140430Y-288611D02*
Y-284611D01*
X142647D01*
G01X141831Y-286544D02*
X140430D01*
G01X147622Y-284944D02*
X147272Y-284744D01*
X146864Y-284611D01*
X146397D01*
X145872Y-284811D01*
X145464Y-285144D01*
X145172Y-285544D01*
X144939Y-286211D01*
X144880Y-286811D01*
X144997Y-287411D01*
X145172Y-287811D01*
X145522Y-288211D01*
X145931Y-288478D01*
X146339Y-288611D01*
X146747D01*
X147156Y-288478D01*
X147506Y-288278D01*
X147797Y-288011D01*
G01X149972Y-288611D02*
Y-284611D01*
X151372D01*
X151839Y-284811D01*
X152189Y-285278D01*
X152306Y-285811D01*
X152189Y-286344D01*
X151897Y-286744D01*
X151372Y-286944D01*
X149972D01*
G01X160447Y-289944D02*
X159864Y-289278D01*
X159572Y-288611D01*
Y-285944D01*
X159864Y-285278D01*
X160447Y-284611D01*
G01X164430Y-288611D02*
Y-284611D01*
X166647D01*
G01X165831Y-286544D02*
X164430D01*
G01X169172Y-288611D02*
Y-284611D01*
X170631D01*
X171097Y-284811D01*
X171389Y-285078D01*
X171506Y-285611D01*
X171389Y-286144D01*
X171039Y-286478D01*
X170631Y-286678D01*
X169172D01*
G01X170631D02*
X171506Y-288611D01*
G01X176306D02*
X173972D01*
Y-284611D01*
X176306D01*
G01X175372Y-286544D02*
X173972D01*
G01X181106Y-288611D02*
X178772D01*
Y-284611D01*
X181106D01*
G01X180172Y-286544D02*
X178772D01*
G01X183514Y-288078D02*
X183981Y-288411D01*
X184506Y-288611D01*
X184972D01*
X185439Y-288411D01*
X185789Y-288078D01*
X185964Y-287611D01*
X185847Y-287144D01*
X185556Y-286744D01*
X185031Y-286478D01*
X184331Y-286344D01*
X183922Y-286078D01*
X183747Y-285611D01*
X183864Y-285144D01*
X184156Y-284811D01*
X184564Y-284611D01*
X184972D01*
X185381Y-284744D01*
X185731Y-285078D01*
G01X190822Y-284944D02*
X190472Y-284744D01*
X190064Y-284611D01*
X189597D01*
X189072Y-284811D01*
X188664Y-285144D01*
X188372Y-285544D01*
X188139Y-286211D01*
X188080Y-286811D01*
X188197Y-287411D01*
X188372Y-287811D01*
X188722Y-288211D01*
X189131Y-288478D01*
X189539Y-288611D01*
X189947D01*
X190356Y-288478D01*
X190706Y-288278D01*
X190997Y-288011D01*
G01X192880Y-288611D02*
X194339Y-284611D01*
X195797Y-288611D01*
G01X195272Y-287211D02*
X193406D01*
G01X197972Y-284611D02*
Y-288611D01*
X200306D01*
G01X205106D02*
X202772D01*
Y-284611D01*
X205106D01*
G01X204172Y-286544D02*
X202772D01*
G01X214822Y-284944D02*
X214472Y-284744D01*
X214064Y-284611D01*
X213597D01*
X213072Y-284811D01*
X212664Y-285144D01*
X212372Y-285544D01*
X212139Y-286211D01*
X212080Y-286811D01*
X212197Y-287411D01*
X212372Y-287811D01*
X212722Y-288211D01*
X213131Y-288478D01*
X213539Y-288611D01*
X213947D01*
X214356Y-288478D01*
X214706Y-288278D01*
X214997Y-288011D01*
G01X218339Y-288611D02*
X217872Y-288544D01*
X217464Y-288278D01*
X217114Y-287878D01*
X216880Y-287411D01*
X216764Y-286878D01*
Y-286344D01*
X216880Y-285811D01*
X217114Y-285344D01*
X217464Y-284944D01*
X217872Y-284678D01*
X218339Y-284611D01*
X218806Y-284678D01*
X219214Y-284944D01*
X219564Y-285344D01*
X219797Y-285811D01*
X219914Y-286344D01*
Y-286878D01*
X219797Y-287411D01*
X219564Y-287878D01*
X219214Y-288278D01*
X218806Y-288544D01*
X218339Y-288611D01*
G01X221797D02*
Y-284611D01*
X224480Y-288611D01*
Y-284611D01*
G01X226830Y-288611D02*
Y-284611D01*
X229047D01*
G01X228231Y-286544D02*
X226830D01*
G01X232039Y-284611D02*
X233439D01*
G01X232739D02*
Y-288611D01*
G01X232039D02*
X233439D01*
G01X236256D02*
Y-284611D01*
X237422D01*
X237889Y-284811D01*
X238239Y-285078D01*
X238531Y-285478D01*
X238764Y-285944D01*
X238822Y-286611D01*
X238764Y-287278D01*
X238531Y-287744D01*
X238239Y-288144D01*
X237889Y-288411D01*
X237422Y-288611D01*
X236256D01*
G01X243506D02*
X241172D01*
Y-284611D01*
X243506D01*
G01X242572Y-286544D02*
X241172D01*
G01X245797Y-288611D02*
Y-284611D01*
X248480Y-288611D01*
Y-284611D01*
G01X251939D02*
Y-288611D01*
G01X250597Y-284611D02*
X253280D01*
G01X256039D02*
X257439D01*
G01X256739D02*
Y-288611D01*
G01X256039D02*
X257439D01*
G01X260080D02*
X261539Y-284611D01*
X262997Y-288611D01*
G01X262472Y-287211D02*
X260606D01*
G01X265172Y-284611D02*
Y-288611D01*
X267506D01*
G01X274772D02*
Y-284611D01*
X276172D01*
X276639Y-284811D01*
X276989Y-285278D01*
X277106Y-285811D01*
X276989Y-286344D01*
X276697Y-286744D01*
X276172Y-286944D01*
X274772D01*
G01X279572Y-288611D02*
Y-284611D01*
X281031D01*
X281497Y-284811D01*
X281789Y-285078D01*
X281906Y-285611D01*
X281789Y-286144D01*
X281439Y-286478D01*
X281031Y-286678D01*
X279572D01*
G01X281031D02*
X281906Y-288611D01*
G01X285539D02*
X285072Y-288544D01*
X284664Y-288278D01*
X284314Y-287878D01*
X284080Y-287411D01*
X283964Y-286878D01*
Y-286344D01*
X284080Y-285811D01*
X284314Y-285344D01*
X284664Y-284944D01*
X285072Y-284678D01*
X285539Y-284611D01*
X286006Y-284678D01*
X286414Y-284944D01*
X286764Y-285344D01*
X286997Y-285811D01*
X287114Y-286344D01*
Y-286878D01*
X286997Y-287411D01*
X286764Y-287878D01*
X286414Y-288278D01*
X286006Y-288544D01*
X285539Y-288611D01*
G01X289172D02*
Y-284611D01*
X290572D01*
X291039Y-284811D01*
X291389Y-285278D01*
X291506Y-285811D01*
X291389Y-286344D01*
X291097Y-286744D01*
X290572Y-286944D01*
X289172D01*
G01X293972Y-288611D02*
Y-284611D01*
X295431D01*
X295897Y-284811D01*
X296189Y-285078D01*
X296306Y-285611D01*
X296189Y-286144D01*
X295839Y-286478D01*
X295431Y-286678D01*
X293972D01*
G01X295431D02*
X296306Y-288611D01*
G01X299239Y-284611D02*
X300639D01*
G01X299939D02*
Y-288611D01*
G01X299239D02*
X300639D01*
G01X305906D02*
X303572D01*
Y-284611D01*
X305906D01*
G01X304972Y-286544D02*
X303572D01*
G01X309539Y-284611D02*
Y-288611D01*
G01X308197Y-284611D02*
X310880D01*
G01X312880Y-288611D02*
X314339Y-284611D01*
X315797Y-288611D01*
G01X315272Y-287211D02*
X313406D01*
G01X317972Y-288611D02*
Y-284611D01*
X319431D01*
X319897Y-284811D01*
X320189Y-285078D01*
X320306Y-285611D01*
X320189Y-286144D01*
X319839Y-286478D01*
X319431Y-286678D01*
X317972D01*
G01X319431D02*
X320306Y-288611D01*
G01X323939D02*
Y-286811D01*
X322772Y-284611D01*
G01X325106D02*
X323939Y-286811D01*
G01X329031Y-289944D02*
X329614Y-289278D01*
X329906Y-288611D01*
Y-285944D01*
X329614Y-285278D01*
X329031Y-284611D01*
G01X111056Y-304111D02*
Y-300111D01*
X112222D01*
X112689Y-300311D01*
X113039Y-300578D01*
X113331Y-300978D01*
X113564Y-301444D01*
X113622Y-302111D01*
X113564Y-302778D01*
X113331Y-303244D01*
X113039Y-303644D01*
X112689Y-303911D01*
X112222Y-304111D01*
X111056D01*
G01X115681D02*
X117139Y-300111D01*
X118597Y-304111D01*
G01X118072Y-302711D02*
X116206D01*
G01X121939Y-300111D02*
Y-304111D01*
G01X120597Y-300111D02*
X123281D01*
G01X127906Y-304111D02*
X125572D01*
Y-300111D01*
X127906D01*
G01X126972Y-302044D02*
X125572D01*
G01X120589Y-273444D02*
X124089D01*
G01X125389D02*
X128889D01*
G01X130189D02*
X133689D01*
G01X140430Y-272111D02*
Y-268111D01*
X142647D01*
G01X141831Y-270044D02*
X140430D01*
G01X145639Y-268111D02*
X147039D01*
G01X146339D02*
Y-272111D01*
G01X145639D02*
X147039D01*
G01X149856Y-268111D02*
Y-270978D01*
X150089Y-271578D01*
X150556Y-271978D01*
X151139Y-272111D01*
X151722Y-271978D01*
X152189Y-271578D01*
X152422Y-270978D01*
Y-268111D01*
G01X155939Y-272111D02*
X155472Y-272044D01*
X155064Y-271778D01*
X154714Y-271378D01*
X154481Y-270911D01*
X154364Y-270378D01*
Y-269844D01*
X154481Y-269311D01*
X154714Y-268844D01*
X155064Y-268444D01*
X155472Y-268178D01*
X155939Y-268111D01*
X156406Y-268178D01*
X156814Y-268444D01*
X157164Y-268844D01*
X157397Y-269311D01*
X157514Y-269844D01*
Y-270378D01*
X157397Y-270911D01*
X157164Y-271378D01*
X156814Y-271778D01*
X156406Y-272044D01*
X155939Y-272111D01*
G01X165247Y-273444D02*
X164664Y-272778D01*
X164372Y-272111D01*
Y-269444D01*
X164664Y-268778D01*
X165247Y-268111D01*
G01X169231Y-272111D02*
Y-268111D01*
X171447D01*
G01X170631Y-270044D02*
X169231D01*
G01X173972Y-272111D02*
Y-268111D01*
X175431D01*
X175897Y-268311D01*
X176189Y-268578D01*
X176306Y-269111D01*
X176189Y-269644D01*
X175839Y-269978D01*
X175431Y-270178D01*
X173972D01*
G01X175431D02*
X176306Y-272111D01*
G01X181106D02*
X178772D01*
Y-268111D01*
X181106D01*
G01X180172Y-270044D02*
X178772D01*
G01X185906Y-272111D02*
X183572D01*
Y-268111D01*
X185906D01*
G01X184972Y-270044D02*
X183572D01*
G01X188314Y-271578D02*
X188781Y-271911D01*
X189306Y-272111D01*
X189772D01*
X190239Y-271911D01*
X190589Y-271578D01*
X190764Y-271111D01*
X190647Y-270644D01*
X190356Y-270244D01*
X189831Y-269978D01*
X189131Y-269844D01*
X188722Y-269578D01*
X188547Y-269111D01*
X188664Y-268644D01*
X188956Y-268311D01*
X189364Y-268111D01*
X189772D01*
X190181Y-268244D01*
X190531Y-268578D01*
G01X195622Y-268444D02*
X195272Y-268244D01*
X194864Y-268111D01*
X194397D01*
X193872Y-268311D01*
X193464Y-268644D01*
X193172Y-269044D01*
X192939Y-269711D01*
X192880Y-270311D01*
X192997Y-270911D01*
X193172Y-271311D01*
X193522Y-271711D01*
X193931Y-271978D01*
X194339Y-272111D01*
X194747D01*
X195156Y-271978D01*
X195506Y-271778D01*
X195797Y-271511D01*
G01X197680Y-272111D02*
X199139Y-268111D01*
X200597Y-272111D01*
G01X200072Y-270711D02*
X198206D01*
G01X202772Y-268111D02*
Y-272111D01*
X205106D01*
G01X209906D02*
X207572D01*
Y-268111D01*
X209906D01*
G01X208972Y-270044D02*
X207572D01*
G01X217639Y-268111D02*
X219039D01*
G01X218339D02*
Y-272111D01*
G01X217639D02*
X219039D01*
G01X221797D02*
Y-268111D01*
X224480Y-272111D01*
Y-268111D01*
G01X227939D02*
Y-272111D01*
G01X226597Y-268111D02*
X229280D01*
G01X233906Y-272111D02*
X231572D01*
Y-268111D01*
X233906D01*
G01X232972Y-270044D02*
X231572D01*
G01X236372Y-272111D02*
Y-268111D01*
X237831D01*
X238297Y-268311D01*
X238589Y-268578D01*
X238706Y-269111D01*
X238589Y-269644D01*
X238239Y-269978D01*
X237831Y-270178D01*
X236372D01*
G01X237831D02*
X238706Y-272111D01*
G01X240997D02*
Y-268111D01*
X243680Y-272111D01*
Y-268111D01*
G01X245680Y-272111D02*
X247139Y-268111D01*
X248597Y-272111D01*
G01X248072Y-270711D02*
X246206D01*
G01X250772Y-268111D02*
Y-272111D01*
X253106D01*
G01X260256Y-268111D02*
Y-270978D01*
X260489Y-271578D01*
X260955Y-271978D01*
X261539Y-272111D01*
X262122Y-271978D01*
X262589Y-271578D01*
X262822Y-270978D01*
Y-268111D01*
G01X265114Y-271578D02*
X265581Y-271911D01*
X266106Y-272111D01*
X266572D01*
X267039Y-271911D01*
X267389Y-271578D01*
X267564Y-271111D01*
X267447Y-270644D01*
X267156Y-270244D01*
X266631Y-269978D01*
X265931Y-269844D01*
X265522Y-269578D01*
X265347Y-269111D01*
X265464Y-268644D01*
X265756Y-268311D01*
X266164Y-268111D01*
X266572D01*
X266981Y-268244D01*
X267331Y-268578D01*
G01X272306Y-272111D02*
X269972D01*
Y-268111D01*
X272306D01*
G01X271372Y-270044D02*
X269972D01*
G01X280739Y-272111D02*
X280272Y-272044D01*
X279864Y-271778D01*
X279514Y-271378D01*
X279280Y-270911D01*
X279164Y-270378D01*
Y-269844D01*
X279280Y-269311D01*
X279514Y-268844D01*
X279864Y-268444D01*
X280272Y-268178D01*
X280739Y-268111D01*
X281206Y-268178D01*
X281614Y-268444D01*
X281964Y-268844D01*
X282197Y-269311D01*
X282314Y-269844D01*
Y-270378D01*
X282197Y-270911D01*
X281964Y-271378D01*
X281614Y-271778D01*
X281206Y-272044D01*
X280739Y-272111D01*
G01X284197D02*
Y-268111D01*
X286880Y-272111D01*
Y-268111D01*
G01X289172D02*
Y-272111D01*
X291506D01*
G01X295139D02*
Y-270311D01*
X293972Y-268111D01*
G01X296306D02*
X295139Y-270311D01*
G01X300231Y-273444D02*
X300814Y-272778D01*
X301106Y-272111D01*
Y-269444D01*
X300814Y-268778D01*
X300231Y-268111D01*
G01X120589Y-257444D02*
X124089D01*
G01X125389D02*
X128889D01*
G01X130189D02*
X133689D01*
G01X140372Y-256111D02*
Y-252111D01*
X141772D01*
X142239Y-252311D01*
X142589Y-252778D01*
X142706Y-253311D01*
X142589Y-253844D01*
X142297Y-254244D01*
X141772Y-254444D01*
X140372D01*
G01X145056Y-252111D02*
Y-254978D01*
X145289Y-255578D01*
X145756Y-255978D01*
X146339Y-256111D01*
X146922Y-255978D01*
X147389Y-255578D01*
X147622Y-254978D01*
Y-252111D01*
G01X151606Y-253978D02*
X151839Y-253778D01*
X152014Y-253444D01*
X152131Y-252978D01*
X152014Y-252578D01*
X151781Y-252311D01*
X151372Y-252111D01*
X149797D01*
Y-256111D01*
X151722D01*
X152131Y-255844D01*
X152364Y-255444D01*
X152481Y-254978D01*
X152364Y-254511D01*
X152014Y-254111D01*
X151606Y-253978D01*
X149797D01*
G01X155239Y-252111D02*
X156639D01*
G01X155939D02*
Y-256111D01*
G01X155239D02*
X156639D01*
G01X165247Y-257444D02*
X164664Y-256778D01*
X164372Y-256111D01*
Y-253444D01*
X164664Y-252778D01*
X165247Y-252111D01*
G01X169172Y-256111D02*
Y-252111D01*
X170572D01*
X171039Y-252311D01*
X171389Y-252778D01*
X171506Y-253311D01*
X171389Y-253844D01*
X171097Y-254244D01*
X170572Y-254444D01*
X169172D01*
G01X173856Y-252111D02*
Y-254978D01*
X174089Y-255578D01*
X174556Y-255978D01*
X175139Y-256111D01*
X175722Y-255978D01*
X176189Y-255578D01*
X176422Y-254978D01*
Y-252111D01*
G01X180406Y-253978D02*
X180639Y-253778D01*
X180814Y-253444D01*
X180931Y-252978D01*
X180814Y-252578D01*
X180581Y-252311D01*
X180172Y-252111D01*
X178597D01*
Y-256111D01*
X180522D01*
X180931Y-255844D01*
X181164Y-255444D01*
X181280Y-254978D01*
X181164Y-254511D01*
X180814Y-254111D01*
X180406Y-253978D01*
X178597D01*
G01X183572Y-252111D02*
Y-256111D01*
X185906D01*
G01X188839Y-252111D02*
X190239D01*
G01X189539D02*
Y-256111D01*
G01X188839D02*
X190239D01*
G01X195622Y-252444D02*
X195272Y-252244D01*
X194864Y-252111D01*
X194397D01*
X193872Y-252311D01*
X193464Y-252644D01*
X193172Y-253044D01*
X192939Y-253711D01*
X192880Y-254311D01*
X192997Y-254911D01*
X193172Y-255311D01*
X193522Y-255711D01*
X193931Y-255978D01*
X194339Y-256111D01*
X194747D01*
X195156Y-255978D01*
X195506Y-255778D01*
X195797Y-255511D01*
G01X203239Y-252111D02*
X204639D01*
G01X203939D02*
Y-256111D01*
G01X203239D02*
X204639D01*
G01X207397D02*
Y-252111D01*
X210080Y-256111D01*
Y-252111D01*
G01X212430Y-256111D02*
Y-252111D01*
X214647D01*
G01X213831Y-254044D02*
X212430D01*
G01X218339Y-256111D02*
X217872Y-256044D01*
X217464Y-255778D01*
X217114Y-255378D01*
X216880Y-254911D01*
X216764Y-254378D01*
Y-253844D01*
X216880Y-253311D01*
X217114Y-252844D01*
X217464Y-252444D01*
X217872Y-252178D01*
X218339Y-252111D01*
X218806Y-252178D01*
X219214Y-252444D01*
X219564Y-252844D01*
X219797Y-253311D01*
X219914Y-253844D01*
Y-254378D01*
X219797Y-254911D01*
X219564Y-255378D01*
X219214Y-255778D01*
X218806Y-256044D01*
X218339Y-256111D01*
G01X221972D02*
Y-252111D01*
X223431D01*
X223897Y-252311D01*
X224189Y-252578D01*
X224306Y-253111D01*
X224189Y-253644D01*
X223839Y-253978D01*
X223431Y-254178D01*
X221972D01*
G01X223431D02*
X224306Y-256111D01*
G01X226422D02*
Y-252111D01*
X227939Y-255444D01*
X229456Y-252111D01*
Y-256111D01*
G01X231280D02*
X232739Y-252111D01*
X234197Y-256111D01*
G01X233672Y-254711D02*
X231805D01*
G01X237539Y-252111D02*
Y-256111D01*
G01X236197Y-252111D02*
X238880D01*
G01X241639D02*
X243039D01*
G01X242339D02*
Y-256111D01*
G01X241639D02*
X243039D01*
G01X247139D02*
X246672Y-256044D01*
X246264Y-255778D01*
X245914Y-255378D01*
X245680Y-254911D01*
X245564Y-254378D01*
Y-253844D01*
X245680Y-253311D01*
X245914Y-252844D01*
X246264Y-252444D01*
X246672Y-252178D01*
X247139Y-252111D01*
X247605Y-252178D01*
X248014Y-252444D01*
X248364Y-252844D01*
X248597Y-253311D01*
X248714Y-253844D01*
Y-254378D01*
X248597Y-254911D01*
X248364Y-255378D01*
X248014Y-255778D01*
X247605Y-256044D01*
X247139Y-256111D01*
G01X250597D02*
Y-252111D01*
X253280Y-256111D01*
Y-252111D01*
G01X257031Y-257444D02*
X257614Y-256778D01*
X257906Y-256111D01*
Y-253444D01*
X257614Y-252778D01*
X257031Y-252111D01*
G01X110997Y-224111D02*
Y-220111D01*
X113680Y-224111D01*
Y-220111D01*
G01X115681Y-224111D02*
X117139Y-220111D01*
X118597Y-224111D01*
G01X118072Y-222711D02*
X116206D01*
G01X120422Y-224111D02*
Y-220111D01*
X121939Y-223444D01*
X123456Y-220111D01*
Y-224111D01*
G01X127906D02*
X125572D01*
Y-220111D01*
X127906D01*
G01X126972Y-222044D02*
X125572D01*
G01X125294Y-273111D02*
X128584Y-266811D01*
G01X125294D02*
X128584Y-273111D01*
G01X160997Y-304111D02*
Y-300111D01*
X163680Y-304111D01*
Y-300111D01*
G01X165856D02*
Y-302978D01*
X166089Y-303578D01*
X166556Y-303978D01*
X167139Y-304111D01*
X167722Y-303978D01*
X168189Y-303578D01*
X168422Y-302978D01*
Y-300111D01*
G01X170422Y-304111D02*
Y-300111D01*
X171939Y-303444D01*
X173456Y-300111D01*
Y-304111D01*
G01X177206Y-301978D02*
X177439Y-301778D01*
X177614Y-301444D01*
X177731Y-300978D01*
X177614Y-300578D01*
X177381Y-300311D01*
X176972Y-300111D01*
X175397D01*
Y-304111D01*
X177322D01*
X177731Y-303844D01*
X177964Y-303444D01*
X178081Y-302978D01*
X177964Y-302511D01*
X177614Y-302111D01*
X177206Y-301978D01*
X175397D01*
G01X182706Y-304111D02*
X180372D01*
Y-300111D01*
X182706D01*
G01X181772Y-302044D02*
X180372D01*
G01X185172Y-304111D02*
Y-300111D01*
X186631D01*
X187097Y-300311D01*
X187389Y-300578D01*
X187506Y-301111D01*
X187389Y-301644D01*
X187039Y-301978D01*
X186631Y-302178D01*
X185172D01*
G01X186631D02*
X187506Y-304111D01*
G01X195939Y-311111D02*
Y-304811D01*
X194999Y-306071D01*
G01Y-311111D02*
X196879D01*
G01X202082D02*
X202239Y-309746D01*
X202474Y-308591D01*
X202787Y-307541D01*
X203179Y-306386D01*
X203806Y-304811D01*
X200672D01*
G01X208539D02*
X207912Y-305021D01*
X207442Y-305546D01*
X207129Y-306176D01*
X206894Y-307016D01*
X206816Y-307961D01*
X206894Y-308906D01*
X207129Y-309746D01*
X207442Y-310376D01*
X207912Y-310901D01*
X208539Y-311111D01*
X209166Y-310901D01*
X209636Y-310376D01*
X209949Y-309746D01*
X210184Y-308906D01*
X210262Y-307961D01*
X210184Y-307016D01*
X209949Y-306176D01*
X209636Y-305546D01*
X209166Y-305021D01*
X208539Y-304811D01*
G01X213821Y-309011D02*
X215857D01*
G01X219651Y-305861D02*
X220121Y-305231D01*
X220669Y-304916D01*
X221296Y-304811D01*
X222079Y-305021D01*
X222627Y-305546D01*
X222784Y-306176D01*
X222706Y-306806D01*
X222392Y-307331D01*
X220826Y-308381D01*
X220121Y-309116D01*
X219651Y-310166D01*
X219494Y-311111D01*
X222784D01*
G01X227282D02*
X227439Y-309746D01*
X227674Y-308591D01*
X227987Y-307541D01*
X228379Y-306386D01*
X229006Y-304811D01*
X225872D01*
G01X233739Y-311111D02*
Y-304811D01*
X232799Y-306071D01*
G01Y-311111D02*
X234679D01*
G01X240979D02*
Y-304811D01*
X238080Y-309326D01*
X241997D01*
G01X244851Y-305861D02*
X245321Y-305231D01*
X245869Y-304916D01*
X246496Y-304811D01*
X247279Y-305021D01*
X247827Y-305546D01*
X247984Y-306176D01*
X247906Y-306806D01*
X247592Y-307331D01*
X246026Y-308381D01*
X245321Y-309116D01*
X244851Y-310166D01*
X244694Y-311111D01*
X247984D01*
G01X288872D02*
Y-304811D01*
X290831D01*
X291457Y-305126D01*
X291849Y-305546D01*
X292006Y-306386D01*
X291849Y-307226D01*
X291379Y-307751D01*
X290831Y-308066D01*
X288872D01*
G01X290831D02*
X292006Y-311111D01*
G01X298306D02*
X295172D01*
Y-304811D01*
X298306D01*
G01X297052Y-307856D02*
X295172D01*
G01X301080Y-304811D02*
X303039Y-311111D01*
X304997Y-304811D01*
G01X313916Y-311111D02*
Y-304811D01*
X315482D01*
X316109Y-305126D01*
X316579Y-305546D01*
X316971Y-306176D01*
X317284Y-306911D01*
X317362Y-307961D01*
X317284Y-309011D01*
X316971Y-309746D01*
X316579Y-310376D01*
X316109Y-310796D01*
X315482Y-311111D01*
X313916D01*
G01X202202Y-238111D02*
Y-231811D01*
X204239Y-237061D01*
X206276Y-231811D01*
Y-238111D01*
G01X212262Y-232336D02*
X211792Y-232021D01*
X211244Y-231811D01*
X210617D01*
X209912Y-232126D01*
X209364Y-232651D01*
X208972Y-233281D01*
X208659Y-234331D01*
X208580Y-235276D01*
X208737Y-236221D01*
X208972Y-236851D01*
X209442Y-237481D01*
X209991Y-237901D01*
X210539Y-238111D01*
X211087D01*
X211636Y-237901D01*
X212106Y-237586D01*
X212497Y-237166D01*
G01X215899Y-231811D02*
X217779D01*
G01X216839D02*
Y-238111D01*
G01X215899D02*
X217779D01*
G01X221102D02*
Y-231811D01*
X223139Y-237061D01*
X225176Y-231811D01*
Y-238111D01*
G01X227794D02*
X231084Y-231811D01*
G01X227794D02*
X231084Y-238111D01*
G01X234250Y-235486D02*
X234799Y-234751D01*
X235269Y-234331D01*
X235896Y-234121D01*
X236444Y-234331D01*
X236836Y-234751D01*
X237149Y-235381D01*
X237227Y-236116D01*
X237149Y-236746D01*
X236836Y-237376D01*
X236366Y-237901D01*
X235817Y-238111D01*
X235191Y-237901D01*
X234642Y-237271D01*
X234329Y-236326D01*
X234250Y-235276D01*
X234407Y-233911D01*
X234642Y-233176D01*
X235034Y-232441D01*
X235582Y-231916D01*
X236131Y-231811D01*
X236679Y-232021D01*
X237071Y-232546D01*
G01X240864Y-233911D02*
X243214Y-238111D01*
G01Y-233911D02*
X240864Y-238111D01*
G01X246380D02*
X248339Y-231811D01*
X250297Y-238111D01*
G01X249592Y-235906D02*
X247086D01*
G01X253699Y-231811D02*
X255579D01*
G01X254639D02*
Y-238111D01*
G01X253699D02*
X255579D01*
G01X262662Y-232336D02*
X262192Y-232021D01*
X261644Y-231811D01*
X261017D01*
X260312Y-232126D01*
X259764Y-232651D01*
X259372Y-233281D01*
X259059Y-234331D01*
X258980Y-235276D01*
X259137Y-236221D01*
X259372Y-236851D01*
X259842Y-237481D01*
X260391Y-237901D01*
X260939Y-238111D01*
X261487D01*
X262036Y-237901D01*
X262506Y-237586D01*
X262897Y-237166D01*
G01X265672Y-238111D02*
Y-231811D01*
X267552D01*
X268179Y-232126D01*
X268649Y-232861D01*
X268806Y-233701D01*
X268649Y-234541D01*
X268257Y-235171D01*
X267552Y-235486D01*
X265672D01*
G01X271816Y-231811D02*
Y-236326D01*
X272129Y-237271D01*
X272756Y-237901D01*
X273539Y-238111D01*
X274322Y-237901D01*
X274949Y-237271D01*
X275262Y-236326D01*
Y-231811D01*
G01X279839Y-238111D02*
Y-231811D01*
X278899Y-233071D01*
G01Y-238111D02*
X280779D01*
G54D54*
X278664Y244701D03*
X270964D03*
G54D27*
X48914Y131451D03*
Y128751D03*
X149200Y115850D03*
Y118550D03*
X179800Y242455D03*
Y239755D03*
X185600Y242555D03*
Y239855D03*
G54D18*
X-28947Y311951D03*
Y326951D03*
Y321951D03*
Y316951D03*
X-18697Y353451D03*
Y348451D03*
Y343451D03*
Y358451D03*
G54D45*
X206039Y76341D03*
Y77915D03*
Y79490D03*
Y81065D03*
Y82640D03*
Y84215D03*
Y85789D03*
Y87364D03*
Y88939D03*
Y90514D03*
Y92089D03*
Y93663D03*
X229957Y76341D03*
Y77915D03*
Y79490D03*
Y81065D03*
Y82640D03*
Y84215D03*
Y85789D03*
Y87364D03*
Y88939D03*
Y90514D03*
Y92089D03*
Y93663D03*
G54D36*
X85258Y225257D03*
X83170Y227345D03*
G54D64*
G01X-67411Y-296111D02*
X332589D01*
G01X-67411Y-266111D02*
Y-246111D01*
X332589D01*
G01X-17411Y-316111D02*
Y-296111D01*
G01X108089Y-316111D02*
Y-296111D01*
G01X107589Y-246111D02*
Y-216111D01*
G01X157589Y-316111D02*
Y-296111D01*
G54D19*
X-5186Y45900D03*
Y48002D03*
X36700Y339851D03*
Y337749D03*
X34400Y338751D03*
Y336649D03*
X77314Y140150D03*
Y142252D03*
X76616Y235701D03*
X74513D03*
X79814Y140150D03*
Y142252D03*
X98263Y235451D03*
X80449Y329100D03*
X82551D03*
X92749Y352400D03*
X94851D03*
X100366Y235451D03*
X130866Y236701D03*
X128763D03*
X144349Y232700D03*
X161564Y40150D03*
Y42252D03*
X153064Y139900D03*
Y142002D03*
X155314Y191502D03*
Y189400D03*
X163114Y209150D03*
Y211252D03*
X165614Y209150D03*
Y211252D03*
X159564Y220252D03*
Y218150D03*
X151064Y244752D03*
Y242650D03*
X154064Y244752D03*
Y242650D03*
X146451Y232700D03*
X175116Y167201D03*
X173013D03*
X175116Y169951D03*
X173013D03*
X177263Y181451D03*
X179366D03*
X176100Y185049D03*
Y187151D03*
X173800Y185049D03*
Y187151D03*
X179314Y193150D03*
Y195252D03*
X176814Y193150D03*
Y195252D03*
X167500Y243551D03*
Y241449D03*
X195551Y201500D03*
X193449D03*
G54D37*
X93564Y288392D03*
X88000Y305359D03*
Y300241D03*
X93564Y293510D03*
X93510Y305255D03*
Y300137D03*
X112360Y180387D03*
Y171187D03*
Y176305D03*
Y191387D03*
Y196505D03*
Y200787D03*
Y185505D03*
Y205905D03*
X101510Y305255D03*
Y300137D03*
X138400Y332241D03*
X144400D03*
X138400Y337359D03*
X144400D03*
X188000Y83941D03*
Y89059D03*
X186314Y179142D03*
Y184260D03*
X188814Y191142D03*
Y196260D03*
X170064Y184392D03*
Y189510D03*
X198000Y83941D03*
Y89059D03*
X192814Y178892D03*
Y184010D03*
X192314Y259010D03*
Y253892D03*
X255500Y359341D03*
Y364459D03*
X270314Y303510D03*
Y298392D03*
G54D55*
X263364Y260961D03*
Y264701D03*
Y268441D03*
X273764D03*
Y264701D03*
Y260961D03*
G54D46*
X210911Y73043D03*
X209337D03*
X210911Y96961D03*
X209337D03*
X223510Y73043D03*
X221935D03*
X220360D03*
X218785D03*
X217211D03*
X215636D03*
X214061D03*
X212486D03*
X226659D03*
X225085D03*
X226659Y96961D03*
X225085D03*
X223510D03*
X221935D03*
X220360D03*
X218785D03*
X217211D03*
X215636D03*
X214061D03*
X212486D03*
G54D28*
X56200Y290900D03*
X67200D03*
X91400Y38400D03*
X102400D03*
X164564Y25451D03*
X153564D03*
G54D65*
G01X332589Y-216111D02*
Y-316111D01*
X-67411D01*
G01D02*
Y-216111D01*
X332589D01*
G54D47*
X206076Y107236D03*
Y117236D03*
X230880Y107236D03*
G54D29*
X49500Y337000D03*
X41900D03*
X64864Y352651D03*
X72464D03*
X122264Y323701D03*
X129864D03*
X162700Y276800D03*
X170300D03*
G54D56*
X270900Y336150D03*
Y351750D03*
G54D38*
X91228Y375172D03*
Y373204D03*
Y371235D03*
Y369266D03*
Y367298D03*
Y365330D03*
X94102D03*
Y367298D03*
Y369266D03*
Y371235D03*
Y373204D03*
Y375172D03*
G54D66*
G01X-65933Y-93799D02*
X150655D01*
Y-11811D01*
X-65933D01*
Y-93799D01*
G01X297995Y407402D02*
Y405433D01*
G03X299963Y403465I1968J0D01*
G01X305672D01*
Y392129D01*
X338872D01*
Y-11811D01*
X-65933D01*
Y366769D01*
X-42913D01*
Y392129D01*
X-17163D01*
Y403465D01*
X-11454D01*
G03X-9486Y405433I0J1968D01*
G01Y407402D01*
G03X-11454Y409370I-1968J0D01*
G01X-17163D01*
Y433071D01*
X150160D01*
Y420079D01*
G03X152128Y418110I1968J0D01*
G03X154097Y420079I0J1969D01*
G01Y433071D01*
X305672D01*
Y409370D01*
X299963D01*
G03X297995Y407402I0J-1968D01*
G01X156855Y-93799D02*
X274855D01*
Y-11811D01*
X156855D01*
Y-93799D01*
G01X281055D02*
X338872D01*
Y-11811D01*
X281055D01*
Y-93799D01*
G54D48*
X230530Y117236D03*
G54D57*
X278500Y335350D03*
Y342850D03*
X270900D03*
X278500Y350950D03*
Y358450D03*
X270900D03*
G54D39*
X116064Y267451D03*
X129064D03*
G54D58*
X277464Y367701D03*
X280164D03*
G54D49*
X214705Y349221D03*
X225424D03*
Y344181D03*
X214705D03*
X232455Y349221D03*
Y344181D03*
X231205Y370681D03*
Y375721D03*
X248455Y344181D03*
Y349221D03*
X243174D03*
Y344181D03*
X241924Y370681D03*
Y375721D03*
X259174Y344181D03*
Y349221D03*
G54D59*
X293012Y83000D03*
X281988D03*
M02*
