0
SECTION
2
HEADER
9
$INSUNITS
70
4
9
$ACADVER
1
AC1014
9
$HANDSEED
5
FFFF
0
ENDSEC
0
SECTION
2
TABLES
0
TABLE
2
VPORT
5
8
100
AcDbSymbolTable
0
ENDTAB
0
TABLE
2
LTYPE
5
5
100
AcDbSymbolTable
0
LTYPE
5
14
100
AcDbSymbolTableRecord
100
AcDbLinetypeTableRecord
2
BYBLOCK
70
0
0
LTYPE
5
15
100
AcDbSymbolTableRecord
100
AcDbLinetypeTableRecord
2
BYLAYER
70
0
0
ENDTAB
0
TABLE
2
LAYER
5
2
100
AcDbSymbolTable
70
2
0
LAYER
5
50
100
AcDbSymbolTableRecord
100
AcDbLayerTableRecord
2
0
70
0
6
CONTINUOUS
0
ENDTAB
0
TABLE
2
STYLE
5
3
100
AcDbSymbolTable
70
1
0
STYLE
5
11
100
AcDbSymbolTableRecord
100
AcDbTextStyleTableRecord
2
STANDARD
70
0
0
ENDTAB
0
TABLE
2
VIEW
5
6
100
AcDbSymbolTable
70
0
0
ENDTAB
0
TABLE
2
UCS
5
7
100
AcDbSymbolTable
70
0
0
ENDTAB
0
TABLE
2
APPID
5
9
100
AcDbSymbolTable
70
2
0
APPID
5
12
100
AcDbSymbolTableRecord
100
AcDbRegAppTableRecord
2
ACAD
70
0
0
ENDTAB
0
TABLE
2
DIMSTYLE
5
A
100
AcDbSymbolTable
70
1
0
ENDTAB
0
TABLE
2
BLOCK_RECORD
5
1
100
AcDbSymbolTable
70
1
0
BLOCK_RECORD
5
1F
100
AcDbSymbolTableRecord
100
AcDbBlockTableRecord
2
*MODEL_SPACE
0
BLOCK_RECORD
5
1B
100
AcDbSymbolTableRecord
100
AcDbBlockTableRecord
2
*PAPER_SPACE
0
ENDTAB
0
ENDSEC
0
SECTION
2
BLOCKS
0
BLOCK
5
20
100
AcDbEntity
100
AcDbBlockBegin
2
*MODEL_SPACE
0
ENDBLK
5
21
100
AcDbEntity
100
AcDbBlockEnd
0
BLOCK
5
1C
100
AcDbEntity
100
AcDbBlockBegin
2
*PAPER_SPACE
0
ENDBLK
5
1D
100
AcDbEntity
100
AcDbBlockEnd
0
ENDSEC
0
SECTION
2
ENTITIES
0
LINE
5
100
100
AcDbEntity
8
0
100
AcDbLine
10
-24.620000000000001
20
-1.8250000000000641
30
0
11
-24.5
21
-1.8250000000000652
31
0
0
LINE
5
101
100
AcDbEntity
8
0
100
AcDbLine
10
-24.5
20
-1.8250000000000652
30
0
11
-24.5
21
-1.92500000000008
31
0
0
LINE
5
102
100
AcDbEntity
8
0
100
AcDbLine
10
-24.5
20
-1.92500000000008
30
0
11
-24.620000000000001
21
-1.92500000000008
31
0
0
LINE
5
103
100
AcDbEntity
8
0
100
AcDbLine
10
-24.620000000000001
20
-1.92500000000008
30
0
11
-24.620000000000001
21
-1.8250000000000641
31
0
0
LINE
5
104
100
AcDbEntity
8
0
100
AcDbLine
10
-24.620000000000001
20
-1.4750000000000179
30
0
11
-24.5
21
-1.475000000000136
31
0
0
LINE
5
105
100
AcDbEntity
8
0
100
AcDbLine
10
-24.5
20
-1.475000000000136
30
0
11
-24.5
21
-1.8250000000000652
31
0
0
LINE
5
106
100
AcDbEntity
8
0
100
AcDbLine
10
-24.5
20
-1.8250000000000652
30
0
11
-24.620000000000001
21
-1.8250000000000641
31
0
0
LINE
5
107
100
AcDbEntity
8
0
100
AcDbLine
10
-24.620000000000001
20
-1.8250000000000641
30
0
11
-24.620000000000001
21
-1.4750000000000179
31
0
0
LINE
5
108
100
AcDbEntity
8
0
100
AcDbLine
10
-24.120000000000005
20
-1.825000000000063
30
0
11
-24.000000000000004
21
-1.825000000000065
31
0
0
LINE
5
109
100
AcDbEntity
8
0
100
AcDbLine
10
-24.000000000000004
20
-1.825000000000065
30
0
11
-24.000000000000004
21
-1.92500000000008
31
0
0
LINE
5
110
100
AcDbEntity
8
0
100
AcDbLine
10
-24.000000000000004
20
-1.92500000000008
30
0
11
-24.120000000000005
21
-1.92500000000008
31
0
0
LINE
5
111
100
AcDbEntity
8
0
100
AcDbLine
10
-24.120000000000005
20
-1.92500000000008
30
0
11
-24.120000000000005
21
-1.825000000000063
31
0
0
LINE
5
112
100
AcDbEntity
8
0
100
AcDbLine
10
-24.120000000000005
20
-1.475000000000054
30
0
11
-24.000000000000004
21
-1.475000000000136
31
0
0
LINE
5
113
100
AcDbEntity
8
0
100
AcDbLine
10
-24.000000000000004
20
-1.475000000000136
30
0
11
-24.000000000000004
21
-1.825000000000065
31
0
0
LINE
5
114
100
AcDbEntity
8
0
100
AcDbLine
10
-24.000000000000004
20
-1.825000000000065
30
0
11
-24.120000000000005
21
-1.825000000000063
31
0
0
LINE
5
115
100
AcDbEntity
8
0
100
AcDbLine
10
-24.120000000000005
20
-1.825000000000063
30
0
11
-24.120000000000005
21
-1.475000000000054
31
0
0
LINE
5
116
100
AcDbEntity
8
0
100
AcDbLine
10
-0.12000000000000011
20
-1.8250000000000721
30
0
11
0
21
-1.8250000000000652
31
0
0
LINE
5
117
100
AcDbEntity
8
0
100
AcDbLine
10
0
20
-1.8250000000000652
30
0
11
0
21
-1.92500000000008
31
0
0
LINE
5
118
100
AcDbEntity
8
0
100
AcDbLine
10
0
20
-1.92500000000008
30
0
11
-0.12000000000000011
21
-1.9250000000000786
31
0
0
LINE
5
119
100
AcDbEntity
8
0
100
AcDbLine
10
-0.12000000000000011
20
-1.9250000000000786
30
0
11
-0.12000000000000011
21
-1.8250000000000721
31
0
0
LINE
5
120
100
AcDbEntity
8
0
100
AcDbLine
10
-0.62
20
-1.825000000000063
30
0
11
-0.49999999999999989
21
-1.825000000000065
31
0
0
LINE
5
121
100
AcDbEntity
8
0
100
AcDbLine
10
-0.49999999999999989
20
-1.825000000000065
30
0
11
-0.49999999999999989
21
-1.92500000000008
31
0
0
LINE
5
122
100
AcDbEntity
8
0
100
AcDbLine
10
-0.49999999999999989
20
-1.92500000000008
30
0
11
-0.62
21
-1.92500000000008
31
0
0
LINE
5
123
100
AcDbEntity
8
0
100
AcDbLine
10
-0.62
20
-1.92500000000008
30
0
11
-0.62
21
-1.825000000000063
31
0
0
LINE
5
124
100
AcDbEntity
8
0
100
AcDbLine
10
-0.62
20
-1.475000000000054
30
0
11
-0.49999999999999989
21
-1.475000000000136
31
0
0
LINE
5
125
100
AcDbEntity
8
0
100
AcDbLine
10
-0.49999999999999989
20
-1.475000000000136
30
0
11
-0.49999999999999989
21
-1.825000000000065
31
0
0
LINE
5
126
100
AcDbEntity
8
0
100
AcDbLine
10
-0.49999999999999989
20
-1.825000000000065
30
0
11
-0.62
21
-1.825000000000063
31
0
0
LINE
5
127
100
AcDbEntity
8
0
100
AcDbLine
10
-0.62
20
-1.825000000000063
30
0
11
-0.62
21
-1.475000000000054
31
0
0
LINE
5
128
100
AcDbEntity
8
0
100
AcDbLine
10
-0.12000000000000011
20
-1.475000000000066
30
0
11
0
21
-1.475000000000136
31
0
0
LINE
5
129
100
AcDbEntity
8
0
100
AcDbLine
10
0
20
-1.475000000000136
30
0
11
0
21
-1.8250000000000652
31
0
0
LINE
5
130
100
AcDbEntity
8
0
100
AcDbLine
10
0
20
-1.8250000000000652
30
0
11
-0.12000000000000011
21
-1.8250000000000721
31
0
0
LINE
5
131
100
AcDbEntity
8
0
100
AcDbLine
10
-0.12000000000000011
20
-1.8250000000000721
30
0
11
-0.12000000000000011
21
-1.475000000000066
31
0
0
LWPOLYLINE
5
132
100
AcDbEntity
8
0
100
AcDbPolyline
90
4
70
1
43
0.0
10
-26.085000000000001
20
1.1049999999999105
10
-26.085000000000001
20
2.2049999999999406
10
-26.235000000000003
20
2.2049999999999299
10
-26.235000000000003
20
1.1049999999999001
0
LINE
5
133
100
AcDbEntity
8
0
100
AcDbLine
10
-26.085000000000001
20
2.2049999999999406
30
0
11
-26.085000000000001
21
1.1049999999999105
31
0
0
LWPOLYLINE
5
134
100
AcDbEntity
8
0
100
AcDbPolyline
90
4
70
1
43
0.0
10
-26.16
20
0.67499999999992011
10
-26.16
20
-0.57500000000007989
10
-25.960000000000004
20
-0.57500000000007989
10
-25.960000000000004
20
0.67499999999992011
0
LWPOLYLINE
5
135
100
AcDbEntity
8
0
100
AcDbPolyline
90
4
70
1
43
0.0
10
-26.560000000000002
20
0.67499999999992011
10
-26.560000000000002
20
-0.57500000000007989
10
-26.359999999999999
20
-0.57500000000007989
10
-26.359999999999999
20
0.67499999999992011
0
LWPOLYLINE
5
136
100
AcDbEntity
8
0
100
AcDbPolyline
90
4
70
1
43
0.0
10
-26.760000000000005
20
0.67499999999992011
10
-26.960000000000001
20
0.67499999999992011
10
-26.960000000000001
20
-0.57500000000007989
10
-26.760000000000005
20
-0.57500000000007989
0
LINE
5
137
100
AcDbEntity
8
0
100
AcDbLine
10
2.3400000000000003
20
0.67499999999992011
30
0
11
2.3400000000000003
21
-0.57500000000007989
31
0
0
LINE
5
138
100
AcDbEntity
8
0
100
AcDbLine
10
2.3400000000000003
20
-0.57500000000007989
30
0
11
2.1400000000000023
21
-0.57500000000007989
31
0
0
LINE
5
139
100
AcDbEntity
8
0
100
AcDbLine
10
2.1400000000000023
20
-0.57500000000007989
30
0
11
2.1400000000000015
21
0.67499999999992011
31
0
0
LINE
5
140
100
AcDbEntity
8
0
100
AcDbLine
10
2.1400000000000015
20
0.67499999999992011
30
0
11
2.3400000000000003
21
0.67499999999992011
31
0
0
LINE
5
141
100
AcDbEntity
8
0
100
AcDbLine
10
1.9400000000000004
20
-0.57500000000007989
30
0
11
1.7400000000000024
21
-0.57500000000007989
31
0
0
LINE
5
142
100
AcDbEntity
8
0
100
AcDbLine
10
1.7400000000000024
20
-0.57500000000007989
30
0
11
1.7400000000000002
21
0.67499999999992011
31
0
0
LINE
5
143
100
AcDbEntity
8
0
100
AcDbLine
10
1.7400000000000002
20
0.67499999999992011
30
0
11
1.9399999999999999
21
0.67499999999992011
31
0
0
LINE
5
144
100
AcDbEntity
8
0
100
AcDbLine
10
1.9399999999999999
20
0.67499999999992011
30
0
11
1.9400000000000004
21
-0.57500000000007989
31
0
0
LINE
5
145
100
AcDbEntity
8
0
100
AcDbLine
10
1.5399999999999994
20
-0.57500000000007989
30
0
11
1.3400000000000023
21
-0.57500000000007989
31
0
0
LINE
5
146
100
AcDbEntity
8
0
100
AcDbLine
10
1.3400000000000023
20
-0.57500000000007989
30
0
11
1.3400000000000023
21
0.67499999999992011
31
0
0
LINE
5
147
100
AcDbEntity
8
0
100
AcDbLine
10
1.3400000000000023
20
0.67499999999992011
30
0
11
1.5399999999999994
21
0.67499999999992011
31
0
0
LINE
5
148
100
AcDbEntity
8
0
100
AcDbLine
10
1.5399999999999994
20
0.67499999999992011
30
0
11
1.5399999999999994
21
-0.57500000000007989
31
0
0
LINE
5
149
100
AcDbEntity
8
0
100
AcDbLine
10
1.4650000000000003
20
3.8249999999999607
30
0
11
1.615
21
3.8249999999999607
31
0
0
LINE
5
150
100
AcDbEntity
8
0
100
AcDbLine
10
1.615
20
3.8249999999999607
30
0
11
1.6150000000000002
21
3.7749999999999604
31
0
0
LINE
5
151
100
AcDbEntity
8
0
100
AcDbLine
10
1.6150000000000002
20
3.7749999999999604
30
0
11
1.4650000000000005
21
3.7749999999999604
31
0
0
LINE
5
152
100
AcDbEntity
8
0
100
AcDbLine
10
1.4650000000000005
20
3.7749999999999604
30
0
11
1.4650000000000003
21
3.8249999999999607
31
0
0
LINE
5
153
100
AcDbEntity
8
0
100
AcDbLine
10
1.6150000000000002
20
3.7249999999999206
30
0
11
1.6150000000000002
21
3.7749999999999604
31
0
0
LINE
5
154
100
AcDbEntity
8
0
100
AcDbLine
10
1.6150000000000002
20
3.7249999999999206
30
0
11
1.4650000000000005
21
3.7249999999999495
31
0
0
LINE
5
155
100
AcDbEntity
8
0
100
AcDbLine
10
1.4650000000000005
20
3.7749999999999604
30
0
11
1.4650000000000005
21
3.7249999999999495
31
0
0
LINE
5
156
100
AcDbEntity
8
0
100
AcDbLine
10
1.4650000000000005
20
3.7749999999999604
30
0
11
1.6150000000000002
21
3.7749999999999604
31
0
0
LINE
5
157
100
AcDbEntity
8
0
100
AcDbLine
10
0.41500000000000026
20
3.7749999999999106
30
0
11
1.7750000000000004
21
3.7749999999999106
31
0
0
LINE
5
158
100
AcDbEntity
8
0
100
AcDbLine
10
1.7750000000000004
20
3.7749999999999106
30
0
11
1.7750000000000001
21
3.5749999999999202
31
0
0
LINE
5
159
100
AcDbEntity
8
0
100
AcDbLine
10
1.6150000000000002
20
3.5749999999999202
30
0
11
2.3400000000000003
21
3.5749999999999202
31
0
0
LINE
5
160
100
AcDbEntity
8
0
100
AcDbLine
10
-25.460000000000001
20
3.7749999999999204
30
0
11
0.84000000000000075
21
3.7749999999999204
31
0
0
LINE
5
161
100
AcDbEntity
8
0
100
AcDbLine
10
2.3400000000000003
20
3.5749999999999202
30
0
11
2.3400000000000003
21
1.5549999999999202
31
0
0
LWPOLYLINE
5
162
100
AcDbEntity
8
0
100
AcDbPolyline
90
4
70
1
43
0.0
10
1.4650000000000005
20
1.1049999999999001
10
1.6150000000000002
20
1.1049999999999105
10
1.615
20
2.2049999999999406
10
1.4650000000000003
20
2.2049999999999299
0
LINE
5
163
100
AcDbEntity
8
0
100
AcDbLine
10
0
20
-1.2250000000000829
30
0
11
1.1400000000000001
21
-1.2250000000000829
31
0
0
LINE
5
164
100
AcDbEntity
8
0
100
AcDbLine
10
1.1400000000000001
20
-1.2250000000000829
30
0
11
1.1400000000000012
21
-0.57500000000007989
31
0
0
LINE
5
165
100
AcDbEntity
8
0
100
AcDbLine
10
1.1400000000000012
20
-0.57500000000007989
30
0
11
1.3400000000000023
21
-0.57500000000007989
31
0
0
LINE
5
166
100
AcDbEntity
8
0
100
AcDbLine
10
1.9400000000000004
20
-0.57500000000007989
30
0
11
2.1400000000000023
21
-0.57500000000007989
31
0
0
LINE
5
167
100
AcDbEntity
8
0
100
AcDbLine
10
2.3400000000000003
20
0.67499999999992011
30
0
11
2.3400000000000003
21
1.4049999999999301
31
0
0
LINE
5
168
100
AcDbEntity
8
0
100
AcDbLine
10
-26.072500000000005
20
3.7749999999999204
30
0
11
-25.460000000000001
21
3.7749999999999204
31
0
0
LINE
5
169
100
AcDbEntity
8
0
100
AcDbLine
10
-26.235000000000003
20
3.8249999999999607
30
0
11
-26.085000000000001
21
3.8249999999999607
31
0
0
LINE
5
170
100
AcDbEntity
8
0
100
AcDbLine
10
-25.035000000000004
20
3.7749999999999204
30
0
11
-26.395000000000003
21
3.7749999999999204
31
0
0
LINE
5
171
100
AcDbEntity
8
0
100
AcDbLine
10
-26.235000000000003
20
3.5749999999999202
30
0
11
-26.960000000000001
21
3.5749999999999202
31
0
0
LINE
5
172
100
AcDbEntity
8
0
100
AcDbLine
10
-26.395000000000003
20
3.7749999999999204
30
0
11
-26.395000000000003
21
3.5749999999999202
31
0
0
LINE
5
173
100
AcDbEntity
8
0
100
AcDbLine
10
-26.960000000000001
20
3.5749999999999202
30
0
11
-26.960000000000001
21
1.5549999999999202
31
0
0
LINE
5
174
100
AcDbEntity
8
0
100
AcDbLine
10
-25.760000000000005
20
-1.2250000000000829
30
0
11
-24.620000000000001
21
-1.2250000000000829
31
0
0
LINE
5
175
100
AcDbEntity
8
0
100
AcDbLine
10
-25.760000000000005
20
-1.2250000000000829
30
0
11
-25.760000000000005
21
-0.57500000000007989
31
0
0
LINE
5
176
100
AcDbEntity
8
0
100
AcDbLine
10
-26.960000000000001
20
0.67499999999992011
30
0
11
-26.960000000000001
21
1.4049999999999301
31
0
0
ENDSEC
0
SECTION
2
OBJECTS
0
DICTIONARY
5
C
100
AcDbDictionary
3
ACAD_GROUP
350
D
3
ACAD_MLINESTYLE
350
17
0
DICTIONARY
5
D
100
AcDbDictionary
0
DICTIONARY
5
1A
330
C
100
AcDbDictionary
0
DICTIONARY
5
17
100
AcDbDictionary
0
ENDSEC
0
EOF
