M48
;Layer_Color=9474304
;FILE_FORMAT=4:4
METRIC,LZ
;TYPE=PLATED
T1F00S00C0.2000
T2F00S00C0.5000
T3F00S00C0.7400
T4F00S00C0.8500
T5F00S00C0.9000
T7F00S00C1.0000
T9F00S00C1.0500
T10F00S00C1.1000
T11F00S00C1.3000
T12F00S00C1.3500
T13F00S00C1.4000
T14F00S00C1.5500
T15F00S00C1.6002
T16F00S00C2.0000
T17F00S00C2.4000
T18F00S00C3.2000
T19F00S00C3.3000
;TYPE=NON_PLATED
T20F00S00C1.1000
T21F00S00C1.6000
%
T01
X00009Y00072
X00017
X00012Y001
X00024
X00042Y00099
Y00091
X00051Y00098
X00062Y001
X00072Y00101
X00074Y00122
Y00131
X00072Y00143
X00068Y00154
X0005Y00159
X00042
X00034Y0016
X00034Y00152
X00018Y00155
X00009
X00011Y00189
Y00204
X00013Y002125
X00024Y00212
X00037Y00208
Y0019
X00042Y00176
X0005Y00181
X0006
Y00189
X00072Y00188
Y002
X00083Y00198
X00072Y00213
X00059Y00208
X00109Y00204
Y00196
X00117Y00198
X00127Y002
X00128Y001895
Y00179
Y00164
X00108Y00166
Y00177
X0011Y00212
X00135Y002075
X00143Y0019
Y00182
Y00172
X00149Y00177
X00148Y0015
X0016Y00133
X001535Y001195
X00168Y0012
X00174
X001875Y001195
X001955Y001185
X00191Y00112
X00201Y00113
X00211
Y00119
X00216Y00106
X00208Y00102
X00195Y00097
X00204Y00073
X001985Y000675
X001955Y00051
X00193Y00031
X00194Y00015
X0018Y00019
X00171Y00025
X00182Y00038
X00207
X00241Y00029
Y00015
X0026
Y00029
X00262Y0006
X0025075Y00061
X0024475
X00228Y00062
X00226Y0007
X00227Y00083
Y00091
Y00107
X00233Y00078
X00241
X00212Y00079
X00159Y00066
X00157Y0004
X00148
X00134Y00022
X00136Y00008
X001185Y000085
X00121Y0003
X00102Y00042
X00086Y00041
X00087Y00021
X00072Y00016
Y00053
X00083Y00061
X00084Y00072
X00078Y00078
X00099Y00082
X00098Y00099
X00114Y00093
X00086Y00122
X00079Y00169
X00122Y00145
X00164Y00163
X00187Y00162
X00182Y00149
X00186Y00134
X001825Y001265
X00246Y00128
X00251Y00122
X00262Y00118
X00276Y00103
Y00089
X00277Y00077
X00285
X00278Y0006
X00285Y00052
X00291Y00046
X00299Y00053
X00312Y00067
X0032Y00066
X00328
X00338
X00339Y00048
X00332Y00038
Y00021
X00325Y00012
X00303Y00016
X00362Y00047
X0037Y00045
X00378Y00042
X00384Y00047
X00383Y00088
X00375Y00088
X00369
X00361Y00088
X00355
X00358Y00101
Y00107
X00342Y00098
X00337Y00092
X00333Y00105
X00313Y00103
X00314Y00122
X00306Y00125
X002945
X002865
X00289Y00139
X00297
X00305
X00302Y00153
X0031
X00295Y00157
X00287
X00287Y00165
X00295
Y00173
X00287
X002745Y00182
X00306
X00314
X00322
X0033Y0018
X003305Y001885
X0033Y00198
X00334Y00206
X003155Y002125
X003055Y00213
X00294Y00213
X00286
X00314Y00198
X00358Y00193
X00359Y00185
Y00172
X00373Y00171
Y00187
X00374Y00214
X00373Y0014
X00379
X00364Y0014
X00357Y00136
X00351
X00347Y00144
Y00152
X00339Y00154
Y00146
X00339Y00162
X00347
X00345Y00121
X00325Y00131
X00254Y0017
X00236
X00239Y0018
X0024Y001945
X0024Y002055
X002285Y00202
X00228Y0019225
Y0021275
X00208Y00199
X00208Y00186
X00214Y00172
X00224Y00167
X00185Y002
X00386Y00214
X00387Y00181
X00401
X00415Y00171
X00433Y0018
X00439
X00444Y00168
X00461Y00168
X00467
X00477Y00168
X00489Y00168
X00498
X00495Y00181
X00487
X00504
X00518
X00524
X00543Y00179
X00533Y00168
X00525Y00154
X005175
X00506Y001535
X00499Y001495
X00498Y00142
X00515
X00508Y00121
X00488
X00476Y00132
X004635Y00132
Y0014
X00452
X00444
X00438
X0043Y0014
X00424
X00416Y0014
X00404
X00396
X00388
X00386Y00107
Y00101
X00389Y00088
X00398Y000785
X00406Y000795
X00421Y00088
X00427
X00439Y00087
X00452Y00093
X00452Y00101
Y00107
X00469Y00104
Y00112
X004635Y00124
X00466Y00093
X00479Y000855
X00488Y00098
X00515Y001
X00533Y000995
X00536Y001095
X00533Y001155
Y001225
X00539Y00137
X00548
X00556Y00168
X00574Y00168
X0058Y00176
X00589Y00174
X00595Y00154
X00596Y00139
X00605Y001395
X006195Y0014
X0062Y001315
X00626Y001245
X00634
X00642Y001225
X0065
X00651Y00134
X00659Y00142
X00666Y00144
X00674
X00672Y00119
Y00096
X00663Y0008
X00648Y00075
X00645Y0009
X00644Y001
X00638Y00107
X0062Y00106
Y00098
X00609Y00081
X00615Y00069
X0063Y00057
X00594Y00052
X006Y00015
X00558
X0054
X00518Y00013
X00502
X00489Y00011
Y00019
Y00027
X0048Y00044
X00482Y00052
X00474Y0005
X00468
X00459Y00052
X00444Y0005
X00438
X00439Y00036
X00447
X0042Y0005
X00414Y00045
X00408
X004Y00039
X00392Y00039
X004Y00107
X0041
X00424Y00107
Y00101
X00494Y00068
X00498Y00059
X00499Y00047
X00518Y0006
X00526
X00533Y00064
X00534Y00072
X00521Y00073
X005155Y00078
X00524Y00084
X00532
X00546Y00081
X00586Y00106
X00592Y00101
X00631Y0014
X00642Y00142
Y0015
Y00161
Y00172
X00641Y00183
X00643Y0019
X00641Y00198
X00639Y00206
X00617Y00201
X00616Y00189
X00622Y001835
X0063
X00619Y00214
X00574
X0048
X00472Y00214
X00464Y00214
X00456
X00473Y00194
X00482
X00663Y00168
X00569Y00031
X00574Y00222
X00582
X0059Y00222
X00599
X00599Y0023
X00591
X00592Y00242
Y0025
X00584Y0025
X00576Y0025
X00576Y00258
X00572Y00265
X00569Y00277
X00569Y00285
X00561Y00285
X00553
X00549Y00295
X00541
X00533
X00521Y00293
X00521Y00285
X00513Y00285
X00513Y00277
X00521Y00277
X00529Y00277
X00529Y00285
X00533Y00268
X00541
X00549
X00557
X0056Y00259
Y0025
X0055Y00254
X00542
X00534
X00526
X00521Y00248
X00521Y0024
X00521Y00232
X00519Y00222
X00528
X00537Y00222
X00545
X00553
X00561
X00607Y00226
X00615
X00622Y00233
X0063
Y00219
X006285Y00253
X006205
Y00261
X006205Y00269
X006205Y00277
X006205Y00286
X006285
X006285Y00301
X00626Y00316
Y00324
Y00332
X00629Y0034
X00609Y00341
X00609Y00332999
X00612Y00321
X00599Y00318
Y0031
Y00302
X00602Y00294
X00602Y00286
X00592Y00285
X00594Y00293
X00581Y00295
X00581Y00287
X00587Y00301
X00589Y00318
X0058Y00318
X00572Y00325
X00569Y00333
X00569Y00341
X00568Y00355
Y00367
X00555Y00374
X00547
X00536Y00374
X00528
X00517
X00509
X0051Y00356
X00527
X00535
X00546
X00554
X00553Y00341
X00553Y00333
X00545Y00333
X00537Y00333
Y00325
X00545Y00325
X00541Y00315
X00533
X00525
X00512Y00316
X00504
X00496Y00316
X00489Y00317
X00489Y00325
Y00333
X00481
X00473
Y00341
X00465Y00341
X00465Y00333
X00465Y00325
X00457Y00325
X00457Y00317
X00465Y00316868
X00481Y00317
X00473Y00325
X00497Y00325
Y00333
X00513Y00333
X00513Y00325
Y00341
X00529
X00541Y00344
X00561Y00325
X00561Y00317
X00553
X00561Y00293
X00545Y00277
X00497
X00489
X00481
X00473Y00277
X00473Y00285
X00473Y00293
X00465
X00457Y00285
Y00277
X00465Y00277
X00465Y00269
X00465Y00257
X00468Y0025
X00474Y00254
X00482
X00484Y00261
X00474Y00262
X00481Y00269
X00489Y00269
X00497
X00497Y00285
X00489Y00285
X00489Y00293
X00509Y00295
X00513Y00254
X00505Y00254
X00493
X00494Y00244
X0051
X00509Y002255
X005005
X004945
X0048Y00222
X00472Y00222
X00464Y00222
X00456Y00222
X00457Y00254
X004455
X00438
Y00262
X0043Y00264
Y00257
X00432Y00249
X00433Y00276
X00441Y00277
X00441Y00285
X00434Y00291
X00427Y00298
X00426Y0028
X00418
X00412
X00398Y00281
X00402Y00294
X004Y003105
X00399Y003235
X00399Y00331
X00407
X00415Y00324
X00417Y003105
X00435Y00313
X00435Y00321
X00449Y00333
X00449Y00341
X00446Y00356
X00438
X00455
X00463
X00475
X00483
X00492
X00489Y00341
X00482Y00374
X00474
X00465
X00457
X00446
X00438
X00433Y00381
X00438Y00388
X00449Y00389
X00449Y00397
Y00405
X00457Y00405
X00457Y00397
X00465Y00397
X00465Y00389
X00473Y00397
X00481Y00397
X00489
X00489Y00389
X00497Y00389
X00497Y00397
X00497Y00405
X00489
X00473
X00473Y00413
X00465
X00472Y00421
Y00427
X00465Y00445
X00465Y00453
X00473Y00453
Y00461
X00481Y00461
X00489Y00461
X00489Y00453
X00489Y00445
X00481
X00489Y00437
X00497Y00445
Y00453
X00497Y00461
X00513Y00461
X00513Y00453
X00513Y00445
X00512Y00436
X00504Y00436
X00525Y00435
X00533
X00541
X00553Y00437
X00561
X00561Y00445
X00572Y00445
X00569Y00453
X00569Y00461
X00568Y00475
Y00487
X00585Y00488
X005875Y00473
X00585Y00465
Y00457
Y00449
Y00441
X00594Y00422
Y0041
X00593Y00395
X00599
X0059Y00385
Y00378
X00593Y0035
X00587Y00345
Y00335
X00595Y00332
X00599Y00326
X0061Y00304
X00611Y00294
X00609Y00277
X00602Y00275
X00602Y00267
X00592Y00267
Y00275
X006Y00258
X006Y0025
X00608Y0025
X006205Y00245
X00672Y00222
X00635Y00364
X0063215Y00376
X00625Y00383
X0061825Y00402
X00623Y00432
X00612
X00639Y00431
Y00448
Y00456
Y00464
Y00473
X00623Y00475
Y00467
X006235Y00483
X00613Y00491
X00611Y00506
Y00514
X00617Y00535
Y00543
X00621Y00555
X00603Y00553
Y00545
X00589Y00542
X00585Y00533
X00581Y00521
X00569Y00525
X00569Y00517
X00561Y00525
X00553
X00549Y00535
X00541
X00533
X00521Y00533
X00521Y00525
X00513Y00525
X00513Y00517
X00517Y00507
X00517Y00494
X00509
X00528
X00536
X00547Y00494
X00555
X00557Y00508
X00549
X00541
X00533
X00529Y00517
X00529Y00525
X00545Y00517
X00561Y00533
X00561Y00557
X00553
X00541Y00555
X00533
X00525
X00512Y00556
X00504
X00495Y0055
X00489Y00557
X00489Y00565
Y00573
X00481
X00473
Y00581
X00465Y00581
Y00573
X00465Y00565
X00457Y00565
X00449Y00565
X00449Y00573
X00449Y00581
X00445Y00596
X00437
X00456
X00464
X00475
X00483
X00492
X0051
X00527
X00535
X00546
X00554
X00568Y00595
Y00607
X00569Y00581
X00569Y00573
X00572Y00565
X00561Y00565
X00553Y00573
X00553Y00581
X00541Y00584
X00545Y00573
X00537Y00573
Y00565
X00513Y00565
X00513Y00573
X00513Y00581
X00529
X00497Y00573
Y00565
X00481Y00565
X004815Y00546
X004755
X00473Y00533
X00465
Y00525
X00465Y00517
X00465Y00509
X00463Y00496
X00455
X00447
X00439
X00435Y00503
X00427Y00506
X00434Y00514
X0044Y00509
X00449Y00509
X00449Y00517
X00449Y00525
X00473
X00473Y00517
X00481Y00517
X00481Y00509
X00489
X00497Y00509
Y00517
X00489
Y00525
Y00533
X00497Y00525
X00509Y00535
X0051Y00476
X00527
X00535
X00546
X00554
X00553Y00461
X00553Y00453
X00545Y00453
X00537Y00453
Y00445
X00541Y00464
X00529Y00461
X00533Y00415
X00541
X00549
X00561Y00413
X00561Y00405
X00553
X00545Y00397
X00541Y00388
X00549
X00557
X00569Y00397
X00569Y00405
X00581Y00401
X00529Y00405
X00529Y00397
X00533Y00388
X00517Y00387
X00513Y00397
X00513Y00405
X00521Y00405
X00521Y00413
X00509Y00415
X00497Y00421
X00481Y00389
X00433Y00396
X00438Y00402
X00427Y00409
X00418Y00403
X00412
X00407Y00413
X004Y00409
X00392Y00409
X00392Y00417
X00392Y00433
X00404Y00433
X004Y00457
X00392Y00457
X00392Y00465
X004
X00408
Y00457
X00408Y00473
X00416
X00427Y00473
X00426Y00465
X00437Y00462
Y00456
X00441Y00445
X00457Y00445
X00457Y00453
X00449Y00461
X00465Y00461
X00463Y00476
X00455
X00446
X00438
X00475
X00483
X00492
X00482Y00494
X00474
X00415Y00512
X00404Y00511
X00392Y00513
Y00537
X00404Y00536
X00417Y00532
X00423Y00532
X00421Y00548
X00415Y00548
X004Y00553
X00392
X00392Y00561
Y00585
X004Y00585
X00402Y00601
X00408
X00489Y00581
X00585Y00583
Y00575
Y00567
X006Y00567
X00607Y00571
X00605Y00561
X00604Y00596
X005875Y0051
X00606Y00477
X00636Y00489
X00612Y00362
X0042Y00358
X00418Y00371
X00424
X00428Y0034
X00387Y00338
X00392Y00357
X00392Y00377
X00392Y00385
X004Y00385
X004Y00393
Y00481
X00392
X00402Y0025
X00405Y00222
X0042Y00222
X00393Y00218
X00386Y00222
X00449Y00269
X00449Y00277
X00449Y00293
X00371Y00297
X00371Y00305
X00371Y00313
X00371Y00321
X0037Y00329
X00376Y00334
X00361Y00348
X00356Y00354
X00358Y00364
X00352
X00345Y00351
X00332Y0036
X00327Y00369
X00328Y00378
X00328Y00393
X00336Y00393
X00344
Y00401
Y00409
X00336
X00336Y00417
X00328Y00417
X00328Y00425
X00336
Y00433
X00344Y00433
Y00441
Y00449
X00352Y00449
X00352Y00457
X00352Y00465
Y00473
X00352Y00481
X00344
Y00497
X00352
X0036
X00368
Y00505
X00376
Y00497
X00376Y00489
Y00481
X00368
X00368Y00473
Y00465
X00376
X00384Y00465
Y00473
Y00481
X00376Y00473
Y00457
X00368
X00368Y00449
X00376
Y00441
Y00433
X00368
X00368Y00425
X00376Y00425
X00384
X00384Y00417
X00384Y00409
X00376Y00409
Y00417
X00368Y00417
X0036Y00425
X00352Y00425
Y00433
X0036Y00433
X0036Y00441
Y00449
Y00457
X0036Y00465
X00344Y00465
X00328
Y00473
Y00481
X0032
X00312
Y00473
Y00465
Y00457
Y00449
Y00441
Y00433
X0032Y00433
X00328Y00441
Y00449
Y00457
X00296
Y00465
Y00473
Y00481
Y00489
Y00497
Y00505
Y00513
Y00521
Y00529
X00296Y00537
X00296Y00545
Y00553
X00288Y00553
Y00561
X00296Y00561
X00296Y00569
Y00577
X00296Y00585
X00296Y00593
X00288Y00593
Y00585
X00288Y00569
X0028
X00272
Y00561
Y00553
X00264Y00553
Y00561
X00264Y00545
X00272
X0028Y00545
Y00537
X0028Y00529
Y00521
Y00513
Y00505
Y00497
Y00481
Y00473
Y00465
Y00457
X0028Y00449
X00272Y00449
X00264Y00449
Y00457
Y00465
Y00473
Y00481
X00256Y00481
X00248Y00481
X00248Y00473
Y00465
X00248Y00457
Y00449
X00256Y00449
X00248Y00441
Y00433
X00256
X00264
X00272
X00272Y00425
X0028Y00425
X0028Y00433
Y00441
X00296
Y00449
Y00433
X00288
Y00417
X0028Y00409
X00272Y00409
X00264
Y00417
Y00425
X00256
X00248
X0024
X00232Y00425
Y00433
X00232Y00441
X00232Y00449
X00232Y00457
Y00465
Y00473
X00224
X00216
X00208Y00473
X002Y00473
X002Y00489
X00208
X00216
Y00497
X00224
Y00505
X00216Y00505
X00208
X002
X00192
X00183Y00507
X00165Y00503
X00159Y00508
X00144
Y00502
X00137Y00496
X00136Y00488
Y00482
Y00474
X00147Y00467
X001547Y00464
X00163
X00171Y00463
X00179Y0046
X00192Y00457
X00198Y00452
X00208Y00457
X00216Y00457
Y00449
X00224
Y00465
X0024
Y00449
X00264Y00441
X00256Y00417
Y00409
X00248
X0024Y00409
Y00417
X00232Y00417
Y00409
Y00401
Y00393
Y00385
X00229Y00377
X00232Y00365
X0024Y00357
X0023Y00349
Y00341
Y00333
Y00325
Y00308
X00229Y00296
X00229Y002845
Y002735
X00229Y00254
Y00243
X00229Y00235
X00229Y00228
Y0022
X00236Y00224
X00245Y002395
Y002475
Y002555
Y002685
X0025Y00275
X00248Y00284
X00243Y00295
X002545Y00294
X002635
X002775
X002895
X00297Y00288
X00308Y00288
X00307Y002765
X00294Y00276
Y00266
X00279Y00265
X00275Y00272
X00261Y00262
X002565Y00238
Y0023
X002695
X00283Y0023
X00291
X00299
X00301Y00238
X00292Y00252
X0028
X00308Y002545
Y002635
X00323Y002595
Y002495
Y002395
X00328Y002325
X00323Y002265
X00313Y00224
X00323Y002695
Y00287
X00332Y00287
X00328Y00293
X00329Y00301
Y00309
X00321Y00309
X00313Y00309
X00305
Y00318
Y00326
X00321Y00326
Y00318
X0032Y00301
X00358Y00304
X00358Y00296
X00348Y00284
X00351Y0027
X00374Y00265
X00374Y00257
X00364Y0025
X00374Y00222
X00359Y00321
X00337Y00327
X00337Y00335
X0032Y00343
X00312
X00304
X00296
X00296Y00359
Y00367
X00304Y00368
X0031Y00363
X00316Y00358
X00316Y00368
X00315Y0038
X00298Y00383
X00298Y00375
X00281Y00374
X00281Y00364
X00274Y00359
X00269Y00374
X00264Y00385
Y00393
X00264Y00401
X00248Y00401
X00248Y00393
X00248Y00385
X002475Y00377
X00245Y0037
X00253Y00366
X0026Y00352
Y00343
Y00335
Y00327
X0026Y00319
X00247Y00309
X00215Y00311
X00203
X00197Y00316
X00189
X002Y00324
X00193Y00351
X00185
X00179
X00169
X00156Y00349
X00154Y00363
X00141
X00133Y00361
Y00369
X00135Y00377
X00122Y00378
Y003665
Y00347
X0012Y00339
Y003305
X00123Y00319
X00123Y00311
X00121Y00303
X00133Y00308
X001445Y00309
X001525
X00155Y00317
X00147Y00324
X00137
Y00336
X00147Y00336
X001345Y00351
X00108Y0035
X00104Y00377
X00086
X00083Y00395
Y00404
X00071Y00412
X00069Y00425
X00049Y00423
X000495Y00415
X00053Y00407
X00059
X0005Y00393
X00042Y00397
Y00389
X000445Y00381
Y00372
X00036Y00374
X000525Y00367
X00064
X00073Y003675
Y00347
X0005Y00349
X00044Y00344
X00046Y00337
X00042Y0033
X00033Y00316
X00021Y00319
Y00342
Y0035
X00019Y00382
X00006Y00389
Y00399
X00031Y00397
X00019Y00419
X00018Y00452
X00006
X00006Y00468
Y00477
Y00487
Y00497
X00029Y00515
X00038
X00057Y00514
Y00522
X00052Y00528
X00054Y00506
X0005Y00495
Y00475
X000575Y00461
X00069Y00462
X00071Y00473
X00071Y00504
Y00514
X00084Y00504
X0011Y00493
X00115Y00487
X0011Y00472
X00111Y00465
X00113Y00457
X00108Y00451
X0011Y00438
X00123Y004415
Y004305
X00123Y004225
X00134Y0043
X00136Y00442
X00152Y00445
X00148Y00419
X00166
X00174Y00422
X00178Y00408
X00193Y00413
X002Y00417
X00208
X00216Y00417
X00216Y00409
X00224Y00409
X00216Y00401
X00208Y00401
X00216Y00393
Y00385
X002Y00385
Y00377
X00193Y00381
X00193Y00389
X002Y00393
X00185Y00385
X00179
X00167
X00161
X00159Y00402
X00147Y00401
X00124Y00395
X00104Y00398
X0011Y00412
X00126Y00456
X00122Y005005
X00123Y005125
X00122Y005255
X0013Y005255
X001435Y005255
X00146Y00543
Y00558
X00154
X00162Y00554
X00162Y00546
X00163Y00538
X00171Y00538
X00179Y00539
X00187Y00539
X00186Y00558
X00194
X00198Y00565
X002Y00553
X00208
X00216Y00553
X00224
X00232
Y00561
X00232Y00569
X0024Y00569
Y00561
X00248
Y00553
X0024
Y00545
X00232Y00545
X00232Y00537
X0024
X00248
X00256Y00537
X00264
Y00529
Y00521
Y00513
Y00505
Y00497
X00248Y00497
X00248Y00505
X0024
X0024Y00513
Y00521
X00232
X00224
X00216
Y00529
X00216Y00537
X00224
X00224Y00545
X00248Y00545
Y00529
Y00513
X0024Y00489
X00232
X00232Y00497
X00224Y00489
X00224Y00481
X00216
X00172Y00485
X00174Y00521
X00166
X00169Y00558
X00178
X00171Y00566
X00162Y00562
X00156Y00577
X00148
X00139
X00122Y00578
X00115Y00589
Y00598
Y00609
X001415Y00593
X00157Y006045
X00166
X00167Y00591
X00175Y00591
X00183Y00591
X00186Y00604
X00197Y00609
X002Y00585
X00195Y00579
X00187Y00575
X00177
X00168Y00577
X00138Y00558
X0012Y00561
X00112
X00128Y00539
X00074Y00543
X00076Y00571
X00083Y00579
X00073Y00588
Y00604
X0005Y006
Y00592
X000415Y00585
Y00577
X00036Y00569
X00042Y00563
X00045Y00551
X00051
X00057Y00559
X00029Y00556
X00026Y00563
X00025Y0055
X00007Y00557
X00006Y00566
X00006Y00576
X00006Y00585
X00006Y00594
X00026Y00592
X00034
X00026Y00577
X00029Y00473
Y004605
X00048Y00441
X00056Y00437
X00006Y00372
X00021Y00283
X0002Y00271
X00023Y0024
X00011Y00226
X00051Y00221
X00066Y00226
X00074
X00077Y0024
X00057Y00241
X00056Y00256
X00062
X00067Y00266
X00078Y0027
X00069Y00286
Y00294
X00083Y00302
Y0032
Y00329
X00064Y00325
X00051Y00262
X00044Y00258
Y0025
X00122Y00241
X00127Y00235
X00123Y00222
X00131
X00142Y002295
X00144Y00241
X00153Y00233
X00165Y00224
X00173Y00223
X00189Y00219
X00203Y002185
X002025Y002265
X00193Y00247
X00189Y00254
X00199Y00253
X001775Y002535
X00183Y00265
X00171Y00268
X00173Y00276
Y00286
X00181Y00281
X00187Y00276
Y00287
X002Y00284
X00171Y00298
X00171Y00307
Y00315
X0016Y00304
X00171Y00365
X00198Y00365
X00203Y00362
X00208Y00355
X00216Y00366
X00224Y00425
Y00433
X00216
X00208Y00441
X00288Y00481
X00312Y00497
Y00505
Y00513
Y00521
Y00529
X00312Y00537
X00312Y00545
Y00553
X00312Y00561
X00312Y00569
X0032
Y00577
X00312
X0032Y00585
X00312Y00593
Y00601
Y00609
X00291Y00611
X00288Y00601
X00268Y00604
X00268Y00596
X00268Y00588
X00264Y00577
X00248Y00569
X00236Y00587
X00236Y00595
X00228Y00595
Y00603
X00236Y00603
X00236Y00611
X00228
X00228Y00587
X00212Y00587
X00216Y00569
X0028015Y0056115
X0028Y00553
X00288Y00545
X00304Y00537
X00328
X00328Y00529
X00328Y00521
Y00513
X00328Y00505
Y00497
X00352Y00505
X00352Y00513
X00344Y00513
X00344Y00521
X00344Y00529
X00344Y00537
X00344Y00545
X00352
X0036Y00545
X00368
Y00537
Y00529
X0036
X0036Y00537
X00376
Y00529
X00384
Y00537
X00384Y00545
Y00553
X00376Y00553
Y00545
X00376Y00561
X00376Y00569
X00376Y00577
X00376Y00585
X00376Y00593
X00384
X00384Y00585
Y00569
X00368Y00569
X00368Y00561
X00368Y00553
X0036
Y00561
X00352
X00352Y00569
X00344
X00344Y00561
Y00553
X00352Y00553
X0036Y00569
Y00577
X0036Y00585
X0036Y00593
X00344Y00589
X00332Y00593
X00352Y00577
X00328Y00545
X00352Y00521
X0036Y00521
X00368Y00513
X00376Y00513
X00384Y00513
X00384Y00521
X00376Y00521
X00384Y00505
X0036
X00368Y00489
X00368Y00441
X00384
X00384Y00449
X00384Y00401
Y00393
X00384Y00385
X00384Y00377
X00372Y00381
X00374Y00369
X00376Y00393
X00376Y00401
X00352Y00401
X00344Y00385
X00344Y00377
X0032Y00401
Y00409
X00328
X0032Y00417
X00312Y00417
X00312Y00409
X00304
X00304Y00401
X00296
X0028Y00393
X0032Y00351
X00286Y00314
X002815Y00309
X00344Y00425
X0011Y00273
Y00223
X00108Y00624
X00113Y0063
X00114Y00638
Y00646
X001155Y006545
Y006625
X00115Y00673
Y00684
Y00692
Y00706
X00103Y00702
X00095Y00702
Y0071
Y00719
X00111Y00725
Y00731
X0014Y00729
X00148Y007288
X00154
X001435Y00712
X001285
X00134Y00694
X00139Y00684
X00139Y00673
X0015Y0067
X00162
X001635Y006542
X001728Y006545
X00173Y00677
X00177Y00689
X0016Y00687
X0015
X00146Y00654
X00134Y00647
X001335Y0063
X0014Y00626
X00146Y00621
X00154Y00622
X001535Y0063
X001635
X001735
X00166Y00621
X00157Y00614
X001415Y00614
X00131Y00622
X00184Y00615
X00201Y00623
X00209
X00213Y00615
X00228Y00625
X00228Y00637
X00229Y00658
Y00666
Y00674
Y00682
X00208Y00677
X00197Y006785
Y006925
Y00703
X00201Y00711
X00202Y00724
X00196
X0021
X00186Y00734
X001835Y00712
X00168
X00165Y00758
X00161Y00754
X00162Y007895
X00154
X00178Y00799
X00176Y00814
X0018Y00822
X00186
X00195Y00818
X00208Y0081
X00216
X00229
Y00818
X00234Y00828
X00245Y00807
X00253
X00261
X00269
X00277Y00807
X00285
X00285Y00815
X00277Y00815
X00283Y00823
X00291Y00823
X00299
X00305Y0081
X00308Y00797
X00314Y00791
X00319Y00785
X00316Y00777
X00325Y00774
X00334Y00785
Y00793
X00347Y00786
Y00778
X00355Y00774
X0037
X0038Y0075
X00361Y00748
X00353Y00739
X00362Y0073
X00374Y00725
X00372Y00708
X00378
X00379Y00668
X00371Y0066
Y00652
X0037Y00641
X00357Y00645
Y00637
Y00629
X00360385Y00615
X00338Y00618
X00323Y00617
X00315
X00307
X00296Y00617
X00288Y00628
X00291Y00636
Y00644
Y00652
Y0066
Y00668
X00291Y00679
X00288Y00693
Y00701
X00276Y00703
Y00692
X00264Y00711
X00256
X00242Y00704
X00234
X00246Y007315
Y007435
X00253Y007485
Y007365
X00279Y00731
Y00743
X00284Y00764
X00284Y00772
X00285Y0078
X00293
X00304Y00782
Y00774
X00299Y00789
X00287
Y00799
X00276Y00788
X00269Y00792
X00254Y00796
X00247Y00784
X00257Y00776
X0023Y00754
X00219Y007895
X00211
X00203
X00195
X00195Y00855
X00188Y00851
X00182
X00165Y00854
X00152
X00144Y00853
Y00845
X00145Y00837
Y00831
X00159Y00834
X00165
X00158Y00861
Y00869
Y00877
X00174Y00873
Y00881
X00182Y00885
X00192
X00202
X00212
X0022
X00222Y00877
X00221Y008695
Y00858
X00206Y0086
X0019Y008705
X00174Y00865
X00121Y00863
Y00871
X001Y00873
X00106Y00886
X00109Y00899
X00098Y00911
X00104Y00923
X00134Y00938
X00158Y00934
X00144Y00907
Y00897
X00134
Y00907
X00078Y00889
X0008Y00876
X00067Y00858
X00063Y00852
X00051Y00851
X00039Y0085
X00031
X00007
X00012Y00831
X00007Y00811
X00029Y00809
X000385Y008085
X00038Y00796
Y00788
Y0078
Y00772
X00033Y00767
X00027Y00762
X00039Y00759
Y00751
Y0074
Y00732
Y00724
Y00716
Y00708
Y007
Y00692
Y00684
Y00676
X00035Y00669
X00035Y00661
X00026Y0066
Y00648
X00034
X00039Y00654
X00039Y006385
X00038Y0063
Y00622
X0005Y00612
X00058Y0064
Y00648
X000575Y006575
X00064Y00682
X00073Y00679
X00079Y00674
X00107Y00678
X00104Y00657
X00095
X00075Y00627
X00022Y00635
X0001Y00622
X00006Y00663
Y00674
X00025Y0068
X0001Y007
X00031Y00717
Y00739
X00027Y00746
X0001Y00743
Y00787
X00029Y00789
X00058Y007795
Y007715
X00061Y0076
X00067
X00083
X00091
Y00779
X001Y007895
X00114
Y00806
X00122Y00806
X00133Y0081
X001Y00806
X00092Y00801
X00058Y0081
X00068Y00821
X000845Y00849
X00092Y00857
X0007Y00777
X00058Y00738
X00057Y007185
X00057Y007085
X00057Y006975
X00197Y0066
Y00652
X002Y00644
X00206Y00637
X00214Y00659
X00299Y0066
Y00652
X00318Y0065
X00329
X00342
X00318Y00662
X00332Y00689
X0034
X00334Y00701
X00312Y00698
Y00709
X00306Y007295
X00302Y007365
Y007465
X003Y00755
X00315Y00753
X00308Y007415
X00324Y00729
X0034Y00753
X00325Y0081
X00325Y008378
X00315Y00831
X00309Y00843
Y00851
X00309Y00889
Y00895
X00282Y0089
X00275Y00887
X00267
X00268Y009115
X002775
X00267Y00925
Y00933
X00251Y00924
X00248Y00867
X00256
X00265Y00848
X00278Y00859
X00331Y00879
X0034Y00871
X00339555Y00888
X0035Y00891
X0035Y00883
X00365
X00362Y00871
X0037
Y00907
X00376
X00362Y00907
X00356
X00355Y008378
X0034Y00831
X0037
X00384Y00836
X00376Y008055
X00355Y0081
X0029Y00716
X00268Y00612
X00404Y00617
X00407Y00622
X00428Y00616
X00437Y00614
X00445
X00456
X00464
X00475
X00483
X00481Y00629
X00489
X00497Y00629
X00497Y00637
X00497Y00645
X00489
Y00637
X00481Y00637
X00473Y00637
X00465Y00637
X00465Y00645
X00457Y00645
X00449
X00449Y00653
X00457
X00465
X00468Y00665
X00469Y00671
X00473Y00685
X00473Y00693
Y00701
X00465Y00701
X00449Y00701
X00449Y00693
X00449Y00685
X00457Y00685
X00438Y00686
X00437Y00716
X00445
X00454
X00462
X0047
X00478
X00486
X00494Y00713
Y00726
X00502Y00726
X00502Y00734
X00487Y00734
X0049Y0074
X00483Y00746
X00477
X00498Y0075
X00506
X00514
X00522
X00523Y00739
X00515
X0052Y00726
X00528
X00536
X00534Y00716
X00526
X00509Y00716
X00513Y00701
X00513Y00693
X00513Y00685
X00512Y00676
X00504
X00496Y00671
X00489Y00677
X00489Y00685
Y00693
X00481
X00489Y00701
X00497Y00693
Y00685
X00481Y00677
X00489Y00653
X00481Y00645
X00465Y00629
X00449
X00449Y00637
X00436Y00637
X00438Y00622
Y00653
X00397Y00666
X004Y00674
X00406Y00679
X00394Y00679
X00385Y00668
X00389Y00708
X00395
X00396Y00731
X0039
X00403Y00735
X00402Y00746
X0041
X00418Y00749
Y00757
X0042Y00768
X00428
X00436
X00445
X00453
X00452Y00786
Y00792
X004598Y007968
Y008028
X0046105Y0082195
X0046105Y0082995
X00473Y00831
Y00837
X00478Y00816
Y00808
X00466Y00782
X0044Y00789
X00434
X00426
X0042
X00407Y00792
Y00786
X00393Y00785
X00387Y00791
X00388Y00775
X00396
X00401Y00757
X00409Y00721
X00454Y00708
X00529Y00701
X00541Y00704
X00545Y00693
X00553Y00693
X00553Y00701
X00554Y00716
X00546
X00568Y00715
X00577Y00718
X0058Y00733
X00575Y00739
X00568Y00743
X00561Y00747
Y00739
X00548
X00538
X00543Y00745
X00553
X00533
X00535Y00787
X00518Y00784
X00512
X00565Y0076
X005885Y00763
X00587Y00776
X00598Y007755
X00612Y00777
X00612Y00767
X00626Y00774
X00633
X00647Y00771
X00655
X00666
X00671Y00777
X00688Y00774
X0068Y0075
X00671Y00752
X00667Y00757
X00668Y00731
X00669Y00722
X0068Y00714
Y00702
X00672Y007
X00677Y00687
X00685
X00693
Y00663
X00689Y00654
X00686Y00669
X00677Y00668
X00669
X00652Y00669
X00643
Y00677
X00635Y00671
X00627Y00671
X00623Y00664
X00615
X00615Y00672
Y00683
X00612Y00695
X00626Y00693
X00637Y00694
X00645
X00653
X00651Y00686
X00664
X00659Y00706
X0064Y00718
X00628
X00616Y00719
Y00729
Y00739
X00627Y0074
X00645
X006425Y00784
X006485
X00657Y00784
X00667Y00795
X00644Y00797
X00641Y00816
Y00831
Y00839
X00644Y00852
X00655Y0086
X00666Y00851
X00655Y00831
Y00823
X00622Y00822
X00578Y00836
Y00844
X00551Y00834
X00538Y00876
Y00884
X00522Y00883
X00522Y00891
X00543Y00897
Y00905
X00551
X00559Y009105
X00574Y00917
X00574Y00925
X00586Y009305
X00593Y00925
X00593Y00917
X00593Y00909
X00601Y00905
X00615
X00615Y00891
X00607
X00596
X006Y0086
X00639Y00868
X00646Y00876
X00622Y00921
X00601Y00928
X00544Y00925
X00544Y00917
X00525
X00535Y009305
X004995Y00937
X004955Y00926
X00484Y00925
Y00934
X00485Y00895
Y00887
Y00879
Y00871
X00459Y00862
X00451
X00449Y00822
X0044
X00432
X00424
Y0083
X0041Y00824
X004
X0039Y00831
X00388Y00809
X00403Y00806
X00409
X00417
X00431Y00803
X00408Y00871
X004Y00871
X00385
X00385Y0088
X00393
X00392Y00904
Y0091
X00389Y00918
X00501Y00909
X00507
X00532Y0087
X00565Y00726
X00569Y00701
X00569Y00693
X00572Y00685
X00561Y00685
X00561Y00677
X00553
X00541Y00675
X00533
X00525
X00537Y00685
Y00693
X00533Y00655
X00541
X00549
X00561Y00653
X00561Y00645
X00553
X00545Y00637
X00541Y00628
X00549
X00557
X00555Y00614
X00547
X00536
X00528
X00517
X00509
X00517Y00627
X00513Y00637
X00513Y00645
X00521Y00645
X00521Y00653
X00509Y00655
X00529Y00645
X00529Y00637
X00533Y00628
X00569Y00637
X00569Y00645
X00581Y00649
X00594Y0065
Y00658
X00589Y00665
X00592Y00672
X00596Y00683
X00629Y00681
X00623Y00656
X00613
X00635Y00648
X00643Y00661
X00649Y00656
X00671Y00651
X00688Y00726
X00599Y00758
T02
X00694Y000674
Y000939
X00694Y00119
Y00148
T03
X00032Y00257
X00042Y002697
Y002824
X00032Y002951
X00042Y003078
Y003205
X00032Y003332
T04
X0022675Y00052
X0027125
T05
X0010104Y0074513
X0012136
X0014168
X0013152Y0077053
X0015184
X0017216
X0019248
X002128
X0020264Y0074513
X0018232
X0022296
X001112Y0077053
T07
X00525Y007961
X0055
X0057
X00595
Y008223
X0057
X0055
X00525
T09
X00349Y00698
T10
X00025Y00198
X000504
X000962Y002092
Y001838
Y001584
X00655Y001584
X006804
Y001838
Y002092
X00655
Y001838
X00684Y001314
Y00106
Y000806
X006804Y002346
Y0026
Y002854
Y003108
Y003362
Y003616
Y00387
Y004124
Y004378
Y004632
Y004886
Y00514
Y005394
X00655
Y005648
Y005902
X006804
Y005648
X00655Y00514
Y004886
Y004632
Y004378
Y004124
Y00387
Y003616
Y003362
Y003108
Y002854
Y0026
Y002346
X000962Y002346
Y0026
Y002854
Y003108
Y003362
Y003616
Y00387
Y004124
Y004378
Y004632
Y004886
Y00514
Y005394
Y005648
Y005902
Y006156
Y00641
X000444Y00863
X00019
X006804
Y008376
Y008122
Y007868
Y007614
Y00736
Y00641
X00655
Y006156
X006804
T11
X0020725Y00022
X0029075
X00237184Y0087467
Y0090007
Y0092547
X00086816
Y0090007
T12
X00037Y002303
Y003599
T13
X00545Y00036
X00613
X006075Y00117
X00579Y00126
X005505Y00117
T14
X00591Y00698
T15
X00074116Y0083657
X00249884
T16
X00145Y0028
X0061Y00625
T17
X004943Y007926
Y008494
X006257
Y007926
T18
X00035Y00035
X00665
X00035Y00915
X00665
T19
X0011374Y0083657
X0021026
T20
X00345Y00195
X00579Y00092
Y00022
T21
X00595Y00195
M30
